{
  "lanes": [
    {
      "id": "lane-mpr0lmu9-2",
      "engineId": "wavetable",
      "name": "Pads 1",
      "clips": [
        {
          "id": "clip-mpr0lmu9-1",
          "name": "Pads 1",
          "lengthBars": 48,
          "notes": [
            {
              "start": 0,
              "duration": 1149,
              "midi": 70,
              "velocity": 66
            },
            {
              "start": 0,
              "duration": 1533,
              "midi": 66,
              "velocity": 66
            },
            {
              "start": 0,
              "duration": 1533,
              "midi": 42,
              "velocity": 66
            },
            {
              "start": 0,
              "duration": 1533,
              "midi": 61,
              "velocity": 66
            },
            {
              "start": 1152,
              "duration": 381,
              "midi": 68,
              "velocity": 66
            },
            {
              "start": 1536,
              "duration": 1533,
              "midi": 63,
              "velocity": 66
            },
            {
              "start": 1536,
              "duration": 1533,
              "midi": 66,
              "velocity": 66
            },
            {
              "start": 1536,
              "duration": 1533,
              "midi": 58,
              "velocity": 66
            },
            {
              "start": 1536,
              "duration": 1533,
              "midi": 39,
              "velocity": 66
            },
            {
              "start": 3072,
              "duration": 1149,
              "midi": 70,
              "velocity": 66
            },
            {
              "start": 3072,
              "duration": 1533,
              "midi": 42,
              "velocity": 66
            },
            {
              "start": 3072,
              "duration": 1533,
              "midi": 66,
              "velocity": 66
            },
            {
              "start": 3072,
              "duration": 1533,
              "midi": 61,
              "velocity": 66
            },
            {
              "start": 4224,
              "duration": 381,
              "midi": 68,
              "velocity": 66
            },
            {
              "start": 4608,
              "duration": 1533,
              "midi": 39,
              "velocity": 66
            },
            {
              "start": 4608,
              "duration": 1533,
              "midi": 63,
              "velocity": 66
            },
            {
              "start": 4608,
              "duration": 1533,
              "midi": 66,
              "velocity": 66
            },
            {
              "start": 4608,
              "duration": 1533,
              "midi": 58,
              "velocity": 66
            },
            {
              "start": 6144,
              "duration": 1149,
              "midi": 70,
              "velocity": 66
            },
            {
              "start": 6144,
              "duration": 1533,
              "midi": 42,
              "velocity": 66
            },
            {
              "start": 6144,
              "duration": 1533,
              "midi": 61,
              "velocity": 66
            },
            {
              "start": 7296,
              "duration": 381,
              "midi": 68,
              "velocity": 66
            },
            {
              "start": 6144,
              "duration": 1533,
              "midi": 66,
              "velocity": 66
            },
            {
              "start": 7680,
              "duration": 1533,
              "midi": 39,
              "velocity": 66
            },
            {
              "start": 7680,
              "duration": 1533,
              "midi": 58,
              "velocity": 66
            },
            {
              "start": 7680,
              "duration": 1533,
              "midi": 66,
              "velocity": 66
            },
            {
              "start": 7680,
              "duration": 1533,
              "midi": 63,
              "velocity": 66
            },
            {
              "start": 9216,
              "duration": 1149,
              "midi": 70,
              "velocity": 66
            },
            {
              "start": 9216,
              "duration": 1533,
              "midi": 42,
              "velocity": 66
            },
            {
              "start": 9216,
              "duration": 1533,
              "midi": 66,
              "velocity": 66
            },
            {
              "start": 9216,
              "duration": 1533,
              "midi": 61,
              "velocity": 66
            },
            {
              "start": 10368,
              "duration": 381,
              "midi": 68,
              "velocity": 66
            },
            {
              "start": 10752,
              "duration": 1533,
              "midi": 39,
              "velocity": 66
            },
            {
              "start": 10752,
              "duration": 1533,
              "midi": 63,
              "velocity": 66
            },
            {
              "start": 10752,
              "duration": 1533,
              "midi": 58,
              "velocity": 66
            },
            {
              "start": 10752,
              "duration": 1533,
              "midi": 66,
              "velocity": 66
            },
            {
              "start": 12288,
              "duration": 1149,
              "midi": 70,
              "velocity": 66
            },
            {
              "start": 12288,
              "duration": 1533,
              "midi": 42,
              "velocity": 66
            },
            {
              "start": 12288,
              "duration": 1533,
              "midi": 61,
              "velocity": 66
            },
            {
              "start": 13440,
              "duration": 381,
              "midi": 68,
              "velocity": 66
            },
            {
              "start": 12288,
              "duration": 1533,
              "midi": 66,
              "velocity": 66
            },
            {
              "start": 13824,
              "duration": 1533,
              "midi": 39,
              "velocity": 66
            },
            {
              "start": 13824,
              "duration": 1533,
              "midi": 58,
              "velocity": 66
            },
            {
              "start": 13824,
              "duration": 1533,
              "midi": 66,
              "velocity": 66
            },
            {
              "start": 13824,
              "duration": 1533,
              "midi": 63,
              "velocity": 66
            },
            {
              "start": 15360,
              "duration": 1149,
              "midi": 70,
              "velocity": 66
            },
            {
              "start": 15360,
              "duration": 1533,
              "midi": 42,
              "velocity": 66
            },
            {
              "start": 15360,
              "duration": 1533,
              "midi": 61,
              "velocity": 66
            },
            {
              "start": 16512,
              "duration": 381,
              "midi": 68,
              "velocity": 66
            },
            {
              "start": 15360,
              "duration": 1533,
              "midi": 66,
              "velocity": 66
            },
            {
              "start": 16896,
              "duration": 1533,
              "midi": 39,
              "velocity": 66
            },
            {
              "start": 16896,
              "duration": 1533,
              "midi": 58,
              "velocity": 66
            },
            {
              "start": 16896,
              "duration": 1533,
              "midi": 66,
              "velocity": 66
            },
            {
              "start": 16896,
              "duration": 1533,
              "midi": 63,
              "velocity": 66
            }
          ]
        }
      ],
      "enginePresetName": "factory:PAD Sweep Wide"
    },
    {
      "id": "lane-mpr0lmu9-4",
      "engineId": "fm",
      "name": "Pads 2",
      "clips": [
        {
          "id": "clip-mpr0lmu9-3",
          "name": "Pads 2",
          "lengthBars": 48,
          "notes": [
            {
              "start": 6144,
              "duration": 573,
              "midi": 66,
              "velocity": 89
            },
            {
              "start": 6144,
              "duration": 573,
              "midi": 70,
              "velocity": 89
            },
            {
              "start": 6720,
              "duration": 189,
              "midi": 68,
              "velocity": 89
            },
            {
              "start": 6720,
              "duration": 189,
              "midi": 65,
              "velocity": 89
            },
            {
              "start": 6912,
              "duration": 573,
              "midi": 66,
              "velocity": 89
            },
            {
              "start": 6912,
              "duration": 573,
              "midi": 70,
              "velocity": 89
            },
            {
              "start": 7488,
              "duration": 189,
              "midi": 68,
              "velocity": 89
            },
            {
              "start": 7488,
              "duration": 189,
              "midi": 65,
              "velocity": 89
            },
            {
              "start": 7680,
              "duration": 573,
              "midi": 63,
              "velocity": 89
            },
            {
              "start": 7680,
              "duration": 573,
              "midi": 66,
              "velocity": 89
            },
            {
              "start": 8256,
              "duration": 189,
              "midi": 65,
              "velocity": 89
            },
            {
              "start": 8256,
              "duration": 189,
              "midi": 61,
              "velocity": 89
            },
            {
              "start": 8448,
              "duration": 573,
              "midi": 66,
              "velocity": 89
            },
            {
              "start": 8448,
              "duration": 573,
              "midi": 63,
              "velocity": 89
            },
            {
              "start": 9024,
              "duration": 189,
              "midi": 68,
              "velocity": 89
            },
            {
              "start": 9024,
              "duration": 189,
              "midi": 65,
              "velocity": 89
            },
            {
              "start": 9216,
              "duration": 573,
              "midi": 66,
              "velocity": 89
            },
            {
              "start": 9216,
              "duration": 573,
              "midi": 70,
              "velocity": 89
            },
            {
              "start": 9792,
              "duration": 189,
              "midi": 68,
              "velocity": 89
            },
            {
              "start": 9792,
              "duration": 189,
              "midi": 65,
              "velocity": 89
            },
            {
              "start": 9984,
              "duration": 573,
              "midi": 70,
              "velocity": 89
            },
            {
              "start": 9984,
              "duration": 573,
              "midi": 66,
              "velocity": 89
            },
            {
              "start": 10560,
              "duration": 189,
              "midi": 68,
              "velocity": 89
            },
            {
              "start": 10560,
              "duration": 189,
              "midi": 65,
              "velocity": 89
            },
            {
              "start": 10752,
              "duration": 573,
              "midi": 63,
              "velocity": 89
            },
            {
              "start": 10752,
              "duration": 573,
              "midi": 66,
              "velocity": 89
            },
            {
              "start": 11328,
              "duration": 189,
              "midi": 61,
              "velocity": 89
            },
            {
              "start": 11328,
              "duration": 189,
              "midi": 65,
              "velocity": 89
            },
            {
              "start": 11520,
              "duration": 573,
              "midi": 66,
              "velocity": 89
            },
            {
              "start": 11520,
              "duration": 573,
              "midi": 63,
              "velocity": 89
            },
            {
              "start": 12096,
              "duration": 189,
              "midi": 65,
              "velocity": 89
            },
            {
              "start": 12096,
              "duration": 189,
              "midi": 68,
              "velocity": 89
            },
            {
              "start": 12288,
              "duration": 573,
              "midi": 66,
              "velocity": 89
            },
            {
              "start": 12288,
              "duration": 573,
              "midi": 70,
              "velocity": 89
            },
            {
              "start": 12864,
              "duration": 189,
              "midi": 68,
              "velocity": 89
            },
            {
              "start": 12864,
              "duration": 189,
              "midi": 65,
              "velocity": 89
            },
            {
              "start": 13056,
              "duration": 573,
              "midi": 66,
              "velocity": 89
            },
            {
              "start": 13056,
              "duration": 573,
              "midi": 70,
              "velocity": 89
            },
            {
              "start": 13632,
              "duration": 189,
              "midi": 68,
              "velocity": 89
            },
            {
              "start": 13632,
              "duration": 189,
              "midi": 65,
              "velocity": 89
            },
            {
              "start": 13824,
              "duration": 573,
              "midi": 63,
              "velocity": 89
            },
            {
              "start": 13824,
              "duration": 573,
              "midi": 66,
              "velocity": 89
            },
            {
              "start": 14400,
              "duration": 189,
              "midi": 65,
              "velocity": 89
            },
            {
              "start": 14400,
              "duration": 189,
              "midi": 61,
              "velocity": 89
            },
            {
              "start": 14592,
              "duration": 573,
              "midi": 66,
              "velocity": 89
            },
            {
              "start": 14592,
              "duration": 573,
              "midi": 63,
              "velocity": 89
            },
            {
              "start": 15168,
              "duration": 189,
              "midi": 68,
              "velocity": 89
            },
            {
              "start": 15168,
              "duration": 189,
              "midi": 65,
              "velocity": 89
            },
            {
              "start": 15360,
              "duration": 573,
              "midi": 66,
              "velocity": 89
            },
            {
              "start": 15360,
              "duration": 573,
              "midi": 70,
              "velocity": 89
            },
            {
              "start": 15936,
              "duration": 189,
              "midi": 68,
              "velocity": 89
            },
            {
              "start": 15936,
              "duration": 189,
              "midi": 65,
              "velocity": 89
            },
            {
              "start": 16128,
              "duration": 573,
              "midi": 66,
              "velocity": 89
            },
            {
              "start": 16128,
              "duration": 573,
              "midi": 70,
              "velocity": 89
            },
            {
              "start": 16704,
              "duration": 189,
              "midi": 68,
              "velocity": 89
            },
            {
              "start": 16704,
              "duration": 189,
              "midi": 65,
              "velocity": 89
            },
            {
              "start": 16896,
              "duration": 573,
              "midi": 63,
              "velocity": 89
            },
            {
              "start": 16896,
              "duration": 573,
              "midi": 66,
              "velocity": 89
            },
            {
              "start": 17472,
              "duration": 189,
              "midi": 65,
              "velocity": 89
            },
            {
              "start": 17472,
              "duration": 189,
              "midi": 61,
              "velocity": 89
            },
            {
              "start": 17664,
              "duration": 573,
              "midi": 66,
              "velocity": 89
            },
            {
              "start": 17664,
              "duration": 573,
              "midi": 63,
              "velocity": 89
            },
            {
              "start": 18240,
              "duration": 189,
              "midi": 68,
              "velocity": 89
            },
            {
              "start": 18240,
              "duration": 189,
              "midi": 65,
              "velocity": 89
            }
          ]
        }
      ],
      "enginePresetName": "factory:PAD Halo Bright"
    },
    {
      "id": "lane-mpr0lmu9-6",
      "engineId": "tb303",
      "name": "Sub Melody 1",
      "clips": [
        {
          "id": "clip-mpr0lmu9-5",
          "name": "Sub Melody 1",
          "lengthBars": 48,
          "notes": [
            {
              "start": 3072,
              "duration": 21,
              "midi": 66,
              "velocity": 97
            },
            {
              "start": 3120,
              "duration": 21,
              "midi": 65,
              "velocity": 97
            },
            {
              "start": 3168,
              "duration": 21,
              "midi": 61,
              "velocity": 97
            },
            {
              "start": 3216,
              "duration": 21,
              "midi": 58,
              "velocity": 97
            },
            {
              "start": 3264,
              "duration": 21,
              "midi": 66,
              "velocity": 97
            },
            {
              "start": 3312,
              "duration": 21,
              "midi": 65,
              "velocity": 97
            },
            {
              "start": 3360,
              "duration": 21,
              "midi": 61,
              "velocity": 97
            },
            {
              "start": 3408,
              "duration": 21,
              "midi": 58,
              "velocity": 97
            },
            {
              "start": 3456,
              "duration": 21,
              "midi": 66,
              "velocity": 97
            },
            {
              "start": 3504,
              "duration": 21,
              "midi": 65,
              "velocity": 97
            },
            {
              "start": 3552,
              "duration": 21,
              "midi": 61,
              "velocity": 97
            },
            {
              "start": 3600,
              "duration": 21,
              "midi": 58,
              "velocity": 97
            },
            {
              "start": 3648,
              "duration": 21,
              "midi": 66,
              "velocity": 97
            },
            {
              "start": 3696,
              "duration": 21,
              "midi": 65,
              "velocity": 97
            },
            {
              "start": 3744,
              "duration": 21,
              "midi": 61,
              "velocity": 97
            },
            {
              "start": 3792,
              "duration": 21,
              "midi": 58,
              "velocity": 97
            },
            {
              "start": 3840,
              "duration": 21,
              "midi": 66,
              "velocity": 97
            },
            {
              "start": 3888,
              "duration": 21,
              "midi": 65,
              "velocity": 97
            },
            {
              "start": 3936,
              "duration": 21,
              "midi": 61,
              "velocity": 97
            },
            {
              "start": 3984,
              "duration": 21,
              "midi": 58,
              "velocity": 97
            },
            {
              "start": 4032,
              "duration": 21,
              "midi": 66,
              "velocity": 97
            },
            {
              "start": 4080,
              "duration": 21,
              "midi": 65,
              "velocity": 97
            },
            {
              "start": 4128,
              "duration": 21,
              "midi": 61,
              "velocity": 97
            },
            {
              "start": 4176,
              "duration": 21,
              "midi": 58,
              "velocity": 97
            },
            {
              "start": 4224,
              "duration": 21,
              "midi": 66,
              "velocity": 97
            },
            {
              "start": 4272,
              "duration": 21,
              "midi": 65,
              "velocity": 97
            },
            {
              "start": 4320,
              "duration": 21,
              "midi": 61,
              "velocity": 97
            },
            {
              "start": 4368,
              "duration": 21,
              "midi": 58,
              "velocity": 97
            },
            {
              "start": 4416,
              "duration": 21,
              "midi": 66,
              "velocity": 97
            },
            {
              "start": 4464,
              "duration": 21,
              "midi": 65,
              "velocity": 97
            },
            {
              "start": 4512,
              "duration": 21,
              "midi": 61,
              "velocity": 97
            },
            {
              "start": 4560,
              "duration": 21,
              "midi": 58,
              "velocity": 97
            },
            {
              "start": 4608,
              "duration": 21,
              "midi": 66,
              "velocity": 97
            },
            {
              "start": 4656,
              "duration": 21,
              "midi": 65,
              "velocity": 97
            },
            {
              "start": 4704,
              "duration": 21,
              "midi": 61,
              "velocity": 97
            },
            {
              "start": 4752,
              "duration": 21,
              "midi": 58,
              "velocity": 97
            },
            {
              "start": 4800,
              "duration": 21,
              "midi": 66,
              "velocity": 97
            },
            {
              "start": 4848,
              "duration": 21,
              "midi": 65,
              "velocity": 97
            },
            {
              "start": 4896,
              "duration": 21,
              "midi": 61,
              "velocity": 97
            },
            {
              "start": 4944,
              "duration": 21,
              "midi": 58,
              "velocity": 97
            },
            {
              "start": 4992,
              "duration": 21,
              "midi": 66,
              "velocity": 97
            },
            {
              "start": 5040,
              "duration": 21,
              "midi": 65,
              "velocity": 97
            },
            {
              "start": 5088,
              "duration": 21,
              "midi": 61,
              "velocity": 97
            },
            {
              "start": 5136,
              "duration": 21,
              "midi": 58,
              "velocity": 97
            },
            {
              "start": 5184,
              "duration": 21,
              "midi": 66,
              "velocity": 97
            },
            {
              "start": 5232,
              "duration": 21,
              "midi": 65,
              "velocity": 97
            },
            {
              "start": 5280,
              "duration": 21,
              "midi": 61,
              "velocity": 97
            },
            {
              "start": 5328,
              "duration": 21,
              "midi": 58,
              "velocity": 97
            },
            {
              "start": 5376,
              "duration": 21,
              "midi": 66,
              "velocity": 97
            },
            {
              "start": 5424,
              "duration": 21,
              "midi": 65,
              "velocity": 97
            },
            {
              "start": 5472,
              "duration": 21,
              "midi": 61,
              "velocity": 97
            },
            {
              "start": 5520,
              "duration": 21,
              "midi": 58,
              "velocity": 97
            },
            {
              "start": 5568,
              "duration": 21,
              "midi": 66,
              "velocity": 97
            },
            {
              "start": 5616,
              "duration": 21,
              "midi": 65,
              "velocity": 97
            },
            {
              "start": 5664,
              "duration": 21,
              "midi": 61,
              "velocity": 97
            },
            {
              "start": 5712,
              "duration": 21,
              "midi": 58,
              "velocity": 97
            },
            {
              "start": 5760,
              "duration": 21,
              "midi": 66,
              "velocity": 97
            },
            {
              "start": 5808,
              "duration": 21,
              "midi": 65,
              "velocity": 97
            },
            {
              "start": 5856,
              "duration": 21,
              "midi": 61,
              "velocity": 97
            },
            {
              "start": 5904,
              "duration": 21,
              "midi": 58,
              "velocity": 97
            },
            {
              "start": 5952,
              "duration": 21,
              "midi": 66,
              "velocity": 97
            },
            {
              "start": 6000,
              "duration": 21,
              "midi": 65,
              "velocity": 97
            },
            {
              "start": 6048,
              "duration": 21,
              "midi": 61,
              "velocity": 97
            },
            {
              "start": 6096,
              "duration": 21,
              "midi": 58,
              "velocity": 97
            },
            {
              "start": 6144,
              "duration": 21,
              "midi": 66,
              "velocity": 97
            },
            {
              "start": 6192,
              "duration": 21,
              "midi": 65,
              "velocity": 97
            },
            {
              "start": 6240,
              "duration": 21,
              "midi": 61,
              "velocity": 97
            },
            {
              "start": 6288,
              "duration": 21,
              "midi": 58,
              "velocity": 97
            },
            {
              "start": 6336,
              "duration": 21,
              "midi": 66,
              "velocity": 97
            },
            {
              "start": 6384,
              "duration": 21,
              "midi": 65,
              "velocity": 97
            },
            {
              "start": 6432,
              "duration": 21,
              "midi": 61,
              "velocity": 97
            },
            {
              "start": 6480,
              "duration": 21,
              "midi": 58,
              "velocity": 97
            },
            {
              "start": 6528,
              "duration": 21,
              "midi": 66,
              "velocity": 97
            },
            {
              "start": 6576,
              "duration": 21,
              "midi": 65,
              "velocity": 97
            },
            {
              "start": 6624,
              "duration": 21,
              "midi": 61,
              "velocity": 97
            },
            {
              "start": 6672,
              "duration": 21,
              "midi": 58,
              "velocity": 97
            },
            {
              "start": 6720,
              "duration": 21,
              "midi": 66,
              "velocity": 97
            },
            {
              "start": 6768,
              "duration": 21,
              "midi": 65,
              "velocity": 97
            },
            {
              "start": 6816,
              "duration": 21,
              "midi": 61,
              "velocity": 97
            },
            {
              "start": 6864,
              "duration": 21,
              "midi": 58,
              "velocity": 97
            },
            {
              "start": 6912,
              "duration": 21,
              "midi": 66,
              "velocity": 97
            },
            {
              "start": 6960,
              "duration": 21,
              "midi": 65,
              "velocity": 97
            },
            {
              "start": 7008,
              "duration": 21,
              "midi": 61,
              "velocity": 97
            },
            {
              "start": 7056,
              "duration": 21,
              "midi": 58,
              "velocity": 97
            },
            {
              "start": 7104,
              "duration": 21,
              "midi": 66,
              "velocity": 97
            },
            {
              "start": 7152,
              "duration": 21,
              "midi": 65,
              "velocity": 97
            },
            {
              "start": 7200,
              "duration": 21,
              "midi": 61,
              "velocity": 97
            },
            {
              "start": 7248,
              "duration": 21,
              "midi": 58,
              "velocity": 97
            },
            {
              "start": 7296,
              "duration": 21,
              "midi": 66,
              "velocity": 97
            },
            {
              "start": 7344,
              "duration": 21,
              "midi": 65,
              "velocity": 97
            },
            {
              "start": 7392,
              "duration": 21,
              "midi": 61,
              "velocity": 97
            },
            {
              "start": 7440,
              "duration": 21,
              "midi": 58,
              "velocity": 97
            },
            {
              "start": 7488,
              "duration": 21,
              "midi": 66,
              "velocity": 97
            },
            {
              "start": 7536,
              "duration": 21,
              "midi": 65,
              "velocity": 97
            },
            {
              "start": 7584,
              "duration": 21,
              "midi": 61,
              "velocity": 97
            },
            {
              "start": 7632,
              "duration": 21,
              "midi": 58,
              "velocity": 97
            },
            {
              "start": 7680,
              "duration": 21,
              "midi": 66,
              "velocity": 97
            },
            {
              "start": 7728,
              "duration": 21,
              "midi": 65,
              "velocity": 97
            },
            {
              "start": 7776,
              "duration": 21,
              "midi": 61,
              "velocity": 97
            },
            {
              "start": 7824,
              "duration": 21,
              "midi": 58,
              "velocity": 97
            },
            {
              "start": 7872,
              "duration": 21,
              "midi": 66,
              "velocity": 97
            },
            {
              "start": 7920,
              "duration": 21,
              "midi": 65,
              "velocity": 97
            },
            {
              "start": 7968,
              "duration": 21,
              "midi": 61,
              "velocity": 97
            },
            {
              "start": 8016,
              "duration": 21,
              "midi": 58,
              "velocity": 97
            },
            {
              "start": 8064,
              "duration": 21,
              "midi": 66,
              "velocity": 97
            },
            {
              "start": 8112,
              "duration": 21,
              "midi": 65,
              "velocity": 97
            },
            {
              "start": 8160,
              "duration": 21,
              "midi": 61,
              "velocity": 97
            },
            {
              "start": 8208,
              "duration": 21,
              "midi": 58,
              "velocity": 97
            },
            {
              "start": 8256,
              "duration": 21,
              "midi": 66,
              "velocity": 97
            },
            {
              "start": 8304,
              "duration": 21,
              "midi": 65,
              "velocity": 97
            },
            {
              "start": 8352,
              "duration": 21,
              "midi": 61,
              "velocity": 97
            },
            {
              "start": 8400,
              "duration": 21,
              "midi": 58,
              "velocity": 97
            },
            {
              "start": 8448,
              "duration": 21,
              "midi": 66,
              "velocity": 97
            },
            {
              "start": 8496,
              "duration": 21,
              "midi": 65,
              "velocity": 97
            },
            {
              "start": 8544,
              "duration": 21,
              "midi": 61,
              "velocity": 97
            },
            {
              "start": 8592,
              "duration": 21,
              "midi": 58,
              "velocity": 97
            },
            {
              "start": 8640,
              "duration": 21,
              "midi": 66,
              "velocity": 97
            },
            {
              "start": 8688,
              "duration": 21,
              "midi": 65,
              "velocity": 97
            },
            {
              "start": 8736,
              "duration": 21,
              "midi": 61,
              "velocity": 97
            },
            {
              "start": 8784,
              "duration": 21,
              "midi": 58,
              "velocity": 97
            },
            {
              "start": 8832,
              "duration": 21,
              "midi": 66,
              "velocity": 97
            },
            {
              "start": 8880,
              "duration": 21,
              "midi": 65,
              "velocity": 97
            },
            {
              "start": 8928,
              "duration": 21,
              "midi": 61,
              "velocity": 97
            },
            {
              "start": 8976,
              "duration": 21,
              "midi": 58,
              "velocity": 97
            },
            {
              "start": 9024,
              "duration": 21,
              "midi": 66,
              "velocity": 97
            },
            {
              "start": 9072,
              "duration": 21,
              "midi": 65,
              "velocity": 97
            },
            {
              "start": 9120,
              "duration": 21,
              "midi": 61,
              "velocity": 97
            },
            {
              "start": 9168,
              "duration": 21,
              "midi": 58,
              "velocity": 97
            },
            {
              "start": 9216,
              "duration": 21,
              "midi": 66,
              "velocity": 97
            },
            {
              "start": 9264,
              "duration": 21,
              "midi": 65,
              "velocity": 97
            },
            {
              "start": 9312,
              "duration": 21,
              "midi": 61,
              "velocity": 97
            },
            {
              "start": 9360,
              "duration": 21,
              "midi": 58,
              "velocity": 97
            },
            {
              "start": 9408,
              "duration": 21,
              "midi": 66,
              "velocity": 97
            },
            {
              "start": 9456,
              "duration": 21,
              "midi": 65,
              "velocity": 97
            },
            {
              "start": 9504,
              "duration": 21,
              "midi": 61,
              "velocity": 97
            },
            {
              "start": 9552,
              "duration": 21,
              "midi": 58,
              "velocity": 97
            },
            {
              "start": 9600,
              "duration": 21,
              "midi": 66,
              "velocity": 97
            },
            {
              "start": 9648,
              "duration": 21,
              "midi": 65,
              "velocity": 97
            },
            {
              "start": 9696,
              "duration": 21,
              "midi": 61,
              "velocity": 97
            },
            {
              "start": 9744,
              "duration": 21,
              "midi": 58,
              "velocity": 97
            },
            {
              "start": 9792,
              "duration": 21,
              "midi": 66,
              "velocity": 97
            },
            {
              "start": 9840,
              "duration": 21,
              "midi": 65,
              "velocity": 97
            },
            {
              "start": 9888,
              "duration": 21,
              "midi": 61,
              "velocity": 97
            },
            {
              "start": 9936,
              "duration": 21,
              "midi": 58,
              "velocity": 97
            },
            {
              "start": 9984,
              "duration": 21,
              "midi": 66,
              "velocity": 97
            },
            {
              "start": 10032,
              "duration": 21,
              "midi": 65,
              "velocity": 97
            },
            {
              "start": 10080,
              "duration": 21,
              "midi": 61,
              "velocity": 97
            },
            {
              "start": 10128,
              "duration": 21,
              "midi": 58,
              "velocity": 97
            },
            {
              "start": 10176,
              "duration": 21,
              "midi": 66,
              "velocity": 97
            },
            {
              "start": 10224,
              "duration": 21,
              "midi": 65,
              "velocity": 97
            },
            {
              "start": 10272,
              "duration": 21,
              "midi": 61,
              "velocity": 97
            },
            {
              "start": 10320,
              "duration": 21,
              "midi": 58,
              "velocity": 97
            },
            {
              "start": 10368,
              "duration": 21,
              "midi": 66,
              "velocity": 97
            },
            {
              "start": 10416,
              "duration": 21,
              "midi": 65,
              "velocity": 97
            },
            {
              "start": 10464,
              "duration": 21,
              "midi": 61,
              "velocity": 97
            },
            {
              "start": 10512,
              "duration": 21,
              "midi": 58,
              "velocity": 97
            },
            {
              "start": 10560,
              "duration": 21,
              "midi": 66,
              "velocity": 97
            },
            {
              "start": 10608,
              "duration": 21,
              "midi": 65,
              "velocity": 97
            },
            {
              "start": 10656,
              "duration": 21,
              "midi": 61,
              "velocity": 97
            },
            {
              "start": 10704,
              "duration": 21,
              "midi": 58,
              "velocity": 97
            },
            {
              "start": 10752,
              "duration": 21,
              "midi": 66,
              "velocity": 97
            },
            {
              "start": 10800,
              "duration": 21,
              "midi": 65,
              "velocity": 97
            },
            {
              "start": 10848,
              "duration": 21,
              "midi": 61,
              "velocity": 97
            },
            {
              "start": 10896,
              "duration": 21,
              "midi": 58,
              "velocity": 97
            },
            {
              "start": 10944,
              "duration": 21,
              "midi": 66,
              "velocity": 97
            },
            {
              "start": 10992,
              "duration": 21,
              "midi": 65,
              "velocity": 97
            },
            {
              "start": 11040,
              "duration": 21,
              "midi": 61,
              "velocity": 97
            },
            {
              "start": 11088,
              "duration": 21,
              "midi": 58,
              "velocity": 97
            },
            {
              "start": 11136,
              "duration": 21,
              "midi": 66,
              "velocity": 97
            },
            {
              "start": 11184,
              "duration": 21,
              "midi": 65,
              "velocity": 97
            },
            {
              "start": 11232,
              "duration": 21,
              "midi": 61,
              "velocity": 97
            },
            {
              "start": 11280,
              "duration": 21,
              "midi": 58,
              "velocity": 97
            },
            {
              "start": 11328,
              "duration": 21,
              "midi": 66,
              "velocity": 97
            },
            {
              "start": 11376,
              "duration": 21,
              "midi": 65,
              "velocity": 97
            },
            {
              "start": 11424,
              "duration": 21,
              "midi": 61,
              "velocity": 97
            },
            {
              "start": 11472,
              "duration": 21,
              "midi": 58,
              "velocity": 97
            },
            {
              "start": 11520,
              "duration": 21,
              "midi": 66,
              "velocity": 97
            },
            {
              "start": 11568,
              "duration": 21,
              "midi": 65,
              "velocity": 97
            },
            {
              "start": 11616,
              "duration": 21,
              "midi": 61,
              "velocity": 97
            },
            {
              "start": 11664,
              "duration": 21,
              "midi": 58,
              "velocity": 97
            },
            {
              "start": 11712,
              "duration": 21,
              "midi": 66,
              "velocity": 97
            },
            {
              "start": 11760,
              "duration": 21,
              "midi": 65,
              "velocity": 97
            },
            {
              "start": 11808,
              "duration": 21,
              "midi": 61,
              "velocity": 97
            },
            {
              "start": 11856,
              "duration": 21,
              "midi": 58,
              "velocity": 97
            },
            {
              "start": 11904,
              "duration": 21,
              "midi": 66,
              "velocity": 97
            },
            {
              "start": 11952,
              "duration": 21,
              "midi": 65,
              "velocity": 97
            },
            {
              "start": 12000,
              "duration": 21,
              "midi": 61,
              "velocity": 97
            },
            {
              "start": 12048,
              "duration": 21,
              "midi": 58,
              "velocity": 97
            },
            {
              "start": 12096,
              "duration": 21,
              "midi": 66,
              "velocity": 97
            },
            {
              "start": 12144,
              "duration": 21,
              "midi": 65,
              "velocity": 97
            },
            {
              "start": 12192,
              "duration": 21,
              "midi": 61,
              "velocity": 97
            },
            {
              "start": 12240,
              "duration": 21,
              "midi": 58,
              "velocity": 97
            },
            {
              "start": 12288,
              "duration": 21,
              "midi": 66,
              "velocity": 97
            },
            {
              "start": 12336,
              "duration": 21,
              "midi": 65,
              "velocity": 97
            },
            {
              "start": 12384,
              "duration": 21,
              "midi": 61,
              "velocity": 97
            },
            {
              "start": 12432,
              "duration": 21,
              "midi": 58,
              "velocity": 97
            },
            {
              "start": 12480,
              "duration": 21,
              "midi": 66,
              "velocity": 97
            },
            {
              "start": 12528,
              "duration": 21,
              "midi": 65,
              "velocity": 97
            },
            {
              "start": 12576,
              "duration": 21,
              "midi": 61,
              "velocity": 97
            },
            {
              "start": 12624,
              "duration": 21,
              "midi": 58,
              "velocity": 97
            },
            {
              "start": 12672,
              "duration": 21,
              "midi": 66,
              "velocity": 97
            },
            {
              "start": 12720,
              "duration": 21,
              "midi": 65,
              "velocity": 97
            },
            {
              "start": 12768,
              "duration": 21,
              "midi": 61,
              "velocity": 97
            },
            {
              "start": 12816,
              "duration": 21,
              "midi": 58,
              "velocity": 97
            },
            {
              "start": 12864,
              "duration": 21,
              "midi": 66,
              "velocity": 97
            },
            {
              "start": 12912,
              "duration": 21,
              "midi": 65,
              "velocity": 97
            },
            {
              "start": 12960,
              "duration": 21,
              "midi": 61,
              "velocity": 97
            },
            {
              "start": 13008,
              "duration": 21,
              "midi": 58,
              "velocity": 97
            },
            {
              "start": 13056,
              "duration": 21,
              "midi": 66,
              "velocity": 97
            },
            {
              "start": 13104,
              "duration": 21,
              "midi": 65,
              "velocity": 97
            },
            {
              "start": 13152,
              "duration": 21,
              "midi": 61,
              "velocity": 97
            },
            {
              "start": 13200,
              "duration": 21,
              "midi": 58,
              "velocity": 97
            },
            {
              "start": 13248,
              "duration": 21,
              "midi": 66,
              "velocity": 97
            },
            {
              "start": 13296,
              "duration": 21,
              "midi": 65,
              "velocity": 97
            },
            {
              "start": 13344,
              "duration": 21,
              "midi": 61,
              "velocity": 97
            },
            {
              "start": 13392,
              "duration": 21,
              "midi": 58,
              "velocity": 97
            },
            {
              "start": 13440,
              "duration": 21,
              "midi": 66,
              "velocity": 97
            },
            {
              "start": 13488,
              "duration": 21,
              "midi": 65,
              "velocity": 97
            },
            {
              "start": 13536,
              "duration": 21,
              "midi": 61,
              "velocity": 97
            },
            {
              "start": 13584,
              "duration": 21,
              "midi": 58,
              "velocity": 97
            },
            {
              "start": 13632,
              "duration": 21,
              "midi": 66,
              "velocity": 97
            },
            {
              "start": 13680,
              "duration": 21,
              "midi": 65,
              "velocity": 97
            },
            {
              "start": 13728,
              "duration": 21,
              "midi": 61,
              "velocity": 97
            },
            {
              "start": 13776,
              "duration": 21,
              "midi": 58,
              "velocity": 97
            },
            {
              "start": 13824,
              "duration": 21,
              "midi": 66,
              "velocity": 97
            },
            {
              "start": 13872,
              "duration": 21,
              "midi": 65,
              "velocity": 97
            },
            {
              "start": 13920,
              "duration": 21,
              "midi": 61,
              "velocity": 97
            },
            {
              "start": 13968,
              "duration": 21,
              "midi": 58,
              "velocity": 97
            },
            {
              "start": 14016,
              "duration": 21,
              "midi": 66,
              "velocity": 97
            },
            {
              "start": 14064,
              "duration": 21,
              "midi": 65,
              "velocity": 97
            },
            {
              "start": 14112,
              "duration": 21,
              "midi": 61,
              "velocity": 97
            },
            {
              "start": 14160,
              "duration": 21,
              "midi": 58,
              "velocity": 97
            },
            {
              "start": 14208,
              "duration": 21,
              "midi": 66,
              "velocity": 97
            },
            {
              "start": 14256,
              "duration": 21,
              "midi": 65,
              "velocity": 97
            },
            {
              "start": 14304,
              "duration": 21,
              "midi": 61,
              "velocity": 97
            },
            {
              "start": 14352,
              "duration": 21,
              "midi": 58,
              "velocity": 97
            },
            {
              "start": 14400,
              "duration": 21,
              "midi": 66,
              "velocity": 97
            },
            {
              "start": 14448,
              "duration": 21,
              "midi": 65,
              "velocity": 97
            },
            {
              "start": 14496,
              "duration": 21,
              "midi": 61,
              "velocity": 97
            },
            {
              "start": 14544,
              "duration": 21,
              "midi": 58,
              "velocity": 97
            },
            {
              "start": 14592,
              "duration": 21,
              "midi": 66,
              "velocity": 97
            },
            {
              "start": 14640,
              "duration": 21,
              "midi": 65,
              "velocity": 97
            },
            {
              "start": 14688,
              "duration": 21,
              "midi": 61,
              "velocity": 97
            },
            {
              "start": 14736,
              "duration": 21,
              "midi": 58,
              "velocity": 97
            },
            {
              "start": 14784,
              "duration": 21,
              "midi": 66,
              "velocity": 97
            },
            {
              "start": 14832,
              "duration": 21,
              "midi": 65,
              "velocity": 97
            },
            {
              "start": 14880,
              "duration": 21,
              "midi": 61,
              "velocity": 97
            },
            {
              "start": 14928,
              "duration": 21,
              "midi": 58,
              "velocity": 97
            },
            {
              "start": 14976,
              "duration": 21,
              "midi": 66,
              "velocity": 97
            },
            {
              "start": 15024,
              "duration": 21,
              "midi": 65,
              "velocity": 97
            },
            {
              "start": 15072,
              "duration": 21,
              "midi": 61,
              "velocity": 97
            },
            {
              "start": 15120,
              "duration": 21,
              "midi": 58,
              "velocity": 97
            },
            {
              "start": 15168,
              "duration": 21,
              "midi": 66,
              "velocity": 97
            },
            {
              "start": 15216,
              "duration": 21,
              "midi": 65,
              "velocity": 97
            },
            {
              "start": 15264,
              "duration": 21,
              "midi": 61,
              "velocity": 97
            },
            {
              "start": 15312,
              "duration": 21,
              "midi": 58,
              "velocity": 97
            },
            {
              "start": 15360,
              "duration": 21,
              "midi": 66,
              "velocity": 97
            },
            {
              "start": 15408,
              "duration": 21,
              "midi": 65,
              "velocity": 97
            },
            {
              "start": 15456,
              "duration": 21,
              "midi": 61,
              "velocity": 97
            },
            {
              "start": 15504,
              "duration": 21,
              "midi": 58,
              "velocity": 97
            },
            {
              "start": 15552,
              "duration": 21,
              "midi": 66,
              "velocity": 97
            },
            {
              "start": 15600,
              "duration": 21,
              "midi": 65,
              "velocity": 97
            },
            {
              "start": 15648,
              "duration": 21,
              "midi": 61,
              "velocity": 97
            },
            {
              "start": 15696,
              "duration": 21,
              "midi": 58,
              "velocity": 97
            },
            {
              "start": 15744,
              "duration": 21,
              "midi": 66,
              "velocity": 97
            },
            {
              "start": 15792,
              "duration": 21,
              "midi": 65,
              "velocity": 97
            },
            {
              "start": 15840,
              "duration": 21,
              "midi": 61,
              "velocity": 97
            },
            {
              "start": 15888,
              "duration": 21,
              "midi": 58,
              "velocity": 97
            },
            {
              "start": 15936,
              "duration": 21,
              "midi": 66,
              "velocity": 97
            },
            {
              "start": 15984,
              "duration": 21,
              "midi": 65,
              "velocity": 97
            },
            {
              "start": 16032,
              "duration": 21,
              "midi": 61,
              "velocity": 97
            },
            {
              "start": 16080,
              "duration": 21,
              "midi": 58,
              "velocity": 97
            },
            {
              "start": 16128,
              "duration": 21,
              "midi": 66,
              "velocity": 97
            },
            {
              "start": 16176,
              "duration": 21,
              "midi": 65,
              "velocity": 97
            },
            {
              "start": 16224,
              "duration": 21,
              "midi": 61,
              "velocity": 97
            },
            {
              "start": 16272,
              "duration": 21,
              "midi": 58,
              "velocity": 97
            },
            {
              "start": 16320,
              "duration": 21,
              "midi": 66,
              "velocity": 97
            },
            {
              "start": 16368,
              "duration": 21,
              "midi": 65,
              "velocity": 97
            },
            {
              "start": 16416,
              "duration": 21,
              "midi": 61,
              "velocity": 97
            },
            {
              "start": 16464,
              "duration": 21,
              "midi": 58,
              "velocity": 97
            },
            {
              "start": 16512,
              "duration": 21,
              "midi": 66,
              "velocity": 97
            },
            {
              "start": 16560,
              "duration": 21,
              "midi": 65,
              "velocity": 97
            },
            {
              "start": 16608,
              "duration": 21,
              "midi": 61,
              "velocity": 97
            },
            {
              "start": 16656,
              "duration": 21,
              "midi": 58,
              "velocity": 97
            },
            {
              "start": 16704,
              "duration": 21,
              "midi": 66,
              "velocity": 97
            },
            {
              "start": 16752,
              "duration": 21,
              "midi": 65,
              "velocity": 97
            },
            {
              "start": 16800,
              "duration": 21,
              "midi": 61,
              "velocity": 97
            },
            {
              "start": 16848,
              "duration": 21,
              "midi": 58,
              "velocity": 97
            },
            {
              "start": 16896,
              "duration": 21,
              "midi": 66,
              "velocity": 97
            },
            {
              "start": 16944,
              "duration": 21,
              "midi": 65,
              "velocity": 97
            },
            {
              "start": 16992,
              "duration": 21,
              "midi": 61,
              "velocity": 97
            },
            {
              "start": 17040,
              "duration": 21,
              "midi": 58,
              "velocity": 97
            },
            {
              "start": 17088,
              "duration": 21,
              "midi": 66,
              "velocity": 97
            },
            {
              "start": 17136,
              "duration": 21,
              "midi": 65,
              "velocity": 97
            },
            {
              "start": 17184,
              "duration": 21,
              "midi": 61,
              "velocity": 97
            },
            {
              "start": 17232,
              "duration": 21,
              "midi": 58,
              "velocity": 97
            },
            {
              "start": 17280,
              "duration": 21,
              "midi": 66,
              "velocity": 97
            },
            {
              "start": 17328,
              "duration": 21,
              "midi": 65,
              "velocity": 97
            },
            {
              "start": 17376,
              "duration": 21,
              "midi": 61,
              "velocity": 97
            },
            {
              "start": 17424,
              "duration": 21,
              "midi": 58,
              "velocity": 97
            },
            {
              "start": 17472,
              "duration": 21,
              "midi": 66,
              "velocity": 97
            },
            {
              "start": 17520,
              "duration": 21,
              "midi": 65,
              "velocity": 97
            },
            {
              "start": 17568,
              "duration": 21,
              "midi": 61,
              "velocity": 97
            },
            {
              "start": 17616,
              "duration": 21,
              "midi": 58,
              "velocity": 97
            },
            {
              "start": 17664,
              "duration": 21,
              "midi": 66,
              "velocity": 97
            },
            {
              "start": 17712,
              "duration": 21,
              "midi": 65,
              "velocity": 97
            },
            {
              "start": 17760,
              "duration": 21,
              "midi": 61,
              "velocity": 97
            },
            {
              "start": 17808,
              "duration": 21,
              "midi": 58,
              "velocity": 97
            },
            {
              "start": 17856,
              "duration": 21,
              "midi": 66,
              "velocity": 97
            },
            {
              "start": 17904,
              "duration": 21,
              "midi": 65,
              "velocity": 97
            },
            {
              "start": 17952,
              "duration": 21,
              "midi": 61,
              "velocity": 97
            },
            {
              "start": 18000,
              "duration": 21,
              "midi": 58,
              "velocity": 97
            },
            {
              "start": 18048,
              "duration": 21,
              "midi": 66,
              "velocity": 97
            },
            {
              "start": 18096,
              "duration": 21,
              "midi": 65,
              "velocity": 97
            },
            {
              "start": 18144,
              "duration": 21,
              "midi": 61,
              "velocity": 97
            },
            {
              "start": 18192,
              "duration": 21,
              "midi": 58,
              "velocity": 97
            },
            {
              "start": 18240,
              "duration": 21,
              "midi": 66,
              "velocity": 97
            },
            {
              "start": 18288,
              "duration": 21,
              "midi": 65,
              "velocity": 97
            },
            {
              "start": 18336,
              "duration": 21,
              "midi": 61,
              "velocity": 97
            },
            {
              "start": 18384,
              "duration": 21,
              "midi": 58,
              "velocity": 97
            }
          ]
        }
      ],
      "enginePresetName": "factory:BASS Acid Classic"
    },
    {
      "id": "lane-mpr0lmu9-8",
      "engineId": "subtractive",
      "name": "Sub Melody 2",
      "clips": [
        {
          "id": "clip-mpr0lmu9-7",
          "name": "Sub Melody 2",
          "lengthBars": 48,
          "notes": [
            {
              "start": 6144,
              "duration": 21,
              "midi": 42,
              "velocity": 77
            },
            {
              "start": 6168,
              "duration": 21,
              "midi": 42,
              "velocity": 77
            },
            {
              "start": 6192,
              "duration": 21,
              "midi": 54,
              "velocity": 77
            },
            {
              "start": 6240,
              "duration": 21,
              "midi": 42,
              "velocity": 77
            },
            {
              "start": 6264,
              "duration": 21,
              "midi": 54,
              "velocity": 77
            },
            {
              "start": 6312,
              "duration": 21,
              "midi": 42,
              "velocity": 77
            },
            {
              "start": 6336,
              "duration": 21,
              "midi": 54,
              "velocity": 77
            },
            {
              "start": 6384,
              "duration": 21,
              "midi": 42,
              "velocity": 77
            },
            {
              "start": 6408,
              "duration": 21,
              "midi": 54,
              "velocity": 77
            },
            {
              "start": 6456,
              "duration": 21,
              "midi": 42,
              "velocity": 77
            },
            {
              "start": 6480,
              "duration": 21,
              "midi": 54,
              "velocity": 77
            },
            {
              "start": 6504,
              "duration": 21,
              "midi": 42,
              "velocity": 77
            },
            {
              "start": 6528,
              "duration": 21,
              "midi": 42,
              "velocity": 77
            },
            {
              "start": 6552,
              "duration": 21,
              "midi": 42,
              "velocity": 77
            },
            {
              "start": 6576,
              "duration": 21,
              "midi": 54,
              "velocity": 77
            },
            {
              "start": 6624,
              "duration": 21,
              "midi": 42,
              "velocity": 77
            },
            {
              "start": 6648,
              "duration": 21,
              "midi": 54,
              "velocity": 77
            },
            {
              "start": 6696,
              "duration": 21,
              "midi": 42,
              "velocity": 77
            },
            {
              "start": 6720,
              "duration": 21,
              "midi": 54,
              "velocity": 77
            },
            {
              "start": 6768,
              "duration": 21,
              "midi": 42,
              "velocity": 77
            },
            {
              "start": 6792,
              "duration": 21,
              "midi": 54,
              "velocity": 77
            },
            {
              "start": 6840,
              "duration": 21,
              "midi": 42,
              "velocity": 77
            },
            {
              "start": 6864,
              "duration": 21,
              "midi": 54,
              "velocity": 77
            },
            {
              "start": 6888,
              "duration": 21,
              "midi": 42,
              "velocity": 77
            },
            {
              "start": 6912,
              "duration": 21,
              "midi": 42,
              "velocity": 77
            },
            {
              "start": 6936,
              "duration": 21,
              "midi": 42,
              "velocity": 77
            },
            {
              "start": 6960,
              "duration": 21,
              "midi": 54,
              "velocity": 77
            },
            {
              "start": 7008,
              "duration": 21,
              "midi": 42,
              "velocity": 77
            },
            {
              "start": 7032,
              "duration": 21,
              "midi": 54,
              "velocity": 77
            },
            {
              "start": 7080,
              "duration": 21,
              "midi": 42,
              "velocity": 77
            },
            {
              "start": 7104,
              "duration": 21,
              "midi": 54,
              "velocity": 77
            },
            {
              "start": 7152,
              "duration": 21,
              "midi": 42,
              "velocity": 77
            },
            {
              "start": 7176,
              "duration": 21,
              "midi": 54,
              "velocity": 77
            },
            {
              "start": 7224,
              "duration": 21,
              "midi": 42,
              "velocity": 77
            },
            {
              "start": 7248,
              "duration": 21,
              "midi": 54,
              "velocity": 77
            },
            {
              "start": 7272,
              "duration": 21,
              "midi": 42,
              "velocity": 77
            },
            {
              "start": 7296,
              "duration": 21,
              "midi": 42,
              "velocity": 77
            },
            {
              "start": 7320,
              "duration": 21,
              "midi": 42,
              "velocity": 77
            },
            {
              "start": 7344,
              "duration": 21,
              "midi": 54,
              "velocity": 77
            },
            {
              "start": 7392,
              "duration": 21,
              "midi": 42,
              "velocity": 77
            },
            {
              "start": 7416,
              "duration": 21,
              "midi": 54,
              "velocity": 77
            },
            {
              "start": 7464,
              "duration": 21,
              "midi": 42,
              "velocity": 77
            },
            {
              "start": 7488,
              "duration": 21,
              "midi": 54,
              "velocity": 77
            },
            {
              "start": 7536,
              "duration": 21,
              "midi": 42,
              "velocity": 77
            },
            {
              "start": 7560,
              "duration": 21,
              "midi": 54,
              "velocity": 77
            },
            {
              "start": 7608,
              "duration": 21,
              "midi": 42,
              "velocity": 77
            },
            {
              "start": 7632,
              "duration": 21,
              "midi": 54,
              "velocity": 77
            },
            {
              "start": 7656,
              "duration": 21,
              "midi": 42,
              "velocity": 77
            },
            {
              "start": 7680,
              "duration": 21,
              "midi": 39,
              "velocity": 77
            },
            {
              "start": 7704,
              "duration": 21,
              "midi": 39,
              "velocity": 77
            },
            {
              "start": 7728,
              "duration": 21,
              "midi": 51,
              "velocity": 77
            },
            {
              "start": 7776,
              "duration": 21,
              "midi": 39,
              "velocity": 77
            },
            {
              "start": 7800,
              "duration": 21,
              "midi": 51,
              "velocity": 77
            },
            {
              "start": 7848,
              "duration": 21,
              "midi": 39,
              "velocity": 77
            },
            {
              "start": 7872,
              "duration": 21,
              "midi": 51,
              "velocity": 77
            },
            {
              "start": 7920,
              "duration": 21,
              "midi": 39,
              "velocity": 77
            },
            {
              "start": 7944,
              "duration": 21,
              "midi": 51,
              "velocity": 77
            },
            {
              "start": 7992,
              "duration": 21,
              "midi": 39,
              "velocity": 77
            },
            {
              "start": 8016,
              "duration": 21,
              "midi": 51,
              "velocity": 77
            },
            {
              "start": 8040,
              "duration": 21,
              "midi": 39,
              "velocity": 77
            },
            {
              "start": 8064,
              "duration": 21,
              "midi": 39,
              "velocity": 77
            },
            {
              "start": 8088,
              "duration": 21,
              "midi": 39,
              "velocity": 77
            },
            {
              "start": 8112,
              "duration": 21,
              "midi": 51,
              "velocity": 77
            },
            {
              "start": 8160,
              "duration": 21,
              "midi": 39,
              "velocity": 77
            },
            {
              "start": 8184,
              "duration": 21,
              "midi": 51,
              "velocity": 77
            },
            {
              "start": 8232,
              "duration": 21,
              "midi": 39,
              "velocity": 77
            },
            {
              "start": 8256,
              "duration": 21,
              "midi": 51,
              "velocity": 77
            },
            {
              "start": 8304,
              "duration": 21,
              "midi": 39,
              "velocity": 77
            },
            {
              "start": 8328,
              "duration": 21,
              "midi": 51,
              "velocity": 77
            },
            {
              "start": 8376,
              "duration": 21,
              "midi": 39,
              "velocity": 77
            },
            {
              "start": 8400,
              "duration": 21,
              "midi": 51,
              "velocity": 77
            },
            {
              "start": 8424,
              "duration": 21,
              "midi": 39,
              "velocity": 77
            },
            {
              "start": 8448,
              "duration": 21,
              "midi": 39,
              "velocity": 77
            },
            {
              "start": 8472,
              "duration": 21,
              "midi": 39,
              "velocity": 77
            },
            {
              "start": 8496,
              "duration": 21,
              "midi": 51,
              "velocity": 77
            },
            {
              "start": 8544,
              "duration": 21,
              "midi": 39,
              "velocity": 77
            },
            {
              "start": 8568,
              "duration": 21,
              "midi": 51,
              "velocity": 77
            },
            {
              "start": 8616,
              "duration": 21,
              "midi": 39,
              "velocity": 77
            },
            {
              "start": 8640,
              "duration": 21,
              "midi": 51,
              "velocity": 77
            },
            {
              "start": 8688,
              "duration": 21,
              "midi": 39,
              "velocity": 77
            },
            {
              "start": 8712,
              "duration": 21,
              "midi": 51,
              "velocity": 77
            },
            {
              "start": 8760,
              "duration": 21,
              "midi": 39,
              "velocity": 77
            },
            {
              "start": 8784,
              "duration": 21,
              "midi": 51,
              "velocity": 77
            },
            {
              "start": 8808,
              "duration": 21,
              "midi": 39,
              "velocity": 77
            },
            {
              "start": 8832,
              "duration": 21,
              "midi": 39,
              "velocity": 77
            },
            {
              "start": 8856,
              "duration": 21,
              "midi": 39,
              "velocity": 77
            },
            {
              "start": 8880,
              "duration": 21,
              "midi": 51,
              "velocity": 77
            },
            {
              "start": 8928,
              "duration": 21,
              "midi": 39,
              "velocity": 77
            },
            {
              "start": 8952,
              "duration": 21,
              "midi": 51,
              "velocity": 77
            },
            {
              "start": 9000,
              "duration": 21,
              "midi": 39,
              "velocity": 77
            },
            {
              "start": 9024,
              "duration": 21,
              "midi": 51,
              "velocity": 77
            },
            {
              "start": 9072,
              "duration": 21,
              "midi": 39,
              "velocity": 77
            },
            {
              "start": 9096,
              "duration": 21,
              "midi": 51,
              "velocity": 77
            },
            {
              "start": 9144,
              "duration": 21,
              "midi": 39,
              "velocity": 77
            },
            {
              "start": 9168,
              "duration": 21,
              "midi": 51,
              "velocity": 77
            },
            {
              "start": 9192,
              "duration": 21,
              "midi": 39,
              "velocity": 77
            },
            {
              "start": 9216,
              "duration": 21,
              "midi": 42,
              "velocity": 77
            },
            {
              "start": 9240,
              "duration": 21,
              "midi": 42,
              "velocity": 77
            },
            {
              "start": 9264,
              "duration": 21,
              "midi": 54,
              "velocity": 77
            },
            {
              "start": 9312,
              "duration": 21,
              "midi": 42,
              "velocity": 77
            },
            {
              "start": 9336,
              "duration": 21,
              "midi": 54,
              "velocity": 77
            },
            {
              "start": 9384,
              "duration": 21,
              "midi": 42,
              "velocity": 77
            },
            {
              "start": 9408,
              "duration": 21,
              "midi": 54,
              "velocity": 77
            },
            {
              "start": 9456,
              "duration": 21,
              "midi": 42,
              "velocity": 77
            },
            {
              "start": 9480,
              "duration": 21,
              "midi": 54,
              "velocity": 77
            },
            {
              "start": 9528,
              "duration": 21,
              "midi": 42,
              "velocity": 77
            },
            {
              "start": 9552,
              "duration": 21,
              "midi": 54,
              "velocity": 77
            },
            {
              "start": 9576,
              "duration": 21,
              "midi": 42,
              "velocity": 77
            },
            {
              "start": 9600,
              "duration": 21,
              "midi": 42,
              "velocity": 77
            },
            {
              "start": 9624,
              "duration": 21,
              "midi": 42,
              "velocity": 77
            },
            {
              "start": 9648,
              "duration": 21,
              "midi": 54,
              "velocity": 77
            },
            {
              "start": 9696,
              "duration": 21,
              "midi": 42,
              "velocity": 77
            },
            {
              "start": 9720,
              "duration": 21,
              "midi": 54,
              "velocity": 77
            },
            {
              "start": 9768,
              "duration": 21,
              "midi": 42,
              "velocity": 77
            },
            {
              "start": 9792,
              "duration": 21,
              "midi": 54,
              "velocity": 77
            },
            {
              "start": 9840,
              "duration": 21,
              "midi": 42,
              "velocity": 77
            },
            {
              "start": 9864,
              "duration": 21,
              "midi": 54,
              "velocity": 77
            },
            {
              "start": 9912,
              "duration": 21,
              "midi": 42,
              "velocity": 77
            },
            {
              "start": 9936,
              "duration": 21,
              "midi": 54,
              "velocity": 77
            },
            {
              "start": 9960,
              "duration": 21,
              "midi": 42,
              "velocity": 77
            },
            {
              "start": 9984,
              "duration": 21,
              "midi": 42,
              "velocity": 77
            },
            {
              "start": 10008,
              "duration": 21,
              "midi": 42,
              "velocity": 77
            },
            {
              "start": 10032,
              "duration": 21,
              "midi": 54,
              "velocity": 77
            },
            {
              "start": 10080,
              "duration": 21,
              "midi": 42,
              "velocity": 77
            },
            {
              "start": 10104,
              "duration": 21,
              "midi": 54,
              "velocity": 77
            },
            {
              "start": 10152,
              "duration": 21,
              "midi": 42,
              "velocity": 77
            },
            {
              "start": 10176,
              "duration": 21,
              "midi": 54,
              "velocity": 77
            },
            {
              "start": 10224,
              "duration": 21,
              "midi": 42,
              "velocity": 77
            },
            {
              "start": 10248,
              "duration": 21,
              "midi": 54,
              "velocity": 77
            },
            {
              "start": 10296,
              "duration": 21,
              "midi": 42,
              "velocity": 77
            },
            {
              "start": 10320,
              "duration": 21,
              "midi": 54,
              "velocity": 77
            },
            {
              "start": 10344,
              "duration": 21,
              "midi": 42,
              "velocity": 77
            },
            {
              "start": 10368,
              "duration": 21,
              "midi": 42,
              "velocity": 77
            },
            {
              "start": 10392,
              "duration": 21,
              "midi": 42,
              "velocity": 77
            },
            {
              "start": 10416,
              "duration": 21,
              "midi": 54,
              "velocity": 77
            },
            {
              "start": 10464,
              "duration": 21,
              "midi": 42,
              "velocity": 77
            },
            {
              "start": 10488,
              "duration": 21,
              "midi": 54,
              "velocity": 77
            },
            {
              "start": 10536,
              "duration": 21,
              "midi": 42,
              "velocity": 77
            },
            {
              "start": 10560,
              "duration": 21,
              "midi": 54,
              "velocity": 77
            },
            {
              "start": 10608,
              "duration": 21,
              "midi": 42,
              "velocity": 77
            },
            {
              "start": 10632,
              "duration": 21,
              "midi": 54,
              "velocity": 77
            },
            {
              "start": 10680,
              "duration": 21,
              "midi": 42,
              "velocity": 77
            },
            {
              "start": 10704,
              "duration": 21,
              "midi": 54,
              "velocity": 77
            },
            {
              "start": 10728,
              "duration": 21,
              "midi": 42,
              "velocity": 77
            },
            {
              "start": 10752,
              "duration": 21,
              "midi": 39,
              "velocity": 77
            },
            {
              "start": 10776,
              "duration": 21,
              "midi": 39,
              "velocity": 77
            },
            {
              "start": 10800,
              "duration": 21,
              "midi": 51,
              "velocity": 77
            },
            {
              "start": 10848,
              "duration": 21,
              "midi": 39,
              "velocity": 77
            },
            {
              "start": 10872,
              "duration": 21,
              "midi": 51,
              "velocity": 77
            },
            {
              "start": 10920,
              "duration": 21,
              "midi": 39,
              "velocity": 77
            },
            {
              "start": 10944,
              "duration": 21,
              "midi": 51,
              "velocity": 77
            },
            {
              "start": 10992,
              "duration": 21,
              "midi": 39,
              "velocity": 77
            },
            {
              "start": 11016,
              "duration": 21,
              "midi": 51,
              "velocity": 77
            },
            {
              "start": 11064,
              "duration": 21,
              "midi": 39,
              "velocity": 77
            },
            {
              "start": 11088,
              "duration": 21,
              "midi": 51,
              "velocity": 77
            },
            {
              "start": 11112,
              "duration": 21,
              "midi": 39,
              "velocity": 77
            },
            {
              "start": 11136,
              "duration": 21,
              "midi": 39,
              "velocity": 77
            },
            {
              "start": 11160,
              "duration": 21,
              "midi": 39,
              "velocity": 77
            },
            {
              "start": 11184,
              "duration": 21,
              "midi": 51,
              "velocity": 77
            },
            {
              "start": 11232,
              "duration": 21,
              "midi": 39,
              "velocity": 77
            },
            {
              "start": 11256,
              "duration": 21,
              "midi": 51,
              "velocity": 77
            },
            {
              "start": 11304,
              "duration": 21,
              "midi": 39,
              "velocity": 77
            },
            {
              "start": 11328,
              "duration": 21,
              "midi": 51,
              "velocity": 77
            },
            {
              "start": 11376,
              "duration": 21,
              "midi": 39,
              "velocity": 77
            },
            {
              "start": 11400,
              "duration": 21,
              "midi": 51,
              "velocity": 77
            },
            {
              "start": 11448,
              "duration": 21,
              "midi": 39,
              "velocity": 77
            },
            {
              "start": 11472,
              "duration": 21,
              "midi": 51,
              "velocity": 77
            },
            {
              "start": 11496,
              "duration": 21,
              "midi": 39,
              "velocity": 77
            },
            {
              "start": 11520,
              "duration": 21,
              "midi": 39,
              "velocity": 77
            },
            {
              "start": 11544,
              "duration": 21,
              "midi": 39,
              "velocity": 77
            },
            {
              "start": 11568,
              "duration": 21,
              "midi": 51,
              "velocity": 77
            },
            {
              "start": 11616,
              "duration": 21,
              "midi": 39,
              "velocity": 77
            },
            {
              "start": 11640,
              "duration": 21,
              "midi": 51,
              "velocity": 77
            },
            {
              "start": 11688,
              "duration": 21,
              "midi": 39,
              "velocity": 77
            },
            {
              "start": 11712,
              "duration": 21,
              "midi": 51,
              "velocity": 77
            },
            {
              "start": 11760,
              "duration": 21,
              "midi": 39,
              "velocity": 77
            },
            {
              "start": 11784,
              "duration": 21,
              "midi": 51,
              "velocity": 77
            },
            {
              "start": 11832,
              "duration": 21,
              "midi": 39,
              "velocity": 77
            },
            {
              "start": 11856,
              "duration": 21,
              "midi": 51,
              "velocity": 77
            },
            {
              "start": 11880,
              "duration": 21,
              "midi": 39,
              "velocity": 77
            },
            {
              "start": 11904,
              "duration": 21,
              "midi": 39,
              "velocity": 77
            },
            {
              "start": 11928,
              "duration": 21,
              "midi": 39,
              "velocity": 77
            },
            {
              "start": 11952,
              "duration": 21,
              "midi": 51,
              "velocity": 77
            },
            {
              "start": 12000,
              "duration": 21,
              "midi": 39,
              "velocity": 77
            },
            {
              "start": 12024,
              "duration": 21,
              "midi": 51,
              "velocity": 77
            },
            {
              "start": 12072,
              "duration": 21,
              "midi": 39,
              "velocity": 77
            },
            {
              "start": 12096,
              "duration": 21,
              "midi": 51,
              "velocity": 77
            },
            {
              "start": 12144,
              "duration": 21,
              "midi": 39,
              "velocity": 77
            },
            {
              "start": 12168,
              "duration": 21,
              "midi": 51,
              "velocity": 77
            },
            {
              "start": 12216,
              "duration": 21,
              "midi": 39,
              "velocity": 77
            },
            {
              "start": 12240,
              "duration": 21,
              "midi": 51,
              "velocity": 77
            },
            {
              "start": 12264,
              "duration": 21,
              "midi": 39,
              "velocity": 77
            },
            {
              "start": 12288,
              "duration": 21,
              "midi": 42,
              "velocity": 77
            },
            {
              "start": 12312,
              "duration": 21,
              "midi": 42,
              "velocity": 77
            },
            {
              "start": 12336,
              "duration": 21,
              "midi": 54,
              "velocity": 77
            },
            {
              "start": 12384,
              "duration": 21,
              "midi": 42,
              "velocity": 77
            },
            {
              "start": 12408,
              "duration": 21,
              "midi": 54,
              "velocity": 77
            },
            {
              "start": 12456,
              "duration": 21,
              "midi": 42,
              "velocity": 77
            },
            {
              "start": 12480,
              "duration": 21,
              "midi": 54,
              "velocity": 77
            },
            {
              "start": 12528,
              "duration": 21,
              "midi": 42,
              "velocity": 77
            },
            {
              "start": 12552,
              "duration": 21,
              "midi": 54,
              "velocity": 77
            },
            {
              "start": 12600,
              "duration": 21,
              "midi": 42,
              "velocity": 77
            },
            {
              "start": 12624,
              "duration": 21,
              "midi": 54,
              "velocity": 77
            },
            {
              "start": 12648,
              "duration": 21,
              "midi": 42,
              "velocity": 77
            },
            {
              "start": 12672,
              "duration": 21,
              "midi": 42,
              "velocity": 77
            },
            {
              "start": 12696,
              "duration": 21,
              "midi": 42,
              "velocity": 77
            },
            {
              "start": 12720,
              "duration": 21,
              "midi": 54,
              "velocity": 77
            },
            {
              "start": 12768,
              "duration": 21,
              "midi": 42,
              "velocity": 77
            },
            {
              "start": 12792,
              "duration": 21,
              "midi": 54,
              "velocity": 77
            },
            {
              "start": 12840,
              "duration": 21,
              "midi": 42,
              "velocity": 77
            },
            {
              "start": 12864,
              "duration": 21,
              "midi": 54,
              "velocity": 77
            },
            {
              "start": 12912,
              "duration": 21,
              "midi": 42,
              "velocity": 77
            },
            {
              "start": 12936,
              "duration": 21,
              "midi": 54,
              "velocity": 77
            },
            {
              "start": 12984,
              "duration": 21,
              "midi": 42,
              "velocity": 77
            },
            {
              "start": 13008,
              "duration": 21,
              "midi": 54,
              "velocity": 77
            },
            {
              "start": 13032,
              "duration": 21,
              "midi": 42,
              "velocity": 77
            },
            {
              "start": 13056,
              "duration": 21,
              "midi": 42,
              "velocity": 77
            },
            {
              "start": 13080,
              "duration": 21,
              "midi": 42,
              "velocity": 77
            },
            {
              "start": 13104,
              "duration": 21,
              "midi": 54,
              "velocity": 77
            },
            {
              "start": 13152,
              "duration": 21,
              "midi": 42,
              "velocity": 77
            },
            {
              "start": 13176,
              "duration": 21,
              "midi": 54,
              "velocity": 77
            },
            {
              "start": 13224,
              "duration": 21,
              "midi": 42,
              "velocity": 77
            },
            {
              "start": 13248,
              "duration": 21,
              "midi": 54,
              "velocity": 77
            },
            {
              "start": 13296,
              "duration": 21,
              "midi": 42,
              "velocity": 77
            },
            {
              "start": 13320,
              "duration": 21,
              "midi": 54,
              "velocity": 77
            },
            {
              "start": 13368,
              "duration": 21,
              "midi": 42,
              "velocity": 77
            },
            {
              "start": 13392,
              "duration": 21,
              "midi": 54,
              "velocity": 77
            },
            {
              "start": 13416,
              "duration": 21,
              "midi": 42,
              "velocity": 77
            },
            {
              "start": 13440,
              "duration": 21,
              "midi": 42,
              "velocity": 77
            },
            {
              "start": 13464,
              "duration": 21,
              "midi": 42,
              "velocity": 77
            },
            {
              "start": 13488,
              "duration": 21,
              "midi": 54,
              "velocity": 77
            },
            {
              "start": 13536,
              "duration": 21,
              "midi": 42,
              "velocity": 77
            },
            {
              "start": 13560,
              "duration": 21,
              "midi": 54,
              "velocity": 77
            },
            {
              "start": 13608,
              "duration": 21,
              "midi": 42,
              "velocity": 77
            },
            {
              "start": 13632,
              "duration": 21,
              "midi": 54,
              "velocity": 77
            },
            {
              "start": 13680,
              "duration": 21,
              "midi": 42,
              "velocity": 77
            },
            {
              "start": 13704,
              "duration": 21,
              "midi": 54,
              "velocity": 77
            },
            {
              "start": 13752,
              "duration": 21,
              "midi": 42,
              "velocity": 77
            },
            {
              "start": 13776,
              "duration": 21,
              "midi": 54,
              "velocity": 77
            },
            {
              "start": 13800,
              "duration": 21,
              "midi": 42,
              "velocity": 77
            },
            {
              "start": 13824,
              "duration": 21,
              "midi": 39,
              "velocity": 77
            },
            {
              "start": 13848,
              "duration": 21,
              "midi": 39,
              "velocity": 77
            },
            {
              "start": 13872,
              "duration": 21,
              "midi": 51,
              "velocity": 77
            },
            {
              "start": 13920,
              "duration": 21,
              "midi": 39,
              "velocity": 77
            },
            {
              "start": 13944,
              "duration": 21,
              "midi": 51,
              "velocity": 77
            },
            {
              "start": 13992,
              "duration": 21,
              "midi": 39,
              "velocity": 77
            },
            {
              "start": 14016,
              "duration": 21,
              "midi": 51,
              "velocity": 77
            },
            {
              "start": 14064,
              "duration": 21,
              "midi": 39,
              "velocity": 77
            },
            {
              "start": 14088,
              "duration": 21,
              "midi": 51,
              "velocity": 77
            },
            {
              "start": 14136,
              "duration": 21,
              "midi": 39,
              "velocity": 77
            },
            {
              "start": 14160,
              "duration": 21,
              "midi": 51,
              "velocity": 77
            },
            {
              "start": 14184,
              "duration": 21,
              "midi": 39,
              "velocity": 77
            },
            {
              "start": 14208,
              "duration": 21,
              "midi": 39,
              "velocity": 77
            },
            {
              "start": 14232,
              "duration": 21,
              "midi": 39,
              "velocity": 77
            },
            {
              "start": 14256,
              "duration": 21,
              "midi": 51,
              "velocity": 77
            },
            {
              "start": 14304,
              "duration": 21,
              "midi": 39,
              "velocity": 77
            },
            {
              "start": 14328,
              "duration": 21,
              "midi": 51,
              "velocity": 77
            },
            {
              "start": 14376,
              "duration": 21,
              "midi": 39,
              "velocity": 77
            },
            {
              "start": 14400,
              "duration": 21,
              "midi": 51,
              "velocity": 77
            },
            {
              "start": 14448,
              "duration": 21,
              "midi": 39,
              "velocity": 77
            },
            {
              "start": 14472,
              "duration": 21,
              "midi": 51,
              "velocity": 77
            },
            {
              "start": 14520,
              "duration": 21,
              "midi": 39,
              "velocity": 77
            },
            {
              "start": 14544,
              "duration": 21,
              "midi": 51,
              "velocity": 77
            },
            {
              "start": 14568,
              "duration": 21,
              "midi": 39,
              "velocity": 77
            },
            {
              "start": 14592,
              "duration": 21,
              "midi": 39,
              "velocity": 77
            },
            {
              "start": 14616,
              "duration": 21,
              "midi": 39,
              "velocity": 77
            },
            {
              "start": 14640,
              "duration": 21,
              "midi": 51,
              "velocity": 77
            },
            {
              "start": 14688,
              "duration": 21,
              "midi": 39,
              "velocity": 77
            },
            {
              "start": 14712,
              "duration": 21,
              "midi": 51,
              "velocity": 77
            },
            {
              "start": 14760,
              "duration": 21,
              "midi": 39,
              "velocity": 77
            },
            {
              "start": 14784,
              "duration": 21,
              "midi": 51,
              "velocity": 77
            },
            {
              "start": 14832,
              "duration": 21,
              "midi": 39,
              "velocity": 77
            },
            {
              "start": 14856,
              "duration": 21,
              "midi": 51,
              "velocity": 77
            },
            {
              "start": 14904,
              "duration": 21,
              "midi": 39,
              "velocity": 77
            },
            {
              "start": 14928,
              "duration": 21,
              "midi": 51,
              "velocity": 77
            },
            {
              "start": 14952,
              "duration": 21,
              "midi": 39,
              "velocity": 77
            },
            {
              "start": 14976,
              "duration": 21,
              "midi": 39,
              "velocity": 77
            },
            {
              "start": 15000,
              "duration": 21,
              "midi": 39,
              "velocity": 77
            },
            {
              "start": 15024,
              "duration": 21,
              "midi": 51,
              "velocity": 77
            },
            {
              "start": 15072,
              "duration": 21,
              "midi": 39,
              "velocity": 77
            },
            {
              "start": 15096,
              "duration": 21,
              "midi": 51,
              "velocity": 77
            },
            {
              "start": 15144,
              "duration": 21,
              "midi": 39,
              "velocity": 77
            },
            {
              "start": 15168,
              "duration": 21,
              "midi": 51,
              "velocity": 77
            },
            {
              "start": 15216,
              "duration": 21,
              "midi": 39,
              "velocity": 77
            },
            {
              "start": 15240,
              "duration": 21,
              "midi": 51,
              "velocity": 77
            },
            {
              "start": 15288,
              "duration": 21,
              "midi": 39,
              "velocity": 77
            },
            {
              "start": 15312,
              "duration": 21,
              "midi": 51,
              "velocity": 77
            },
            {
              "start": 15336,
              "duration": 21,
              "midi": 39,
              "velocity": 77
            },
            {
              "start": 15360,
              "duration": 21,
              "midi": 42,
              "velocity": 77
            },
            {
              "start": 15384,
              "duration": 21,
              "midi": 42,
              "velocity": 77
            },
            {
              "start": 15408,
              "duration": 21,
              "midi": 54,
              "velocity": 77
            },
            {
              "start": 15456,
              "duration": 21,
              "midi": 42,
              "velocity": 77
            },
            {
              "start": 15480,
              "duration": 21,
              "midi": 54,
              "velocity": 77
            },
            {
              "start": 15528,
              "duration": 21,
              "midi": 42,
              "velocity": 77
            },
            {
              "start": 15552,
              "duration": 21,
              "midi": 54,
              "velocity": 77
            },
            {
              "start": 15600,
              "duration": 21,
              "midi": 42,
              "velocity": 77
            },
            {
              "start": 15624,
              "duration": 21,
              "midi": 54,
              "velocity": 77
            },
            {
              "start": 15672,
              "duration": 21,
              "midi": 42,
              "velocity": 77
            },
            {
              "start": 15696,
              "duration": 21,
              "midi": 54,
              "velocity": 77
            },
            {
              "start": 15720,
              "duration": 21,
              "midi": 42,
              "velocity": 77
            },
            {
              "start": 15744,
              "duration": 21,
              "midi": 42,
              "velocity": 77
            },
            {
              "start": 15768,
              "duration": 21,
              "midi": 42,
              "velocity": 77
            },
            {
              "start": 15792,
              "duration": 21,
              "midi": 54,
              "velocity": 77
            },
            {
              "start": 15840,
              "duration": 21,
              "midi": 42,
              "velocity": 77
            },
            {
              "start": 15864,
              "duration": 21,
              "midi": 54,
              "velocity": 77
            },
            {
              "start": 15912,
              "duration": 21,
              "midi": 42,
              "velocity": 77
            },
            {
              "start": 15936,
              "duration": 21,
              "midi": 54,
              "velocity": 77
            },
            {
              "start": 15984,
              "duration": 21,
              "midi": 42,
              "velocity": 77
            },
            {
              "start": 16008,
              "duration": 21,
              "midi": 54,
              "velocity": 77
            },
            {
              "start": 16056,
              "duration": 21,
              "midi": 42,
              "velocity": 77
            },
            {
              "start": 16080,
              "duration": 21,
              "midi": 54,
              "velocity": 77
            },
            {
              "start": 16104,
              "duration": 21,
              "midi": 42,
              "velocity": 77
            },
            {
              "start": 16128,
              "duration": 21,
              "midi": 42,
              "velocity": 77
            },
            {
              "start": 16152,
              "duration": 21,
              "midi": 42,
              "velocity": 77
            },
            {
              "start": 16176,
              "duration": 21,
              "midi": 54,
              "velocity": 77
            },
            {
              "start": 16224,
              "duration": 21,
              "midi": 42,
              "velocity": 77
            },
            {
              "start": 16248,
              "duration": 21,
              "midi": 54,
              "velocity": 77
            },
            {
              "start": 16296,
              "duration": 21,
              "midi": 42,
              "velocity": 77
            },
            {
              "start": 16320,
              "duration": 21,
              "midi": 54,
              "velocity": 77
            },
            {
              "start": 16368,
              "duration": 21,
              "midi": 42,
              "velocity": 77
            },
            {
              "start": 16392,
              "duration": 21,
              "midi": 54,
              "velocity": 77
            },
            {
              "start": 16440,
              "duration": 21,
              "midi": 42,
              "velocity": 77
            },
            {
              "start": 16464,
              "duration": 21,
              "midi": 54,
              "velocity": 77
            },
            {
              "start": 16488,
              "duration": 21,
              "midi": 42,
              "velocity": 77
            },
            {
              "start": 16512,
              "duration": 21,
              "midi": 42,
              "velocity": 77
            },
            {
              "start": 16536,
              "duration": 21,
              "midi": 42,
              "velocity": 77
            },
            {
              "start": 16560,
              "duration": 21,
              "midi": 54,
              "velocity": 77
            },
            {
              "start": 16608,
              "duration": 21,
              "midi": 42,
              "velocity": 77
            },
            {
              "start": 16632,
              "duration": 21,
              "midi": 54,
              "velocity": 77
            },
            {
              "start": 16680,
              "duration": 21,
              "midi": 42,
              "velocity": 77
            },
            {
              "start": 16704,
              "duration": 21,
              "midi": 54,
              "velocity": 77
            },
            {
              "start": 16752,
              "duration": 21,
              "midi": 42,
              "velocity": 77
            },
            {
              "start": 16776,
              "duration": 21,
              "midi": 54,
              "velocity": 77
            },
            {
              "start": 16824,
              "duration": 21,
              "midi": 42,
              "velocity": 77
            },
            {
              "start": 16848,
              "duration": 21,
              "midi": 54,
              "velocity": 77
            },
            {
              "start": 16872,
              "duration": 21,
              "midi": 42,
              "velocity": 77
            },
            {
              "start": 16896,
              "duration": 21,
              "midi": 39,
              "velocity": 77
            },
            {
              "start": 16920,
              "duration": 21,
              "midi": 39,
              "velocity": 77
            },
            {
              "start": 16944,
              "duration": 21,
              "midi": 51,
              "velocity": 77
            },
            {
              "start": 16992,
              "duration": 21,
              "midi": 39,
              "velocity": 77
            },
            {
              "start": 17016,
              "duration": 21,
              "midi": 51,
              "velocity": 77
            },
            {
              "start": 17064,
              "duration": 21,
              "midi": 39,
              "velocity": 77
            },
            {
              "start": 17088,
              "duration": 21,
              "midi": 51,
              "velocity": 77
            },
            {
              "start": 17136,
              "duration": 21,
              "midi": 39,
              "velocity": 77
            },
            {
              "start": 17160,
              "duration": 21,
              "midi": 51,
              "velocity": 77
            },
            {
              "start": 17208,
              "duration": 21,
              "midi": 39,
              "velocity": 77
            },
            {
              "start": 17232,
              "duration": 21,
              "midi": 51,
              "velocity": 77
            },
            {
              "start": 17256,
              "duration": 21,
              "midi": 39,
              "velocity": 77
            },
            {
              "start": 17280,
              "duration": 21,
              "midi": 39,
              "velocity": 77
            },
            {
              "start": 17304,
              "duration": 21,
              "midi": 39,
              "velocity": 77
            },
            {
              "start": 17328,
              "duration": 21,
              "midi": 51,
              "velocity": 77
            },
            {
              "start": 17376,
              "duration": 21,
              "midi": 39,
              "velocity": 77
            },
            {
              "start": 17400,
              "duration": 21,
              "midi": 51,
              "velocity": 77
            },
            {
              "start": 17448,
              "duration": 21,
              "midi": 39,
              "velocity": 77
            },
            {
              "start": 17472,
              "duration": 21,
              "midi": 51,
              "velocity": 77
            },
            {
              "start": 17520,
              "duration": 21,
              "midi": 39,
              "velocity": 77
            },
            {
              "start": 17544,
              "duration": 21,
              "midi": 51,
              "velocity": 77
            },
            {
              "start": 17592,
              "duration": 21,
              "midi": 39,
              "velocity": 77
            },
            {
              "start": 17616,
              "duration": 21,
              "midi": 51,
              "velocity": 77
            },
            {
              "start": 17640,
              "duration": 21,
              "midi": 39,
              "velocity": 77
            },
            {
              "start": 17664,
              "duration": 21,
              "midi": 39,
              "velocity": 77
            },
            {
              "start": 17688,
              "duration": 21,
              "midi": 39,
              "velocity": 77
            },
            {
              "start": 17712,
              "duration": 21,
              "midi": 51,
              "velocity": 77
            },
            {
              "start": 17760,
              "duration": 21,
              "midi": 39,
              "velocity": 77
            },
            {
              "start": 17784,
              "duration": 21,
              "midi": 51,
              "velocity": 77
            },
            {
              "start": 17832,
              "duration": 21,
              "midi": 39,
              "velocity": 77
            },
            {
              "start": 17856,
              "duration": 21,
              "midi": 51,
              "velocity": 77
            },
            {
              "start": 17904,
              "duration": 21,
              "midi": 39,
              "velocity": 77
            },
            {
              "start": 17928,
              "duration": 21,
              "midi": 51,
              "velocity": 77
            },
            {
              "start": 17976,
              "duration": 21,
              "midi": 39,
              "velocity": 77
            },
            {
              "start": 18000,
              "duration": 21,
              "midi": 51,
              "velocity": 77
            },
            {
              "start": 18024,
              "duration": 21,
              "midi": 39,
              "velocity": 77
            },
            {
              "start": 18048,
              "duration": 21,
              "midi": 39,
              "velocity": 77
            },
            {
              "start": 18072,
              "duration": 21,
              "midi": 39,
              "velocity": 77
            },
            {
              "start": 18096,
              "duration": 21,
              "midi": 51,
              "velocity": 77
            },
            {
              "start": 18144,
              "duration": 21,
              "midi": 39,
              "velocity": 77
            },
            {
              "start": 18168,
              "duration": 21,
              "midi": 51,
              "velocity": 77
            },
            {
              "start": 18216,
              "duration": 21,
              "midi": 39,
              "velocity": 77
            },
            {
              "start": 18240,
              "duration": 21,
              "midi": 51,
              "velocity": 77
            },
            {
              "start": 18288,
              "duration": 21,
              "midi": 39,
              "velocity": 77
            },
            {
              "start": 18312,
              "duration": 21,
              "midi": 51,
              "velocity": 77
            },
            {
              "start": 18360,
              "duration": 21,
              "midi": 39,
              "velocity": 77
            },
            {
              "start": 18384,
              "duration": 21,
              "midi": 51,
              "velocity": 77
            },
            {
              "start": 18408,
              "duration": 21,
              "midi": 39,
              "velocity": 77
            }
          ]
        }
      ],
      "enginePresetName": "factory:LEAD Supersaw"
    },
    {
      "id": "lane-mpr0lmu9-a",
      "engineId": "tb303",
      "name": "Sub Melody 3",
      "clips": [
        {
          "id": "clip-mpr0lmu9-9",
          "name": "Sub Melody 3",
          "lengthBars": 48,
          "notes": [
            {
              "start": 12336,
              "duration": 20,
              "midi": 66,
              "velocity": 118
            },
            {
              "start": 12336,
              "duration": 20,
              "midi": 70,
              "velocity": 118
            },
            {
              "start": 12384,
              "duration": 20,
              "midi": 66,
              "velocity": 118
            },
            {
              "start": 12384,
              "duration": 20,
              "midi": 70,
              "velocity": 118
            },
            {
              "start": 12456,
              "duration": 20,
              "midi": 66,
              "velocity": 118
            },
            {
              "start": 12456,
              "duration": 20,
              "midi": 70,
              "velocity": 118
            },
            {
              "start": 12528,
              "duration": 20,
              "midi": 65,
              "velocity": 118
            },
            {
              "start": 12528,
              "duration": 20,
              "midi": 68,
              "velocity": 118
            },
            {
              "start": 12576,
              "duration": 20,
              "midi": 65,
              "velocity": 118
            },
            {
              "start": 12576,
              "duration": 20,
              "midi": 68,
              "velocity": 118
            },
            {
              "start": 12648,
              "duration": 20,
              "midi": 65,
              "velocity": 118
            },
            {
              "start": 12648,
              "duration": 20,
              "midi": 68,
              "velocity": 118
            },
            {
              "start": 12720,
              "duration": 20,
              "midi": 66,
              "velocity": 118
            },
            {
              "start": 12720,
              "duration": 20,
              "midi": 70,
              "velocity": 118
            },
            {
              "start": 12768,
              "duration": 20,
              "midi": 66,
              "velocity": 118
            },
            {
              "start": 12768,
              "duration": 20,
              "midi": 70,
              "velocity": 118
            },
            {
              "start": 12840,
              "duration": 20,
              "midi": 66,
              "velocity": 118
            },
            {
              "start": 12840,
              "duration": 20,
              "midi": 70,
              "velocity": 118
            },
            {
              "start": 12912,
              "duration": 20,
              "midi": 65,
              "velocity": 118
            },
            {
              "start": 12912,
              "duration": 20,
              "midi": 68,
              "velocity": 118
            },
            {
              "start": 12960,
              "duration": 20,
              "midi": 65,
              "velocity": 118
            },
            {
              "start": 12960,
              "duration": 20,
              "midi": 68,
              "velocity": 118
            },
            {
              "start": 13032,
              "duration": 20,
              "midi": 65,
              "velocity": 118
            },
            {
              "start": 13032,
              "duration": 20,
              "midi": 68,
              "velocity": 118
            },
            {
              "start": 13104,
              "duration": 20,
              "midi": 66,
              "velocity": 118
            },
            {
              "start": 13104,
              "duration": 20,
              "midi": 70,
              "velocity": 118
            },
            {
              "start": 13152,
              "duration": 20,
              "midi": 66,
              "velocity": 118
            },
            {
              "start": 13152,
              "duration": 20,
              "midi": 70,
              "velocity": 118
            },
            {
              "start": 13224,
              "duration": 20,
              "midi": 66,
              "velocity": 118
            },
            {
              "start": 13224,
              "duration": 20,
              "midi": 70,
              "velocity": 118
            },
            {
              "start": 13296,
              "duration": 20,
              "midi": 65,
              "velocity": 118
            },
            {
              "start": 13296,
              "duration": 20,
              "midi": 68,
              "velocity": 118
            },
            {
              "start": 13344,
              "duration": 20,
              "midi": 65,
              "velocity": 118
            },
            {
              "start": 13344,
              "duration": 20,
              "midi": 68,
              "velocity": 118
            },
            {
              "start": 13416,
              "duration": 20,
              "midi": 65,
              "velocity": 118
            },
            {
              "start": 13416,
              "duration": 20,
              "midi": 68,
              "velocity": 118
            },
            {
              "start": 13488,
              "duration": 20,
              "midi": 66,
              "velocity": 118
            },
            {
              "start": 13488,
              "duration": 20,
              "midi": 70,
              "velocity": 118
            },
            {
              "start": 13536,
              "duration": 20,
              "midi": 66,
              "velocity": 118
            },
            {
              "start": 13536,
              "duration": 20,
              "midi": 70,
              "velocity": 118
            },
            {
              "start": 13608,
              "duration": 20,
              "midi": 66,
              "velocity": 118
            },
            {
              "start": 13608,
              "duration": 20,
              "midi": 70,
              "velocity": 118
            },
            {
              "start": 13680,
              "duration": 20,
              "midi": 65,
              "velocity": 118
            },
            {
              "start": 13680,
              "duration": 20,
              "midi": 68,
              "velocity": 118
            },
            {
              "start": 13728,
              "duration": 20,
              "midi": 65,
              "velocity": 118
            },
            {
              "start": 13728,
              "duration": 20,
              "midi": 68,
              "velocity": 118
            },
            {
              "start": 13800,
              "duration": 20,
              "midi": 65,
              "velocity": 118
            },
            {
              "start": 13800,
              "duration": 20,
              "midi": 68,
              "velocity": 118
            },
            {
              "start": 13872,
              "duration": 20,
              "midi": 66,
              "velocity": 118
            },
            {
              "start": 13872,
              "duration": 20,
              "midi": 63,
              "velocity": 118
            },
            {
              "start": 13920,
              "duration": 20,
              "midi": 66,
              "velocity": 118
            },
            {
              "start": 13920,
              "duration": 20,
              "midi": 63,
              "velocity": 118
            },
            {
              "start": 13992,
              "duration": 20,
              "midi": 66,
              "velocity": 118
            },
            {
              "start": 13992,
              "duration": 20,
              "midi": 63,
              "velocity": 118
            },
            {
              "start": 14064,
              "duration": 20,
              "midi": 65,
              "velocity": 118
            },
            {
              "start": 14064,
              "duration": 20,
              "midi": 61,
              "velocity": 118
            },
            {
              "start": 14112,
              "duration": 20,
              "midi": 65,
              "velocity": 118
            },
            {
              "start": 14112,
              "duration": 20,
              "midi": 61,
              "velocity": 118
            },
            {
              "start": 14184,
              "duration": 20,
              "midi": 65,
              "velocity": 118
            },
            {
              "start": 14184,
              "duration": 20,
              "midi": 61,
              "velocity": 118
            },
            {
              "start": 14256,
              "duration": 20,
              "midi": 66,
              "velocity": 118
            },
            {
              "start": 14256,
              "duration": 20,
              "midi": 63,
              "velocity": 118
            },
            {
              "start": 14304,
              "duration": 20,
              "midi": 66,
              "velocity": 118
            },
            {
              "start": 14304,
              "duration": 20,
              "midi": 63,
              "velocity": 118
            },
            {
              "start": 14376,
              "duration": 20,
              "midi": 66,
              "velocity": 118
            },
            {
              "start": 14376,
              "duration": 20,
              "midi": 63,
              "velocity": 118
            },
            {
              "start": 14448,
              "duration": 20,
              "midi": 65,
              "velocity": 118
            },
            {
              "start": 14448,
              "duration": 20,
              "midi": 61,
              "velocity": 118
            },
            {
              "start": 14496,
              "duration": 20,
              "midi": 65,
              "velocity": 118
            },
            {
              "start": 14496,
              "duration": 20,
              "midi": 61,
              "velocity": 118
            },
            {
              "start": 14568,
              "duration": 20,
              "midi": 65,
              "velocity": 118
            },
            {
              "start": 14568,
              "duration": 20,
              "midi": 61,
              "velocity": 118
            },
            {
              "start": 14640,
              "duration": 20,
              "midi": 66,
              "velocity": 118
            },
            {
              "start": 14640,
              "duration": 20,
              "midi": 63,
              "velocity": 118
            },
            {
              "start": 14688,
              "duration": 20,
              "midi": 66,
              "velocity": 118
            },
            {
              "start": 14688,
              "duration": 20,
              "midi": 63,
              "velocity": 118
            },
            {
              "start": 14760,
              "duration": 20,
              "midi": 66,
              "velocity": 118
            },
            {
              "start": 14760,
              "duration": 20,
              "midi": 63,
              "velocity": 118
            },
            {
              "start": 14832,
              "duration": 20,
              "midi": 65,
              "velocity": 118
            },
            {
              "start": 14832,
              "duration": 20,
              "midi": 61,
              "velocity": 118
            },
            {
              "start": 14880,
              "duration": 20,
              "midi": 65,
              "velocity": 118
            },
            {
              "start": 14880,
              "duration": 20,
              "midi": 61,
              "velocity": 118
            },
            {
              "start": 14952,
              "duration": 20,
              "midi": 65,
              "velocity": 118
            },
            {
              "start": 14952,
              "duration": 20,
              "midi": 61,
              "velocity": 118
            },
            {
              "start": 15024,
              "duration": 20,
              "midi": 66,
              "velocity": 118
            },
            {
              "start": 15024,
              "duration": 20,
              "midi": 63,
              "velocity": 118
            },
            {
              "start": 15072,
              "duration": 20,
              "midi": 66,
              "velocity": 118
            },
            {
              "start": 15072,
              "duration": 20,
              "midi": 63,
              "velocity": 118
            },
            {
              "start": 15144,
              "duration": 20,
              "midi": 66,
              "velocity": 118
            },
            {
              "start": 15144,
              "duration": 20,
              "midi": 63,
              "velocity": 118
            },
            {
              "start": 15216,
              "duration": 20,
              "midi": 65,
              "velocity": 118
            },
            {
              "start": 15216,
              "duration": 20,
              "midi": 68,
              "velocity": 118
            },
            {
              "start": 15264,
              "duration": 20,
              "midi": 65,
              "velocity": 118
            },
            {
              "start": 15264,
              "duration": 20,
              "midi": 68,
              "velocity": 118
            },
            {
              "start": 15336,
              "duration": 20,
              "midi": 65,
              "velocity": 118
            },
            {
              "start": 15336,
              "duration": 20,
              "midi": 68,
              "velocity": 118
            },
            {
              "start": 15408,
              "duration": 20,
              "midi": 66,
              "velocity": 118
            },
            {
              "start": 15408,
              "duration": 20,
              "midi": 70,
              "velocity": 118
            },
            {
              "start": 15456,
              "duration": 20,
              "midi": 66,
              "velocity": 118
            },
            {
              "start": 15456,
              "duration": 20,
              "midi": 70,
              "velocity": 118
            },
            {
              "start": 15528,
              "duration": 20,
              "midi": 66,
              "velocity": 118
            },
            {
              "start": 15528,
              "duration": 20,
              "midi": 70,
              "velocity": 118
            },
            {
              "start": 15600,
              "duration": 20,
              "midi": 65,
              "velocity": 118
            },
            {
              "start": 15600,
              "duration": 20,
              "midi": 68,
              "velocity": 118
            },
            {
              "start": 15648,
              "duration": 20,
              "midi": 65,
              "velocity": 118
            },
            {
              "start": 15648,
              "duration": 20,
              "midi": 68,
              "velocity": 118
            },
            {
              "start": 15720,
              "duration": 20,
              "midi": 65,
              "velocity": 118
            },
            {
              "start": 15720,
              "duration": 20,
              "midi": 68,
              "velocity": 118
            },
            {
              "start": 15792,
              "duration": 20,
              "midi": 66,
              "velocity": 118
            },
            {
              "start": 15792,
              "duration": 20,
              "midi": 70,
              "velocity": 118
            },
            {
              "start": 15840,
              "duration": 20,
              "midi": 66,
              "velocity": 118
            },
            {
              "start": 15840,
              "duration": 20,
              "midi": 70,
              "velocity": 118
            },
            {
              "start": 15912,
              "duration": 20,
              "midi": 66,
              "velocity": 118
            },
            {
              "start": 15912,
              "duration": 20,
              "midi": 70,
              "velocity": 118
            },
            {
              "start": 15984,
              "duration": 20,
              "midi": 65,
              "velocity": 118
            },
            {
              "start": 15984,
              "duration": 20,
              "midi": 68,
              "velocity": 118
            },
            {
              "start": 16032,
              "duration": 20,
              "midi": 65,
              "velocity": 118
            },
            {
              "start": 16032,
              "duration": 20,
              "midi": 68,
              "velocity": 118
            },
            {
              "start": 16104,
              "duration": 20,
              "midi": 65,
              "velocity": 118
            },
            {
              "start": 16104,
              "duration": 20,
              "midi": 68,
              "velocity": 118
            },
            {
              "start": 16176,
              "duration": 20,
              "midi": 66,
              "velocity": 118
            },
            {
              "start": 16176,
              "duration": 20,
              "midi": 70,
              "velocity": 118
            },
            {
              "start": 16224,
              "duration": 20,
              "midi": 66,
              "velocity": 118
            },
            {
              "start": 16224,
              "duration": 20,
              "midi": 70,
              "velocity": 118
            },
            {
              "start": 16296,
              "duration": 20,
              "midi": 66,
              "velocity": 118
            },
            {
              "start": 16296,
              "duration": 20,
              "midi": 70,
              "velocity": 118
            },
            {
              "start": 16368,
              "duration": 20,
              "midi": 65,
              "velocity": 118
            },
            {
              "start": 16368,
              "duration": 20,
              "midi": 68,
              "velocity": 118
            },
            {
              "start": 16416,
              "duration": 20,
              "midi": 65,
              "velocity": 118
            },
            {
              "start": 16416,
              "duration": 20,
              "midi": 68,
              "velocity": 118
            },
            {
              "start": 16488,
              "duration": 20,
              "midi": 65,
              "velocity": 118
            },
            {
              "start": 16488,
              "duration": 20,
              "midi": 68,
              "velocity": 118
            },
            {
              "start": 16560,
              "duration": 20,
              "midi": 66,
              "velocity": 118
            },
            {
              "start": 16560,
              "duration": 20,
              "midi": 70,
              "velocity": 118
            },
            {
              "start": 16608,
              "duration": 20,
              "midi": 66,
              "velocity": 118
            },
            {
              "start": 16608,
              "duration": 20,
              "midi": 70,
              "velocity": 118
            },
            {
              "start": 16680,
              "duration": 20,
              "midi": 66,
              "velocity": 118
            },
            {
              "start": 16680,
              "duration": 20,
              "midi": 70,
              "velocity": 118
            },
            {
              "start": 16752,
              "duration": 20,
              "midi": 65,
              "velocity": 118
            },
            {
              "start": 16752,
              "duration": 20,
              "midi": 68,
              "velocity": 118
            },
            {
              "start": 16800,
              "duration": 20,
              "midi": 65,
              "velocity": 118
            },
            {
              "start": 16800,
              "duration": 20,
              "midi": 68,
              "velocity": 118
            },
            {
              "start": 16872,
              "duration": 20,
              "midi": 65,
              "velocity": 118
            },
            {
              "start": 16872,
              "duration": 20,
              "midi": 68,
              "velocity": 118
            },
            {
              "start": 16944,
              "duration": 20,
              "midi": 66,
              "velocity": 118
            },
            {
              "start": 16944,
              "duration": 20,
              "midi": 63,
              "velocity": 118
            },
            {
              "start": 16992,
              "duration": 20,
              "midi": 66,
              "velocity": 118
            },
            {
              "start": 16992,
              "duration": 20,
              "midi": 63,
              "velocity": 118
            },
            {
              "start": 17064,
              "duration": 20,
              "midi": 66,
              "velocity": 118
            },
            {
              "start": 17064,
              "duration": 20,
              "midi": 63,
              "velocity": 118
            },
            {
              "start": 17136,
              "duration": 20,
              "midi": 65,
              "velocity": 118
            },
            {
              "start": 17136,
              "duration": 20,
              "midi": 61,
              "velocity": 118
            },
            {
              "start": 17184,
              "duration": 20,
              "midi": 65,
              "velocity": 118
            },
            {
              "start": 17184,
              "duration": 20,
              "midi": 61,
              "velocity": 118
            },
            {
              "start": 17256,
              "duration": 20,
              "midi": 65,
              "velocity": 118
            },
            {
              "start": 17256,
              "duration": 20,
              "midi": 61,
              "velocity": 118
            },
            {
              "start": 17328,
              "duration": 20,
              "midi": 66,
              "velocity": 118
            },
            {
              "start": 17328,
              "duration": 20,
              "midi": 63,
              "velocity": 118
            },
            {
              "start": 17376,
              "duration": 20,
              "midi": 66,
              "velocity": 118
            },
            {
              "start": 17376,
              "duration": 20,
              "midi": 63,
              "velocity": 118
            },
            {
              "start": 17448,
              "duration": 20,
              "midi": 66,
              "velocity": 118
            },
            {
              "start": 17448,
              "duration": 20,
              "midi": 63,
              "velocity": 118
            },
            {
              "start": 17520,
              "duration": 20,
              "midi": 65,
              "velocity": 118
            },
            {
              "start": 17520,
              "duration": 20,
              "midi": 61,
              "velocity": 118
            },
            {
              "start": 17568,
              "duration": 20,
              "midi": 65,
              "velocity": 118
            },
            {
              "start": 17568,
              "duration": 20,
              "midi": 61,
              "velocity": 118
            },
            {
              "start": 17640,
              "duration": 20,
              "midi": 65,
              "velocity": 118
            },
            {
              "start": 17640,
              "duration": 20,
              "midi": 61,
              "velocity": 118
            },
            {
              "start": 17712,
              "duration": 20,
              "midi": 66,
              "velocity": 118
            },
            {
              "start": 17712,
              "duration": 20,
              "midi": 63,
              "velocity": 118
            },
            {
              "start": 17760,
              "duration": 20,
              "midi": 66,
              "velocity": 118
            },
            {
              "start": 17760,
              "duration": 20,
              "midi": 63,
              "velocity": 118
            },
            {
              "start": 17832,
              "duration": 20,
              "midi": 66,
              "velocity": 118
            },
            {
              "start": 17832,
              "duration": 20,
              "midi": 63,
              "velocity": 118
            },
            {
              "start": 17904,
              "duration": 20,
              "midi": 65,
              "velocity": 118
            },
            {
              "start": 17904,
              "duration": 20,
              "midi": 61,
              "velocity": 118
            },
            {
              "start": 17952,
              "duration": 20,
              "midi": 65,
              "velocity": 118
            },
            {
              "start": 17952,
              "duration": 20,
              "midi": 61,
              "velocity": 118
            },
            {
              "start": 18024,
              "duration": 20,
              "midi": 65,
              "velocity": 118
            },
            {
              "start": 18024,
              "duration": 20,
              "midi": 61,
              "velocity": 118
            },
            {
              "start": 18096,
              "duration": 20,
              "midi": 66,
              "velocity": 118
            },
            {
              "start": 18096,
              "duration": 20,
              "midi": 63,
              "velocity": 118
            },
            {
              "start": 18144,
              "duration": 20,
              "midi": 66,
              "velocity": 118
            },
            {
              "start": 18144,
              "duration": 20,
              "midi": 63,
              "velocity": 118
            },
            {
              "start": 18216,
              "duration": 20,
              "midi": 66,
              "velocity": 118
            },
            {
              "start": 18216,
              "duration": 20,
              "midi": 63,
              "velocity": 118
            },
            {
              "start": 18288,
              "duration": 20,
              "midi": 65,
              "velocity": 118
            },
            {
              "start": 18288,
              "duration": 20,
              "midi": 68,
              "velocity": 118
            },
            {
              "start": 18336,
              "duration": 20,
              "midi": 65,
              "velocity": 118
            },
            {
              "start": 18336,
              "duration": 20,
              "midi": 68,
              "velocity": 118
            },
            {
              "start": 18408,
              "duration": 20,
              "midi": 65,
              "velocity": 118
            },
            {
              "start": 18408,
              "duration": 20,
              "midi": 68,
              "velocity": 118
            }
          ]
        }
      ],
      "enginePresetName": "factory:BASS Hoover Sub"
    },
    {
      "id": "lane-mpr0lmu9-c",
      "engineId": "karplus",
      "name": "Guitar",
      "clips": [
        {
          "id": "clip-mpr0lmu9-b",
          "name": "Guitar",
          "lengthBars": 48,
          "notes": [
            {
              "start": 9216,
              "duration": 44,
              "midi": 66,
              "velocity": 125
            },
            {
              "start": 9264,
              "duration": 44,
              "midi": 65,
              "velocity": 125
            },
            {
              "start": 9312,
              "duration": 380,
              "midi": 61,
              "velocity": 125
            },
            {
              "start": 9984,
              "duration": 44,
              "midi": 66,
              "velocity": 125
            },
            {
              "start": 10032,
              "duration": 44,
              "midi": 65,
              "velocity": 125
            },
            {
              "start": 10080,
              "duration": 92,
              "midi": 61,
              "velocity": 125
            },
            {
              "start": 10224,
              "duration": 44,
              "midi": 66,
              "velocity": 125
            },
            {
              "start": 10272,
              "duration": 44,
              "midi": 65,
              "velocity": 125
            },
            {
              "start": 10320,
              "duration": 236,
              "midi": 61,
              "velocity": 125
            },
            {
              "start": 10560,
              "duration": 44,
              "midi": 68,
              "velocity": 125
            },
            {
              "start": 10608,
              "duration": 140,
              "midi": 70,
              "velocity": 125
            },
            {
              "start": 10752,
              "duration": 284,
              "midi": 58,
              "velocity": 125
            },
            {
              "start": 11040,
              "duration": 44,
              "midi": 56,
              "velocity": 125
            },
            {
              "start": 11088,
              "duration": 380,
              "midi": 58,
              "velocity": 125
            },
            {
              "start": 11616,
              "duration": 44,
              "midi": 68,
              "velocity": 125
            },
            {
              "start": 11616,
              "duration": 44,
              "midi": 65,
              "velocity": 125
            },
            {
              "start": 11664,
              "duration": 92,
              "midi": 68,
              "velocity": 125
            },
            {
              "start": 11664,
              "duration": 92,
              "midi": 65,
              "velocity": 125
            },
            {
              "start": 11760,
              "duration": 92,
              "midi": 63,
              "velocity": 125
            },
            {
              "start": 11760,
              "duration": 92,
              "midi": 66,
              "velocity": 125
            },
            {
              "start": 11856,
              "duration": 92,
              "midi": 68,
              "velocity": 125
            },
            {
              "start": 11856,
              "duration": 92,
              "midi": 65,
              "velocity": 125
            },
            {
              "start": 11952,
              "duration": 92,
              "midi": 63,
              "velocity": 125
            },
            {
              "start": 11952,
              "duration": 92,
              "midi": 66,
              "velocity": 125
            },
            {
              "start": 12048,
              "duration": 92,
              "midi": 63,
              "velocity": 125
            },
            {
              "start": 12048,
              "duration": 92,
              "midi": 66,
              "velocity": 125
            },
            {
              "start": 12144,
              "duration": 140,
              "midi": 61,
              "velocity": 125
            },
            {
              "start": 12144,
              "duration": 140,
              "midi": 65,
              "velocity": 125
            }
          ]
        }
      ],
      "enginePresetName": "factory:GTR Clean Electric"
    },
    {
      "id": "lane-mpr0lmu9-e",
      "engineId": "tb303",
      "name": "Bassline 1",
      "clips": [
        {
          "id": "clip-mpr0lmu9-d",
          "name": "Bassline 1",
          "lengthBars": 48,
          "notes": [
            {
              "start": 6168,
              "duration": 20,
              "midi": 42,
              "velocity": 78
            },
            {
              "start": 6216,
              "duration": 20,
              "midi": 42,
              "velocity": 78
            },
            {
              "start": 6264,
              "duration": 20,
              "midi": 42,
              "velocity": 78
            },
            {
              "start": 6312,
              "duration": 20,
              "midi": 42,
              "velocity": 78
            },
            {
              "start": 6360,
              "duration": 20,
              "midi": 42,
              "velocity": 78
            },
            {
              "start": 6408,
              "duration": 20,
              "midi": 42,
              "velocity": 78
            },
            {
              "start": 6456,
              "duration": 20,
              "midi": 42,
              "velocity": 78
            },
            {
              "start": 6504,
              "duration": 20,
              "midi": 42,
              "velocity": 78
            },
            {
              "start": 6552,
              "duration": 20,
              "midi": 42,
              "velocity": 78
            },
            {
              "start": 6600,
              "duration": 20,
              "midi": 42,
              "velocity": 78
            },
            {
              "start": 6648,
              "duration": 20,
              "midi": 42,
              "velocity": 78
            },
            {
              "start": 6696,
              "duration": 20,
              "midi": 42,
              "velocity": 78
            },
            {
              "start": 6744,
              "duration": 20,
              "midi": 42,
              "velocity": 78
            },
            {
              "start": 6792,
              "duration": 20,
              "midi": 42,
              "velocity": 78
            },
            {
              "start": 6840,
              "duration": 20,
              "midi": 42,
              "velocity": 78
            },
            {
              "start": 6888,
              "duration": 20,
              "midi": 42,
              "velocity": 78
            },
            {
              "start": 6936,
              "duration": 20,
              "midi": 42,
              "velocity": 78
            },
            {
              "start": 6984,
              "duration": 20,
              "midi": 42,
              "velocity": 78
            },
            {
              "start": 7032,
              "duration": 20,
              "midi": 42,
              "velocity": 78
            },
            {
              "start": 7080,
              "duration": 20,
              "midi": 42,
              "velocity": 78
            },
            {
              "start": 7128,
              "duration": 20,
              "midi": 42,
              "velocity": 78
            },
            {
              "start": 7176,
              "duration": 20,
              "midi": 42,
              "velocity": 78
            },
            {
              "start": 7224,
              "duration": 20,
              "midi": 42,
              "velocity": 78
            },
            {
              "start": 7272,
              "duration": 20,
              "midi": 42,
              "velocity": 78
            },
            {
              "start": 7320,
              "duration": 20,
              "midi": 42,
              "velocity": 78
            },
            {
              "start": 7368,
              "duration": 20,
              "midi": 42,
              "velocity": 78
            },
            {
              "start": 7416,
              "duration": 20,
              "midi": 42,
              "velocity": 78
            },
            {
              "start": 7464,
              "duration": 20,
              "midi": 42,
              "velocity": 78
            },
            {
              "start": 7512,
              "duration": 20,
              "midi": 42,
              "velocity": 78
            },
            {
              "start": 7560,
              "duration": 20,
              "midi": 42,
              "velocity": 78
            },
            {
              "start": 7608,
              "duration": 20,
              "midi": 42,
              "velocity": 78
            },
            {
              "start": 7656,
              "duration": 20,
              "midi": 42,
              "velocity": 78
            },
            {
              "start": 7704,
              "duration": 20,
              "midi": 39,
              "velocity": 78
            },
            {
              "start": 7752,
              "duration": 20,
              "midi": 39,
              "velocity": 78
            },
            {
              "start": 7800,
              "duration": 20,
              "midi": 39,
              "velocity": 78
            },
            {
              "start": 7848,
              "duration": 20,
              "midi": 39,
              "velocity": 78
            },
            {
              "start": 7896,
              "duration": 20,
              "midi": 39,
              "velocity": 78
            },
            {
              "start": 7944,
              "duration": 20,
              "midi": 39,
              "velocity": 78
            },
            {
              "start": 7992,
              "duration": 20,
              "midi": 39,
              "velocity": 78
            },
            {
              "start": 8040,
              "duration": 20,
              "midi": 39,
              "velocity": 78
            },
            {
              "start": 8088,
              "duration": 20,
              "midi": 39,
              "velocity": 78
            },
            {
              "start": 8136,
              "duration": 20,
              "midi": 39,
              "velocity": 78
            },
            {
              "start": 8184,
              "duration": 20,
              "midi": 39,
              "velocity": 78
            },
            {
              "start": 8232,
              "duration": 20,
              "midi": 39,
              "velocity": 78
            },
            {
              "start": 8280,
              "duration": 20,
              "midi": 39,
              "velocity": 78
            },
            {
              "start": 8328,
              "duration": 20,
              "midi": 39,
              "velocity": 78
            },
            {
              "start": 8376,
              "duration": 20,
              "midi": 39,
              "velocity": 78
            },
            {
              "start": 8424,
              "duration": 20,
              "midi": 39,
              "velocity": 78
            },
            {
              "start": 8472,
              "duration": 20,
              "midi": 39,
              "velocity": 78
            },
            {
              "start": 8520,
              "duration": 20,
              "midi": 39,
              "velocity": 78
            },
            {
              "start": 8568,
              "duration": 20,
              "midi": 39,
              "velocity": 78
            },
            {
              "start": 8616,
              "duration": 20,
              "midi": 39,
              "velocity": 78
            },
            {
              "start": 8664,
              "duration": 20,
              "midi": 39,
              "velocity": 78
            },
            {
              "start": 8712,
              "duration": 20,
              "midi": 39,
              "velocity": 78
            },
            {
              "start": 8760,
              "duration": 20,
              "midi": 39,
              "velocity": 78
            },
            {
              "start": 8808,
              "duration": 20,
              "midi": 39,
              "velocity": 78
            },
            {
              "start": 8856,
              "duration": 20,
              "midi": 39,
              "velocity": 78
            },
            {
              "start": 8904,
              "duration": 20,
              "midi": 39,
              "velocity": 78
            },
            {
              "start": 8952,
              "duration": 20,
              "midi": 39,
              "velocity": 78
            },
            {
              "start": 9000,
              "duration": 20,
              "midi": 39,
              "velocity": 78
            },
            {
              "start": 9048,
              "duration": 20,
              "midi": 39,
              "velocity": 78
            },
            {
              "start": 9096,
              "duration": 20,
              "midi": 39,
              "velocity": 78
            },
            {
              "start": 9144,
              "duration": 20,
              "midi": 39,
              "velocity": 78
            },
            {
              "start": 9192,
              "duration": 20,
              "midi": 39,
              "velocity": 78
            },
            {
              "start": 9240,
              "duration": 20,
              "midi": 42,
              "velocity": 78
            },
            {
              "start": 9288,
              "duration": 20,
              "midi": 42,
              "velocity": 78
            },
            {
              "start": 9336,
              "duration": 20,
              "midi": 42,
              "velocity": 78
            },
            {
              "start": 9384,
              "duration": 20,
              "midi": 42,
              "velocity": 78
            },
            {
              "start": 9432,
              "duration": 20,
              "midi": 42,
              "velocity": 78
            },
            {
              "start": 9480,
              "duration": 20,
              "midi": 42,
              "velocity": 78
            },
            {
              "start": 9528,
              "duration": 20,
              "midi": 42,
              "velocity": 78
            },
            {
              "start": 9576,
              "duration": 20,
              "midi": 42,
              "velocity": 78
            },
            {
              "start": 9624,
              "duration": 20,
              "midi": 42,
              "velocity": 78
            },
            {
              "start": 9672,
              "duration": 20,
              "midi": 42,
              "velocity": 78
            },
            {
              "start": 9720,
              "duration": 20,
              "midi": 42,
              "velocity": 78
            },
            {
              "start": 9768,
              "duration": 20,
              "midi": 42,
              "velocity": 78
            },
            {
              "start": 9816,
              "duration": 20,
              "midi": 42,
              "velocity": 78
            },
            {
              "start": 9864,
              "duration": 20,
              "midi": 42,
              "velocity": 78
            },
            {
              "start": 9912,
              "duration": 20,
              "midi": 42,
              "velocity": 78
            },
            {
              "start": 9960,
              "duration": 20,
              "midi": 42,
              "velocity": 78
            },
            {
              "start": 10008,
              "duration": 20,
              "midi": 42,
              "velocity": 78
            },
            {
              "start": 10056,
              "duration": 20,
              "midi": 42,
              "velocity": 78
            },
            {
              "start": 10104,
              "duration": 20,
              "midi": 42,
              "velocity": 78
            },
            {
              "start": 10152,
              "duration": 20,
              "midi": 42,
              "velocity": 78
            },
            {
              "start": 10200,
              "duration": 20,
              "midi": 42,
              "velocity": 78
            },
            {
              "start": 10248,
              "duration": 20,
              "midi": 42,
              "velocity": 78
            },
            {
              "start": 10296,
              "duration": 20,
              "midi": 42,
              "velocity": 78
            },
            {
              "start": 10344,
              "duration": 20,
              "midi": 42,
              "velocity": 78
            },
            {
              "start": 10392,
              "duration": 20,
              "midi": 42,
              "velocity": 78
            },
            {
              "start": 10440,
              "duration": 20,
              "midi": 42,
              "velocity": 78
            },
            {
              "start": 10488,
              "duration": 20,
              "midi": 42,
              "velocity": 78
            },
            {
              "start": 10536,
              "duration": 20,
              "midi": 42,
              "velocity": 78
            },
            {
              "start": 10584,
              "duration": 20,
              "midi": 42,
              "velocity": 78
            },
            {
              "start": 10632,
              "duration": 20,
              "midi": 42,
              "velocity": 78
            },
            {
              "start": 10680,
              "duration": 20,
              "midi": 42,
              "velocity": 78
            },
            {
              "start": 10728,
              "duration": 20,
              "midi": 42,
              "velocity": 78
            },
            {
              "start": 10776,
              "duration": 20,
              "midi": 39,
              "velocity": 78
            },
            {
              "start": 10824,
              "duration": 20,
              "midi": 39,
              "velocity": 78
            },
            {
              "start": 10872,
              "duration": 20,
              "midi": 39,
              "velocity": 78
            },
            {
              "start": 10920,
              "duration": 20,
              "midi": 39,
              "velocity": 78
            },
            {
              "start": 10968,
              "duration": 20,
              "midi": 39,
              "velocity": 78
            },
            {
              "start": 11016,
              "duration": 20,
              "midi": 39,
              "velocity": 78
            },
            {
              "start": 11064,
              "duration": 20,
              "midi": 39,
              "velocity": 78
            },
            {
              "start": 11112,
              "duration": 20,
              "midi": 39,
              "velocity": 78
            },
            {
              "start": 11160,
              "duration": 20,
              "midi": 39,
              "velocity": 78
            },
            {
              "start": 11208,
              "duration": 20,
              "midi": 39,
              "velocity": 78
            },
            {
              "start": 11256,
              "duration": 20,
              "midi": 39,
              "velocity": 78
            },
            {
              "start": 11304,
              "duration": 20,
              "midi": 39,
              "velocity": 78
            },
            {
              "start": 11352,
              "duration": 20,
              "midi": 39,
              "velocity": 78
            },
            {
              "start": 11400,
              "duration": 20,
              "midi": 39,
              "velocity": 78
            },
            {
              "start": 11448,
              "duration": 20,
              "midi": 39,
              "velocity": 78
            },
            {
              "start": 11496,
              "duration": 20,
              "midi": 39,
              "velocity": 78
            },
            {
              "start": 11544,
              "duration": 20,
              "midi": 39,
              "velocity": 78
            },
            {
              "start": 11592,
              "duration": 20,
              "midi": 39,
              "velocity": 78
            },
            {
              "start": 11640,
              "duration": 20,
              "midi": 39,
              "velocity": 78
            },
            {
              "start": 11688,
              "duration": 20,
              "midi": 39,
              "velocity": 78
            },
            {
              "start": 11736,
              "duration": 20,
              "midi": 39,
              "velocity": 78
            },
            {
              "start": 11784,
              "duration": 20,
              "midi": 39,
              "velocity": 78
            },
            {
              "start": 11832,
              "duration": 20,
              "midi": 39,
              "velocity": 78
            },
            {
              "start": 11880,
              "duration": 20,
              "midi": 39,
              "velocity": 78
            },
            {
              "start": 11928,
              "duration": 20,
              "midi": 39,
              "velocity": 78
            },
            {
              "start": 11976,
              "duration": 20,
              "midi": 39,
              "velocity": 78
            },
            {
              "start": 12024,
              "duration": 20,
              "midi": 39,
              "velocity": 78
            },
            {
              "start": 12072,
              "duration": 20,
              "midi": 39,
              "velocity": 78
            },
            {
              "start": 12120,
              "duration": 20,
              "midi": 39,
              "velocity": 78
            },
            {
              "start": 12168,
              "duration": 20,
              "midi": 39,
              "velocity": 78
            },
            {
              "start": 12216,
              "duration": 20,
              "midi": 39,
              "velocity": 78
            },
            {
              "start": 12264,
              "duration": 20,
              "midi": 39,
              "velocity": 78
            },
            {
              "start": 12312,
              "duration": 20,
              "midi": 42,
              "velocity": 78
            },
            {
              "start": 12360,
              "duration": 20,
              "midi": 42,
              "velocity": 78
            },
            {
              "start": 12408,
              "duration": 20,
              "midi": 42,
              "velocity": 78
            },
            {
              "start": 12456,
              "duration": 20,
              "midi": 42,
              "velocity": 78
            },
            {
              "start": 12504,
              "duration": 20,
              "midi": 42,
              "velocity": 78
            },
            {
              "start": 12552,
              "duration": 20,
              "midi": 42,
              "velocity": 78
            },
            {
              "start": 12600,
              "duration": 20,
              "midi": 42,
              "velocity": 78
            },
            {
              "start": 12648,
              "duration": 20,
              "midi": 42,
              "velocity": 78
            },
            {
              "start": 12696,
              "duration": 20,
              "midi": 42,
              "velocity": 78
            },
            {
              "start": 12744,
              "duration": 20,
              "midi": 42,
              "velocity": 78
            },
            {
              "start": 12792,
              "duration": 20,
              "midi": 42,
              "velocity": 78
            },
            {
              "start": 12840,
              "duration": 20,
              "midi": 42,
              "velocity": 78
            },
            {
              "start": 12888,
              "duration": 20,
              "midi": 42,
              "velocity": 78
            },
            {
              "start": 12936,
              "duration": 20,
              "midi": 42,
              "velocity": 78
            },
            {
              "start": 12984,
              "duration": 20,
              "midi": 42,
              "velocity": 78
            },
            {
              "start": 13032,
              "duration": 20,
              "midi": 42,
              "velocity": 78
            },
            {
              "start": 13080,
              "duration": 20,
              "midi": 42,
              "velocity": 78
            },
            {
              "start": 13128,
              "duration": 20,
              "midi": 42,
              "velocity": 78
            },
            {
              "start": 13176,
              "duration": 20,
              "midi": 42,
              "velocity": 78
            },
            {
              "start": 13224,
              "duration": 20,
              "midi": 42,
              "velocity": 78
            },
            {
              "start": 13272,
              "duration": 20,
              "midi": 42,
              "velocity": 78
            },
            {
              "start": 13320,
              "duration": 20,
              "midi": 42,
              "velocity": 78
            },
            {
              "start": 13368,
              "duration": 20,
              "midi": 42,
              "velocity": 78
            },
            {
              "start": 13416,
              "duration": 20,
              "midi": 42,
              "velocity": 78
            },
            {
              "start": 13464,
              "duration": 20,
              "midi": 42,
              "velocity": 78
            },
            {
              "start": 13512,
              "duration": 20,
              "midi": 42,
              "velocity": 78
            },
            {
              "start": 13560,
              "duration": 20,
              "midi": 42,
              "velocity": 78
            },
            {
              "start": 13608,
              "duration": 20,
              "midi": 42,
              "velocity": 78
            },
            {
              "start": 13656,
              "duration": 20,
              "midi": 42,
              "velocity": 78
            },
            {
              "start": 13704,
              "duration": 20,
              "midi": 42,
              "velocity": 78
            },
            {
              "start": 13752,
              "duration": 20,
              "midi": 42,
              "velocity": 78
            },
            {
              "start": 13800,
              "duration": 20,
              "midi": 42,
              "velocity": 78
            },
            {
              "start": 13848,
              "duration": 20,
              "midi": 39,
              "velocity": 78
            },
            {
              "start": 13896,
              "duration": 20,
              "midi": 39,
              "velocity": 78
            },
            {
              "start": 13944,
              "duration": 20,
              "midi": 39,
              "velocity": 78
            },
            {
              "start": 13992,
              "duration": 20,
              "midi": 39,
              "velocity": 78
            },
            {
              "start": 14040,
              "duration": 20,
              "midi": 39,
              "velocity": 78
            },
            {
              "start": 14088,
              "duration": 20,
              "midi": 39,
              "velocity": 78
            },
            {
              "start": 14136,
              "duration": 20,
              "midi": 39,
              "velocity": 78
            },
            {
              "start": 14184,
              "duration": 20,
              "midi": 39,
              "velocity": 78
            },
            {
              "start": 14232,
              "duration": 20,
              "midi": 39,
              "velocity": 78
            },
            {
              "start": 14280,
              "duration": 20,
              "midi": 39,
              "velocity": 78
            },
            {
              "start": 14328,
              "duration": 20,
              "midi": 39,
              "velocity": 78
            },
            {
              "start": 14376,
              "duration": 20,
              "midi": 39,
              "velocity": 78
            },
            {
              "start": 14424,
              "duration": 20,
              "midi": 39,
              "velocity": 78
            },
            {
              "start": 14472,
              "duration": 20,
              "midi": 39,
              "velocity": 78
            },
            {
              "start": 14520,
              "duration": 20,
              "midi": 39,
              "velocity": 78
            },
            {
              "start": 14568,
              "duration": 20,
              "midi": 39,
              "velocity": 78
            },
            {
              "start": 14616,
              "duration": 20,
              "midi": 39,
              "velocity": 78
            },
            {
              "start": 14664,
              "duration": 20,
              "midi": 39,
              "velocity": 78
            },
            {
              "start": 14712,
              "duration": 20,
              "midi": 39,
              "velocity": 78
            },
            {
              "start": 14760,
              "duration": 20,
              "midi": 39,
              "velocity": 78
            },
            {
              "start": 14808,
              "duration": 20,
              "midi": 39,
              "velocity": 78
            },
            {
              "start": 14856,
              "duration": 20,
              "midi": 39,
              "velocity": 78
            },
            {
              "start": 14904,
              "duration": 20,
              "midi": 39,
              "velocity": 78
            },
            {
              "start": 14952,
              "duration": 20,
              "midi": 39,
              "velocity": 78
            },
            {
              "start": 15000,
              "duration": 20,
              "midi": 39,
              "velocity": 78
            },
            {
              "start": 15048,
              "duration": 20,
              "midi": 39,
              "velocity": 78
            },
            {
              "start": 15096,
              "duration": 20,
              "midi": 39,
              "velocity": 78
            },
            {
              "start": 15144,
              "duration": 20,
              "midi": 39,
              "velocity": 78
            },
            {
              "start": 15192,
              "duration": 20,
              "midi": 39,
              "velocity": 78
            },
            {
              "start": 15240,
              "duration": 20,
              "midi": 39,
              "velocity": 78
            },
            {
              "start": 15288,
              "duration": 20,
              "midi": 39,
              "velocity": 78
            },
            {
              "start": 15336,
              "duration": 20,
              "midi": 39,
              "velocity": 78
            },
            {
              "start": 15384,
              "duration": 20,
              "midi": 42,
              "velocity": 78
            },
            {
              "start": 15432,
              "duration": 20,
              "midi": 42,
              "velocity": 78
            },
            {
              "start": 15480,
              "duration": 20,
              "midi": 42,
              "velocity": 78
            },
            {
              "start": 15528,
              "duration": 20,
              "midi": 42,
              "velocity": 78
            },
            {
              "start": 15576,
              "duration": 20,
              "midi": 42,
              "velocity": 78
            },
            {
              "start": 15624,
              "duration": 20,
              "midi": 42,
              "velocity": 78
            },
            {
              "start": 15672,
              "duration": 20,
              "midi": 42,
              "velocity": 78
            },
            {
              "start": 15720,
              "duration": 20,
              "midi": 42,
              "velocity": 78
            },
            {
              "start": 15768,
              "duration": 20,
              "midi": 42,
              "velocity": 78
            },
            {
              "start": 15816,
              "duration": 20,
              "midi": 42,
              "velocity": 78
            },
            {
              "start": 15864,
              "duration": 20,
              "midi": 42,
              "velocity": 78
            },
            {
              "start": 15912,
              "duration": 20,
              "midi": 42,
              "velocity": 78
            },
            {
              "start": 15960,
              "duration": 20,
              "midi": 42,
              "velocity": 78
            },
            {
              "start": 16008,
              "duration": 20,
              "midi": 42,
              "velocity": 78
            },
            {
              "start": 16056,
              "duration": 20,
              "midi": 42,
              "velocity": 78
            },
            {
              "start": 16104,
              "duration": 20,
              "midi": 42,
              "velocity": 78
            },
            {
              "start": 16152,
              "duration": 20,
              "midi": 42,
              "velocity": 78
            },
            {
              "start": 16200,
              "duration": 20,
              "midi": 42,
              "velocity": 78
            },
            {
              "start": 16248,
              "duration": 20,
              "midi": 42,
              "velocity": 78
            },
            {
              "start": 16296,
              "duration": 20,
              "midi": 42,
              "velocity": 78
            },
            {
              "start": 16344,
              "duration": 20,
              "midi": 42,
              "velocity": 78
            },
            {
              "start": 16392,
              "duration": 20,
              "midi": 42,
              "velocity": 78
            },
            {
              "start": 16440,
              "duration": 20,
              "midi": 42,
              "velocity": 78
            },
            {
              "start": 16488,
              "duration": 20,
              "midi": 42,
              "velocity": 78
            },
            {
              "start": 16536,
              "duration": 20,
              "midi": 42,
              "velocity": 78
            },
            {
              "start": 16584,
              "duration": 20,
              "midi": 42,
              "velocity": 78
            },
            {
              "start": 16632,
              "duration": 20,
              "midi": 42,
              "velocity": 78
            },
            {
              "start": 16680,
              "duration": 20,
              "midi": 42,
              "velocity": 78
            },
            {
              "start": 16728,
              "duration": 20,
              "midi": 42,
              "velocity": 78
            },
            {
              "start": 16776,
              "duration": 20,
              "midi": 42,
              "velocity": 78
            },
            {
              "start": 16824,
              "duration": 20,
              "midi": 42,
              "velocity": 78
            },
            {
              "start": 16872,
              "duration": 20,
              "midi": 42,
              "velocity": 78
            },
            {
              "start": 16920,
              "duration": 20,
              "midi": 39,
              "velocity": 78
            },
            {
              "start": 16968,
              "duration": 20,
              "midi": 39,
              "velocity": 78
            },
            {
              "start": 17016,
              "duration": 20,
              "midi": 39,
              "velocity": 78
            },
            {
              "start": 17064,
              "duration": 20,
              "midi": 39,
              "velocity": 78
            },
            {
              "start": 17112,
              "duration": 20,
              "midi": 39,
              "velocity": 78
            },
            {
              "start": 17160,
              "duration": 20,
              "midi": 39,
              "velocity": 78
            },
            {
              "start": 17208,
              "duration": 20,
              "midi": 39,
              "velocity": 78
            },
            {
              "start": 17256,
              "duration": 20,
              "midi": 39,
              "velocity": 78
            },
            {
              "start": 17304,
              "duration": 20,
              "midi": 39,
              "velocity": 78
            },
            {
              "start": 17352,
              "duration": 20,
              "midi": 39,
              "velocity": 78
            },
            {
              "start": 17400,
              "duration": 20,
              "midi": 39,
              "velocity": 78
            },
            {
              "start": 17448,
              "duration": 20,
              "midi": 39,
              "velocity": 78
            },
            {
              "start": 17496,
              "duration": 20,
              "midi": 39,
              "velocity": 78
            },
            {
              "start": 17544,
              "duration": 20,
              "midi": 39,
              "velocity": 78
            },
            {
              "start": 17592,
              "duration": 20,
              "midi": 39,
              "velocity": 78
            },
            {
              "start": 17640,
              "duration": 20,
              "midi": 39,
              "velocity": 78
            },
            {
              "start": 17688,
              "duration": 20,
              "midi": 39,
              "velocity": 78
            },
            {
              "start": 17736,
              "duration": 20,
              "midi": 39,
              "velocity": 78
            },
            {
              "start": 17784,
              "duration": 20,
              "midi": 39,
              "velocity": 78
            },
            {
              "start": 17832,
              "duration": 20,
              "midi": 39,
              "velocity": 78
            },
            {
              "start": 17880,
              "duration": 20,
              "midi": 39,
              "velocity": 78
            },
            {
              "start": 17928,
              "duration": 20,
              "midi": 39,
              "velocity": 78
            },
            {
              "start": 17976,
              "duration": 20,
              "midi": 39,
              "velocity": 78
            },
            {
              "start": 18024,
              "duration": 20,
              "midi": 39,
              "velocity": 78
            },
            {
              "start": 18072,
              "duration": 20,
              "midi": 39,
              "velocity": 78
            },
            {
              "start": 18120,
              "duration": 20,
              "midi": 39,
              "velocity": 78
            },
            {
              "start": 18168,
              "duration": 20,
              "midi": 39,
              "velocity": 78
            },
            {
              "start": 18216,
              "duration": 20,
              "midi": 39,
              "velocity": 78
            },
            {
              "start": 18264,
              "duration": 20,
              "midi": 39,
              "velocity": 78
            },
            {
              "start": 18312,
              "duration": 20,
              "midi": 39,
              "velocity": 78
            },
            {
              "start": 18360,
              "duration": 20,
              "midi": 39,
              "velocity": 78
            },
            {
              "start": 18408,
              "duration": 20,
              "midi": 39,
              "velocity": 78
            }
          ]
        }
      ],
      "enginePresetName": "factory:LEAD Sub Lead"
    },
    {
      "id": "lane-mpr0lmu9-g",
      "engineId": "subtractive",
      "name": "Bassline 2",
      "clips": [
        {
          "id": "clip-mpr0lmu9-f",
          "name": "Bassline 2",
          "lengthBars": 48,
          "notes": [
            {
              "start": 6144,
              "duration": 20,
              "midi": 30,
              "velocity": 93
            },
            {
              "start": 6168,
              "duration": 20,
              "midi": 42,
              "velocity": 93
            },
            {
              "start": 6216,
              "duration": 20,
              "midi": 30,
              "velocity": 93
            },
            {
              "start": 6240,
              "duration": 20,
              "midi": 42,
              "velocity": 93
            },
            {
              "start": 6288,
              "duration": 20,
              "midi": 30,
              "velocity": 93
            },
            {
              "start": 6312,
              "duration": 20,
              "midi": 42,
              "velocity": 93
            },
            {
              "start": 6336,
              "duration": 20,
              "midi": 30,
              "velocity": 93
            },
            {
              "start": 6360,
              "duration": 20,
              "midi": 42,
              "velocity": 93
            },
            {
              "start": 6408,
              "duration": 20,
              "midi": 30,
              "velocity": 93
            },
            {
              "start": 6432,
              "duration": 20,
              "midi": 42,
              "velocity": 93
            },
            {
              "start": 6480,
              "duration": 20,
              "midi": 30,
              "velocity": 93
            },
            {
              "start": 6504,
              "duration": 20,
              "midi": 42,
              "velocity": 93
            },
            {
              "start": 6528,
              "duration": 20,
              "midi": 30,
              "velocity": 93
            },
            {
              "start": 6552,
              "duration": 20,
              "midi": 42,
              "velocity": 93
            },
            {
              "start": 6600,
              "duration": 20,
              "midi": 30,
              "velocity": 93
            },
            {
              "start": 6624,
              "duration": 20,
              "midi": 42,
              "velocity": 93
            },
            {
              "start": 6672,
              "duration": 20,
              "midi": 30,
              "velocity": 93
            },
            {
              "start": 6696,
              "duration": 20,
              "midi": 42,
              "velocity": 93
            },
            {
              "start": 6720,
              "duration": 20,
              "midi": 30,
              "velocity": 93
            },
            {
              "start": 6744,
              "duration": 20,
              "midi": 42,
              "velocity": 93
            },
            {
              "start": 6792,
              "duration": 20,
              "midi": 30,
              "velocity": 93
            },
            {
              "start": 6816,
              "duration": 20,
              "midi": 42,
              "velocity": 93
            },
            {
              "start": 6864,
              "duration": 20,
              "midi": 30,
              "velocity": 93
            },
            {
              "start": 6888,
              "duration": 20,
              "midi": 42,
              "velocity": 93
            },
            {
              "start": 6912,
              "duration": 20,
              "midi": 30,
              "velocity": 93
            },
            {
              "start": 6936,
              "duration": 20,
              "midi": 42,
              "velocity": 93
            },
            {
              "start": 6984,
              "duration": 20,
              "midi": 30,
              "velocity": 93
            },
            {
              "start": 7008,
              "duration": 20,
              "midi": 42,
              "velocity": 93
            },
            {
              "start": 7056,
              "duration": 20,
              "midi": 30,
              "velocity": 93
            },
            {
              "start": 7080,
              "duration": 20,
              "midi": 42,
              "velocity": 93
            },
            {
              "start": 7104,
              "duration": 20,
              "midi": 30,
              "velocity": 93
            },
            {
              "start": 7128,
              "duration": 20,
              "midi": 42,
              "velocity": 93
            },
            {
              "start": 7176,
              "duration": 20,
              "midi": 30,
              "velocity": 93
            },
            {
              "start": 7200,
              "duration": 20,
              "midi": 42,
              "velocity": 93
            },
            {
              "start": 7248,
              "duration": 20,
              "midi": 30,
              "velocity": 93
            },
            {
              "start": 7272,
              "duration": 20,
              "midi": 42,
              "velocity": 93
            },
            {
              "start": 7296,
              "duration": 20,
              "midi": 30,
              "velocity": 93
            },
            {
              "start": 7320,
              "duration": 20,
              "midi": 42,
              "velocity": 93
            },
            {
              "start": 7368,
              "duration": 20,
              "midi": 30,
              "velocity": 93
            },
            {
              "start": 7392,
              "duration": 20,
              "midi": 42,
              "velocity": 93
            },
            {
              "start": 7440,
              "duration": 20,
              "midi": 30,
              "velocity": 93
            },
            {
              "start": 7464,
              "duration": 20,
              "midi": 42,
              "velocity": 93
            },
            {
              "start": 7488,
              "duration": 20,
              "midi": 30,
              "velocity": 93
            },
            {
              "start": 7512,
              "duration": 20,
              "midi": 42,
              "velocity": 93
            },
            {
              "start": 7560,
              "duration": 20,
              "midi": 30,
              "velocity": 93
            },
            {
              "start": 7584,
              "duration": 20,
              "midi": 42,
              "velocity": 93
            },
            {
              "start": 7632,
              "duration": 20,
              "midi": 30,
              "velocity": 93
            },
            {
              "start": 7656,
              "duration": 20,
              "midi": 42,
              "velocity": 93
            },
            {
              "start": 7680,
              "duration": 20,
              "midi": 27,
              "velocity": 93
            },
            {
              "start": 7704,
              "duration": 20,
              "midi": 39,
              "velocity": 93
            },
            {
              "start": 7752,
              "duration": 20,
              "midi": 27,
              "velocity": 93
            },
            {
              "start": 7776,
              "duration": 20,
              "midi": 39,
              "velocity": 93
            },
            {
              "start": 7824,
              "duration": 20,
              "midi": 27,
              "velocity": 93
            },
            {
              "start": 7848,
              "duration": 20,
              "midi": 39,
              "velocity": 93
            },
            {
              "start": 7872,
              "duration": 20,
              "midi": 27,
              "velocity": 93
            },
            {
              "start": 7896,
              "duration": 20,
              "midi": 39,
              "velocity": 93
            },
            {
              "start": 7944,
              "duration": 20,
              "midi": 27,
              "velocity": 93
            },
            {
              "start": 7968,
              "duration": 20,
              "midi": 39,
              "velocity": 93
            },
            {
              "start": 8016,
              "duration": 20,
              "midi": 27,
              "velocity": 93
            },
            {
              "start": 8040,
              "duration": 20,
              "midi": 39,
              "velocity": 93
            },
            {
              "start": 8064,
              "duration": 20,
              "midi": 27,
              "velocity": 93
            },
            {
              "start": 8088,
              "duration": 20,
              "midi": 39,
              "velocity": 93
            },
            {
              "start": 8136,
              "duration": 20,
              "midi": 27,
              "velocity": 93
            },
            {
              "start": 8160,
              "duration": 20,
              "midi": 39,
              "velocity": 93
            },
            {
              "start": 8208,
              "duration": 20,
              "midi": 27,
              "velocity": 93
            },
            {
              "start": 8232,
              "duration": 20,
              "midi": 39,
              "velocity": 93
            },
            {
              "start": 8256,
              "duration": 20,
              "midi": 27,
              "velocity": 93
            },
            {
              "start": 8280,
              "duration": 20,
              "midi": 39,
              "velocity": 93
            },
            {
              "start": 8328,
              "duration": 20,
              "midi": 27,
              "velocity": 93
            },
            {
              "start": 8352,
              "duration": 20,
              "midi": 39,
              "velocity": 93
            },
            {
              "start": 8400,
              "duration": 20,
              "midi": 27,
              "velocity": 93
            },
            {
              "start": 8424,
              "duration": 20,
              "midi": 39,
              "velocity": 93
            },
            {
              "start": 8448,
              "duration": 20,
              "midi": 27,
              "velocity": 93
            },
            {
              "start": 8472,
              "duration": 20,
              "midi": 39,
              "velocity": 93
            },
            {
              "start": 8520,
              "duration": 20,
              "midi": 27,
              "velocity": 93
            },
            {
              "start": 8544,
              "duration": 20,
              "midi": 39,
              "velocity": 93
            },
            {
              "start": 8592,
              "duration": 20,
              "midi": 27,
              "velocity": 93
            },
            {
              "start": 8616,
              "duration": 20,
              "midi": 39,
              "velocity": 93
            },
            {
              "start": 8640,
              "duration": 20,
              "midi": 27,
              "velocity": 93
            },
            {
              "start": 8664,
              "duration": 20,
              "midi": 39,
              "velocity": 93
            },
            {
              "start": 8712,
              "duration": 20,
              "midi": 27,
              "velocity": 93
            },
            {
              "start": 8736,
              "duration": 20,
              "midi": 39,
              "velocity": 93
            },
            {
              "start": 8784,
              "duration": 20,
              "midi": 27,
              "velocity": 93
            },
            {
              "start": 8808,
              "duration": 20,
              "midi": 39,
              "velocity": 93
            },
            {
              "start": 8832,
              "duration": 20,
              "midi": 27,
              "velocity": 93
            },
            {
              "start": 8856,
              "duration": 20,
              "midi": 39,
              "velocity": 93
            },
            {
              "start": 8904,
              "duration": 20,
              "midi": 27,
              "velocity": 93
            },
            {
              "start": 8928,
              "duration": 20,
              "midi": 39,
              "velocity": 93
            },
            {
              "start": 8976,
              "duration": 20,
              "midi": 27,
              "velocity": 93
            },
            {
              "start": 9000,
              "duration": 20,
              "midi": 39,
              "velocity": 93
            },
            {
              "start": 9024,
              "duration": 20,
              "midi": 27,
              "velocity": 93
            },
            {
              "start": 9048,
              "duration": 20,
              "midi": 39,
              "velocity": 93
            },
            {
              "start": 9096,
              "duration": 20,
              "midi": 27,
              "velocity": 93
            },
            {
              "start": 9120,
              "duration": 20,
              "midi": 39,
              "velocity": 93
            },
            {
              "start": 9168,
              "duration": 20,
              "midi": 27,
              "velocity": 93
            },
            {
              "start": 9192,
              "duration": 20,
              "midi": 39,
              "velocity": 93
            },
            {
              "start": 9216,
              "duration": 20,
              "midi": 30,
              "velocity": 93
            },
            {
              "start": 9240,
              "duration": 20,
              "midi": 42,
              "velocity": 93
            },
            {
              "start": 9288,
              "duration": 20,
              "midi": 30,
              "velocity": 93
            },
            {
              "start": 9312,
              "duration": 20,
              "midi": 42,
              "velocity": 93
            },
            {
              "start": 9360,
              "duration": 20,
              "midi": 30,
              "velocity": 93
            },
            {
              "start": 9384,
              "duration": 20,
              "midi": 42,
              "velocity": 93
            },
            {
              "start": 9408,
              "duration": 20,
              "midi": 30,
              "velocity": 93
            },
            {
              "start": 9432,
              "duration": 20,
              "midi": 42,
              "velocity": 93
            },
            {
              "start": 9480,
              "duration": 20,
              "midi": 30,
              "velocity": 93
            },
            {
              "start": 9504,
              "duration": 20,
              "midi": 42,
              "velocity": 93
            },
            {
              "start": 9552,
              "duration": 20,
              "midi": 30,
              "velocity": 93
            },
            {
              "start": 9576,
              "duration": 20,
              "midi": 42,
              "velocity": 93
            },
            {
              "start": 9600,
              "duration": 20,
              "midi": 30,
              "velocity": 93
            },
            {
              "start": 9624,
              "duration": 20,
              "midi": 42,
              "velocity": 93
            },
            {
              "start": 9672,
              "duration": 20,
              "midi": 30,
              "velocity": 93
            },
            {
              "start": 9696,
              "duration": 20,
              "midi": 42,
              "velocity": 93
            },
            {
              "start": 9744,
              "duration": 20,
              "midi": 30,
              "velocity": 93
            },
            {
              "start": 9768,
              "duration": 20,
              "midi": 42,
              "velocity": 93
            },
            {
              "start": 9792,
              "duration": 20,
              "midi": 30,
              "velocity": 93
            },
            {
              "start": 9816,
              "duration": 20,
              "midi": 42,
              "velocity": 93
            },
            {
              "start": 9864,
              "duration": 20,
              "midi": 30,
              "velocity": 93
            },
            {
              "start": 9888,
              "duration": 20,
              "midi": 42,
              "velocity": 93
            },
            {
              "start": 9936,
              "duration": 20,
              "midi": 30,
              "velocity": 93
            },
            {
              "start": 9960,
              "duration": 20,
              "midi": 42,
              "velocity": 93
            },
            {
              "start": 9984,
              "duration": 20,
              "midi": 30,
              "velocity": 93
            },
            {
              "start": 10008,
              "duration": 20,
              "midi": 42,
              "velocity": 93
            },
            {
              "start": 10056,
              "duration": 20,
              "midi": 30,
              "velocity": 93
            },
            {
              "start": 10080,
              "duration": 20,
              "midi": 42,
              "velocity": 93
            },
            {
              "start": 10128,
              "duration": 20,
              "midi": 30,
              "velocity": 93
            },
            {
              "start": 10152,
              "duration": 20,
              "midi": 42,
              "velocity": 93
            },
            {
              "start": 10176,
              "duration": 20,
              "midi": 30,
              "velocity": 93
            },
            {
              "start": 10200,
              "duration": 20,
              "midi": 42,
              "velocity": 93
            },
            {
              "start": 10248,
              "duration": 20,
              "midi": 30,
              "velocity": 93
            },
            {
              "start": 10272,
              "duration": 20,
              "midi": 42,
              "velocity": 93
            },
            {
              "start": 10320,
              "duration": 20,
              "midi": 30,
              "velocity": 93
            },
            {
              "start": 10344,
              "duration": 20,
              "midi": 42,
              "velocity": 93
            },
            {
              "start": 10368,
              "duration": 20,
              "midi": 30,
              "velocity": 93
            },
            {
              "start": 10392,
              "duration": 20,
              "midi": 42,
              "velocity": 93
            },
            {
              "start": 10440,
              "duration": 20,
              "midi": 30,
              "velocity": 93
            },
            {
              "start": 10464,
              "duration": 20,
              "midi": 42,
              "velocity": 93
            },
            {
              "start": 10512,
              "duration": 20,
              "midi": 30,
              "velocity": 93
            },
            {
              "start": 10536,
              "duration": 20,
              "midi": 42,
              "velocity": 93
            },
            {
              "start": 10560,
              "duration": 20,
              "midi": 30,
              "velocity": 93
            },
            {
              "start": 10584,
              "duration": 20,
              "midi": 42,
              "velocity": 93
            },
            {
              "start": 10632,
              "duration": 20,
              "midi": 30,
              "velocity": 93
            },
            {
              "start": 10656,
              "duration": 20,
              "midi": 42,
              "velocity": 93
            },
            {
              "start": 10704,
              "duration": 20,
              "midi": 30,
              "velocity": 93
            },
            {
              "start": 10728,
              "duration": 20,
              "midi": 42,
              "velocity": 93
            },
            {
              "start": 10752,
              "duration": 20,
              "midi": 27,
              "velocity": 93
            },
            {
              "start": 10776,
              "duration": 20,
              "midi": 39,
              "velocity": 93
            },
            {
              "start": 10824,
              "duration": 20,
              "midi": 27,
              "velocity": 93
            },
            {
              "start": 10848,
              "duration": 20,
              "midi": 39,
              "velocity": 93
            },
            {
              "start": 10896,
              "duration": 20,
              "midi": 27,
              "velocity": 93
            },
            {
              "start": 10920,
              "duration": 20,
              "midi": 39,
              "velocity": 93
            },
            {
              "start": 10944,
              "duration": 20,
              "midi": 27,
              "velocity": 93
            },
            {
              "start": 10968,
              "duration": 20,
              "midi": 39,
              "velocity": 93
            },
            {
              "start": 11016,
              "duration": 20,
              "midi": 27,
              "velocity": 93
            },
            {
              "start": 11040,
              "duration": 20,
              "midi": 39,
              "velocity": 93
            },
            {
              "start": 11088,
              "duration": 20,
              "midi": 27,
              "velocity": 93
            },
            {
              "start": 11112,
              "duration": 20,
              "midi": 39,
              "velocity": 93
            },
            {
              "start": 11136,
              "duration": 20,
              "midi": 27,
              "velocity": 93
            },
            {
              "start": 11160,
              "duration": 20,
              "midi": 39,
              "velocity": 93
            },
            {
              "start": 11208,
              "duration": 20,
              "midi": 27,
              "velocity": 93
            },
            {
              "start": 11232,
              "duration": 20,
              "midi": 39,
              "velocity": 93
            },
            {
              "start": 11280,
              "duration": 20,
              "midi": 27,
              "velocity": 93
            },
            {
              "start": 11304,
              "duration": 20,
              "midi": 39,
              "velocity": 93
            },
            {
              "start": 11328,
              "duration": 20,
              "midi": 27,
              "velocity": 93
            },
            {
              "start": 11352,
              "duration": 20,
              "midi": 39,
              "velocity": 93
            },
            {
              "start": 11400,
              "duration": 20,
              "midi": 27,
              "velocity": 93
            },
            {
              "start": 11424,
              "duration": 20,
              "midi": 39,
              "velocity": 93
            },
            {
              "start": 11472,
              "duration": 20,
              "midi": 27,
              "velocity": 93
            },
            {
              "start": 11496,
              "duration": 20,
              "midi": 39,
              "velocity": 93
            },
            {
              "start": 11520,
              "duration": 20,
              "midi": 27,
              "velocity": 93
            },
            {
              "start": 11544,
              "duration": 20,
              "midi": 39,
              "velocity": 93
            },
            {
              "start": 11592,
              "duration": 20,
              "midi": 27,
              "velocity": 93
            },
            {
              "start": 11616,
              "duration": 20,
              "midi": 39,
              "velocity": 93
            },
            {
              "start": 11664,
              "duration": 20,
              "midi": 27,
              "velocity": 93
            },
            {
              "start": 11688,
              "duration": 20,
              "midi": 39,
              "velocity": 93
            },
            {
              "start": 11712,
              "duration": 20,
              "midi": 27,
              "velocity": 93
            },
            {
              "start": 11736,
              "duration": 20,
              "midi": 39,
              "velocity": 93
            },
            {
              "start": 11784,
              "duration": 20,
              "midi": 27,
              "velocity": 93
            },
            {
              "start": 11808,
              "duration": 20,
              "midi": 39,
              "velocity": 93
            },
            {
              "start": 11856,
              "duration": 20,
              "midi": 27,
              "velocity": 93
            },
            {
              "start": 11880,
              "duration": 20,
              "midi": 39,
              "velocity": 93
            },
            {
              "start": 11904,
              "duration": 20,
              "midi": 27,
              "velocity": 93
            },
            {
              "start": 11928,
              "duration": 20,
              "midi": 39,
              "velocity": 93
            },
            {
              "start": 11976,
              "duration": 20,
              "midi": 27,
              "velocity": 93
            },
            {
              "start": 12000,
              "duration": 20,
              "midi": 39,
              "velocity": 93
            },
            {
              "start": 12048,
              "duration": 20,
              "midi": 27,
              "velocity": 93
            },
            {
              "start": 12072,
              "duration": 20,
              "midi": 39,
              "velocity": 93
            },
            {
              "start": 12096,
              "duration": 20,
              "midi": 27,
              "velocity": 93
            },
            {
              "start": 12120,
              "duration": 20,
              "midi": 39,
              "velocity": 93
            },
            {
              "start": 12168,
              "duration": 20,
              "midi": 27,
              "velocity": 93
            },
            {
              "start": 12192,
              "duration": 20,
              "midi": 39,
              "velocity": 93
            },
            {
              "start": 12240,
              "duration": 20,
              "midi": 27,
              "velocity": 93
            },
            {
              "start": 12264,
              "duration": 20,
              "midi": 39,
              "velocity": 93
            },
            {
              "start": 12288,
              "duration": 20,
              "midi": 30,
              "velocity": 93
            },
            {
              "start": 12312,
              "duration": 20,
              "midi": 42,
              "velocity": 93
            },
            {
              "start": 12360,
              "duration": 20,
              "midi": 30,
              "velocity": 93
            },
            {
              "start": 12384,
              "duration": 20,
              "midi": 42,
              "velocity": 93
            },
            {
              "start": 12432,
              "duration": 20,
              "midi": 30,
              "velocity": 93
            },
            {
              "start": 12456,
              "duration": 20,
              "midi": 42,
              "velocity": 93
            },
            {
              "start": 12480,
              "duration": 20,
              "midi": 30,
              "velocity": 93
            },
            {
              "start": 12504,
              "duration": 20,
              "midi": 42,
              "velocity": 93
            },
            {
              "start": 12552,
              "duration": 20,
              "midi": 30,
              "velocity": 93
            },
            {
              "start": 12576,
              "duration": 20,
              "midi": 42,
              "velocity": 93
            },
            {
              "start": 12624,
              "duration": 20,
              "midi": 30,
              "velocity": 93
            },
            {
              "start": 12648,
              "duration": 20,
              "midi": 42,
              "velocity": 93
            },
            {
              "start": 12672,
              "duration": 20,
              "midi": 30,
              "velocity": 93
            },
            {
              "start": 12696,
              "duration": 20,
              "midi": 42,
              "velocity": 93
            },
            {
              "start": 12744,
              "duration": 20,
              "midi": 30,
              "velocity": 93
            },
            {
              "start": 12768,
              "duration": 20,
              "midi": 42,
              "velocity": 93
            },
            {
              "start": 12816,
              "duration": 20,
              "midi": 30,
              "velocity": 93
            },
            {
              "start": 12840,
              "duration": 20,
              "midi": 42,
              "velocity": 93
            },
            {
              "start": 12864,
              "duration": 20,
              "midi": 30,
              "velocity": 93
            },
            {
              "start": 12888,
              "duration": 20,
              "midi": 42,
              "velocity": 93
            },
            {
              "start": 12936,
              "duration": 20,
              "midi": 30,
              "velocity": 93
            },
            {
              "start": 12960,
              "duration": 20,
              "midi": 42,
              "velocity": 93
            },
            {
              "start": 13008,
              "duration": 20,
              "midi": 30,
              "velocity": 93
            },
            {
              "start": 13032,
              "duration": 20,
              "midi": 42,
              "velocity": 93
            },
            {
              "start": 13056,
              "duration": 20,
              "midi": 30,
              "velocity": 93
            },
            {
              "start": 13080,
              "duration": 20,
              "midi": 42,
              "velocity": 93
            },
            {
              "start": 13128,
              "duration": 20,
              "midi": 30,
              "velocity": 93
            },
            {
              "start": 13152,
              "duration": 20,
              "midi": 42,
              "velocity": 93
            },
            {
              "start": 13200,
              "duration": 20,
              "midi": 30,
              "velocity": 93
            },
            {
              "start": 13224,
              "duration": 20,
              "midi": 42,
              "velocity": 93
            },
            {
              "start": 13248,
              "duration": 20,
              "midi": 30,
              "velocity": 93
            },
            {
              "start": 13272,
              "duration": 20,
              "midi": 42,
              "velocity": 93
            },
            {
              "start": 13320,
              "duration": 20,
              "midi": 30,
              "velocity": 93
            },
            {
              "start": 13344,
              "duration": 20,
              "midi": 42,
              "velocity": 93
            },
            {
              "start": 13392,
              "duration": 20,
              "midi": 30,
              "velocity": 93
            },
            {
              "start": 13416,
              "duration": 20,
              "midi": 42,
              "velocity": 93
            },
            {
              "start": 13440,
              "duration": 20,
              "midi": 30,
              "velocity": 93
            },
            {
              "start": 13464,
              "duration": 20,
              "midi": 42,
              "velocity": 93
            },
            {
              "start": 13512,
              "duration": 20,
              "midi": 30,
              "velocity": 93
            },
            {
              "start": 13536,
              "duration": 20,
              "midi": 42,
              "velocity": 93
            },
            {
              "start": 13584,
              "duration": 20,
              "midi": 30,
              "velocity": 93
            },
            {
              "start": 13608,
              "duration": 20,
              "midi": 42,
              "velocity": 93
            },
            {
              "start": 13632,
              "duration": 20,
              "midi": 30,
              "velocity": 93
            },
            {
              "start": 13656,
              "duration": 20,
              "midi": 42,
              "velocity": 93
            },
            {
              "start": 13704,
              "duration": 20,
              "midi": 30,
              "velocity": 93
            },
            {
              "start": 13728,
              "duration": 20,
              "midi": 42,
              "velocity": 93
            },
            {
              "start": 13776,
              "duration": 20,
              "midi": 30,
              "velocity": 93
            },
            {
              "start": 13800,
              "duration": 20,
              "midi": 42,
              "velocity": 93
            },
            {
              "start": 13824,
              "duration": 20,
              "midi": 27,
              "velocity": 93
            },
            {
              "start": 13848,
              "duration": 20,
              "midi": 39,
              "velocity": 93
            },
            {
              "start": 13896,
              "duration": 20,
              "midi": 27,
              "velocity": 93
            },
            {
              "start": 13920,
              "duration": 20,
              "midi": 39,
              "velocity": 93
            },
            {
              "start": 13968,
              "duration": 20,
              "midi": 27,
              "velocity": 93
            },
            {
              "start": 13992,
              "duration": 20,
              "midi": 39,
              "velocity": 93
            },
            {
              "start": 14016,
              "duration": 20,
              "midi": 27,
              "velocity": 93
            },
            {
              "start": 14040,
              "duration": 20,
              "midi": 39,
              "velocity": 93
            },
            {
              "start": 14088,
              "duration": 20,
              "midi": 27,
              "velocity": 93
            },
            {
              "start": 14112,
              "duration": 20,
              "midi": 39,
              "velocity": 93
            },
            {
              "start": 14160,
              "duration": 20,
              "midi": 27,
              "velocity": 93
            },
            {
              "start": 14184,
              "duration": 20,
              "midi": 39,
              "velocity": 93
            },
            {
              "start": 14208,
              "duration": 20,
              "midi": 27,
              "velocity": 93
            },
            {
              "start": 14232,
              "duration": 20,
              "midi": 39,
              "velocity": 93
            },
            {
              "start": 14280,
              "duration": 20,
              "midi": 27,
              "velocity": 93
            },
            {
              "start": 14304,
              "duration": 20,
              "midi": 39,
              "velocity": 93
            },
            {
              "start": 14352,
              "duration": 20,
              "midi": 27,
              "velocity": 93
            },
            {
              "start": 14376,
              "duration": 20,
              "midi": 39,
              "velocity": 93
            },
            {
              "start": 14400,
              "duration": 20,
              "midi": 27,
              "velocity": 93
            },
            {
              "start": 14424,
              "duration": 20,
              "midi": 39,
              "velocity": 93
            },
            {
              "start": 14472,
              "duration": 20,
              "midi": 27,
              "velocity": 93
            },
            {
              "start": 14496,
              "duration": 20,
              "midi": 39,
              "velocity": 93
            },
            {
              "start": 14544,
              "duration": 20,
              "midi": 27,
              "velocity": 93
            },
            {
              "start": 14568,
              "duration": 20,
              "midi": 39,
              "velocity": 93
            },
            {
              "start": 14592,
              "duration": 20,
              "midi": 27,
              "velocity": 93
            },
            {
              "start": 14616,
              "duration": 20,
              "midi": 39,
              "velocity": 93
            },
            {
              "start": 14664,
              "duration": 20,
              "midi": 27,
              "velocity": 93
            },
            {
              "start": 14688,
              "duration": 20,
              "midi": 39,
              "velocity": 93
            },
            {
              "start": 14736,
              "duration": 20,
              "midi": 27,
              "velocity": 93
            },
            {
              "start": 14760,
              "duration": 20,
              "midi": 39,
              "velocity": 93
            },
            {
              "start": 14784,
              "duration": 20,
              "midi": 27,
              "velocity": 93
            },
            {
              "start": 14808,
              "duration": 20,
              "midi": 39,
              "velocity": 93
            },
            {
              "start": 14856,
              "duration": 20,
              "midi": 27,
              "velocity": 93
            },
            {
              "start": 14880,
              "duration": 20,
              "midi": 39,
              "velocity": 93
            },
            {
              "start": 14928,
              "duration": 20,
              "midi": 27,
              "velocity": 93
            },
            {
              "start": 14952,
              "duration": 20,
              "midi": 39,
              "velocity": 93
            },
            {
              "start": 14976,
              "duration": 20,
              "midi": 27,
              "velocity": 93
            },
            {
              "start": 15000,
              "duration": 20,
              "midi": 39,
              "velocity": 93
            },
            {
              "start": 15048,
              "duration": 20,
              "midi": 27,
              "velocity": 93
            },
            {
              "start": 15072,
              "duration": 20,
              "midi": 39,
              "velocity": 93
            },
            {
              "start": 15120,
              "duration": 20,
              "midi": 27,
              "velocity": 93
            },
            {
              "start": 15144,
              "duration": 20,
              "midi": 39,
              "velocity": 93
            },
            {
              "start": 15168,
              "duration": 20,
              "midi": 27,
              "velocity": 93
            },
            {
              "start": 15192,
              "duration": 20,
              "midi": 39,
              "velocity": 93
            },
            {
              "start": 15240,
              "duration": 20,
              "midi": 27,
              "velocity": 93
            },
            {
              "start": 15264,
              "duration": 20,
              "midi": 39,
              "velocity": 93
            },
            {
              "start": 15312,
              "duration": 20,
              "midi": 27,
              "velocity": 93
            },
            {
              "start": 15336,
              "duration": 20,
              "midi": 39,
              "velocity": 93
            },
            {
              "start": 15360,
              "duration": 20,
              "midi": 30,
              "velocity": 93
            },
            {
              "start": 15384,
              "duration": 20,
              "midi": 42,
              "velocity": 93
            },
            {
              "start": 15432,
              "duration": 20,
              "midi": 30,
              "velocity": 93
            },
            {
              "start": 15456,
              "duration": 20,
              "midi": 42,
              "velocity": 93
            },
            {
              "start": 15504,
              "duration": 20,
              "midi": 30,
              "velocity": 93
            },
            {
              "start": 15528,
              "duration": 20,
              "midi": 42,
              "velocity": 93
            },
            {
              "start": 15552,
              "duration": 20,
              "midi": 30,
              "velocity": 93
            },
            {
              "start": 15576,
              "duration": 20,
              "midi": 42,
              "velocity": 93
            },
            {
              "start": 15624,
              "duration": 20,
              "midi": 30,
              "velocity": 93
            },
            {
              "start": 15648,
              "duration": 20,
              "midi": 42,
              "velocity": 93
            },
            {
              "start": 15696,
              "duration": 20,
              "midi": 30,
              "velocity": 93
            },
            {
              "start": 15720,
              "duration": 20,
              "midi": 42,
              "velocity": 93
            },
            {
              "start": 15744,
              "duration": 20,
              "midi": 30,
              "velocity": 93
            },
            {
              "start": 15768,
              "duration": 20,
              "midi": 42,
              "velocity": 93
            },
            {
              "start": 15816,
              "duration": 20,
              "midi": 30,
              "velocity": 93
            },
            {
              "start": 15840,
              "duration": 20,
              "midi": 42,
              "velocity": 93
            },
            {
              "start": 15888,
              "duration": 20,
              "midi": 30,
              "velocity": 93
            },
            {
              "start": 15912,
              "duration": 20,
              "midi": 42,
              "velocity": 93
            },
            {
              "start": 15936,
              "duration": 20,
              "midi": 30,
              "velocity": 93
            },
            {
              "start": 15960,
              "duration": 20,
              "midi": 42,
              "velocity": 93
            },
            {
              "start": 16008,
              "duration": 20,
              "midi": 30,
              "velocity": 93
            },
            {
              "start": 16032,
              "duration": 20,
              "midi": 42,
              "velocity": 93
            },
            {
              "start": 16080,
              "duration": 20,
              "midi": 30,
              "velocity": 93
            },
            {
              "start": 16104,
              "duration": 20,
              "midi": 42,
              "velocity": 93
            },
            {
              "start": 16128,
              "duration": 20,
              "midi": 30,
              "velocity": 93
            },
            {
              "start": 16152,
              "duration": 20,
              "midi": 42,
              "velocity": 93
            },
            {
              "start": 16200,
              "duration": 20,
              "midi": 30,
              "velocity": 93
            },
            {
              "start": 16224,
              "duration": 20,
              "midi": 42,
              "velocity": 93
            },
            {
              "start": 16272,
              "duration": 20,
              "midi": 30,
              "velocity": 93
            },
            {
              "start": 16296,
              "duration": 20,
              "midi": 42,
              "velocity": 93
            },
            {
              "start": 16320,
              "duration": 20,
              "midi": 30,
              "velocity": 93
            },
            {
              "start": 16344,
              "duration": 20,
              "midi": 42,
              "velocity": 93
            },
            {
              "start": 16392,
              "duration": 20,
              "midi": 30,
              "velocity": 93
            },
            {
              "start": 16416,
              "duration": 20,
              "midi": 42,
              "velocity": 93
            },
            {
              "start": 16464,
              "duration": 20,
              "midi": 30,
              "velocity": 93
            },
            {
              "start": 16488,
              "duration": 20,
              "midi": 42,
              "velocity": 93
            },
            {
              "start": 16512,
              "duration": 20,
              "midi": 30,
              "velocity": 93
            },
            {
              "start": 16536,
              "duration": 20,
              "midi": 42,
              "velocity": 93
            },
            {
              "start": 16584,
              "duration": 20,
              "midi": 30,
              "velocity": 93
            },
            {
              "start": 16608,
              "duration": 20,
              "midi": 42,
              "velocity": 93
            },
            {
              "start": 16656,
              "duration": 20,
              "midi": 30,
              "velocity": 93
            },
            {
              "start": 16680,
              "duration": 20,
              "midi": 42,
              "velocity": 93
            },
            {
              "start": 16704,
              "duration": 20,
              "midi": 30,
              "velocity": 93
            },
            {
              "start": 16728,
              "duration": 20,
              "midi": 42,
              "velocity": 93
            },
            {
              "start": 16776,
              "duration": 20,
              "midi": 30,
              "velocity": 93
            },
            {
              "start": 16800,
              "duration": 20,
              "midi": 42,
              "velocity": 93
            },
            {
              "start": 16848,
              "duration": 20,
              "midi": 30,
              "velocity": 93
            },
            {
              "start": 16872,
              "duration": 20,
              "midi": 42,
              "velocity": 93
            },
            {
              "start": 16896,
              "duration": 20,
              "midi": 27,
              "velocity": 93
            },
            {
              "start": 16920,
              "duration": 20,
              "midi": 39,
              "velocity": 93
            },
            {
              "start": 16968,
              "duration": 20,
              "midi": 27,
              "velocity": 93
            },
            {
              "start": 16992,
              "duration": 20,
              "midi": 39,
              "velocity": 93
            },
            {
              "start": 17040,
              "duration": 20,
              "midi": 27,
              "velocity": 93
            },
            {
              "start": 17064,
              "duration": 20,
              "midi": 39,
              "velocity": 93
            },
            {
              "start": 17088,
              "duration": 20,
              "midi": 27,
              "velocity": 93
            },
            {
              "start": 17112,
              "duration": 20,
              "midi": 39,
              "velocity": 93
            },
            {
              "start": 17160,
              "duration": 20,
              "midi": 27,
              "velocity": 93
            },
            {
              "start": 17184,
              "duration": 20,
              "midi": 39,
              "velocity": 93
            },
            {
              "start": 17232,
              "duration": 20,
              "midi": 27,
              "velocity": 93
            },
            {
              "start": 17256,
              "duration": 20,
              "midi": 39,
              "velocity": 93
            },
            {
              "start": 17280,
              "duration": 20,
              "midi": 27,
              "velocity": 93
            },
            {
              "start": 17304,
              "duration": 20,
              "midi": 39,
              "velocity": 93
            },
            {
              "start": 17352,
              "duration": 20,
              "midi": 27,
              "velocity": 93
            },
            {
              "start": 17376,
              "duration": 20,
              "midi": 39,
              "velocity": 93
            },
            {
              "start": 17424,
              "duration": 20,
              "midi": 27,
              "velocity": 93
            },
            {
              "start": 17448,
              "duration": 20,
              "midi": 39,
              "velocity": 93
            },
            {
              "start": 17472,
              "duration": 20,
              "midi": 27,
              "velocity": 93
            },
            {
              "start": 17496,
              "duration": 20,
              "midi": 39,
              "velocity": 93
            },
            {
              "start": 17544,
              "duration": 20,
              "midi": 27,
              "velocity": 93
            },
            {
              "start": 17568,
              "duration": 20,
              "midi": 39,
              "velocity": 93
            },
            {
              "start": 17616,
              "duration": 20,
              "midi": 27,
              "velocity": 93
            },
            {
              "start": 17640,
              "duration": 20,
              "midi": 39,
              "velocity": 93
            },
            {
              "start": 17664,
              "duration": 20,
              "midi": 27,
              "velocity": 93
            },
            {
              "start": 17688,
              "duration": 20,
              "midi": 39,
              "velocity": 93
            },
            {
              "start": 17736,
              "duration": 20,
              "midi": 27,
              "velocity": 93
            },
            {
              "start": 17760,
              "duration": 20,
              "midi": 39,
              "velocity": 93
            },
            {
              "start": 17808,
              "duration": 20,
              "midi": 27,
              "velocity": 93
            },
            {
              "start": 17832,
              "duration": 20,
              "midi": 39,
              "velocity": 93
            },
            {
              "start": 17856,
              "duration": 20,
              "midi": 27,
              "velocity": 93
            },
            {
              "start": 17880,
              "duration": 20,
              "midi": 39,
              "velocity": 93
            },
            {
              "start": 17928,
              "duration": 20,
              "midi": 27,
              "velocity": 93
            },
            {
              "start": 17952,
              "duration": 20,
              "midi": 39,
              "velocity": 93
            },
            {
              "start": 18000,
              "duration": 20,
              "midi": 27,
              "velocity": 93
            },
            {
              "start": 18024,
              "duration": 20,
              "midi": 39,
              "velocity": 93
            },
            {
              "start": 18048,
              "duration": 20,
              "midi": 27,
              "velocity": 93
            },
            {
              "start": 18072,
              "duration": 20,
              "midi": 39,
              "velocity": 93
            },
            {
              "start": 18120,
              "duration": 20,
              "midi": 27,
              "velocity": 93
            },
            {
              "start": 18144,
              "duration": 20,
              "midi": 39,
              "velocity": 93
            },
            {
              "start": 18192,
              "duration": 20,
              "midi": 27,
              "velocity": 93
            },
            {
              "start": 18216,
              "duration": 20,
              "midi": 39,
              "velocity": 93
            },
            {
              "start": 18240,
              "duration": 20,
              "midi": 27,
              "velocity": 93
            },
            {
              "start": 18264,
              "duration": 20,
              "midi": 39,
              "velocity": 93
            },
            {
              "start": 18312,
              "duration": 20,
              "midi": 27,
              "velocity": 93
            },
            {
              "start": 18336,
              "duration": 20,
              "midi": 39,
              "velocity": 93
            },
            {
              "start": 18384,
              "duration": 20,
              "midi": 27,
              "velocity": 93
            },
            {
              "start": 18408,
              "duration": 20,
              "midi": 39,
              "velocity": 93
            }
          ]
        }
      ],
      "enginePresetName": "factory:LEAD Square"
    }
  ],
  "scenes": [
    {
      "id": "scene-mpr0lmu9-h",
      "name": "MIDI Import",
      "clipPerLane": {
        "lane-mpr0lmu9-2": 0,
        "lane-mpr0lmu9-4": 0,
        "lane-mpr0lmu9-6": 0,
        "lane-mpr0lmu9-8": 0,
        "lane-mpr0lmu9-a": 0,
        "lane-mpr0lmu9-c": 0,
        "lane-mpr0lmu9-e": 0,
        "lane-mpr0lmu9-g": 0
      },
      "presetPerLane": {
        "lane-mpr0lmu9-2": "factory:PAD Sweep Wide",
        "lane-mpr0lmu9-4": "factory:PAD Halo Bright",
        "lane-mpr0lmu9-6": "factory:BASS Acid Classic",
        "lane-mpr0lmu9-8": "factory:LEAD Supersaw",
        "lane-mpr0lmu9-a": "factory:BASS Hoover Sub",
        "lane-mpr0lmu9-c": "factory:GTR Clean Electric",
        "lane-mpr0lmu9-e": "factory:LEAD Sub Lead",
        "lane-mpr0lmu9-g": "factory:LEAD Square"
      }
    }
  ],
  "globalQuantize": "1/1"
}