{
  "lanes": [
    {
      "id": "lane-mpr2auvs-2",
      "engineId": "subtractive",
      "name": "VOX Ooh",
      "clips": [
        {
          "id": "clip-mpr2auvs-1",
          "name": "VOX Ooh",
          "lengthBars": 152,
          "notes": [
            {
              "start": 3072,
              "duration": 575,
              "midi": 63,
              "velocity": 100
            },
            {
              "start": 3072,
              "duration": 575,
              "midi": 60,
              "velocity": 100
            },
            {
              "start": 3072,
              "duration": 575,
              "midi": 68,
              "velocity": 100
            },
            {
              "start": 3648,
              "duration": 383,
              "midi": 60,
              "velocity": 100
            },
            {
              "start": 3648,
              "duration": 383,
              "midi": 63,
              "velocity": 100
            },
            {
              "start": 3648,
              "duration": 383,
              "midi": 67,
              "velocity": 100
            },
            {
              "start": 4128,
              "duration": 95,
              "midi": 63,
              "velocity": 100
            },
            {
              "start": 4128,
              "duration": 95,
              "midi": 67,
              "velocity": 100
            },
            {
              "start": 4128,
              "duration": 95,
              "midi": 70,
              "velocity": 100
            },
            {
              "start": 4224,
              "duration": 383,
              "midi": 65,
              "velocity": 100
            },
            {
              "start": 4224,
              "duration": 383,
              "midi": 60,
              "velocity": 100
            },
            {
              "start": 4224,
              "duration": 383,
              "midi": 68,
              "velocity": 100
            },
            {
              "start": 4608,
              "duration": 383,
              "midi": 60,
              "velocity": 100
            },
            {
              "start": 4608,
              "duration": 383,
              "midi": 63,
              "velocity": 100
            },
            {
              "start": 4608,
              "duration": 383,
              "midi": 68,
              "velocity": 100
            },
            {
              "start": 4992,
              "duration": 383,
              "midi": 60,
              "velocity": 100
            },
            {
              "start": 4992,
              "duration": 383,
              "midi": 63,
              "velocity": 100
            },
            {
              "start": 4992,
              "duration": 383,
              "midi": 67,
              "velocity": 100
            },
            {
              "start": 11520,
              "duration": 575,
              "midi": 68,
              "velocity": 100
            },
            {
              "start": 11520,
              "duration": 575,
              "midi": 63,
              "velocity": 100
            },
            {
              "start": 11520,
              "duration": 575,
              "midi": 60,
              "velocity": 100
            },
            {
              "start": 12096,
              "duration": 383,
              "midi": 60,
              "velocity": 100
            },
            {
              "start": 12096,
              "duration": 383,
              "midi": 65,
              "velocity": 100
            },
            {
              "start": 12096,
              "duration": 383,
              "midi": 67,
              "velocity": 100
            },
            {
              "start": 12576,
              "duration": 95,
              "midi": 63,
              "velocity": 100
            },
            {
              "start": 12576,
              "duration": 95,
              "midi": 67,
              "velocity": 100
            },
            {
              "start": 12576,
              "duration": 95,
              "midi": 70,
              "velocity": 100
            },
            {
              "start": 12672,
              "duration": 383,
              "midi": 65,
              "velocity": 100
            },
            {
              "start": 12672,
              "duration": 383,
              "midi": 60,
              "velocity": 100
            },
            {
              "start": 12672,
              "duration": 383,
              "midi": 68,
              "velocity": 100
            },
            {
              "start": 13056,
              "duration": 383,
              "midi": 60,
              "velocity": 100
            },
            {
              "start": 13056,
              "duration": 383,
              "midi": 63,
              "velocity": 100
            },
            {
              "start": 13056,
              "duration": 383,
              "midi": 68,
              "velocity": 100
            },
            {
              "start": 13440,
              "duration": 383,
              "midi": 60,
              "velocity": 100
            },
            {
              "start": 13440,
              "duration": 383,
              "midi": 63,
              "velocity": 100
            },
            {
              "start": 13440,
              "duration": 383,
              "midi": 67,
              "velocity": 100
            },
            {
              "start": 18432,
              "duration": 575,
              "midi": 63,
              "velocity": 100
            },
            {
              "start": 18432,
              "duration": 575,
              "midi": 60,
              "velocity": 100
            },
            {
              "start": 18432,
              "duration": 575,
              "midi": 68,
              "velocity": 100
            },
            {
              "start": 19008,
              "duration": 383,
              "midi": 60,
              "velocity": 100
            },
            {
              "start": 19008,
              "duration": 383,
              "midi": 63,
              "velocity": 100
            },
            {
              "start": 19008,
              "duration": 383,
              "midi": 67,
              "velocity": 100
            },
            {
              "start": 19488,
              "duration": 95,
              "midi": 63,
              "velocity": 100
            },
            {
              "start": 19488,
              "duration": 95,
              "midi": 67,
              "velocity": 100
            },
            {
              "start": 19488,
              "duration": 95,
              "midi": 70,
              "velocity": 100
            },
            {
              "start": 19584,
              "duration": 383,
              "midi": 65,
              "velocity": 100
            },
            {
              "start": 19584,
              "duration": 383,
              "midi": 60,
              "velocity": 100
            },
            {
              "start": 19584,
              "duration": 383,
              "midi": 68,
              "velocity": 100
            },
            {
              "start": 19968,
              "duration": 383,
              "midi": 60,
              "velocity": 100
            },
            {
              "start": 19968,
              "duration": 383,
              "midi": 63,
              "velocity": 100
            },
            {
              "start": 19968,
              "duration": 383,
              "midi": 68,
              "velocity": 100
            },
            {
              "start": 20352,
              "duration": 383,
              "midi": 60,
              "velocity": 100
            },
            {
              "start": 20352,
              "duration": 383,
              "midi": 63,
              "velocity": 100
            },
            {
              "start": 20352,
              "duration": 383,
              "midi": 67,
              "velocity": 100
            },
            {
              "start": 29952,
              "duration": 575,
              "midi": 60,
              "velocity": 100
            },
            {
              "start": 29952,
              "duration": 575,
              "midi": 63,
              "velocity": 100
            },
            {
              "start": 29952,
              "duration": 575,
              "midi": 68,
              "velocity": 100
            },
            {
              "start": 30528,
              "duration": 191,
              "midi": 60,
              "velocity": 100
            },
            {
              "start": 30528,
              "duration": 191,
              "midi": 63,
              "velocity": 100
            },
            {
              "start": 30528,
              "duration": 191,
              "midi": 67,
              "velocity": 100
            },
            {
              "start": 30720,
              "duration": 287,
              "midi": 60,
              "velocity": 100
            },
            {
              "start": 30720,
              "duration": 287,
              "midi": 63,
              "velocity": 100
            },
            {
              "start": 30720,
              "duration": 287,
              "midi": 67,
              "velocity": 100
            },
            {
              "start": 31008,
              "duration": 95,
              "midi": 63,
              "velocity": 100
            },
            {
              "start": 31008,
              "duration": 95,
              "midi": 67,
              "velocity": 100
            },
            {
              "start": 31008,
              "duration": 95,
              "midi": 70,
              "velocity": 100
            },
            {
              "start": 31104,
              "duration": 383,
              "midi": 65,
              "velocity": 100
            },
            {
              "start": 31104,
              "duration": 383,
              "midi": 60,
              "velocity": 100
            },
            {
              "start": 31104,
              "duration": 383,
              "midi": 68,
              "velocity": 100
            },
            {
              "start": 31488,
              "duration": 383,
              "midi": 60,
              "velocity": 100
            },
            {
              "start": 31488,
              "duration": 383,
              "midi": 63,
              "velocity": 100
            },
            {
              "start": 31488,
              "duration": 383,
              "midi": 68,
              "velocity": 100
            },
            {
              "start": 31872,
              "duration": 383,
              "midi": 60,
              "velocity": 100
            },
            {
              "start": 31872,
              "duration": 383,
              "midi": 63,
              "velocity": 100
            },
            {
              "start": 31872,
              "duration": 383,
              "midi": 67,
              "velocity": 100
            },
            {
              "start": 41472,
              "duration": 575,
              "midi": 60,
              "velocity": 100
            },
            {
              "start": 41472,
              "duration": 575,
              "midi": 63,
              "velocity": 100
            },
            {
              "start": 41472,
              "duration": 575,
              "midi": 68,
              "velocity": 100
            },
            {
              "start": 42048,
              "duration": 191,
              "midi": 60,
              "velocity": 100
            },
            {
              "start": 42048,
              "duration": 191,
              "midi": 63,
              "velocity": 100
            },
            {
              "start": 42048,
              "duration": 191,
              "midi": 67,
              "velocity": 100
            },
            {
              "start": 42240,
              "duration": 287,
              "midi": 60,
              "velocity": 100
            },
            {
              "start": 42240,
              "duration": 287,
              "midi": 63,
              "velocity": 100
            },
            {
              "start": 42240,
              "duration": 287,
              "midi": 67,
              "velocity": 100
            },
            {
              "start": 42528,
              "duration": 95,
              "midi": 63,
              "velocity": 100
            },
            {
              "start": 42528,
              "duration": 95,
              "midi": 67,
              "velocity": 100
            },
            {
              "start": 42528,
              "duration": 95,
              "midi": 70,
              "velocity": 100
            },
            {
              "start": 42624,
              "duration": 383,
              "midi": 65,
              "velocity": 100
            },
            {
              "start": 42624,
              "duration": 383,
              "midi": 60,
              "velocity": 100
            },
            {
              "start": 42624,
              "duration": 383,
              "midi": 68,
              "velocity": 100
            },
            {
              "start": 43008,
              "duration": 383,
              "midi": 60,
              "velocity": 100
            },
            {
              "start": 43008,
              "duration": 383,
              "midi": 63,
              "velocity": 100
            },
            {
              "start": 43008,
              "duration": 383,
              "midi": 68,
              "velocity": 100
            },
            {
              "start": 43392,
              "duration": 383,
              "midi": 60,
              "velocity": 100
            },
            {
              "start": 43392,
              "duration": 383,
              "midi": 63,
              "velocity": 100
            },
            {
              "start": 43392,
              "duration": 383,
              "midi": 67,
              "velocity": 100
            }
          ]
        }
      ],
      "enginePresetName": "factory:VOX Ooh"
    },
    {
      "id": "lane-mpr2auvs-4",
      "engineId": "subtractive",
      "name": "STRINGS Ensemble",
      "clips": [
        {
          "id": "clip-mpr2auvs-3",
          "name": "STRINGS Ensemble",
          "lengthBars": 152,
          "notes": [
            {
              "start": 3648,
              "duration": 71,
              "midi": 75,
              "velocity": 100
            },
            {
              "start": 3648,
              "duration": 71,
              "midi": 63,
              "velocity": 100
            },
            {
              "start": 3720,
              "duration": 47,
              "midi": 74,
              "velocity": 100
            },
            {
              "start": 3720,
              "duration": 47,
              "midi": 62,
              "velocity": 100
            },
            {
              "start": 3768,
              "duration": 71,
              "midi": 72,
              "velocity": 100
            },
            {
              "start": 3768,
              "duration": 71,
              "midi": 60,
              "velocity": 100
            },
            {
              "start": 3840,
              "duration": 143,
              "midi": 74,
              "velocity": 100
            },
            {
              "start": 3840,
              "duration": 143,
              "midi": 62,
              "velocity": 100
            },
            {
              "start": 3984,
              "duration": 47,
              "midi": 75,
              "velocity": 100
            },
            {
              "start": 3984,
              "duration": 47,
              "midi": 63,
              "velocity": 100
            },
            {
              "start": 4032,
              "duration": 383,
              "midi": 72,
              "velocity": 100
            },
            {
              "start": 4032,
              "duration": 383,
              "midi": 60,
              "velocity": 100
            },
            {
              "start": 4464,
              "duration": 35,
              "midi": 60,
              "velocity": 100
            },
            {
              "start": 4464,
              "duration": 35,
              "midi": 48,
              "velocity": 100
            },
            {
              "start": 4494,
              "duration": 35,
              "midi": 51,
              "velocity": 100
            },
            {
              "start": 4494,
              "duration": 35,
              "midi": 63,
              "velocity": 100
            },
            {
              "start": 4512,
              "duration": 35,
              "midi": 53,
              "velocity": 100
            },
            {
              "start": 4512,
              "duration": 35,
              "midi": 65,
              "velocity": 100
            },
            {
              "start": 4542,
              "duration": 35,
              "midi": 54,
              "velocity": 100
            },
            {
              "start": 4542,
              "duration": 35,
              "midi": 66,
              "velocity": 100
            },
            {
              "start": 4578,
              "duration": 30,
              "midi": 65,
              "velocity": 100
            },
            {
              "start": 4578,
              "duration": 30,
              "midi": 53,
              "velocity": 100
            },
            {
              "start": 4872,
              "duration": 23,
              "midi": 66,
              "velocity": 100
            },
            {
              "start": 4872,
              "duration": 23,
              "midi": 54,
              "velocity": 100
            },
            {
              "start": 4896,
              "duration": 23,
              "midi": 65,
              "velocity": 100
            },
            {
              "start": 4596,
              "duration": 323,
              "midi": 63,
              "velocity": 100
            },
            {
              "start": 4596,
              "duration": 323,
              "midi": 51,
              "velocity": 100
            },
            {
              "start": 4896,
              "duration": 23,
              "midi": 53,
              "velocity": 100
            },
            {
              "start": 4920,
              "duration": 59,
              "midi": 63,
              "velocity": 100
            },
            {
              "start": 4920,
              "duration": 59,
              "midi": 51,
              "velocity": 100
            },
            {
              "start": 4992,
              "duration": 191,
              "midi": 67,
              "velocity": 100
            },
            {
              "start": 4992,
              "duration": 191,
              "midi": 55,
              "velocity": 100
            },
            {
              "start": 5184,
              "duration": 47,
              "midi": 70,
              "velocity": 100
            },
            {
              "start": 5184,
              "duration": 47,
              "midi": 58,
              "velocity": 100
            },
            {
              "start": 5232,
              "duration": 143,
              "midi": 72,
              "velocity": 100
            },
            {
              "start": 5232,
              "duration": 143,
              "midi": 60,
              "velocity": 100
            },
            {
              "start": 12102,
              "duration": 35,
              "midi": 66,
              "velocity": 100
            },
            {
              "start": 12102,
              "duration": 35,
              "midi": 54,
              "velocity": 100
            },
            {
              "start": 12126,
              "duration": 30,
              "midi": 53,
              "velocity": 100
            },
            {
              "start": 12126,
              "duration": 30,
              "midi": 65,
              "velocity": 100
            },
            {
              "start": 12168,
              "duration": 47,
              "midi": 51,
              "velocity": 100
            },
            {
              "start": 12168,
              "duration": 47,
              "midi": 63,
              "velocity": 100
            },
            {
              "start": 12192,
              "duration": 191,
              "midi": 53,
              "velocity": 100
            },
            {
              "start": 12192,
              "duration": 191,
              "midi": 65,
              "velocity": 100
            },
            {
              "start": 12390,
              "duration": 30,
              "midi": 66,
              "velocity": 100
            },
            {
              "start": 12390,
              "duration": 30,
              "midi": 54,
              "velocity": 100
            },
            {
              "start": 12768,
              "duration": 47,
              "midi": 51,
              "velocity": 100
            },
            {
              "start": 12768,
              "duration": 47,
              "midi": 63,
              "velocity": 100
            },
            {
              "start": 12804,
              "duration": 47,
              "midi": 53,
              "velocity": 100
            },
            {
              "start": 12804,
              "duration": 47,
              "midi": 65,
              "velocity": 100
            },
            {
              "start": 12840,
              "duration": 47,
              "midi": 54,
              "velocity": 100
            },
            {
              "start": 12840,
              "duration": 47,
              "midi": 66,
              "velocity": 100
            },
            {
              "start": 12864,
              "duration": 191,
              "midi": 63,
              "velocity": 100
            },
            {
              "start": 12864,
              "duration": 191,
              "midi": 51,
              "velocity": 100
            },
            {
              "start": 13440,
              "duration": 47,
              "midi": 58,
              "velocity": 100
            },
            {
              "start": 13440,
              "duration": 47,
              "midi": 70,
              "velocity": 100
            },
            {
              "start": 13488,
              "duration": 95,
              "midi": 55,
              "velocity": 100
            },
            {
              "start": 13488,
              "duration": 95,
              "midi": 67,
              "velocity": 100
            },
            {
              "start": 13584,
              "duration": 47,
              "midi": 55,
              "velocity": 100
            },
            {
              "start": 13584,
              "duration": 47,
              "midi": 67,
              "velocity": 100
            },
            {
              "start": 13632,
              "duration": 47,
              "midi": 53,
              "velocity": 100
            },
            {
              "start": 13632,
              "duration": 47,
              "midi": 65,
              "velocity": 100
            },
            {
              "start": 13656,
              "duration": 47,
              "midi": 63,
              "velocity": 100
            },
            {
              "start": 13656,
              "duration": 47,
              "midi": 51,
              "velocity": 100
            },
            {
              "start": 13692,
              "duration": 47,
              "midi": 60,
              "velocity": 100
            },
            {
              "start": 13692,
              "duration": 47,
              "midi": 48,
              "velocity": 100
            },
            {
              "start": 13728,
              "duration": 96,
              "midi": 63,
              "velocity": 100
            },
            {
              "start": 13728,
              "duration": 96,
              "midi": 51,
              "velocity": 100
            },
            {
              "start": 19008,
              "duration": 71,
              "midi": 75,
              "velocity": 100
            },
            {
              "start": 19008,
              "duration": 71,
              "midi": 63,
              "velocity": 100
            },
            {
              "start": 19080,
              "duration": 47,
              "midi": 74,
              "velocity": 100
            },
            {
              "start": 19080,
              "duration": 47,
              "midi": 62,
              "velocity": 100
            },
            {
              "start": 19128,
              "duration": 71,
              "midi": 72,
              "velocity": 100
            },
            {
              "start": 19128,
              "duration": 71,
              "midi": 60,
              "velocity": 100
            },
            {
              "start": 19200,
              "duration": 143,
              "midi": 74,
              "velocity": 100
            },
            {
              "start": 19200,
              "duration": 143,
              "midi": 62,
              "velocity": 100
            },
            {
              "start": 19344,
              "duration": 47,
              "midi": 75,
              "velocity": 100
            },
            {
              "start": 19344,
              "duration": 47,
              "midi": 63,
              "velocity": 100
            },
            {
              "start": 19392,
              "duration": 383,
              "midi": 72,
              "velocity": 100
            },
            {
              "start": 19392,
              "duration": 383,
              "midi": 60,
              "velocity": 100
            },
            {
              "start": 19824,
              "duration": 35,
              "midi": 60,
              "velocity": 100
            },
            {
              "start": 19824,
              "duration": 35,
              "midi": 48,
              "velocity": 100
            },
            {
              "start": 19854,
              "duration": 35,
              "midi": 51,
              "velocity": 100
            },
            {
              "start": 19854,
              "duration": 35,
              "midi": 63,
              "velocity": 100
            },
            {
              "start": 19872,
              "duration": 35,
              "midi": 53,
              "velocity": 100
            },
            {
              "start": 19872,
              "duration": 35,
              "midi": 65,
              "velocity": 100
            },
            {
              "start": 19902,
              "duration": 35,
              "midi": 54,
              "velocity": 100
            },
            {
              "start": 19902,
              "duration": 35,
              "midi": 66,
              "velocity": 100
            },
            {
              "start": 19938,
              "duration": 30,
              "midi": 65,
              "velocity": 100
            },
            {
              "start": 19938,
              "duration": 30,
              "midi": 53,
              "velocity": 100
            },
            {
              "start": 20232,
              "duration": 23,
              "midi": 66,
              "velocity": 100
            },
            {
              "start": 20232,
              "duration": 23,
              "midi": 54,
              "velocity": 100
            },
            {
              "start": 20256,
              "duration": 23,
              "midi": 65,
              "velocity": 100
            },
            {
              "start": 19956,
              "duration": 323,
              "midi": 63,
              "velocity": 100
            },
            {
              "start": 19956,
              "duration": 323,
              "midi": 51,
              "velocity": 100
            },
            {
              "start": 20256,
              "duration": 23,
              "midi": 53,
              "velocity": 100
            },
            {
              "start": 20280,
              "duration": 59,
              "midi": 63,
              "velocity": 100
            },
            {
              "start": 20280,
              "duration": 59,
              "midi": 51,
              "velocity": 100
            },
            {
              "start": 20352,
              "duration": 191,
              "midi": 67,
              "velocity": 100
            },
            {
              "start": 20352,
              "duration": 191,
              "midi": 55,
              "velocity": 100
            },
            {
              "start": 20544,
              "duration": 47,
              "midi": 70,
              "velocity": 100
            },
            {
              "start": 20544,
              "duration": 47,
              "midi": 58,
              "velocity": 100
            },
            {
              "start": 20592,
              "duration": 527,
              "midi": 60,
              "velocity": 100
            },
            {
              "start": 20592,
              "duration": 527,
              "midi": 72,
              "velocity": 100
            },
            {
              "start": 21504,
              "duration": 383,
              "midi": 51,
              "velocity": 100
            },
            {
              "start": 21888,
              "duration": 383,
              "midi": 53,
              "velocity": 100
            },
            {
              "start": 22272,
              "duration": 383,
              "midi": 55,
              "velocity": 100
            },
            {
              "start": 22656,
              "duration": 383,
              "midi": 57,
              "velocity": 100
            },
            {
              "start": 23040,
              "duration": 383,
              "midi": 58,
              "velocity": 100
            },
            {
              "start": 23424,
              "duration": 128,
              "midi": 60,
              "velocity": 100
            },
            {
              "start": 23664,
              "duration": 23,
              "midi": 58,
              "velocity": 100
            },
            {
              "start": 23664,
              "duration": 23,
              "midi": 70,
              "velocity": 100
            },
            {
              "start": 23688,
              "duration": 23,
              "midi": 60,
              "velocity": 100
            },
            {
              "start": 23688,
              "duration": 23,
              "midi": 72,
              "velocity": 100
            },
            {
              "start": 23712,
              "duration": 23,
              "midi": 63,
              "velocity": 100
            },
            {
              "start": 23712,
              "duration": 23,
              "midi": 75,
              "velocity": 100
            },
            {
              "start": 23736,
              "duration": 23,
              "midi": 62,
              "velocity": 100
            },
            {
              "start": 23736,
              "duration": 23,
              "midi": 74,
              "velocity": 100
            },
            {
              "start": 23760,
              "duration": 23,
              "midi": 60,
              "velocity": 100
            },
            {
              "start": 23760,
              "duration": 23,
              "midi": 72,
              "velocity": 100
            },
            {
              "start": 23784,
              "duration": 23,
              "midi": 58,
              "velocity": 100
            },
            {
              "start": 23784,
              "duration": 23,
              "midi": 70,
              "velocity": 100
            },
            {
              "start": 23808,
              "duration": 383,
              "midi": 60,
              "velocity": 100
            },
            {
              "start": 23808,
              "duration": 383,
              "midi": 72,
              "velocity": 100
            },
            {
              "start": 24192,
              "duration": 143,
              "midi": 51,
              "velocity": 100
            },
            {
              "start": 24192,
              "duration": 143,
              "midi": 63,
              "velocity": 100
            },
            {
              "start": 24336,
              "duration": 95,
              "midi": 53,
              "velocity": 100
            },
            {
              "start": 24336,
              "duration": 95,
              "midi": 65,
              "velocity": 100
            },
            {
              "start": 24432,
              "duration": 47,
              "midi": 55,
              "velocity": 100
            },
            {
              "start": 24432,
              "duration": 47,
              "midi": 67,
              "velocity": 100
            },
            {
              "start": 24480,
              "duration": 95,
              "midi": 51,
              "velocity": 100
            },
            {
              "start": 24480,
              "duration": 95,
              "midi": 63,
              "velocity": 100
            },
            {
              "start": 24576,
              "duration": 383,
              "midi": 48,
              "velocity": 100
            },
            {
              "start": 24576,
              "duration": 383,
              "midi": 60,
              "velocity": 100
            },
            {
              "start": 25200,
              "duration": 47,
              "midi": 67,
              "velocity": 100
            },
            {
              "start": 25200,
              "duration": 47,
              "midi": 55,
              "velocity": 100
            },
            {
              "start": 25248,
              "duration": 47,
              "midi": 58,
              "velocity": 100
            },
            {
              "start": 25248,
              "duration": 47,
              "midi": 70,
              "velocity": 100
            },
            {
              "start": 25296,
              "duration": 527,
              "midi": 72,
              "velocity": 100
            },
            {
              "start": 25296,
              "duration": 527,
              "midi": 60,
              "velocity": 100
            },
            {
              "start": 25920,
              "duration": 47,
              "midi": 66,
              "velocity": 100
            },
            {
              "start": 25920,
              "duration": 47,
              "midi": 78,
              "velocity": 100
            },
            {
              "start": 25968,
              "duration": 47,
              "midi": 65,
              "velocity": 100
            },
            {
              "start": 25968,
              "duration": 47,
              "midi": 77,
              "velocity": 100
            },
            {
              "start": 26016,
              "duration": 47,
              "midi": 63,
              "velocity": 100
            },
            {
              "start": 26016,
              "duration": 47,
              "midi": 75,
              "velocity": 100
            },
            {
              "start": 26064,
              "duration": 527,
              "midi": 72,
              "velocity": 100
            },
            {
              "start": 26064,
              "duration": 527,
              "midi": 60,
              "velocity": 100
            },
            {
              "start": 30672,
              "duration": 95,
              "midi": 63,
              "velocity": 100
            },
            {
              "start": 30672,
              "duration": 95,
              "midi": 75,
              "velocity": 100
            },
            {
              "start": 30768,
              "duration": 47,
              "midi": 62,
              "velocity": 100
            },
            {
              "start": 30768,
              "duration": 47,
              "midi": 74,
              "velocity": 100
            },
            {
              "start": 30816,
              "duration": 23,
              "midi": 60,
              "velocity": 100
            },
            {
              "start": 30816,
              "duration": 23,
              "midi": 72,
              "velocity": 100
            },
            {
              "start": 30840,
              "duration": 23,
              "midi": 58,
              "velocity": 100
            },
            {
              "start": 30840,
              "duration": 23,
              "midi": 70,
              "velocity": 100
            },
            {
              "start": 30864,
              "duration": 143,
              "midi": 60,
              "velocity": 100
            },
            {
              "start": 30864,
              "duration": 143,
              "midi": 72,
              "velocity": 100
            },
            {
              "start": 31056,
              "duration": 95,
              "midi": 54,
              "velocity": 100
            },
            {
              "start": 31056,
              "duration": 95,
              "midi": 66,
              "velocity": 100
            },
            {
              "start": 31152,
              "duration": 23,
              "midi": 53,
              "velocity": 100
            },
            {
              "start": 31152,
              "duration": 23,
              "midi": 65,
              "velocity": 100
            },
            {
              "start": 31176,
              "duration": 119,
              "midi": 51,
              "velocity": 100
            },
            {
              "start": 31176,
              "duration": 119,
              "midi": 63,
              "velocity": 100
            },
            {
              "start": 31296,
              "duration": 23,
              "midi": 54,
              "velocity": 100
            },
            {
              "start": 31296,
              "duration": 23,
              "midi": 66,
              "velocity": 100
            },
            {
              "start": 31320,
              "duration": 23,
              "midi": 53,
              "velocity": 100
            },
            {
              "start": 31320,
              "duration": 23,
              "midi": 65,
              "velocity": 100
            },
            {
              "start": 31416,
              "duration": 23,
              "midi": 54,
              "velocity": 100
            },
            {
              "start": 31344,
              "duration": 95,
              "midi": 63,
              "velocity": 100
            },
            {
              "start": 31344,
              "duration": 95,
              "midi": 51,
              "velocity": 100
            },
            {
              "start": 31416,
              "duration": 23,
              "midi": 66,
              "velocity": 100
            },
            {
              "start": 31440,
              "duration": 119,
              "midi": 51,
              "velocity": 100
            },
            {
              "start": 31440,
              "duration": 119,
              "midi": 63,
              "velocity": 100
            },
            {
              "start": 31584,
              "duration": 47,
              "midi": 51,
              "velocity": 100
            },
            {
              "start": 31584,
              "duration": 47,
              "midi": 63,
              "velocity": 100
            },
            {
              "start": 31632,
              "duration": 95,
              "midi": 67,
              "velocity": 100
            },
            {
              "start": 31632,
              "duration": 95,
              "midi": 55,
              "velocity": 100
            },
            {
              "start": 31728,
              "duration": 47,
              "midi": 53,
              "velocity": 100
            },
            {
              "start": 31728,
              "duration": 47,
              "midi": 65,
              "velocity": 100
            },
            {
              "start": 31776,
              "duration": 191,
              "midi": 67,
              "velocity": 100
            },
            {
              "start": 31776,
              "duration": 191,
              "midi": 55,
              "velocity": 100
            },
            {
              "start": 32016,
              "duration": 47,
              "midi": 67,
              "velocity": 100
            },
            {
              "start": 32016,
              "duration": 47,
              "midi": 55,
              "velocity": 100
            },
            {
              "start": 32064,
              "duration": 47,
              "midi": 70,
              "velocity": 100
            },
            {
              "start": 32064,
              "duration": 47,
              "midi": 58,
              "velocity": 100
            },
            {
              "start": 32112,
              "duration": 528,
              "midi": 72,
              "velocity": 100
            },
            {
              "start": 32112,
              "duration": 528,
              "midi": 60,
              "velocity": 100
            },
            {
              "start": 33024,
              "duration": 383,
              "midi": 51,
              "velocity": 100
            },
            {
              "start": 33408,
              "duration": 383,
              "midi": 53,
              "velocity": 100
            },
            {
              "start": 33792,
              "duration": 383,
              "midi": 55,
              "velocity": 100
            },
            {
              "start": 34176,
              "duration": 383,
              "midi": 57,
              "velocity": 100
            },
            {
              "start": 34560,
              "duration": 383,
              "midi": 58,
              "velocity": 100
            },
            {
              "start": 34944,
              "duration": 128,
              "midi": 60,
              "velocity": 100
            },
            {
              "start": 35184,
              "duration": 23,
              "midi": 58,
              "velocity": 100
            },
            {
              "start": 35184,
              "duration": 23,
              "midi": 70,
              "velocity": 100
            },
            {
              "start": 35208,
              "duration": 23,
              "midi": 60,
              "velocity": 100
            },
            {
              "start": 35208,
              "duration": 23,
              "midi": 72,
              "velocity": 100
            },
            {
              "start": 35232,
              "duration": 23,
              "midi": 63,
              "velocity": 100
            },
            {
              "start": 35232,
              "duration": 23,
              "midi": 75,
              "velocity": 100
            },
            {
              "start": 35256,
              "duration": 23,
              "midi": 62,
              "velocity": 100
            },
            {
              "start": 35256,
              "duration": 23,
              "midi": 74,
              "velocity": 100
            },
            {
              "start": 35280,
              "duration": 23,
              "midi": 60,
              "velocity": 100
            },
            {
              "start": 35280,
              "duration": 23,
              "midi": 72,
              "velocity": 100
            },
            {
              "start": 35304,
              "duration": 23,
              "midi": 58,
              "velocity": 100
            },
            {
              "start": 35304,
              "duration": 23,
              "midi": 70,
              "velocity": 100
            },
            {
              "start": 35328,
              "duration": 383,
              "midi": 60,
              "velocity": 100
            },
            {
              "start": 35328,
              "duration": 383,
              "midi": 72,
              "velocity": 100
            },
            {
              "start": 35712,
              "duration": 143,
              "midi": 51,
              "velocity": 100
            },
            {
              "start": 35712,
              "duration": 143,
              "midi": 63,
              "velocity": 100
            },
            {
              "start": 35856,
              "duration": 95,
              "midi": 53,
              "velocity": 100
            },
            {
              "start": 35856,
              "duration": 95,
              "midi": 65,
              "velocity": 100
            },
            {
              "start": 35952,
              "duration": 47,
              "midi": 55,
              "velocity": 100
            },
            {
              "start": 35952,
              "duration": 47,
              "midi": 67,
              "velocity": 100
            },
            {
              "start": 36000,
              "duration": 95,
              "midi": 51,
              "velocity": 100
            },
            {
              "start": 36000,
              "duration": 95,
              "midi": 63,
              "velocity": 100
            },
            {
              "start": 36096,
              "duration": 383,
              "midi": 48,
              "velocity": 100
            },
            {
              "start": 36096,
              "duration": 383,
              "midi": 60,
              "velocity": 100
            },
            {
              "start": 36720,
              "duration": 47,
              "midi": 67,
              "velocity": 100
            },
            {
              "start": 36720,
              "duration": 47,
              "midi": 55,
              "velocity": 100
            },
            {
              "start": 36768,
              "duration": 47,
              "midi": 58,
              "velocity": 100
            },
            {
              "start": 36768,
              "duration": 47,
              "midi": 70,
              "velocity": 100
            },
            {
              "start": 36816,
              "duration": 527,
              "midi": 72,
              "velocity": 100
            },
            {
              "start": 36816,
              "duration": 527,
              "midi": 60,
              "velocity": 100
            },
            {
              "start": 37440,
              "duration": 47,
              "midi": 66,
              "velocity": 100
            },
            {
              "start": 37440,
              "duration": 47,
              "midi": 78,
              "velocity": 100
            },
            {
              "start": 37488,
              "duration": 47,
              "midi": 65,
              "velocity": 100
            },
            {
              "start": 37488,
              "duration": 47,
              "midi": 77,
              "velocity": 100
            },
            {
              "start": 37536,
              "duration": 47,
              "midi": 63,
              "velocity": 100
            },
            {
              "start": 37536,
              "duration": 47,
              "midi": 75,
              "velocity": 100
            },
            {
              "start": 37584,
              "duration": 527,
              "midi": 72,
              "velocity": 100
            },
            {
              "start": 37584,
              "duration": 527,
              "midi": 60,
              "velocity": 100
            },
            {
              "start": 42192,
              "duration": 95,
              "midi": 63,
              "velocity": 100
            },
            {
              "start": 42192,
              "duration": 95,
              "midi": 75,
              "velocity": 100
            },
            {
              "start": 42288,
              "duration": 47,
              "midi": 62,
              "velocity": 100
            },
            {
              "start": 42288,
              "duration": 47,
              "midi": 74,
              "velocity": 100
            },
            {
              "start": 42336,
              "duration": 23,
              "midi": 60,
              "velocity": 100
            },
            {
              "start": 42336,
              "duration": 23,
              "midi": 72,
              "velocity": 100
            },
            {
              "start": 42360,
              "duration": 23,
              "midi": 58,
              "velocity": 100
            },
            {
              "start": 42360,
              "duration": 23,
              "midi": 70,
              "velocity": 100
            },
            {
              "start": 42384,
              "duration": 143,
              "midi": 60,
              "velocity": 100
            },
            {
              "start": 42384,
              "duration": 143,
              "midi": 72,
              "velocity": 100
            },
            {
              "start": 42576,
              "duration": 95,
              "midi": 54,
              "velocity": 100
            },
            {
              "start": 42576,
              "duration": 95,
              "midi": 66,
              "velocity": 100
            },
            {
              "start": 42672,
              "duration": 23,
              "midi": 53,
              "velocity": 100
            },
            {
              "start": 42672,
              "duration": 23,
              "midi": 65,
              "velocity": 100
            },
            {
              "start": 42696,
              "duration": 119,
              "midi": 51,
              "velocity": 100
            },
            {
              "start": 42696,
              "duration": 119,
              "midi": 63,
              "velocity": 100
            },
            {
              "start": 42816,
              "duration": 23,
              "midi": 54,
              "velocity": 100
            },
            {
              "start": 42816,
              "duration": 23,
              "midi": 66,
              "velocity": 100
            },
            {
              "start": 42840,
              "duration": 23,
              "midi": 53,
              "velocity": 100
            },
            {
              "start": 42840,
              "duration": 23,
              "midi": 65,
              "velocity": 100
            },
            {
              "start": 42936,
              "duration": 23,
              "midi": 54,
              "velocity": 100
            },
            {
              "start": 42864,
              "duration": 95,
              "midi": 63,
              "velocity": 100
            },
            {
              "start": 42864,
              "duration": 95,
              "midi": 51,
              "velocity": 100
            },
            {
              "start": 42936,
              "duration": 23,
              "midi": 66,
              "velocity": 100
            },
            {
              "start": 42960,
              "duration": 119,
              "midi": 51,
              "velocity": 100
            },
            {
              "start": 42960,
              "duration": 119,
              "midi": 63,
              "velocity": 100
            },
            {
              "start": 43104,
              "duration": 47,
              "midi": 51,
              "velocity": 100
            },
            {
              "start": 43104,
              "duration": 47,
              "midi": 63,
              "velocity": 100
            },
            {
              "start": 43152,
              "duration": 95,
              "midi": 67,
              "velocity": 100
            },
            {
              "start": 43152,
              "duration": 95,
              "midi": 55,
              "velocity": 100
            },
            {
              "start": 43248,
              "duration": 47,
              "midi": 53,
              "velocity": 100
            },
            {
              "start": 43248,
              "duration": 47,
              "midi": 65,
              "velocity": 100
            },
            {
              "start": 43296,
              "duration": 191,
              "midi": 67,
              "velocity": 100
            },
            {
              "start": 43296,
              "duration": 191,
              "midi": 55,
              "velocity": 100
            },
            {
              "start": 43536,
              "duration": 47,
              "midi": 67,
              "velocity": 100
            },
            {
              "start": 43536,
              "duration": 47,
              "midi": 55,
              "velocity": 100
            },
            {
              "start": 43584,
              "duration": 47,
              "midi": 70,
              "velocity": 100
            },
            {
              "start": 43584,
              "duration": 47,
              "midi": 58,
              "velocity": 100
            },
            {
              "start": 43632,
              "duration": 528,
              "midi": 72,
              "velocity": 100
            },
            {
              "start": 43632,
              "duration": 528,
              "midi": 60,
              "velocity": 100
            },
            {
              "start": 45168,
              "duration": 23,
              "midi": 54,
              "velocity": 100
            },
            {
              "start": 45168,
              "duration": 23,
              "midi": 66,
              "velocity": 100
            },
            {
              "start": 45192,
              "duration": 23,
              "midi": 53,
              "velocity": 100
            },
            {
              "start": 45192,
              "duration": 23,
              "midi": 65,
              "velocity": 100
            },
            {
              "start": 45216,
              "duration": 23,
              "midi": 51,
              "velocity": 100
            },
            {
              "start": 45216,
              "duration": 23,
              "midi": 63,
              "velocity": 100
            },
            {
              "start": 45240,
              "duration": 119,
              "midi": 53,
              "velocity": 100
            },
            {
              "start": 45240,
              "duration": 119,
              "midi": 65,
              "velocity": 100
            },
            {
              "start": 45360,
              "duration": 47,
              "midi": 54,
              "velocity": 100
            },
            {
              "start": 45360,
              "duration": 47,
              "midi": 66,
              "velocity": 100
            },
            {
              "start": 45408,
              "duration": 191,
              "midi": 51,
              "velocity": 100
            },
            {
              "start": 45408,
              "duration": 191,
              "midi": 63,
              "velocity": 100
            },
            {
              "start": 46656,
              "duration": 95,
              "midi": 60,
              "velocity": 100
            },
            {
              "start": 46656,
              "duration": 95,
              "midi": 72,
              "velocity": 100
            },
            {
              "start": 46740,
              "duration": 275,
              "midi": 55,
              "velocity": 100
            },
            {
              "start": 46740,
              "duration": 275,
              "midi": 67,
              "velocity": 100
            },
            {
              "start": 47472,
              "duration": 47,
              "midi": 46,
              "velocity": 100
            },
            {
              "start": 47472,
              "duration": 47,
              "midi": 58,
              "velocity": 100
            },
            {
              "start": 47520,
              "duration": 47,
              "midi": 48,
              "velocity": 100
            },
            {
              "start": 47520,
              "duration": 47,
              "midi": 60,
              "velocity": 100
            },
            {
              "start": 47568,
              "duration": 431,
              "midi": 51,
              "velocity": 100
            },
            {
              "start": 47568,
              "duration": 431,
              "midi": 63,
              "velocity": 100
            },
            {
              "start": 48240,
              "duration": 47,
              "midi": 46,
              "velocity": 100
            },
            {
              "start": 48240,
              "duration": 47,
              "midi": 58,
              "velocity": 100
            },
            {
              "start": 48288,
              "duration": 47,
              "midi": 48,
              "velocity": 100
            },
            {
              "start": 48288,
              "duration": 47,
              "midi": 60,
              "velocity": 100
            },
            {
              "start": 48336,
              "duration": 239,
              "midi": 51,
              "velocity": 100
            },
            {
              "start": 48336,
              "duration": 239,
              "midi": 63,
              "velocity": 100
            },
            {
              "start": 48912,
              "duration": 23,
              "midi": 54,
              "velocity": 100
            },
            {
              "start": 48912,
              "duration": 23,
              "midi": 66,
              "velocity": 100
            },
            {
              "start": 49008,
              "duration": 23,
              "midi": 58,
              "velocity": 100
            },
            {
              "start": 48936,
              "duration": 95,
              "midi": 65,
              "velocity": 100
            },
            {
              "start": 48936,
              "duration": 95,
              "midi": 53,
              "velocity": 100
            },
            {
              "start": 49008,
              "duration": 23,
              "midi": 70,
              "velocity": 100
            },
            {
              "start": 49032,
              "duration": 23,
              "midi": 60,
              "velocity": 100
            },
            {
              "start": 49032,
              "duration": 23,
              "midi": 72,
              "velocity": 100
            },
            {
              "start": 49056,
              "duration": 23,
              "midi": 63,
              "velocity": 100
            },
            {
              "start": 49056,
              "duration": 23,
              "midi": 75,
              "velocity": 100
            },
            {
              "start": 49080,
              "duration": 23,
              "midi": 62,
              "velocity": 100
            },
            {
              "start": 49080,
              "duration": 23,
              "midi": 74,
              "velocity": 100
            },
            {
              "start": 49104,
              "duration": 23,
              "midi": 60,
              "velocity": 100
            },
            {
              "start": 49104,
              "duration": 23,
              "midi": 72,
              "velocity": 100
            },
            {
              "start": 49128,
              "duration": 23,
              "midi": 58,
              "velocity": 100
            },
            {
              "start": 49128,
              "duration": 23,
              "midi": 70,
              "velocity": 100
            },
            {
              "start": 49152,
              "duration": 383,
              "midi": 60,
              "velocity": 100
            },
            {
              "start": 49152,
              "duration": 383,
              "midi": 72,
              "velocity": 100
            },
            {
              "start": 49536,
              "duration": 143,
              "midi": 51,
              "velocity": 100
            },
            {
              "start": 49536,
              "duration": 143,
              "midi": 63,
              "velocity": 100
            },
            {
              "start": 49680,
              "duration": 95,
              "midi": 53,
              "velocity": 100
            },
            {
              "start": 49680,
              "duration": 95,
              "midi": 65,
              "velocity": 100
            },
            {
              "start": 49776,
              "duration": 47,
              "midi": 55,
              "velocity": 100
            },
            {
              "start": 49776,
              "duration": 47,
              "midi": 67,
              "velocity": 100
            },
            {
              "start": 49824,
              "duration": 95,
              "midi": 51,
              "velocity": 100
            },
            {
              "start": 49824,
              "duration": 95,
              "midi": 63,
              "velocity": 100
            },
            {
              "start": 49920,
              "duration": 383,
              "midi": 48,
              "velocity": 100
            },
            {
              "start": 49920,
              "duration": 383,
              "midi": 60,
              "velocity": 100
            },
            {
              "start": 50544,
              "duration": 47,
              "midi": 67,
              "velocity": 100
            },
            {
              "start": 50544,
              "duration": 47,
              "midi": 55,
              "velocity": 100
            },
            {
              "start": 50592,
              "duration": 47,
              "midi": 58,
              "velocity": 100
            },
            {
              "start": 50592,
              "duration": 47,
              "midi": 70,
              "velocity": 100
            },
            {
              "start": 50640,
              "duration": 527,
              "midi": 72,
              "velocity": 100
            },
            {
              "start": 50640,
              "duration": 527,
              "midi": 60,
              "velocity": 100
            },
            {
              "start": 51264,
              "duration": 47,
              "midi": 66,
              "velocity": 100
            },
            {
              "start": 51264,
              "duration": 47,
              "midi": 78,
              "velocity": 100
            },
            {
              "start": 51312,
              "duration": 47,
              "midi": 65,
              "velocity": 100
            },
            {
              "start": 51312,
              "duration": 47,
              "midi": 77,
              "velocity": 100
            },
            {
              "start": 51360,
              "duration": 47,
              "midi": 63,
              "velocity": 100
            },
            {
              "start": 51360,
              "duration": 47,
              "midi": 75,
              "velocity": 100
            },
            {
              "start": 51408,
              "duration": 527,
              "midi": 72,
              "velocity": 100
            },
            {
              "start": 51408,
              "duration": 527,
              "midi": 60,
              "velocity": 100
            },
            {
              "start": 52080,
              "duration": 47,
              "midi": 67,
              "velocity": 100
            },
            {
              "start": 52080,
              "duration": 47,
              "midi": 55,
              "velocity": 100
            },
            {
              "start": 52128,
              "duration": 47,
              "midi": 58,
              "velocity": 100
            },
            {
              "start": 52128,
              "duration": 47,
              "midi": 70,
              "velocity": 100
            },
            {
              "start": 52176,
              "duration": 527,
              "midi": 72,
              "velocity": 100
            },
            {
              "start": 52176,
              "duration": 527,
              "midi": 60,
              "velocity": 100
            },
            {
              "start": 52848,
              "duration": 47,
              "midi": 70,
              "velocity": 100
            },
            {
              "start": 52848,
              "duration": 47,
              "midi": 58,
              "velocity": 100
            },
            {
              "start": 52896,
              "duration": 47,
              "midi": 75,
              "velocity": 100
            },
            {
              "start": 52896,
              "duration": 47,
              "midi": 63,
              "velocity": 100
            },
            {
              "start": 52944,
              "duration": 47,
              "midi": 58,
              "velocity": 100
            },
            {
              "start": 52944,
              "duration": 47,
              "midi": 70,
              "velocity": 100
            },
            {
              "start": 52992,
              "duration": 1247,
              "midi": 60,
              "velocity": 100
            },
            {
              "start": 52992,
              "duration": 1247,
              "midi": 72,
              "velocity": 100
            },
            {
              "start": 54336,
              "duration": 47,
              "midi": 66,
              "velocity": 81
            },
            {
              "start": 54336,
              "duration": 47,
              "midi": 78,
              "velocity": 81
            },
            {
              "start": 54384,
              "duration": 47,
              "midi": 65,
              "velocity": 81
            },
            {
              "start": 54384,
              "duration": 47,
              "midi": 77,
              "velocity": 81
            },
            {
              "start": 54432,
              "duration": 47,
              "midi": 63,
              "velocity": 81
            },
            {
              "start": 54432,
              "duration": 47,
              "midi": 75,
              "velocity": 81
            },
            {
              "start": 54480,
              "duration": 1295,
              "midi": 72,
              "velocity": 81
            },
            {
              "start": 54480,
              "duration": 1295,
              "midi": 60,
              "velocity": 81
            },
            {
              "start": 55872,
              "duration": 47,
              "midi": 66,
              "velocity": 57
            },
            {
              "start": 55872,
              "duration": 47,
              "midi": 78,
              "velocity": 57
            },
            {
              "start": 55920,
              "duration": 47,
              "midi": 65,
              "velocity": 57
            },
            {
              "start": 55920,
              "duration": 47,
              "midi": 77,
              "velocity": 57
            },
            {
              "start": 55968,
              "duration": 47,
              "midi": 63,
              "velocity": 57
            },
            {
              "start": 55968,
              "duration": 47,
              "midi": 75,
              "velocity": 57
            },
            {
              "start": 56016,
              "duration": 527,
              "midi": 72,
              "velocity": 57
            },
            {
              "start": 56016,
              "duration": 527,
              "midi": 60,
              "velocity": 57
            },
            {
              "start": 56688,
              "duration": 47,
              "midi": 79,
              "velocity": 42
            },
            {
              "start": 56688,
              "duration": 47,
              "midi": 67,
              "velocity": 42
            },
            {
              "start": 56736,
              "duration": 47,
              "midi": 70,
              "velocity": 42
            },
            {
              "start": 56736,
              "duration": 47,
              "midi": 82,
              "velocity": 42
            },
            {
              "start": 56784,
              "duration": 527,
              "midi": 84,
              "velocity": 42
            },
            {
              "start": 56784,
              "duration": 527,
              "midi": 72,
              "velocity": 42
            },
            {
              "start": 57408,
              "duration": 47,
              "midi": 66,
              "velocity": 34
            },
            {
              "start": 57408,
              "duration": 47,
              "midi": 78,
              "velocity": 34
            },
            {
              "start": 57456,
              "duration": 47,
              "midi": 65,
              "velocity": 34
            },
            {
              "start": 57456,
              "duration": 47,
              "midi": 77,
              "velocity": 34
            },
            {
              "start": 57504,
              "duration": 47,
              "midi": 63,
              "velocity": 34
            },
            {
              "start": 57504,
              "duration": 47,
              "midi": 75,
              "velocity": 34
            },
            {
              "start": 57552,
              "duration": 815,
              "midi": 72,
              "velocity": 34
            },
            {
              "start": 57552,
              "duration": 815,
              "midi": 60,
              "velocity": 34
            }
          ]
        }
      ],
      "enginePresetName": "factory:STRINGS Ensemble"
    },
    {
      "id": "lane-mpr2auvs-6",
      "engineId": "subtractive",
      "name": "STRINGS Ensemble",
      "clips": [
        {
          "id": "clip-mpr2auvs-5",
          "name": "STRINGS Ensemble",
          "lengthBars": 152,
          "notes": [
            {
              "start": 8448,
              "duration": 32,
              "midi": 67,
              "velocity": 81
            },
            {
              "start": 8496,
              "duration": 32,
              "midi": 67,
              "velocity": 81
            },
            {
              "start": 8544,
              "duration": 95,
              "midi": 63,
              "velocity": 81
            },
            {
              "start": 8640,
              "duration": 95,
              "midi": 67,
              "velocity": 81
            },
            {
              "start": 8736,
              "duration": 32,
              "midi": 63,
              "velocity": 81
            },
            {
              "start": 8784,
              "duration": 95,
              "midi": 67,
              "velocity": 81
            },
            {
              "start": 8880,
              "duration": 191,
              "midi": 65,
              "velocity": 81
            },
            {
              "start": 9216,
              "duration": 32,
              "midi": 67,
              "velocity": 81
            },
            {
              "start": 9264,
              "duration": 32,
              "midi": 67,
              "velocity": 81
            },
            {
              "start": 9312,
              "duration": 95,
              "midi": 63,
              "velocity": 81
            },
            {
              "start": 9408,
              "duration": 32,
              "midi": 67,
              "velocity": 81
            },
            {
              "start": 9456,
              "duration": 32,
              "midi": 67,
              "velocity": 81
            },
            {
              "start": 9504,
              "duration": 32,
              "midi": 63,
              "velocity": 81
            },
            {
              "start": 9552,
              "duration": 95,
              "midi": 67,
              "velocity": 81
            },
            {
              "start": 9648,
              "duration": 95,
              "midi": 68,
              "velocity": 81
            },
            {
              "start": 9744,
              "duration": 32,
              "midi": 67,
              "velocity": 81
            },
            {
              "start": 9792,
              "duration": 191,
              "midi": 65,
              "velocity": 81
            },
            {
              "start": 9984,
              "duration": 32,
              "midi": 67,
              "velocity": 81
            },
            {
              "start": 10032,
              "duration": 32,
              "midi": 67,
              "velocity": 81
            },
            {
              "start": 10080,
              "duration": 95,
              "midi": 63,
              "velocity": 81
            },
            {
              "start": 10176,
              "duration": 32,
              "midi": 67,
              "velocity": 81
            },
            {
              "start": 10224,
              "duration": 32,
              "midi": 67,
              "velocity": 81
            },
            {
              "start": 10272,
              "duration": 47,
              "midi": 63,
              "velocity": 81
            },
            {
              "start": 10320,
              "duration": 95,
              "midi": 67,
              "velocity": 81
            },
            {
              "start": 10416,
              "duration": 191,
              "midi": 65,
              "velocity": 81
            },
            {
              "start": 16128,
              "duration": 47,
              "midi": 67,
              "velocity": 81
            },
            {
              "start": 16176,
              "duration": 143,
              "midi": 67,
              "velocity": 81
            },
            {
              "start": 16320,
              "duration": 95,
              "midi": 67,
              "velocity": 81
            },
            {
              "start": 16416,
              "duration": 95,
              "midi": 63,
              "velocity": 81
            },
            {
              "start": 16512,
              "duration": 47,
              "midi": 67,
              "velocity": 81
            },
            {
              "start": 16560,
              "duration": 143,
              "midi": 68,
              "velocity": 81
            },
            {
              "start": 16704,
              "duration": 47,
              "midi": 67,
              "velocity": 81
            },
            {
              "start": 16752,
              "duration": 95,
              "midi": 65,
              "velocity": 81
            },
            {
              "start": 16848,
              "duration": 47,
              "midi": 63,
              "velocity": 81
            },
            {
              "start": 16896,
              "duration": 47,
              "midi": 67,
              "velocity": 81
            },
            {
              "start": 16944,
              "duration": 47,
              "midi": 67,
              "velocity": 81
            },
            {
              "start": 16992,
              "duration": 47,
              "midi": 63,
              "velocity": 81
            },
            {
              "start": 17040,
              "duration": 143,
              "midi": 67,
              "velocity": 81
            },
            {
              "start": 17184,
              "duration": 47,
              "midi": 67,
              "velocity": 81
            },
            {
              "start": 17232,
              "duration": 47,
              "midi": 63,
              "velocity": 81
            },
            {
              "start": 17280,
              "duration": 47,
              "midi": 67,
              "velocity": 81
            },
            {
              "start": 17328,
              "duration": 143,
              "midi": 68,
              "velocity": 81
            },
            {
              "start": 17472,
              "duration": 47,
              "midi": 67,
              "velocity": 81
            },
            {
              "start": 17520,
              "duration": 143,
              "midi": 65,
              "velocity": 81
            },
            {
              "start": 17664,
              "duration": 95,
              "midi": 67,
              "velocity": 81
            },
            {
              "start": 17760,
              "duration": 47,
              "midi": 63,
              "velocity": 81
            },
            {
              "start": 17808,
              "duration": 143,
              "midi": 67,
              "velocity": 81
            },
            {
              "start": 17952,
              "duration": 95,
              "midi": 63,
              "velocity": 81
            },
            {
              "start": 18048,
              "duration": 47,
              "midi": 67,
              "velocity": 81
            },
            {
              "start": 18096,
              "duration": 47,
              "midi": 67,
              "velocity": 81
            },
            {
              "start": 18144,
              "duration": 47,
              "midi": 68,
              "velocity": 81
            },
            {
              "start": 18192,
              "duration": 95,
              "midi": 67,
              "velocity": 81
            },
            {
              "start": 18288,
              "duration": 95,
              "midi": 65,
              "velocity": 81
            },
            {
              "start": 20736,
              "duration": 32,
              "midi": 79,
              "velocity": 100
            },
            {
              "start": 20736,
              "duration": 32,
              "midi": 70,
              "velocity": 100
            },
            {
              "start": 20736,
              "duration": 32,
              "midi": 75,
              "velocity": 100
            },
            {
              "start": 20784,
              "duration": 32,
              "midi": 67,
              "velocity": 100
            },
            {
              "start": 20784,
              "duration": 32,
              "midi": 72,
              "velocity": 100
            },
            {
              "start": 20832,
              "duration": 16,
              "midi": 67,
              "velocity": 100
            },
            {
              "start": 20832,
              "duration": 16,
              "midi": 72,
              "velocity": 100
            },
            {
              "start": 20856,
              "duration": 16,
              "midi": 67,
              "velocity": 100
            },
            {
              "start": 20856,
              "duration": 16,
              "midi": 72,
              "velocity": 100
            },
            {
              "start": 21120,
              "duration": 32,
              "midi": 70,
              "velocity": 100
            },
            {
              "start": 21120,
              "duration": 32,
              "midi": 75,
              "velocity": 100
            },
            {
              "start": 21168,
              "duration": 32,
              "midi": 67,
              "velocity": 100
            },
            {
              "start": 21168,
              "duration": 32,
              "midi": 72,
              "velocity": 100
            },
            {
              "start": 21216,
              "duration": 16,
              "midi": 67,
              "velocity": 100
            },
            {
              "start": 21216,
              "duration": 16,
              "midi": 72,
              "velocity": 100
            },
            {
              "start": 21240,
              "duration": 16,
              "midi": 67,
              "velocity": 100
            },
            {
              "start": 21240,
              "duration": 16,
              "midi": 72,
              "velocity": 100
            },
            {
              "start": 21504,
              "duration": 32,
              "midi": 70,
              "velocity": 100
            },
            {
              "start": 21504,
              "duration": 32,
              "midi": 75,
              "velocity": 100
            },
            {
              "start": 21552,
              "duration": 32,
              "midi": 67,
              "velocity": 100
            },
            {
              "start": 21552,
              "duration": 32,
              "midi": 72,
              "velocity": 100
            },
            {
              "start": 21600,
              "duration": 16,
              "midi": 67,
              "velocity": 100
            },
            {
              "start": 21600,
              "duration": 16,
              "midi": 72,
              "velocity": 100
            },
            {
              "start": 21624,
              "duration": 16,
              "midi": 67,
              "velocity": 100
            },
            {
              "start": 21624,
              "duration": 16,
              "midi": 72,
              "velocity": 100
            },
            {
              "start": 21888,
              "duration": 32,
              "midi": 70,
              "velocity": 100
            },
            {
              "start": 21888,
              "duration": 32,
              "midi": 75,
              "velocity": 100
            },
            {
              "start": 21936,
              "duration": 32,
              "midi": 67,
              "velocity": 100
            },
            {
              "start": 21936,
              "duration": 32,
              "midi": 72,
              "velocity": 100
            },
            {
              "start": 21984,
              "duration": 16,
              "midi": 67,
              "velocity": 100
            },
            {
              "start": 21984,
              "duration": 16,
              "midi": 72,
              "velocity": 100
            },
            {
              "start": 22008,
              "duration": 16,
              "midi": 67,
              "velocity": 100
            },
            {
              "start": 22008,
              "duration": 16,
              "midi": 72,
              "velocity": 100
            },
            {
              "start": 22272,
              "duration": 32,
              "midi": 70,
              "velocity": 100
            },
            {
              "start": 22272,
              "duration": 32,
              "midi": 75,
              "velocity": 100
            },
            {
              "start": 22320,
              "duration": 32,
              "midi": 67,
              "velocity": 100
            },
            {
              "start": 22320,
              "duration": 32,
              "midi": 72,
              "velocity": 100
            },
            {
              "start": 22368,
              "duration": 16,
              "midi": 67,
              "velocity": 100
            },
            {
              "start": 22368,
              "duration": 16,
              "midi": 72,
              "velocity": 100
            },
            {
              "start": 22392,
              "duration": 16,
              "midi": 67,
              "velocity": 100
            },
            {
              "start": 22392,
              "duration": 16,
              "midi": 72,
              "velocity": 100
            },
            {
              "start": 22272,
              "duration": 383,
              "midi": 55,
              "velocity": 100
            },
            {
              "start": 22656,
              "duration": 32,
              "midi": 70,
              "velocity": 100
            },
            {
              "start": 22656,
              "duration": 32,
              "midi": 75,
              "velocity": 100
            },
            {
              "start": 22704,
              "duration": 32,
              "midi": 67,
              "velocity": 100
            },
            {
              "start": 22704,
              "duration": 32,
              "midi": 72,
              "velocity": 100
            },
            {
              "start": 22752,
              "duration": 16,
              "midi": 67,
              "velocity": 100
            },
            {
              "start": 22752,
              "duration": 16,
              "midi": 72,
              "velocity": 100
            },
            {
              "start": 22776,
              "duration": 16,
              "midi": 67,
              "velocity": 100
            },
            {
              "start": 22776,
              "duration": 16,
              "midi": 72,
              "velocity": 100
            },
            {
              "start": 22656,
              "duration": 383,
              "midi": 57,
              "velocity": 100
            },
            {
              "start": 23040,
              "duration": 32,
              "midi": 70,
              "velocity": 100
            },
            {
              "start": 23040,
              "duration": 32,
              "midi": 75,
              "velocity": 100
            },
            {
              "start": 23088,
              "duration": 32,
              "midi": 67,
              "velocity": 100
            },
            {
              "start": 23088,
              "duration": 32,
              "midi": 72,
              "velocity": 100
            },
            {
              "start": 23136,
              "duration": 16,
              "midi": 67,
              "velocity": 100
            },
            {
              "start": 23136,
              "duration": 16,
              "midi": 72,
              "velocity": 100
            },
            {
              "start": 23160,
              "duration": 16,
              "midi": 67,
              "velocity": 100
            },
            {
              "start": 23160,
              "duration": 16,
              "midi": 72,
              "velocity": 100
            },
            {
              "start": 23040,
              "duration": 383,
              "midi": 58,
              "velocity": 100
            },
            {
              "start": 23424,
              "duration": 32,
              "midi": 70,
              "velocity": 100
            },
            {
              "start": 23424,
              "duration": 32,
              "midi": 75,
              "velocity": 100
            },
            {
              "start": 23472,
              "duration": 32,
              "midi": 67,
              "velocity": 100
            },
            {
              "start": 23472,
              "duration": 32,
              "midi": 72,
              "velocity": 100
            },
            {
              "start": 23520,
              "duration": 16,
              "midi": 67,
              "velocity": 100
            },
            {
              "start": 23520,
              "duration": 16,
              "midi": 72,
              "velocity": 100
            },
            {
              "start": 23424,
              "duration": 128,
              "midi": 57,
              "velocity": 100
            },
            {
              "start": 23544,
              "duration": 16,
              "midi": 67,
              "velocity": 100
            },
            {
              "start": 23544,
              "duration": 16,
              "midi": 72,
              "velocity": 100
            },
            {
              "start": 23664,
              "duration": 23,
              "midi": 58,
              "velocity": 100
            },
            {
              "start": 23688,
              "duration": 23,
              "midi": 60,
              "velocity": 100
            },
            {
              "start": 23712,
              "duration": 23,
              "midi": 63,
              "velocity": 100
            },
            {
              "start": 23736,
              "duration": 23,
              "midi": 62,
              "velocity": 100
            },
            {
              "start": 23760,
              "duration": 23,
              "midi": 60,
              "velocity": 100
            },
            {
              "start": 23784,
              "duration": 23,
              "midi": 58,
              "velocity": 100
            },
            {
              "start": 23808,
              "duration": 383,
              "midi": 60,
              "velocity": 100
            },
            {
              "start": 24192,
              "duration": 143,
              "midi": 51,
              "velocity": 100
            },
            {
              "start": 24336,
              "duration": 95,
              "midi": 53,
              "velocity": 100
            },
            {
              "start": 24432,
              "duration": 47,
              "midi": 55,
              "velocity": 100
            },
            {
              "start": 24480,
              "duration": 95,
              "midi": 51,
              "velocity": 100
            },
            {
              "start": 24576,
              "duration": 383,
              "midi": 48,
              "velocity": 100
            },
            {
              "start": 25200,
              "duration": 47,
              "midi": 55,
              "velocity": 100
            },
            {
              "start": 25248,
              "duration": 47,
              "midi": 58,
              "velocity": 100
            },
            {
              "start": 25296,
              "duration": 527,
              "midi": 60,
              "velocity": 100
            },
            {
              "start": 25920,
              "duration": 47,
              "midi": 66,
              "velocity": 100
            },
            {
              "start": 25968,
              "duration": 47,
              "midi": 65,
              "velocity": 100
            },
            {
              "start": 26016,
              "duration": 47,
              "midi": 63,
              "velocity": 100
            },
            {
              "start": 26064,
              "duration": 527,
              "midi": 60,
              "velocity": 100
            },
            {
              "start": 26880,
              "duration": 47,
              "midi": 67,
              "velocity": 100
            },
            {
              "start": 26928,
              "duration": 47,
              "midi": 67,
              "velocity": 100
            },
            {
              "start": 26976,
              "duration": 95,
              "midi": 63,
              "velocity": 100
            },
            {
              "start": 27072,
              "duration": 95,
              "midi": 67,
              "velocity": 100
            },
            {
              "start": 27168,
              "duration": 47,
              "midi": 63,
              "velocity": 100
            },
            {
              "start": 27216,
              "duration": 95,
              "midi": 67,
              "velocity": 100
            },
            {
              "start": 27312,
              "duration": 191,
              "midi": 65,
              "velocity": 100
            },
            {
              "start": 27648,
              "duration": 47,
              "midi": 67,
              "velocity": 100
            },
            {
              "start": 27696,
              "duration": 47,
              "midi": 67,
              "velocity": 100
            },
            {
              "start": 27744,
              "duration": 95,
              "midi": 63,
              "velocity": 100
            },
            {
              "start": 27840,
              "duration": 47,
              "midi": 67,
              "velocity": 100
            },
            {
              "start": 27888,
              "duration": 47,
              "midi": 67,
              "velocity": 100
            },
            {
              "start": 27936,
              "duration": 47,
              "midi": 63,
              "velocity": 100
            },
            {
              "start": 27984,
              "duration": 95,
              "midi": 67,
              "velocity": 100
            },
            {
              "start": 28080,
              "duration": 95,
              "midi": 68,
              "velocity": 100
            },
            {
              "start": 28176,
              "duration": 47,
              "midi": 67,
              "velocity": 100
            },
            {
              "start": 28224,
              "duration": 191,
              "midi": 65,
              "velocity": 100
            },
            {
              "start": 28416,
              "duration": 47,
              "midi": 67,
              "velocity": 100
            },
            {
              "start": 28464,
              "duration": 47,
              "midi": 67,
              "velocity": 100
            },
            {
              "start": 28512,
              "duration": 95,
              "midi": 63,
              "velocity": 100
            },
            {
              "start": 28608,
              "duration": 47,
              "midi": 67,
              "velocity": 100
            },
            {
              "start": 28656,
              "duration": 47,
              "midi": 67,
              "velocity": 100
            },
            {
              "start": 28704,
              "duration": 47,
              "midi": 63,
              "velocity": 100
            },
            {
              "start": 28752,
              "duration": 95,
              "midi": 67,
              "velocity": 100
            },
            {
              "start": 28848,
              "duration": 191,
              "midi": 65,
              "velocity": 100
            },
            {
              "start": 29184,
              "duration": 47,
              "midi": 67,
              "velocity": 81
            },
            {
              "start": 29232,
              "duration": 47,
              "midi": 67,
              "velocity": 81
            },
            {
              "start": 29280,
              "duration": 95,
              "midi": 63,
              "velocity": 81
            },
            {
              "start": 29376,
              "duration": 95,
              "midi": 67,
              "velocity": 81
            },
            {
              "start": 29472,
              "duration": 47,
              "midi": 63,
              "velocity": 81
            },
            {
              "start": 29520,
              "duration": 95,
              "midi": 67,
              "velocity": 81
            },
            {
              "start": 29616,
              "duration": 95,
              "midi": 68,
              "velocity": 81
            },
            {
              "start": 29712,
              "duration": 47,
              "midi": 67,
              "velocity": 81
            },
            {
              "start": 29760,
              "duration": 191,
              "midi": 65,
              "velocity": 81
            },
            {
              "start": 32256,
              "duration": 32,
              "midi": 79,
              "velocity": 100
            },
            {
              "start": 32256,
              "duration": 32,
              "midi": 70,
              "velocity": 100
            },
            {
              "start": 32256,
              "duration": 32,
              "midi": 75,
              "velocity": 100
            },
            {
              "start": 32304,
              "duration": 32,
              "midi": 67,
              "velocity": 100
            },
            {
              "start": 32304,
              "duration": 32,
              "midi": 72,
              "velocity": 100
            },
            {
              "start": 32352,
              "duration": 16,
              "midi": 67,
              "velocity": 100
            },
            {
              "start": 32352,
              "duration": 16,
              "midi": 72,
              "velocity": 100
            },
            {
              "start": 32376,
              "duration": 16,
              "midi": 67,
              "velocity": 100
            },
            {
              "start": 32376,
              "duration": 16,
              "midi": 72,
              "velocity": 100
            },
            {
              "start": 32640,
              "duration": 32,
              "midi": 79,
              "velocity": 100
            },
            {
              "start": 32640,
              "duration": 32,
              "midi": 70,
              "velocity": 100
            },
            {
              "start": 32640,
              "duration": 32,
              "midi": 75,
              "velocity": 100
            },
            {
              "start": 32688,
              "duration": 32,
              "midi": 67,
              "velocity": 100
            },
            {
              "start": 32688,
              "duration": 32,
              "midi": 72,
              "velocity": 100
            },
            {
              "start": 32736,
              "duration": 16,
              "midi": 67,
              "velocity": 100
            },
            {
              "start": 32736,
              "duration": 16,
              "midi": 72,
              "velocity": 100
            },
            {
              "start": 32760,
              "duration": 16,
              "midi": 67,
              "velocity": 100
            },
            {
              "start": 32760,
              "duration": 16,
              "midi": 72,
              "velocity": 100
            },
            {
              "start": 33024,
              "duration": 32,
              "midi": 79,
              "velocity": 100
            },
            {
              "start": 33024,
              "duration": 32,
              "midi": 70,
              "velocity": 100
            },
            {
              "start": 33024,
              "duration": 32,
              "midi": 75,
              "velocity": 100
            },
            {
              "start": 33072,
              "duration": 32,
              "midi": 67,
              "velocity": 100
            },
            {
              "start": 33072,
              "duration": 32,
              "midi": 72,
              "velocity": 100
            },
            {
              "start": 33120,
              "duration": 16,
              "midi": 67,
              "velocity": 100
            },
            {
              "start": 33120,
              "duration": 16,
              "midi": 72,
              "velocity": 100
            },
            {
              "start": 33144,
              "duration": 16,
              "midi": 67,
              "velocity": 100
            },
            {
              "start": 33144,
              "duration": 16,
              "midi": 72,
              "velocity": 100
            },
            {
              "start": 33408,
              "duration": 32,
              "midi": 79,
              "velocity": 100
            },
            {
              "start": 33408,
              "duration": 32,
              "midi": 70,
              "velocity": 100
            },
            {
              "start": 33408,
              "duration": 32,
              "midi": 75,
              "velocity": 100
            },
            {
              "start": 33456,
              "duration": 32,
              "midi": 67,
              "velocity": 100
            },
            {
              "start": 33456,
              "duration": 32,
              "midi": 72,
              "velocity": 100
            },
            {
              "start": 33504,
              "duration": 16,
              "midi": 67,
              "velocity": 100
            },
            {
              "start": 33504,
              "duration": 16,
              "midi": 72,
              "velocity": 100
            },
            {
              "start": 33528,
              "duration": 16,
              "midi": 67,
              "velocity": 100
            },
            {
              "start": 33528,
              "duration": 16,
              "midi": 72,
              "velocity": 100
            },
            {
              "start": 33792,
              "duration": 32,
              "midi": 79,
              "velocity": 100
            },
            {
              "start": 33792,
              "duration": 32,
              "midi": 75,
              "velocity": 100
            },
            {
              "start": 33792,
              "duration": 32,
              "midi": 70,
              "velocity": 100
            },
            {
              "start": 33840,
              "duration": 32,
              "midi": 67,
              "velocity": 100
            },
            {
              "start": 33840,
              "duration": 32,
              "midi": 72,
              "velocity": 100
            },
            {
              "start": 33888,
              "duration": 16,
              "midi": 67,
              "velocity": 100
            },
            {
              "start": 33888,
              "duration": 16,
              "midi": 72,
              "velocity": 100
            },
            {
              "start": 33912,
              "duration": 16,
              "midi": 67,
              "velocity": 100
            },
            {
              "start": 33912,
              "duration": 16,
              "midi": 72,
              "velocity": 100
            },
            {
              "start": 33792,
              "duration": 383,
              "midi": 55,
              "velocity": 100
            },
            {
              "start": 34176,
              "duration": 32,
              "midi": 79,
              "velocity": 100
            },
            {
              "start": 34176,
              "duration": 32,
              "midi": 75,
              "velocity": 100
            },
            {
              "start": 34176,
              "duration": 32,
              "midi": 70,
              "velocity": 100
            },
            {
              "start": 34224,
              "duration": 32,
              "midi": 67,
              "velocity": 100
            },
            {
              "start": 34224,
              "duration": 32,
              "midi": 72,
              "velocity": 100
            },
            {
              "start": 34272,
              "duration": 16,
              "midi": 67,
              "velocity": 100
            },
            {
              "start": 34272,
              "duration": 16,
              "midi": 72,
              "velocity": 100
            },
            {
              "start": 34296,
              "duration": 16,
              "midi": 67,
              "velocity": 100
            },
            {
              "start": 34296,
              "duration": 16,
              "midi": 72,
              "velocity": 100
            },
            {
              "start": 34176,
              "duration": 383,
              "midi": 57,
              "velocity": 100
            },
            {
              "start": 34560,
              "duration": 32,
              "midi": 79,
              "velocity": 100
            },
            {
              "start": 34560,
              "duration": 32,
              "midi": 75,
              "velocity": 100
            },
            {
              "start": 34560,
              "duration": 32,
              "midi": 70,
              "velocity": 100
            },
            {
              "start": 34608,
              "duration": 32,
              "midi": 67,
              "velocity": 100
            },
            {
              "start": 34608,
              "duration": 32,
              "midi": 72,
              "velocity": 100
            },
            {
              "start": 34656,
              "duration": 16,
              "midi": 67,
              "velocity": 100
            },
            {
              "start": 34656,
              "duration": 16,
              "midi": 72,
              "velocity": 100
            },
            {
              "start": 34680,
              "duration": 16,
              "midi": 67,
              "velocity": 100
            },
            {
              "start": 34680,
              "duration": 16,
              "midi": 72,
              "velocity": 100
            },
            {
              "start": 34560,
              "duration": 383,
              "midi": 58,
              "velocity": 100
            },
            {
              "start": 34944,
              "duration": 32,
              "midi": 79,
              "velocity": 100
            },
            {
              "start": 34944,
              "duration": 32,
              "midi": 75,
              "velocity": 100
            },
            {
              "start": 34944,
              "duration": 32,
              "midi": 70,
              "velocity": 100
            },
            {
              "start": 34992,
              "duration": 32,
              "midi": 67,
              "velocity": 100
            },
            {
              "start": 34992,
              "duration": 32,
              "midi": 72,
              "velocity": 100
            },
            {
              "start": 35040,
              "duration": 16,
              "midi": 67,
              "velocity": 100
            },
            {
              "start": 35040,
              "duration": 16,
              "midi": 72,
              "velocity": 100
            },
            {
              "start": 34944,
              "duration": 128,
              "midi": 57,
              "velocity": 100
            },
            {
              "start": 35064,
              "duration": 16,
              "midi": 67,
              "velocity": 100
            },
            {
              "start": 35064,
              "duration": 16,
              "midi": 72,
              "velocity": 100
            },
            {
              "start": 35184,
              "duration": 23,
              "midi": 58,
              "velocity": 100
            },
            {
              "start": 35208,
              "duration": 23,
              "midi": 60,
              "velocity": 100
            },
            {
              "start": 35232,
              "duration": 23,
              "midi": 63,
              "velocity": 100
            },
            {
              "start": 35256,
              "duration": 23,
              "midi": 62,
              "velocity": 100
            },
            {
              "start": 35280,
              "duration": 23,
              "midi": 60,
              "velocity": 100
            },
            {
              "start": 35304,
              "duration": 23,
              "midi": 58,
              "velocity": 100
            },
            {
              "start": 35328,
              "duration": 383,
              "midi": 60,
              "velocity": 100
            },
            {
              "start": 35712,
              "duration": 143,
              "midi": 51,
              "velocity": 100
            },
            {
              "start": 35856,
              "duration": 95,
              "midi": 53,
              "velocity": 100
            },
            {
              "start": 35952,
              "duration": 47,
              "midi": 55,
              "velocity": 100
            },
            {
              "start": 36000,
              "duration": 95,
              "midi": 51,
              "velocity": 100
            },
            {
              "start": 36096,
              "duration": 383,
              "midi": 48,
              "velocity": 100
            },
            {
              "start": 36720,
              "duration": 47,
              "midi": 55,
              "velocity": 100
            },
            {
              "start": 36768,
              "duration": 47,
              "midi": 58,
              "velocity": 100
            },
            {
              "start": 36816,
              "duration": 527,
              "midi": 60,
              "velocity": 100
            },
            {
              "start": 37440,
              "duration": 47,
              "midi": 66,
              "velocity": 100
            },
            {
              "start": 37488,
              "duration": 47,
              "midi": 65,
              "velocity": 100
            },
            {
              "start": 37536,
              "duration": 47,
              "midi": 63,
              "velocity": 100
            },
            {
              "start": 37584,
              "duration": 527,
              "midi": 60,
              "velocity": 100
            },
            {
              "start": 46176,
              "duration": 64,
              "midi": 60,
              "velocity": 81
            },
            {
              "start": 46272,
              "duration": 64,
              "midi": 60,
              "velocity": 81
            },
            {
              "start": 46368,
              "duration": 64,
              "midi": 55,
              "velocity": 81
            },
            {
              "start": 46464,
              "duration": 32,
              "midi": 60,
              "velocity": 81
            },
            {
              "start": 46512,
              "duration": 96,
              "midi": 60,
              "velocity": 81
            },
            {
              "start": 46656,
              "duration": 32,
              "midi": 60,
              "velocity": 81
            },
            {
              "start": 46704,
              "duration": 143,
              "midi": 55,
              "velocity": 81
            },
            {
              "start": 46848,
              "duration": 32,
              "midi": 67,
              "velocity": 81
            },
            {
              "start": 46896,
              "duration": 96,
              "midi": 67,
              "velocity": 81
            },
            {
              "start": 47040,
              "duration": 64,
              "midi": 67,
              "velocity": 81
            },
            {
              "start": 47136,
              "duration": 95,
              "midi": 63,
              "velocity": 81
            },
            {
              "start": 47232,
              "duration": 47,
              "midi": 67,
              "velocity": 81
            },
            {
              "start": 47280,
              "duration": 143,
              "midi": 68,
              "velocity": 81
            },
            {
              "start": 47424,
              "duration": 47,
              "midi": 67,
              "velocity": 81
            },
            {
              "start": 47472,
              "duration": 95,
              "midi": 65,
              "velocity": 81
            },
            {
              "start": 47568,
              "duration": 47,
              "midi": 63,
              "velocity": 81
            },
            {
              "start": 47616,
              "duration": 32,
              "midi": 60,
              "velocity": 81
            },
            {
              "start": 47664,
              "duration": 32,
              "midi": 60,
              "velocity": 81
            },
            {
              "start": 47712,
              "duration": 32,
              "midi": 55,
              "velocity": 81
            },
            {
              "start": 47760,
              "duration": 96,
              "midi": 60,
              "velocity": 81
            },
            {
              "start": 47904,
              "duration": 32,
              "midi": 60,
              "velocity": 81
            },
            {
              "start": 47952,
              "duration": 32,
              "midi": 55,
              "velocity": 81
            },
            {
              "start": 48000,
              "duration": 32,
              "midi": 60,
              "velocity": 81
            },
            {
              "start": 48048,
              "duration": 96,
              "midi": 60,
              "velocity": 81
            },
            {
              "start": 48192,
              "duration": 32,
              "midi": 60,
              "velocity": 81
            },
            {
              "start": 48240,
              "duration": 96,
              "midi": 58,
              "velocity": 81
            },
            {
              "start": 48384,
              "duration": 64,
              "midi": 60,
              "velocity": 81
            },
            {
              "start": 48480,
              "duration": 32,
              "midi": 55,
              "velocity": 81
            },
            {
              "start": 48528,
              "duration": 96,
              "midi": 60,
              "velocity": 81
            },
            {
              "start": 48672,
              "duration": 64,
              "midi": 55,
              "velocity": 81
            },
            {
              "start": 48768,
              "duration": 32,
              "midi": 60,
              "velocity": 81
            },
            {
              "start": 48816,
              "duration": 32,
              "midi": 60,
              "velocity": 81
            },
            {
              "start": 48864,
              "duration": 32,
              "midi": 60,
              "velocity": 81
            },
            {
              "start": 48912,
              "duration": 64,
              "midi": 60,
              "velocity": 81
            },
            {
              "start": 49008,
              "duration": 64,
              "midi": 58,
              "velocity": 81
            },
            {
              "start": 49248,
              "duration": 64,
              "midi": 60,
              "velocity": 81
            },
            {
              "start": 49344,
              "duration": 64,
              "midi": 60,
              "velocity": 81
            },
            {
              "start": 49440,
              "duration": 64,
              "midi": 55,
              "velocity": 81
            },
            {
              "start": 49536,
              "duration": 32,
              "midi": 60,
              "velocity": 81
            },
            {
              "start": 49584,
              "duration": 96,
              "midi": 60,
              "velocity": 81
            },
            {
              "start": 49728,
              "duration": 32,
              "midi": 60,
              "velocity": 81
            },
            {
              "start": 49776,
              "duration": 143,
              "midi": 55,
              "velocity": 81
            },
            {
              "start": 49920,
              "duration": 32,
              "midi": 67,
              "velocity": 81
            },
            {
              "start": 49968,
              "duration": 96,
              "midi": 67,
              "velocity": 81
            },
            {
              "start": 50112,
              "duration": 64,
              "midi": 67,
              "velocity": 81
            },
            {
              "start": 50208,
              "duration": 95,
              "midi": 63,
              "velocity": 81
            },
            {
              "start": 50304,
              "duration": 47,
              "midi": 67,
              "velocity": 81
            },
            {
              "start": 50352,
              "duration": 143,
              "midi": 68,
              "velocity": 81
            },
            {
              "start": 50496,
              "duration": 47,
              "midi": 67,
              "velocity": 81
            },
            {
              "start": 50544,
              "duration": 95,
              "midi": 65,
              "velocity": 81
            },
            {
              "start": 50640,
              "duration": 47,
              "midi": 63,
              "velocity": 81
            },
            {
              "start": 50688,
              "duration": 32,
              "midi": 60,
              "velocity": 81
            },
            {
              "start": 50736,
              "duration": 32,
              "midi": 60,
              "velocity": 81
            },
            {
              "start": 50784,
              "duration": 32,
              "midi": 55,
              "velocity": 81
            },
            {
              "start": 50832,
              "duration": 96,
              "midi": 60,
              "velocity": 81
            },
            {
              "start": 50976,
              "duration": 32,
              "midi": 60,
              "velocity": 81
            },
            {
              "start": 51024,
              "duration": 32,
              "midi": 55,
              "velocity": 81
            },
            {
              "start": 51072,
              "duration": 32,
              "midi": 60,
              "velocity": 81
            },
            {
              "start": 51120,
              "duration": 96,
              "midi": 60,
              "velocity": 81
            },
            {
              "start": 51264,
              "duration": 32,
              "midi": 60,
              "velocity": 81
            },
            {
              "start": 51312,
              "duration": 96,
              "midi": 58,
              "velocity": 81
            },
            {
              "start": 51456,
              "duration": 64,
              "midi": 60,
              "velocity": 81
            },
            {
              "start": 51552,
              "duration": 32,
              "midi": 55,
              "velocity": 81
            },
            {
              "start": 51600,
              "duration": 96,
              "midi": 60,
              "velocity": 81
            },
            {
              "start": 51744,
              "duration": 64,
              "midi": 55,
              "velocity": 81
            },
            {
              "start": 51840,
              "duration": 32,
              "midi": 60,
              "velocity": 81
            },
            {
              "start": 51888,
              "duration": 32,
              "midi": 60,
              "velocity": 81
            },
            {
              "start": 51936,
              "duration": 32,
              "midi": 60,
              "velocity": 81
            },
            {
              "start": 51984,
              "duration": 64,
              "midi": 60,
              "velocity": 81
            },
            {
              "start": 52080,
              "duration": 64,
              "midi": 58,
              "velocity": 81
            },
            {
              "start": 52320,
              "duration": 64,
              "midi": 60,
              "velocity": 81
            },
            {
              "start": 52416,
              "duration": 64,
              "midi": 60,
              "velocity": 81
            },
            {
              "start": 52512,
              "duration": 64,
              "midi": 55,
              "velocity": 81
            },
            {
              "start": 52608,
              "duration": 32,
              "midi": 60,
              "velocity": 81
            },
            {
              "start": 52656,
              "duration": 96,
              "midi": 60,
              "velocity": 81
            },
            {
              "start": 52800,
              "duration": 32,
              "midi": 60,
              "velocity": 81
            },
            {
              "start": 52848,
              "duration": 143,
              "midi": 55,
              "velocity": 81
            },
            {
              "start": 52992,
              "duration": 32,
              "midi": 67,
              "velocity": 81
            },
            {
              "start": 53040,
              "duration": 96,
              "midi": 67,
              "velocity": 81
            },
            {
              "start": 53184,
              "duration": 64,
              "midi": 67,
              "velocity": 81
            },
            {
              "start": 53280,
              "duration": 95,
              "midi": 63,
              "velocity": 81
            },
            {
              "start": 53376,
              "duration": 47,
              "midi": 67,
              "velocity": 81
            },
            {
              "start": 53424,
              "duration": 143,
              "midi": 68,
              "velocity": 81
            },
            {
              "start": 53568,
              "duration": 47,
              "midi": 67,
              "velocity": 81
            },
            {
              "start": 53616,
              "duration": 95,
              "midi": 65,
              "velocity": 81
            },
            {
              "start": 53712,
              "duration": 47,
              "midi": 63,
              "velocity": 81
            },
            {
              "start": 53760,
              "duration": 32,
              "midi": 60,
              "velocity": 81
            },
            {
              "start": 53808,
              "duration": 32,
              "midi": 60,
              "velocity": 81
            },
            {
              "start": 53856,
              "duration": 32,
              "midi": 55,
              "velocity": 81
            },
            {
              "start": 53904,
              "duration": 96,
              "midi": 60,
              "velocity": 81
            },
            {
              "start": 54048,
              "duration": 32,
              "midi": 60,
              "velocity": 81
            },
            {
              "start": 54096,
              "duration": 32,
              "midi": 55,
              "velocity": 81
            },
            {
              "start": 54144,
              "duration": 32,
              "midi": 60,
              "velocity": 81
            },
            {
              "start": 54192,
              "duration": 96,
              "midi": 60,
              "velocity": 81
            },
            {
              "start": 54336,
              "duration": 32,
              "midi": 60,
              "velocity": 81
            },
            {
              "start": 54384,
              "duration": 96,
              "midi": 58,
              "velocity": 81
            },
            {
              "start": 54528,
              "duration": 64,
              "midi": 60,
              "velocity": 81
            },
            {
              "start": 54624,
              "duration": 32,
              "midi": 55,
              "velocity": 81
            },
            {
              "start": 54672,
              "duration": 96,
              "midi": 60,
              "velocity": 81
            },
            {
              "start": 54816,
              "duration": 64,
              "midi": 55,
              "velocity": 81
            },
            {
              "start": 54912,
              "duration": 32,
              "midi": 60,
              "velocity": 81
            },
            {
              "start": 54960,
              "duration": 32,
              "midi": 60,
              "velocity": 81
            },
            {
              "start": 55008,
              "duration": 32,
              "midi": 60,
              "velocity": 81
            },
            {
              "start": 55056,
              "duration": 64,
              "midi": 60,
              "velocity": 81
            },
            {
              "start": 55152,
              "duration": 64,
              "midi": 58,
              "velocity": 81
            },
            {
              "start": 55392,
              "duration": 64,
              "midi": 60,
              "velocity": 60
            },
            {
              "start": 55488,
              "duration": 64,
              "midi": 60,
              "velocity": 60
            },
            {
              "start": 55584,
              "duration": 64,
              "midi": 55,
              "velocity": 60
            },
            {
              "start": 55680,
              "duration": 32,
              "midi": 60,
              "velocity": 60
            },
            {
              "start": 55728,
              "duration": 96,
              "midi": 60,
              "velocity": 60
            },
            {
              "start": 55872,
              "duration": 32,
              "midi": 60,
              "velocity": 60
            },
            {
              "start": 55920,
              "duration": 143,
              "midi": 55,
              "velocity": 60
            },
            {
              "start": 56064,
              "duration": 32,
              "midi": 67,
              "velocity": 48
            },
            {
              "start": 56112,
              "duration": 96,
              "midi": 67,
              "velocity": 48
            },
            {
              "start": 56256,
              "duration": 64,
              "midi": 67,
              "velocity": 48
            },
            {
              "start": 56352,
              "duration": 95,
              "midi": 63,
              "velocity": 48
            },
            {
              "start": 56448,
              "duration": 47,
              "midi": 67,
              "velocity": 48
            },
            {
              "start": 56496,
              "duration": 143,
              "midi": 68,
              "velocity": 48
            },
            {
              "start": 56640,
              "duration": 47,
              "midi": 67,
              "velocity": 48
            },
            {
              "start": 56688,
              "duration": 95,
              "midi": 65,
              "velocity": 48
            },
            {
              "start": 56784,
              "duration": 47,
              "midi": 63,
              "velocity": 48
            },
            {
              "start": 56832,
              "duration": 32,
              "midi": 60,
              "velocity": 37
            },
            {
              "start": 56880,
              "duration": 32,
              "midi": 60,
              "velocity": 37
            },
            {
              "start": 56928,
              "duration": 32,
              "midi": 55,
              "velocity": 37
            },
            {
              "start": 56976,
              "duration": 96,
              "midi": 60,
              "velocity": 37
            },
            {
              "start": 57120,
              "duration": 32,
              "midi": 60,
              "velocity": 37
            },
            {
              "start": 57168,
              "duration": 32,
              "midi": 55,
              "velocity": 37
            },
            {
              "start": 57216,
              "duration": 32,
              "midi": 60,
              "velocity": 37
            },
            {
              "start": 57264,
              "duration": 96,
              "midi": 60,
              "velocity": 37
            },
            {
              "start": 57408,
              "duration": 32,
              "midi": 60,
              "velocity": 37
            },
            {
              "start": 57456,
              "duration": 96,
              "midi": 58,
              "velocity": 37
            },
            {
              "start": 57600,
              "duration": 64,
              "midi": 60,
              "velocity": 25
            },
            {
              "start": 57696,
              "duration": 32,
              "midi": 55,
              "velocity": 25
            },
            {
              "start": 57744,
              "duration": 96,
              "midi": 60,
              "velocity": 25
            },
            {
              "start": 57888,
              "duration": 64,
              "midi": 55,
              "velocity": 25
            },
            {
              "start": 57984,
              "duration": 32,
              "midi": 60,
              "velocity": 25
            },
            {
              "start": 58032,
              "duration": 32,
              "midi": 60,
              "velocity": 25
            },
            {
              "start": 58080,
              "duration": 32,
              "midi": 60,
              "velocity": 25
            },
            {
              "start": 58128,
              "duration": 64,
              "midi": 60,
              "velocity": 25
            },
            {
              "start": 58224,
              "duration": 64,
              "midi": 58,
              "velocity": 25
            }
          ]
        }
      ],
      "enginePresetName": "factory:STRINGS Ensemble"
    },
    {
      "id": "lane-mpr2auvs-8",
      "engineId": "subtractive",
      "name": "PAD Choir Aah",
      "clips": [
        {
          "id": "clip-mpr2auvs-7",
          "name": "PAD Choir Aah",
          "lengthBars": 152,
          "notes": [
            {
              "start": 5472,
              "duration": 64,
              "midi": 51,
              "velocity": 100
            },
            {
              "start": 5472,
              "duration": 95,
              "midi": 63,
              "velocity": 100
            },
            {
              "start": 5568,
              "duration": 64,
              "midi": 51,
              "velocity": 100
            },
            {
              "start": 5568,
              "duration": 95,
              "midi": 63,
              "velocity": 100
            },
            {
              "start": 5664,
              "duration": 64,
              "midi": 48,
              "velocity": 100
            },
            {
              "start": 5664,
              "duration": 95,
              "midi": 60,
              "velocity": 100
            },
            {
              "start": 5760,
              "duration": 32,
              "midi": 51,
              "velocity": 100
            },
            {
              "start": 5760,
              "duration": 47,
              "midi": 63,
              "velocity": 100
            },
            {
              "start": 5808,
              "duration": 96,
              "midi": 51,
              "velocity": 100
            },
            {
              "start": 5808,
              "duration": 143,
              "midi": 63,
              "velocity": 100
            },
            {
              "start": 5952,
              "duration": 32,
              "midi": 51,
              "velocity": 100
            },
            {
              "start": 5952,
              "duration": 47,
              "midi": 63,
              "velocity": 100
            },
            {
              "start": 6000,
              "duration": 96,
              "midi": 50,
              "velocity": 100
            },
            {
              "start": 6000,
              "duration": 143,
              "midi": 62,
              "velocity": 100
            },
            {
              "start": 6144,
              "duration": 32,
              "midi": 51,
              "velocity": 100
            },
            {
              "start": 6144,
              "duration": 47,
              "midi": 63,
              "velocity": 100
            },
            {
              "start": 6192,
              "duration": 96,
              "midi": 51,
              "velocity": 100
            },
            {
              "start": 6192,
              "duration": 143,
              "midi": 63,
              "velocity": 100
            },
            {
              "start": 6336,
              "duration": 64,
              "midi": 51,
              "velocity": 100
            },
            {
              "start": 6336,
              "duration": 95,
              "midi": 63,
              "velocity": 100
            },
            {
              "start": 6432,
              "duration": 95,
              "midi": 60,
              "velocity": 100
            },
            {
              "start": 6432,
              "duration": 95,
              "midi": 48,
              "velocity": 100
            },
            {
              "start": 6528,
              "duration": 32,
              "midi": 51,
              "velocity": 100
            },
            {
              "start": 6528,
              "duration": 47,
              "midi": 63,
              "velocity": 100
            },
            {
              "start": 6576,
              "duration": 96,
              "midi": 53,
              "velocity": 100
            },
            {
              "start": 6576,
              "duration": 143,
              "midi": 65,
              "velocity": 100
            },
            {
              "start": 6720,
              "duration": 32,
              "midi": 51,
              "velocity": 100
            },
            {
              "start": 6720,
              "duration": 47,
              "midi": 63,
              "velocity": 100
            },
            {
              "start": 6768,
              "duration": 64,
              "midi": 50,
              "velocity": 100
            },
            {
              "start": 6768,
              "duration": 95,
              "midi": 62,
              "velocity": 100
            },
            {
              "start": 6864,
              "duration": 32,
              "midi": 48,
              "velocity": 100
            },
            {
              "start": 6864,
              "duration": 47,
              "midi": 60,
              "velocity": 100
            },
            {
              "start": 6912,
              "duration": 32,
              "midi": 51,
              "velocity": 100
            },
            {
              "start": 6912,
              "duration": 47,
              "midi": 63,
              "velocity": 100
            },
            {
              "start": 6960,
              "duration": 32,
              "midi": 51,
              "velocity": 100
            },
            {
              "start": 6960,
              "duration": 47,
              "midi": 63,
              "velocity": 100
            },
            {
              "start": 7008,
              "duration": 32,
              "midi": 48,
              "velocity": 100
            },
            {
              "start": 7008,
              "duration": 47,
              "midi": 60,
              "velocity": 100
            },
            {
              "start": 7056,
              "duration": 96,
              "midi": 51,
              "velocity": 100
            },
            {
              "start": 7056,
              "duration": 143,
              "midi": 63,
              "velocity": 100
            },
            {
              "start": 7200,
              "duration": 32,
              "midi": 51,
              "velocity": 100
            },
            {
              "start": 7200,
              "duration": 47,
              "midi": 63,
              "velocity": 100
            },
            {
              "start": 7248,
              "duration": 32,
              "midi": 48,
              "velocity": 100
            },
            {
              "start": 7248,
              "duration": 47,
              "midi": 60,
              "velocity": 100
            },
            {
              "start": 7296,
              "duration": 32,
              "midi": 51,
              "velocity": 100
            },
            {
              "start": 7296,
              "duration": 47,
              "midi": 63,
              "velocity": 100
            },
            {
              "start": 7344,
              "duration": 96,
              "midi": 53,
              "velocity": 100
            },
            {
              "start": 7344,
              "duration": 143,
              "midi": 65,
              "velocity": 100
            },
            {
              "start": 7488,
              "duration": 32,
              "midi": 51,
              "velocity": 100
            },
            {
              "start": 7488,
              "duration": 47,
              "midi": 63,
              "velocity": 100
            },
            {
              "start": 7536,
              "duration": 96,
              "midi": 50,
              "velocity": 100
            },
            {
              "start": 7536,
              "duration": 143,
              "midi": 62,
              "velocity": 100
            },
            {
              "start": 7680,
              "duration": 64,
              "midi": 51,
              "velocity": 100
            },
            {
              "start": 7680,
              "duration": 95,
              "midi": 63,
              "velocity": 100
            },
            {
              "start": 7776,
              "duration": 32,
              "midi": 48,
              "velocity": 100
            },
            {
              "start": 7776,
              "duration": 47,
              "midi": 60,
              "velocity": 100
            },
            {
              "start": 7824,
              "duration": 96,
              "midi": 51,
              "velocity": 100
            },
            {
              "start": 7824,
              "duration": 143,
              "midi": 63,
              "velocity": 100
            },
            {
              "start": 7968,
              "duration": 64,
              "midi": 48,
              "velocity": 100
            },
            {
              "start": 7968,
              "duration": 95,
              "midi": 60,
              "velocity": 100
            },
            {
              "start": 8064,
              "duration": 32,
              "midi": 51,
              "velocity": 100
            },
            {
              "start": 8064,
              "duration": 47,
              "midi": 63,
              "velocity": 100
            },
            {
              "start": 8112,
              "duration": 32,
              "midi": 51,
              "velocity": 100
            },
            {
              "start": 8112,
              "duration": 47,
              "midi": 63,
              "velocity": 100
            },
            {
              "start": 8160,
              "duration": 32,
              "midi": 53,
              "velocity": 100
            },
            {
              "start": 8160,
              "duration": 47,
              "midi": 65,
              "velocity": 100
            },
            {
              "start": 8208,
              "duration": 64,
              "midi": 51,
              "velocity": 100
            },
            {
              "start": 8208,
              "duration": 95,
              "midi": 63,
              "velocity": 100
            },
            {
              "start": 8304,
              "duration": 64,
              "midi": 50,
              "velocity": 100
            },
            {
              "start": 8304,
              "duration": 95,
              "midi": 62,
              "velocity": 100
            },
            {
              "start": 8448,
              "duration": 32,
              "midi": 51,
              "velocity": 100
            },
            {
              "start": 8448,
              "duration": 47,
              "midi": 63,
              "velocity": 100
            },
            {
              "start": 8496,
              "duration": 32,
              "midi": 51,
              "velocity": 100
            },
            {
              "start": 8496,
              "duration": 47,
              "midi": 63,
              "velocity": 100
            },
            {
              "start": 8544,
              "duration": 64,
              "midi": 48,
              "velocity": 100
            },
            {
              "start": 8544,
              "duration": 95,
              "midi": 60,
              "velocity": 100
            },
            {
              "start": 8640,
              "duration": 64,
              "midi": 51,
              "velocity": 100
            },
            {
              "start": 8640,
              "duration": 95,
              "midi": 63,
              "velocity": 100
            },
            {
              "start": 8736,
              "duration": 32,
              "midi": 48,
              "velocity": 100
            },
            {
              "start": 8736,
              "duration": 47,
              "midi": 60,
              "velocity": 100
            },
            {
              "start": 8784,
              "duration": 64,
              "midi": 51,
              "velocity": 100
            },
            {
              "start": 8784,
              "duration": 95,
              "midi": 63,
              "velocity": 100
            },
            {
              "start": 8880,
              "duration": 191,
              "midi": 60,
              "velocity": 100
            },
            {
              "start": 8880,
              "duration": 192,
              "midi": 48,
              "velocity": 100
            },
            {
              "start": 9216,
              "duration": 32,
              "midi": 51,
              "velocity": 100
            },
            {
              "start": 9216,
              "duration": 47,
              "midi": 63,
              "velocity": 100
            },
            {
              "start": 9264,
              "duration": 32,
              "midi": 51,
              "velocity": 100
            },
            {
              "start": 9264,
              "duration": 47,
              "midi": 63,
              "velocity": 100
            },
            {
              "start": 9312,
              "duration": 64,
              "midi": 48,
              "velocity": 100
            },
            {
              "start": 9312,
              "duration": 95,
              "midi": 60,
              "velocity": 100
            },
            {
              "start": 9408,
              "duration": 32,
              "midi": 51,
              "velocity": 100
            },
            {
              "start": 9408,
              "duration": 47,
              "midi": 63,
              "velocity": 100
            },
            {
              "start": 9456,
              "duration": 32,
              "midi": 51,
              "velocity": 100
            },
            {
              "start": 9456,
              "duration": 47,
              "midi": 63,
              "velocity": 100
            },
            {
              "start": 9504,
              "duration": 32,
              "midi": 48,
              "velocity": 100
            },
            {
              "start": 9504,
              "duration": 47,
              "midi": 60,
              "velocity": 100
            },
            {
              "start": 9552,
              "duration": 64,
              "midi": 51,
              "velocity": 100
            },
            {
              "start": 9552,
              "duration": 95,
              "midi": 63,
              "velocity": 100
            },
            {
              "start": 9648,
              "duration": 64,
              "midi": 53,
              "velocity": 100
            },
            {
              "start": 9648,
              "duration": 95,
              "midi": 65,
              "velocity": 100
            },
            {
              "start": 9744,
              "duration": 32,
              "midi": 51,
              "velocity": 100
            },
            {
              "start": 9744,
              "duration": 47,
              "midi": 63,
              "velocity": 100
            },
            {
              "start": 9792,
              "duration": 128,
              "midi": 50,
              "velocity": 100
            },
            {
              "start": 9792,
              "duration": 191,
              "midi": 62,
              "velocity": 100
            },
            {
              "start": 9984,
              "duration": 32,
              "midi": 51,
              "velocity": 100
            },
            {
              "start": 9984,
              "duration": 47,
              "midi": 63,
              "velocity": 100
            },
            {
              "start": 10032,
              "duration": 32,
              "midi": 51,
              "velocity": 100
            },
            {
              "start": 10032,
              "duration": 47,
              "midi": 63,
              "velocity": 100
            },
            {
              "start": 10080,
              "duration": 64,
              "midi": 48,
              "velocity": 100
            },
            {
              "start": 10080,
              "duration": 95,
              "midi": 60,
              "velocity": 100
            },
            {
              "start": 10176,
              "duration": 32,
              "midi": 51,
              "velocity": 100
            },
            {
              "start": 10176,
              "duration": 47,
              "midi": 63,
              "velocity": 100
            },
            {
              "start": 10224,
              "duration": 32,
              "midi": 51,
              "velocity": 100
            },
            {
              "start": 10224,
              "duration": 47,
              "midi": 63,
              "velocity": 100
            },
            {
              "start": 10272,
              "duration": 32,
              "midi": 48,
              "velocity": 100
            },
            {
              "start": 10272,
              "duration": 47,
              "midi": 60,
              "velocity": 100
            },
            {
              "start": 10320,
              "duration": 64,
              "midi": 51,
              "velocity": 100
            },
            {
              "start": 10320,
              "duration": 95,
              "midi": 63,
              "velocity": 100
            },
            {
              "start": 10416,
              "duration": 191,
              "midi": 60,
              "velocity": 100
            },
            {
              "start": 10416,
              "duration": 192,
              "midi": 48,
              "velocity": 100
            },
            {
              "start": 10752,
              "duration": 32,
              "midi": 51,
              "velocity": 100
            },
            {
              "start": 10752,
              "duration": 47,
              "midi": 63,
              "velocity": 100
            },
            {
              "start": 10800,
              "duration": 32,
              "midi": 51,
              "velocity": 100
            },
            {
              "start": 10800,
              "duration": 47,
              "midi": 63,
              "velocity": 100
            },
            {
              "start": 10848,
              "duration": 64,
              "midi": 48,
              "velocity": 100
            },
            {
              "start": 10848,
              "duration": 95,
              "midi": 60,
              "velocity": 100
            },
            {
              "start": 10944,
              "duration": 64,
              "midi": 51,
              "velocity": 100
            },
            {
              "start": 10944,
              "duration": 95,
              "midi": 63,
              "velocity": 100
            },
            {
              "start": 11040,
              "duration": 32,
              "midi": 48,
              "velocity": 100
            },
            {
              "start": 11040,
              "duration": 47,
              "midi": 60,
              "velocity": 100
            },
            {
              "start": 11088,
              "duration": 64,
              "midi": 51,
              "velocity": 100
            },
            {
              "start": 11088,
              "duration": 95,
              "midi": 63,
              "velocity": 100
            },
            {
              "start": 11184,
              "duration": 64,
              "midi": 53,
              "velocity": 100
            },
            {
              "start": 11184,
              "duration": 95,
              "midi": 65,
              "velocity": 100
            },
            {
              "start": 11280,
              "duration": 32,
              "midi": 51,
              "velocity": 100
            },
            {
              "start": 11280,
              "duration": 47,
              "midi": 63,
              "velocity": 100
            },
            {
              "start": 11328,
              "duration": 128,
              "midi": 50,
              "velocity": 100
            },
            {
              "start": 11328,
              "duration": 191,
              "midi": 62,
              "velocity": 100
            },
            {
              "start": 15456,
              "duration": 64,
              "midi": 51,
              "velocity": 100
            },
            {
              "start": 15456,
              "duration": 95,
              "midi": 63,
              "velocity": 100
            },
            {
              "start": 15552,
              "duration": 64,
              "midi": 51,
              "velocity": 100
            },
            {
              "start": 15552,
              "duration": 95,
              "midi": 63,
              "velocity": 100
            },
            {
              "start": 15648,
              "duration": 64,
              "midi": 48,
              "velocity": 100
            },
            {
              "start": 15648,
              "duration": 95,
              "midi": 60,
              "velocity": 100
            },
            {
              "start": 15744,
              "duration": 32,
              "midi": 51,
              "velocity": 100
            },
            {
              "start": 15744,
              "duration": 47,
              "midi": 63,
              "velocity": 100
            },
            {
              "start": 15792,
              "duration": 96,
              "midi": 51,
              "velocity": 100
            },
            {
              "start": 15792,
              "duration": 143,
              "midi": 63,
              "velocity": 100
            },
            {
              "start": 15936,
              "duration": 32,
              "midi": 51,
              "velocity": 100
            },
            {
              "start": 15936,
              "duration": 47,
              "midi": 63,
              "velocity": 100
            },
            {
              "start": 15984,
              "duration": 96,
              "midi": 50,
              "velocity": 100
            },
            {
              "start": 15984,
              "duration": 143,
              "midi": 62,
              "velocity": 100
            },
            {
              "start": 16128,
              "duration": 32,
              "midi": 51,
              "velocity": 100
            },
            {
              "start": 16128,
              "duration": 47,
              "midi": 63,
              "velocity": 100
            },
            {
              "start": 16176,
              "duration": 96,
              "midi": 51,
              "velocity": 100
            },
            {
              "start": 16176,
              "duration": 143,
              "midi": 63,
              "velocity": 100
            },
            {
              "start": 16320,
              "duration": 64,
              "midi": 51,
              "velocity": 100
            },
            {
              "start": 16320,
              "duration": 95,
              "midi": 63,
              "velocity": 100
            },
            {
              "start": 16416,
              "duration": 95,
              "midi": 60,
              "velocity": 100
            },
            {
              "start": 16416,
              "duration": 95,
              "midi": 48,
              "velocity": 100
            },
            {
              "start": 16512,
              "duration": 32,
              "midi": 51,
              "velocity": 100
            },
            {
              "start": 16512,
              "duration": 47,
              "midi": 63,
              "velocity": 100
            },
            {
              "start": 16560,
              "duration": 96,
              "midi": 53,
              "velocity": 100
            },
            {
              "start": 16560,
              "duration": 143,
              "midi": 65,
              "velocity": 100
            },
            {
              "start": 16704,
              "duration": 32,
              "midi": 51,
              "velocity": 100
            },
            {
              "start": 16704,
              "duration": 47,
              "midi": 63,
              "velocity": 100
            },
            {
              "start": 16752,
              "duration": 64,
              "midi": 50,
              "velocity": 100
            },
            {
              "start": 16752,
              "duration": 95,
              "midi": 62,
              "velocity": 100
            },
            {
              "start": 16848,
              "duration": 32,
              "midi": 48,
              "velocity": 100
            },
            {
              "start": 16848,
              "duration": 47,
              "midi": 60,
              "velocity": 100
            },
            {
              "start": 16896,
              "duration": 32,
              "midi": 51,
              "velocity": 100
            },
            {
              "start": 16896,
              "duration": 47,
              "midi": 63,
              "velocity": 100
            },
            {
              "start": 16944,
              "duration": 32,
              "midi": 51,
              "velocity": 100
            },
            {
              "start": 16944,
              "duration": 47,
              "midi": 63,
              "velocity": 100
            },
            {
              "start": 16992,
              "duration": 32,
              "midi": 48,
              "velocity": 100
            },
            {
              "start": 16992,
              "duration": 47,
              "midi": 60,
              "velocity": 100
            },
            {
              "start": 17040,
              "duration": 96,
              "midi": 51,
              "velocity": 100
            },
            {
              "start": 17040,
              "duration": 143,
              "midi": 63,
              "velocity": 100
            },
            {
              "start": 17184,
              "duration": 32,
              "midi": 51,
              "velocity": 100
            },
            {
              "start": 17184,
              "duration": 47,
              "midi": 63,
              "velocity": 100
            },
            {
              "start": 17232,
              "duration": 32,
              "midi": 48,
              "velocity": 100
            },
            {
              "start": 17232,
              "duration": 47,
              "midi": 60,
              "velocity": 100
            },
            {
              "start": 17280,
              "duration": 32,
              "midi": 51,
              "velocity": 100
            },
            {
              "start": 17280,
              "duration": 47,
              "midi": 63,
              "velocity": 100
            },
            {
              "start": 17328,
              "duration": 96,
              "midi": 53,
              "velocity": 100
            },
            {
              "start": 17328,
              "duration": 143,
              "midi": 65,
              "velocity": 100
            },
            {
              "start": 17472,
              "duration": 32,
              "midi": 51,
              "velocity": 100
            },
            {
              "start": 17472,
              "duration": 47,
              "midi": 63,
              "velocity": 100
            },
            {
              "start": 17520,
              "duration": 96,
              "midi": 50,
              "velocity": 100
            },
            {
              "start": 17520,
              "duration": 143,
              "midi": 62,
              "velocity": 100
            },
            {
              "start": 17664,
              "duration": 64,
              "midi": 51,
              "velocity": 100
            },
            {
              "start": 17664,
              "duration": 95,
              "midi": 63,
              "velocity": 100
            },
            {
              "start": 17760,
              "duration": 32,
              "midi": 48,
              "velocity": 100
            },
            {
              "start": 17760,
              "duration": 47,
              "midi": 60,
              "velocity": 100
            },
            {
              "start": 17808,
              "duration": 96,
              "midi": 51,
              "velocity": 100
            },
            {
              "start": 17808,
              "duration": 143,
              "midi": 63,
              "velocity": 100
            },
            {
              "start": 17952,
              "duration": 64,
              "midi": 48,
              "velocity": 100
            },
            {
              "start": 17952,
              "duration": 95,
              "midi": 60,
              "velocity": 100
            },
            {
              "start": 18048,
              "duration": 32,
              "midi": 51,
              "velocity": 100
            },
            {
              "start": 18048,
              "duration": 47,
              "midi": 63,
              "velocity": 100
            },
            {
              "start": 18096,
              "duration": 32,
              "midi": 51,
              "velocity": 100
            },
            {
              "start": 18096,
              "duration": 47,
              "midi": 63,
              "velocity": 100
            },
            {
              "start": 18144,
              "duration": 32,
              "midi": 53,
              "velocity": 100
            },
            {
              "start": 18144,
              "duration": 47,
              "midi": 65,
              "velocity": 100
            },
            {
              "start": 18192,
              "duration": 64,
              "midi": 51,
              "velocity": 100
            },
            {
              "start": 18192,
              "duration": 95,
              "midi": 63,
              "velocity": 100
            },
            {
              "start": 18288,
              "duration": 64,
              "midi": 50,
              "velocity": 100
            },
            {
              "start": 18288,
              "duration": 95,
              "midi": 62,
              "velocity": 100
            },
            {
              "start": 21312,
              "duration": 71,
              "midi": 58,
              "velocity": 100
            },
            {
              "start": 21312,
              "duration": 71,
              "midi": 62,
              "velocity": 100
            },
            {
              "start": 21384,
              "duration": 23,
              "midi": 58,
              "velocity": 100
            },
            {
              "start": 21384,
              "duration": 23,
              "midi": 62,
              "velocity": 100
            },
            {
              "start": 21408,
              "duration": 47,
              "midi": 60,
              "velocity": 100
            },
            {
              "start": 21408,
              "duration": 47,
              "midi": 63,
              "velocity": 100
            },
            {
              "start": 21696,
              "duration": 71,
              "midi": 60,
              "velocity": 100
            },
            {
              "start": 21696,
              "duration": 71,
              "midi": 67,
              "velocity": 100
            },
            {
              "start": 21768,
              "duration": 23,
              "midi": 60,
              "velocity": 100
            },
            {
              "start": 21768,
              "duration": 23,
              "midi": 67,
              "velocity": 100
            },
            {
              "start": 21792,
              "duration": 47,
              "midi": 60,
              "velocity": 100
            },
            {
              "start": 21792,
              "duration": 47,
              "midi": 63,
              "velocity": 100
            },
            {
              "start": 22080,
              "duration": 71,
              "midi": 58,
              "velocity": 100
            },
            {
              "start": 22080,
              "duration": 71,
              "midi": 62,
              "velocity": 100
            },
            {
              "start": 22152,
              "duration": 23,
              "midi": 58,
              "velocity": 100
            },
            {
              "start": 22152,
              "duration": 23,
              "midi": 62,
              "velocity": 100
            },
            {
              "start": 22176,
              "duration": 47,
              "midi": 60,
              "velocity": 100
            },
            {
              "start": 22176,
              "duration": 47,
              "midi": 63,
              "velocity": 100
            },
            {
              "start": 22464,
              "duration": 71,
              "midi": 60,
              "velocity": 100
            },
            {
              "start": 22464,
              "duration": 71,
              "midi": 67,
              "velocity": 100
            },
            {
              "start": 22536,
              "duration": 23,
              "midi": 60,
              "velocity": 100
            },
            {
              "start": 22536,
              "duration": 23,
              "midi": 67,
              "velocity": 100
            },
            {
              "start": 22560,
              "duration": 47,
              "midi": 60,
              "velocity": 100
            },
            {
              "start": 22560,
              "duration": 47,
              "midi": 63,
              "velocity": 100
            },
            {
              "start": 22848,
              "duration": 71,
              "midi": 58,
              "velocity": 100
            },
            {
              "start": 22848,
              "duration": 71,
              "midi": 62,
              "velocity": 100
            },
            {
              "start": 22920,
              "duration": 23,
              "midi": 58,
              "velocity": 100
            },
            {
              "start": 22920,
              "duration": 23,
              "midi": 62,
              "velocity": 100
            },
            {
              "start": 22944,
              "duration": 47,
              "midi": 60,
              "velocity": 100
            },
            {
              "start": 22944,
              "duration": 47,
              "midi": 63,
              "velocity": 100
            },
            {
              "start": 23232,
              "duration": 71,
              "midi": 60,
              "velocity": 100
            },
            {
              "start": 23232,
              "duration": 71,
              "midi": 67,
              "velocity": 100
            },
            {
              "start": 23304,
              "duration": 23,
              "midi": 60,
              "velocity": 100
            },
            {
              "start": 23304,
              "duration": 23,
              "midi": 67,
              "velocity": 100
            },
            {
              "start": 23328,
              "duration": 47,
              "midi": 60,
              "velocity": 100
            },
            {
              "start": 23328,
              "duration": 47,
              "midi": 63,
              "velocity": 100
            },
            {
              "start": 26880,
              "duration": 32,
              "midi": 51,
              "velocity": 100
            },
            {
              "start": 26880,
              "duration": 47,
              "midi": 63,
              "velocity": 100
            },
            {
              "start": 26928,
              "duration": 32,
              "midi": 51,
              "velocity": 100
            },
            {
              "start": 26928,
              "duration": 47,
              "midi": 63,
              "velocity": 100
            },
            {
              "start": 26976,
              "duration": 64,
              "midi": 48,
              "velocity": 100
            },
            {
              "start": 26976,
              "duration": 95,
              "midi": 60,
              "velocity": 100
            },
            {
              "start": 27072,
              "duration": 64,
              "midi": 51,
              "velocity": 100
            },
            {
              "start": 27072,
              "duration": 95,
              "midi": 63,
              "velocity": 100
            },
            {
              "start": 27168,
              "duration": 32,
              "midi": 48,
              "velocity": 100
            },
            {
              "start": 27168,
              "duration": 47,
              "midi": 60,
              "velocity": 100
            },
            {
              "start": 27216,
              "duration": 64,
              "midi": 51,
              "velocity": 100
            },
            {
              "start": 27216,
              "duration": 95,
              "midi": 63,
              "velocity": 100
            },
            {
              "start": 27312,
              "duration": 191,
              "midi": 60,
              "velocity": 100
            },
            {
              "start": 27312,
              "duration": 192,
              "midi": 48,
              "velocity": 100
            },
            {
              "start": 27648,
              "duration": 32,
              "midi": 51,
              "velocity": 100
            },
            {
              "start": 27648,
              "duration": 47,
              "midi": 63,
              "velocity": 100
            },
            {
              "start": 27696,
              "duration": 32,
              "midi": 51,
              "velocity": 100
            },
            {
              "start": 27696,
              "duration": 47,
              "midi": 63,
              "velocity": 100
            },
            {
              "start": 27744,
              "duration": 64,
              "midi": 48,
              "velocity": 100
            },
            {
              "start": 27744,
              "duration": 95,
              "midi": 60,
              "velocity": 100
            },
            {
              "start": 27840,
              "duration": 32,
              "midi": 51,
              "velocity": 100
            },
            {
              "start": 27840,
              "duration": 47,
              "midi": 63,
              "velocity": 100
            },
            {
              "start": 27888,
              "duration": 32,
              "midi": 51,
              "velocity": 100
            },
            {
              "start": 27888,
              "duration": 47,
              "midi": 63,
              "velocity": 100
            },
            {
              "start": 27936,
              "duration": 32,
              "midi": 48,
              "velocity": 100
            },
            {
              "start": 27936,
              "duration": 47,
              "midi": 60,
              "velocity": 100
            },
            {
              "start": 27984,
              "duration": 64,
              "midi": 51,
              "velocity": 100
            },
            {
              "start": 27984,
              "duration": 95,
              "midi": 63,
              "velocity": 100
            },
            {
              "start": 28080,
              "duration": 64,
              "midi": 53,
              "velocity": 100
            },
            {
              "start": 28080,
              "duration": 95,
              "midi": 65,
              "velocity": 100
            },
            {
              "start": 28176,
              "duration": 32,
              "midi": 51,
              "velocity": 100
            },
            {
              "start": 28176,
              "duration": 47,
              "midi": 63,
              "velocity": 100
            },
            {
              "start": 28224,
              "duration": 128,
              "midi": 50,
              "velocity": 100
            },
            {
              "start": 28224,
              "duration": 191,
              "midi": 62,
              "velocity": 100
            },
            {
              "start": 28416,
              "duration": 32,
              "midi": 51,
              "velocity": 100
            },
            {
              "start": 28416,
              "duration": 47,
              "midi": 63,
              "velocity": 100
            },
            {
              "start": 28464,
              "duration": 32,
              "midi": 51,
              "velocity": 100
            },
            {
              "start": 28464,
              "duration": 47,
              "midi": 63,
              "velocity": 100
            },
            {
              "start": 28512,
              "duration": 64,
              "midi": 48,
              "velocity": 100
            },
            {
              "start": 28512,
              "duration": 95,
              "midi": 60,
              "velocity": 100
            },
            {
              "start": 28608,
              "duration": 32,
              "midi": 51,
              "velocity": 100
            },
            {
              "start": 28608,
              "duration": 47,
              "midi": 63,
              "velocity": 100
            },
            {
              "start": 28656,
              "duration": 32,
              "midi": 51,
              "velocity": 100
            },
            {
              "start": 28656,
              "duration": 47,
              "midi": 63,
              "velocity": 100
            },
            {
              "start": 28704,
              "duration": 32,
              "midi": 48,
              "velocity": 100
            },
            {
              "start": 28704,
              "duration": 47,
              "midi": 60,
              "velocity": 100
            },
            {
              "start": 28752,
              "duration": 64,
              "midi": 51,
              "velocity": 100
            },
            {
              "start": 28752,
              "duration": 95,
              "midi": 63,
              "velocity": 100
            },
            {
              "start": 28848,
              "duration": 191,
              "midi": 60,
              "velocity": 100
            },
            {
              "start": 28848,
              "duration": 192,
              "midi": 48,
              "velocity": 100
            },
            {
              "start": 29184,
              "duration": 32,
              "midi": 51,
              "velocity": 100
            },
            {
              "start": 29184,
              "duration": 47,
              "midi": 63,
              "velocity": 100
            },
            {
              "start": 29232,
              "duration": 32,
              "midi": 51,
              "velocity": 100
            },
            {
              "start": 29232,
              "duration": 47,
              "midi": 63,
              "velocity": 100
            },
            {
              "start": 29280,
              "duration": 64,
              "midi": 48,
              "velocity": 100
            },
            {
              "start": 29280,
              "duration": 95,
              "midi": 60,
              "velocity": 100
            },
            {
              "start": 29376,
              "duration": 64,
              "midi": 51,
              "velocity": 100
            },
            {
              "start": 29376,
              "duration": 95,
              "midi": 63,
              "velocity": 100
            },
            {
              "start": 29472,
              "duration": 32,
              "midi": 48,
              "velocity": 100
            },
            {
              "start": 29472,
              "duration": 47,
              "midi": 60,
              "velocity": 100
            },
            {
              "start": 29520,
              "duration": 64,
              "midi": 51,
              "velocity": 100
            },
            {
              "start": 29520,
              "duration": 95,
              "midi": 63,
              "velocity": 100
            },
            {
              "start": 29616,
              "duration": 64,
              "midi": 53,
              "velocity": 100
            },
            {
              "start": 29616,
              "duration": 95,
              "midi": 65,
              "velocity": 100
            },
            {
              "start": 29712,
              "duration": 32,
              "midi": 51,
              "velocity": 100
            },
            {
              "start": 29712,
              "duration": 47,
              "midi": 63,
              "velocity": 100
            },
            {
              "start": 29760,
              "duration": 128,
              "midi": 50,
              "velocity": 100
            },
            {
              "start": 29760,
              "duration": 191,
              "midi": 62,
              "velocity": 100
            },
            {
              "start": 32832,
              "duration": 71,
              "midi": 58,
              "velocity": 100
            },
            {
              "start": 32832,
              "duration": 71,
              "midi": 62,
              "velocity": 100
            },
            {
              "start": 32904,
              "duration": 23,
              "midi": 58,
              "velocity": 100
            },
            {
              "start": 32904,
              "duration": 23,
              "midi": 62,
              "velocity": 100
            },
            {
              "start": 32928,
              "duration": 47,
              "midi": 60,
              "velocity": 100
            },
            {
              "start": 32928,
              "duration": 47,
              "midi": 63,
              "velocity": 100
            },
            {
              "start": 33216,
              "duration": 71,
              "midi": 60,
              "velocity": 100
            },
            {
              "start": 33216,
              "duration": 71,
              "midi": 67,
              "velocity": 100
            },
            {
              "start": 33288,
              "duration": 23,
              "midi": 60,
              "velocity": 100
            },
            {
              "start": 33288,
              "duration": 23,
              "midi": 67,
              "velocity": 100
            },
            {
              "start": 33312,
              "duration": 47,
              "midi": 60,
              "velocity": 100
            },
            {
              "start": 33312,
              "duration": 47,
              "midi": 63,
              "velocity": 100
            },
            {
              "start": 33600,
              "duration": 71,
              "midi": 58,
              "velocity": 100
            },
            {
              "start": 33600,
              "duration": 71,
              "midi": 62,
              "velocity": 100
            },
            {
              "start": 33672,
              "duration": 23,
              "midi": 58,
              "velocity": 100
            },
            {
              "start": 33672,
              "duration": 23,
              "midi": 62,
              "velocity": 100
            },
            {
              "start": 33696,
              "duration": 47,
              "midi": 60,
              "velocity": 100
            },
            {
              "start": 33696,
              "duration": 47,
              "midi": 63,
              "velocity": 100
            },
            {
              "start": 33984,
              "duration": 71,
              "midi": 60,
              "velocity": 100
            },
            {
              "start": 33984,
              "duration": 71,
              "midi": 67,
              "velocity": 100
            },
            {
              "start": 34056,
              "duration": 23,
              "midi": 60,
              "velocity": 100
            },
            {
              "start": 34056,
              "duration": 23,
              "midi": 67,
              "velocity": 100
            },
            {
              "start": 34080,
              "duration": 47,
              "midi": 60,
              "velocity": 100
            },
            {
              "start": 34080,
              "duration": 47,
              "midi": 63,
              "velocity": 100
            },
            {
              "start": 34368,
              "duration": 71,
              "midi": 58,
              "velocity": 100
            },
            {
              "start": 34368,
              "duration": 71,
              "midi": 62,
              "velocity": 100
            },
            {
              "start": 34440,
              "duration": 23,
              "midi": 58,
              "velocity": 100
            },
            {
              "start": 34440,
              "duration": 23,
              "midi": 62,
              "velocity": 100
            },
            {
              "start": 34464,
              "duration": 47,
              "midi": 60,
              "velocity": 100
            },
            {
              "start": 34464,
              "duration": 47,
              "midi": 63,
              "velocity": 100
            },
            {
              "start": 34752,
              "duration": 71,
              "midi": 60,
              "velocity": 100
            },
            {
              "start": 34752,
              "duration": 71,
              "midi": 67,
              "velocity": 100
            },
            {
              "start": 34824,
              "duration": 23,
              "midi": 60,
              "velocity": 100
            },
            {
              "start": 34824,
              "duration": 23,
              "midi": 67,
              "velocity": 100
            },
            {
              "start": 34848,
              "duration": 47,
              "midi": 60,
              "velocity": 100
            },
            {
              "start": 34848,
              "duration": 47,
              "midi": 63,
              "velocity": 100
            },
            {
              "start": 46176,
              "duration": 64,
              "midi": 51,
              "velocity": 100
            },
            {
              "start": 46176,
              "duration": 95,
              "midi": 63,
              "velocity": 100
            },
            {
              "start": 46272,
              "duration": 64,
              "midi": 51,
              "velocity": 100
            },
            {
              "start": 46272,
              "duration": 95,
              "midi": 63,
              "velocity": 100
            },
            {
              "start": 46368,
              "duration": 64,
              "midi": 48,
              "velocity": 100
            },
            {
              "start": 46368,
              "duration": 95,
              "midi": 60,
              "velocity": 100
            },
            {
              "start": 46464,
              "duration": 32,
              "midi": 51,
              "velocity": 100
            },
            {
              "start": 46464,
              "duration": 47,
              "midi": 63,
              "velocity": 100
            },
            {
              "start": 46512,
              "duration": 96,
              "midi": 51,
              "velocity": 100
            },
            {
              "start": 46512,
              "duration": 143,
              "midi": 63,
              "velocity": 100
            },
            {
              "start": 46656,
              "duration": 32,
              "midi": 51,
              "velocity": 100
            },
            {
              "start": 46656,
              "duration": 47,
              "midi": 63,
              "velocity": 100
            },
            {
              "start": 46704,
              "duration": 96,
              "midi": 50,
              "velocity": 100
            },
            {
              "start": 46704,
              "duration": 143,
              "midi": 62,
              "velocity": 100
            },
            {
              "start": 46848,
              "duration": 32,
              "midi": 51,
              "velocity": 100
            },
            {
              "start": 46848,
              "duration": 47,
              "midi": 63,
              "velocity": 100
            },
            {
              "start": 46896,
              "duration": 96,
              "midi": 51,
              "velocity": 100
            },
            {
              "start": 46896,
              "duration": 143,
              "midi": 63,
              "velocity": 100
            },
            {
              "start": 47040,
              "duration": 64,
              "midi": 51,
              "velocity": 100
            },
            {
              "start": 47040,
              "duration": 95,
              "midi": 63,
              "velocity": 100
            },
            {
              "start": 47136,
              "duration": 95,
              "midi": 60,
              "velocity": 100
            },
            {
              "start": 47136,
              "duration": 95,
              "midi": 48,
              "velocity": 100
            },
            {
              "start": 47232,
              "duration": 32,
              "midi": 51,
              "velocity": 100
            },
            {
              "start": 47232,
              "duration": 47,
              "midi": 63,
              "velocity": 100
            },
            {
              "start": 47280,
              "duration": 96,
              "midi": 53,
              "velocity": 100
            },
            {
              "start": 47280,
              "duration": 143,
              "midi": 65,
              "velocity": 100
            },
            {
              "start": 47424,
              "duration": 32,
              "midi": 51,
              "velocity": 100
            },
            {
              "start": 47424,
              "duration": 47,
              "midi": 63,
              "velocity": 100
            },
            {
              "start": 47472,
              "duration": 64,
              "midi": 50,
              "velocity": 100
            },
            {
              "start": 47472,
              "duration": 95,
              "midi": 62,
              "velocity": 100
            },
            {
              "start": 47568,
              "duration": 32,
              "midi": 48,
              "velocity": 100
            },
            {
              "start": 47568,
              "duration": 47,
              "midi": 60,
              "velocity": 100
            },
            {
              "start": 47616,
              "duration": 32,
              "midi": 51,
              "velocity": 100
            },
            {
              "start": 47616,
              "duration": 47,
              "midi": 63,
              "velocity": 100
            },
            {
              "start": 47664,
              "duration": 32,
              "midi": 51,
              "velocity": 100
            },
            {
              "start": 47664,
              "duration": 47,
              "midi": 63,
              "velocity": 100
            },
            {
              "start": 47712,
              "duration": 32,
              "midi": 48,
              "velocity": 100
            },
            {
              "start": 47712,
              "duration": 47,
              "midi": 60,
              "velocity": 100
            },
            {
              "start": 47760,
              "duration": 96,
              "midi": 51,
              "velocity": 100
            },
            {
              "start": 47760,
              "duration": 143,
              "midi": 63,
              "velocity": 100
            },
            {
              "start": 47904,
              "duration": 32,
              "midi": 51,
              "velocity": 100
            },
            {
              "start": 47904,
              "duration": 47,
              "midi": 63,
              "velocity": 100
            },
            {
              "start": 47952,
              "duration": 32,
              "midi": 48,
              "velocity": 100
            },
            {
              "start": 47952,
              "duration": 47,
              "midi": 60,
              "velocity": 100
            },
            {
              "start": 48000,
              "duration": 32,
              "midi": 51,
              "velocity": 100
            },
            {
              "start": 48000,
              "duration": 47,
              "midi": 63,
              "velocity": 100
            },
            {
              "start": 48048,
              "duration": 96,
              "midi": 53,
              "velocity": 100
            },
            {
              "start": 48048,
              "duration": 143,
              "midi": 65,
              "velocity": 100
            },
            {
              "start": 48192,
              "duration": 32,
              "midi": 51,
              "velocity": 100
            },
            {
              "start": 48192,
              "duration": 47,
              "midi": 63,
              "velocity": 100
            },
            {
              "start": 48240,
              "duration": 96,
              "midi": 50,
              "velocity": 100
            },
            {
              "start": 48240,
              "duration": 143,
              "midi": 62,
              "velocity": 100
            },
            {
              "start": 48384,
              "duration": 64,
              "midi": 51,
              "velocity": 100
            },
            {
              "start": 48384,
              "duration": 95,
              "midi": 63,
              "velocity": 100
            },
            {
              "start": 48480,
              "duration": 32,
              "midi": 48,
              "velocity": 100
            },
            {
              "start": 48480,
              "duration": 47,
              "midi": 60,
              "velocity": 100
            },
            {
              "start": 48528,
              "duration": 96,
              "midi": 51,
              "velocity": 100
            },
            {
              "start": 48528,
              "duration": 143,
              "midi": 63,
              "velocity": 100
            },
            {
              "start": 48672,
              "duration": 64,
              "midi": 48,
              "velocity": 100
            },
            {
              "start": 48672,
              "duration": 95,
              "midi": 60,
              "velocity": 100
            },
            {
              "start": 48768,
              "duration": 32,
              "midi": 51,
              "velocity": 100
            },
            {
              "start": 48768,
              "duration": 47,
              "midi": 63,
              "velocity": 100
            },
            {
              "start": 48816,
              "duration": 32,
              "midi": 51,
              "velocity": 100
            },
            {
              "start": 48816,
              "duration": 47,
              "midi": 63,
              "velocity": 100
            },
            {
              "start": 48864,
              "duration": 32,
              "midi": 53,
              "velocity": 100
            },
            {
              "start": 48864,
              "duration": 47,
              "midi": 65,
              "velocity": 100
            },
            {
              "start": 48912,
              "duration": 64,
              "midi": 51,
              "velocity": 100
            },
            {
              "start": 48912,
              "duration": 95,
              "midi": 63,
              "velocity": 100
            },
            {
              "start": 49008,
              "duration": 64,
              "midi": 50,
              "velocity": 100
            },
            {
              "start": 49008,
              "duration": 95,
              "midi": 62,
              "velocity": 100
            },
            {
              "start": 49248,
              "duration": 64,
              "midi": 51,
              "velocity": 100
            },
            {
              "start": 49248,
              "duration": 95,
              "midi": 63,
              "velocity": 100
            },
            {
              "start": 49344,
              "duration": 64,
              "midi": 51,
              "velocity": 100
            },
            {
              "start": 49344,
              "duration": 95,
              "midi": 63,
              "velocity": 100
            },
            {
              "start": 49440,
              "duration": 64,
              "midi": 48,
              "velocity": 100
            },
            {
              "start": 49440,
              "duration": 95,
              "midi": 60,
              "velocity": 100
            },
            {
              "start": 49536,
              "duration": 32,
              "midi": 51,
              "velocity": 100
            },
            {
              "start": 49536,
              "duration": 47,
              "midi": 63,
              "velocity": 100
            },
            {
              "start": 49584,
              "duration": 96,
              "midi": 51,
              "velocity": 100
            },
            {
              "start": 49584,
              "duration": 143,
              "midi": 63,
              "velocity": 100
            },
            {
              "start": 49728,
              "duration": 32,
              "midi": 51,
              "velocity": 100
            },
            {
              "start": 49728,
              "duration": 47,
              "midi": 63,
              "velocity": 100
            },
            {
              "start": 49776,
              "duration": 96,
              "midi": 50,
              "velocity": 100
            },
            {
              "start": 49776,
              "duration": 143,
              "midi": 62,
              "velocity": 100
            },
            {
              "start": 49920,
              "duration": 32,
              "midi": 51,
              "velocity": 100
            },
            {
              "start": 49920,
              "duration": 47,
              "midi": 63,
              "velocity": 100
            },
            {
              "start": 49968,
              "duration": 96,
              "midi": 51,
              "velocity": 100
            },
            {
              "start": 49968,
              "duration": 143,
              "midi": 63,
              "velocity": 100
            },
            {
              "start": 50112,
              "duration": 64,
              "midi": 51,
              "velocity": 100
            },
            {
              "start": 50112,
              "duration": 95,
              "midi": 63,
              "velocity": 100
            },
            {
              "start": 50208,
              "duration": 95,
              "midi": 60,
              "velocity": 100
            },
            {
              "start": 50208,
              "duration": 95,
              "midi": 48,
              "velocity": 100
            },
            {
              "start": 50304,
              "duration": 32,
              "midi": 51,
              "velocity": 100
            },
            {
              "start": 50304,
              "duration": 47,
              "midi": 63,
              "velocity": 100
            },
            {
              "start": 50352,
              "duration": 96,
              "midi": 53,
              "velocity": 100
            },
            {
              "start": 50352,
              "duration": 143,
              "midi": 65,
              "velocity": 100
            },
            {
              "start": 50496,
              "duration": 32,
              "midi": 51,
              "velocity": 100
            },
            {
              "start": 50496,
              "duration": 47,
              "midi": 63,
              "velocity": 100
            },
            {
              "start": 50544,
              "duration": 64,
              "midi": 50,
              "velocity": 100
            },
            {
              "start": 50544,
              "duration": 95,
              "midi": 62,
              "velocity": 100
            },
            {
              "start": 50640,
              "duration": 32,
              "midi": 48,
              "velocity": 100
            },
            {
              "start": 50640,
              "duration": 47,
              "midi": 60,
              "velocity": 100
            },
            {
              "start": 50688,
              "duration": 32,
              "midi": 51,
              "velocity": 100
            },
            {
              "start": 50688,
              "duration": 47,
              "midi": 63,
              "velocity": 100
            },
            {
              "start": 50736,
              "duration": 32,
              "midi": 51,
              "velocity": 100
            },
            {
              "start": 50736,
              "duration": 47,
              "midi": 63,
              "velocity": 100
            },
            {
              "start": 50784,
              "duration": 32,
              "midi": 48,
              "velocity": 100
            },
            {
              "start": 50784,
              "duration": 47,
              "midi": 60,
              "velocity": 100
            },
            {
              "start": 50832,
              "duration": 96,
              "midi": 51,
              "velocity": 100
            },
            {
              "start": 50832,
              "duration": 143,
              "midi": 63,
              "velocity": 100
            },
            {
              "start": 50976,
              "duration": 32,
              "midi": 51,
              "velocity": 100
            },
            {
              "start": 50976,
              "duration": 47,
              "midi": 63,
              "velocity": 100
            },
            {
              "start": 51024,
              "duration": 32,
              "midi": 48,
              "velocity": 100
            },
            {
              "start": 51024,
              "duration": 47,
              "midi": 60,
              "velocity": 100
            },
            {
              "start": 51072,
              "duration": 32,
              "midi": 51,
              "velocity": 100
            },
            {
              "start": 51072,
              "duration": 47,
              "midi": 63,
              "velocity": 100
            },
            {
              "start": 51120,
              "duration": 96,
              "midi": 53,
              "velocity": 100
            },
            {
              "start": 51120,
              "duration": 143,
              "midi": 65,
              "velocity": 100
            },
            {
              "start": 51264,
              "duration": 32,
              "midi": 51,
              "velocity": 100
            },
            {
              "start": 51264,
              "duration": 47,
              "midi": 63,
              "velocity": 100
            },
            {
              "start": 51312,
              "duration": 96,
              "midi": 50,
              "velocity": 100
            },
            {
              "start": 51312,
              "duration": 143,
              "midi": 62,
              "velocity": 100
            },
            {
              "start": 51456,
              "duration": 64,
              "midi": 51,
              "velocity": 100
            },
            {
              "start": 51456,
              "duration": 95,
              "midi": 63,
              "velocity": 100
            },
            {
              "start": 51552,
              "duration": 32,
              "midi": 48,
              "velocity": 100
            },
            {
              "start": 51552,
              "duration": 47,
              "midi": 60,
              "velocity": 100
            },
            {
              "start": 51600,
              "duration": 96,
              "midi": 51,
              "velocity": 100
            },
            {
              "start": 51600,
              "duration": 143,
              "midi": 63,
              "velocity": 100
            },
            {
              "start": 51744,
              "duration": 64,
              "midi": 48,
              "velocity": 100
            },
            {
              "start": 51744,
              "duration": 95,
              "midi": 60,
              "velocity": 100
            },
            {
              "start": 51840,
              "duration": 32,
              "midi": 51,
              "velocity": 100
            },
            {
              "start": 51840,
              "duration": 47,
              "midi": 63,
              "velocity": 100
            },
            {
              "start": 51888,
              "duration": 32,
              "midi": 51,
              "velocity": 100
            },
            {
              "start": 51888,
              "duration": 47,
              "midi": 63,
              "velocity": 100
            },
            {
              "start": 51936,
              "duration": 32,
              "midi": 53,
              "velocity": 100
            },
            {
              "start": 51936,
              "duration": 47,
              "midi": 65,
              "velocity": 100
            },
            {
              "start": 51984,
              "duration": 64,
              "midi": 51,
              "velocity": 100
            },
            {
              "start": 51984,
              "duration": 95,
              "midi": 63,
              "velocity": 100
            },
            {
              "start": 52080,
              "duration": 64,
              "midi": 50,
              "velocity": 100
            },
            {
              "start": 52080,
              "duration": 95,
              "midi": 62,
              "velocity": 100
            },
            {
              "start": 52320,
              "duration": 64,
              "midi": 51,
              "velocity": 100
            },
            {
              "start": 52320,
              "duration": 95,
              "midi": 63,
              "velocity": 100
            },
            {
              "start": 52416,
              "duration": 64,
              "midi": 51,
              "velocity": 100
            },
            {
              "start": 52416,
              "duration": 95,
              "midi": 63,
              "velocity": 100
            },
            {
              "start": 52512,
              "duration": 64,
              "midi": 48,
              "velocity": 100
            },
            {
              "start": 52512,
              "duration": 95,
              "midi": 60,
              "velocity": 100
            },
            {
              "start": 52608,
              "duration": 32,
              "midi": 51,
              "velocity": 100
            },
            {
              "start": 52608,
              "duration": 47,
              "midi": 63,
              "velocity": 100
            },
            {
              "start": 52656,
              "duration": 96,
              "midi": 51,
              "velocity": 100
            },
            {
              "start": 52656,
              "duration": 143,
              "midi": 63,
              "velocity": 100
            },
            {
              "start": 52800,
              "duration": 32,
              "midi": 51,
              "velocity": 100
            },
            {
              "start": 52800,
              "duration": 47,
              "midi": 63,
              "velocity": 100
            },
            {
              "start": 52848,
              "duration": 96,
              "midi": 50,
              "velocity": 100
            },
            {
              "start": 52848,
              "duration": 143,
              "midi": 62,
              "velocity": 100
            },
            {
              "start": 52992,
              "duration": 32,
              "midi": 51,
              "velocity": 100
            },
            {
              "start": 52992,
              "duration": 47,
              "midi": 63,
              "velocity": 100
            },
            {
              "start": 53040,
              "duration": 96,
              "midi": 51,
              "velocity": 100
            },
            {
              "start": 53040,
              "duration": 143,
              "midi": 63,
              "velocity": 100
            },
            {
              "start": 53184,
              "duration": 64,
              "midi": 51,
              "velocity": 100
            },
            {
              "start": 53184,
              "duration": 95,
              "midi": 63,
              "velocity": 100
            },
            {
              "start": 53280,
              "duration": 95,
              "midi": 60,
              "velocity": 100
            },
            {
              "start": 53280,
              "duration": 95,
              "midi": 48,
              "velocity": 100
            },
            {
              "start": 53376,
              "duration": 32,
              "midi": 51,
              "velocity": 100
            },
            {
              "start": 53376,
              "duration": 47,
              "midi": 63,
              "velocity": 100
            },
            {
              "start": 53424,
              "duration": 96,
              "midi": 53,
              "velocity": 100
            },
            {
              "start": 53424,
              "duration": 143,
              "midi": 65,
              "velocity": 100
            },
            {
              "start": 53568,
              "duration": 32,
              "midi": 51,
              "velocity": 100
            },
            {
              "start": 53568,
              "duration": 47,
              "midi": 63,
              "velocity": 100
            },
            {
              "start": 53616,
              "duration": 64,
              "midi": 50,
              "velocity": 100
            },
            {
              "start": 53616,
              "duration": 95,
              "midi": 62,
              "velocity": 100
            },
            {
              "start": 53712,
              "duration": 32,
              "midi": 48,
              "velocity": 100
            },
            {
              "start": 53712,
              "duration": 47,
              "midi": 60,
              "velocity": 100
            },
            {
              "start": 53760,
              "duration": 32,
              "midi": 51,
              "velocity": 100
            },
            {
              "start": 53760,
              "duration": 47,
              "midi": 63,
              "velocity": 100
            },
            {
              "start": 53808,
              "duration": 32,
              "midi": 51,
              "velocity": 100
            },
            {
              "start": 53808,
              "duration": 47,
              "midi": 63,
              "velocity": 100
            },
            {
              "start": 53856,
              "duration": 32,
              "midi": 48,
              "velocity": 100
            },
            {
              "start": 53856,
              "duration": 47,
              "midi": 60,
              "velocity": 100
            },
            {
              "start": 53904,
              "duration": 96,
              "midi": 51,
              "velocity": 100
            },
            {
              "start": 53904,
              "duration": 143,
              "midi": 63,
              "velocity": 100
            },
            {
              "start": 54048,
              "duration": 32,
              "midi": 51,
              "velocity": 100
            },
            {
              "start": 54048,
              "duration": 47,
              "midi": 63,
              "velocity": 100
            },
            {
              "start": 54096,
              "duration": 32,
              "midi": 48,
              "velocity": 100
            },
            {
              "start": 54096,
              "duration": 47,
              "midi": 60,
              "velocity": 100
            },
            {
              "start": 54144,
              "duration": 32,
              "midi": 51,
              "velocity": 81
            },
            {
              "start": 54144,
              "duration": 47,
              "midi": 63,
              "velocity": 81
            },
            {
              "start": 54192,
              "duration": 96,
              "midi": 53,
              "velocity": 81
            },
            {
              "start": 54192,
              "duration": 143,
              "midi": 65,
              "velocity": 81
            },
            {
              "start": 54336,
              "duration": 32,
              "midi": 51,
              "velocity": 81
            },
            {
              "start": 54336,
              "duration": 47,
              "midi": 63,
              "velocity": 81
            },
            {
              "start": 54384,
              "duration": 96,
              "midi": 50,
              "velocity": 81
            },
            {
              "start": 54384,
              "duration": 143,
              "midi": 62,
              "velocity": 81
            },
            {
              "start": 54528,
              "duration": 64,
              "midi": 51,
              "velocity": 81
            },
            {
              "start": 54528,
              "duration": 95,
              "midi": 63,
              "velocity": 81
            },
            {
              "start": 54624,
              "duration": 32,
              "midi": 48,
              "velocity": 81
            },
            {
              "start": 54624,
              "duration": 47,
              "midi": 60,
              "velocity": 81
            },
            {
              "start": 54672,
              "duration": 96,
              "midi": 51,
              "velocity": 81
            },
            {
              "start": 54672,
              "duration": 143,
              "midi": 63,
              "velocity": 81
            },
            {
              "start": 54816,
              "duration": 64,
              "midi": 48,
              "velocity": 81
            },
            {
              "start": 54816,
              "duration": 95,
              "midi": 60,
              "velocity": 81
            },
            {
              "start": 54912,
              "duration": 32,
              "midi": 51,
              "velocity": 70
            },
            {
              "start": 54912,
              "duration": 47,
              "midi": 63,
              "velocity": 70
            },
            {
              "start": 54960,
              "duration": 32,
              "midi": 51,
              "velocity": 70
            },
            {
              "start": 54960,
              "duration": 47,
              "midi": 63,
              "velocity": 70
            },
            {
              "start": 55008,
              "duration": 32,
              "midi": 53,
              "velocity": 70
            },
            {
              "start": 55008,
              "duration": 47,
              "midi": 65,
              "velocity": 70
            },
            {
              "start": 55056,
              "duration": 64,
              "midi": 51,
              "velocity": 70
            },
            {
              "start": 55056,
              "duration": 95,
              "midi": 63,
              "velocity": 70
            },
            {
              "start": 55152,
              "duration": 64,
              "midi": 50,
              "velocity": 70
            },
            {
              "start": 55152,
              "duration": 95,
              "midi": 62,
              "velocity": 70
            },
            {
              "start": 55392,
              "duration": 64,
              "midi": 51,
              "velocity": 70
            },
            {
              "start": 55392,
              "duration": 95,
              "midi": 63,
              "velocity": 70
            },
            {
              "start": 55488,
              "duration": 64,
              "midi": 51,
              "velocity": 70
            },
            {
              "start": 55488,
              "duration": 95,
              "midi": 63,
              "velocity": 70
            },
            {
              "start": 55584,
              "duration": 64,
              "midi": 48,
              "velocity": 70
            },
            {
              "start": 55584,
              "duration": 95,
              "midi": 60,
              "velocity": 70
            },
            {
              "start": 55680,
              "duration": 32,
              "midi": 51,
              "velocity": 70
            },
            {
              "start": 55680,
              "duration": 47,
              "midi": 63,
              "velocity": 70
            },
            {
              "start": 55728,
              "duration": 96,
              "midi": 51,
              "velocity": 70
            },
            {
              "start": 55728,
              "duration": 143,
              "midi": 63,
              "velocity": 70
            },
            {
              "start": 55872,
              "duration": 32,
              "midi": 51,
              "velocity": 70
            },
            {
              "start": 55872,
              "duration": 47,
              "midi": 63,
              "velocity": 70
            },
            {
              "start": 55920,
              "duration": 96,
              "midi": 50,
              "velocity": 70
            },
            {
              "start": 55920,
              "duration": 143,
              "midi": 62,
              "velocity": 70
            },
            {
              "start": 56064,
              "duration": 32,
              "midi": 51,
              "velocity": 54
            },
            {
              "start": 56064,
              "duration": 47,
              "midi": 63,
              "velocity": 54
            },
            {
              "start": 56112,
              "duration": 96,
              "midi": 51,
              "velocity": 54
            },
            {
              "start": 56112,
              "duration": 143,
              "midi": 63,
              "velocity": 54
            },
            {
              "start": 56256,
              "duration": 64,
              "midi": 51,
              "velocity": 54
            },
            {
              "start": 56256,
              "duration": 95,
              "midi": 63,
              "velocity": 54
            },
            {
              "start": 56352,
              "duration": 95,
              "midi": 60,
              "velocity": 54
            },
            {
              "start": 56352,
              "duration": 95,
              "midi": 48,
              "velocity": 54
            },
            {
              "start": 56448,
              "duration": 32,
              "midi": 51,
              "velocity": 54
            },
            {
              "start": 56448,
              "duration": 47,
              "midi": 63,
              "velocity": 54
            },
            {
              "start": 56496,
              "duration": 96,
              "midi": 53,
              "velocity": 54
            },
            {
              "start": 56496,
              "duration": 143,
              "midi": 65,
              "velocity": 54
            },
            {
              "start": 56640,
              "duration": 32,
              "midi": 51,
              "velocity": 54
            },
            {
              "start": 56640,
              "duration": 47,
              "midi": 63,
              "velocity": 54
            },
            {
              "start": 56688,
              "duration": 64,
              "midi": 50,
              "velocity": 54
            },
            {
              "start": 56688,
              "duration": 95,
              "midi": 62,
              "velocity": 54
            },
            {
              "start": 56784,
              "duration": 32,
              "midi": 48,
              "velocity": 54
            },
            {
              "start": 56784,
              "duration": 47,
              "midi": 60,
              "velocity": 54
            },
            {
              "start": 56832,
              "duration": 32,
              "midi": 51,
              "velocity": 43
            },
            {
              "start": 56832,
              "duration": 47,
              "midi": 63,
              "velocity": 43
            },
            {
              "start": 56880,
              "duration": 32,
              "midi": 51,
              "velocity": 43
            },
            {
              "start": 56880,
              "duration": 47,
              "midi": 63,
              "velocity": 43
            },
            {
              "start": 56928,
              "duration": 32,
              "midi": 48,
              "velocity": 43
            },
            {
              "start": 56928,
              "duration": 47,
              "midi": 60,
              "velocity": 43
            },
            {
              "start": 56976,
              "duration": 96,
              "midi": 51,
              "velocity": 43
            },
            {
              "start": 56976,
              "duration": 143,
              "midi": 63,
              "velocity": 43
            },
            {
              "start": 57120,
              "duration": 32,
              "midi": 51,
              "velocity": 43
            },
            {
              "start": 57120,
              "duration": 47,
              "midi": 63,
              "velocity": 43
            },
            {
              "start": 57168,
              "duration": 32,
              "midi": 48,
              "velocity": 43
            },
            {
              "start": 57168,
              "duration": 47,
              "midi": 60,
              "velocity": 43
            },
            {
              "start": 57216,
              "duration": 32,
              "midi": 51,
              "velocity": 43
            },
            {
              "start": 57216,
              "duration": 47,
              "midi": 63,
              "velocity": 43
            },
            {
              "start": 57264,
              "duration": 96,
              "midi": 53,
              "velocity": 43
            },
            {
              "start": 57264,
              "duration": 143,
              "midi": 65,
              "velocity": 43
            },
            {
              "start": 57408,
              "duration": 32,
              "midi": 51,
              "velocity": 43
            },
            {
              "start": 57408,
              "duration": 47,
              "midi": 63,
              "velocity": 43
            },
            {
              "start": 57456,
              "duration": 96,
              "midi": 50,
              "velocity": 43
            },
            {
              "start": 57456,
              "duration": 143,
              "midi": 62,
              "velocity": 43
            },
            {
              "start": 57600,
              "duration": 64,
              "midi": 51,
              "velocity": 29
            },
            {
              "start": 57600,
              "duration": 95,
              "midi": 63,
              "velocity": 29
            },
            {
              "start": 57696,
              "duration": 32,
              "midi": 48,
              "velocity": 29
            },
            {
              "start": 57696,
              "duration": 47,
              "midi": 60,
              "velocity": 29
            },
            {
              "start": 57744,
              "duration": 96,
              "midi": 51,
              "velocity": 29
            },
            {
              "start": 57744,
              "duration": 143,
              "midi": 63,
              "velocity": 29
            },
            {
              "start": 57888,
              "duration": 64,
              "midi": 48,
              "velocity": 29
            },
            {
              "start": 57888,
              "duration": 95,
              "midi": 60,
              "velocity": 29
            },
            {
              "start": 57984,
              "duration": 32,
              "midi": 51,
              "velocity": 29
            },
            {
              "start": 57984,
              "duration": 47,
              "midi": 63,
              "velocity": 29
            },
            {
              "start": 58032,
              "duration": 32,
              "midi": 51,
              "velocity": 29
            },
            {
              "start": 58032,
              "duration": 47,
              "midi": 63,
              "velocity": 29
            },
            {
              "start": 58080,
              "duration": 32,
              "midi": 53,
              "velocity": 29
            },
            {
              "start": 58080,
              "duration": 47,
              "midi": 65,
              "velocity": 29
            },
            {
              "start": 58128,
              "duration": 64,
              "midi": 51,
              "velocity": 29
            },
            {
              "start": 58128,
              "duration": 95,
              "midi": 63,
              "velocity": 29
            },
            {
              "start": 58224,
              "duration": 64,
              "midi": 50,
              "velocity": 29
            },
            {
              "start": 58224,
              "duration": 95,
              "midi": 62,
              "velocity": 29
            }
          ]
        }
      ],
      "enginePresetName": "factory:PAD Choir Aah"
    },
    {
      "id": "lane-mpr2auvs-a",
      "engineId": "wavetable",
      "name": "PAD Sweep Wide",
      "clips": [
        {
          "id": "clip-mpr2auvs-9",
          "name": "PAD Sweep Wide",
          "lengthBars": 152,
          "notes": [
            {
              "start": 4704,
              "duration": 671,
              "midi": 55,
              "velocity": 100
            },
            {
              "start": 4704,
              "duration": 671,
              "midi": 67,
              "velocity": 100
            },
            {
              "start": 4704,
              "duration": 671,
              "midi": 63,
              "velocity": 100
            },
            {
              "start": 4704,
              "duration": 671,
              "midi": 60,
              "velocity": 100
            },
            {
              "start": 13152,
              "duration": 623,
              "midi": 67,
              "velocity": 64
            },
            {
              "start": 13152,
              "duration": 623,
              "midi": 55,
              "velocity": 64
            },
            {
              "start": 13152,
              "duration": 623,
              "midi": 60,
              "velocity": 64
            },
            {
              "start": 13152,
              "duration": 623,
              "midi": 63,
              "velocity": 64
            },
            {
              "start": 20064,
              "duration": 671,
              "midi": 55,
              "velocity": 100
            },
            {
              "start": 20064,
              "duration": 671,
              "midi": 67,
              "velocity": 100
            },
            {
              "start": 20064,
              "duration": 671,
              "midi": 63,
              "velocity": 100
            },
            {
              "start": 20064,
              "duration": 671,
              "midi": 60,
              "velocity": 100
            }
          ]
        }
      ],
      "enginePresetName": "factory:PAD Sweep Wide"
    },
    {
      "id": "lane-mpr2auvs-c",
      "engineId": "subtractive",
      "name": "KEY E.Piano",
      "clips": [
        {
          "id": "clip-mpr2auvs-b",
          "name": "KEY E.Piano",
          "lengthBars": 152,
          "notes": [
            {
              "start": 20736,
              "duration": 383,
              "midi": 43,
              "velocity": 100
            },
            {
              "start": 20736,
              "duration": 383,
              "midi": 60,
              "velocity": 100
            },
            {
              "start": 20736,
              "duration": 383,
              "midi": 55,
              "velocity": 100
            },
            {
              "start": 20736,
              "duration": 383,
              "midi": 48,
              "velocity": 100
            },
            {
              "start": 21120,
              "duration": 383,
              "midi": 46,
              "velocity": 100
            },
            {
              "start": 21120,
              "duration": 383,
              "midi": 63,
              "velocity": 100
            },
            {
              "start": 21120,
              "duration": 383,
              "midi": 58,
              "velocity": 100
            },
            {
              "start": 21120,
              "duration": 383,
              "midi": 51,
              "velocity": 100
            },
            {
              "start": 21504,
              "duration": 383,
              "midi": 43,
              "velocity": 100
            },
            {
              "start": 21504,
              "duration": 383,
              "midi": 60,
              "velocity": 100
            },
            {
              "start": 21504,
              "duration": 383,
              "midi": 55,
              "velocity": 100
            },
            {
              "start": 21504,
              "duration": 383,
              "midi": 48,
              "velocity": 100
            },
            {
              "start": 21888,
              "duration": 383,
              "midi": 46,
              "velocity": 100
            },
            {
              "start": 21888,
              "duration": 383,
              "midi": 63,
              "velocity": 100
            },
            {
              "start": 21888,
              "duration": 383,
              "midi": 58,
              "velocity": 100
            },
            {
              "start": 21888,
              "duration": 383,
              "midi": 51,
              "velocity": 100
            },
            {
              "start": 22272,
              "duration": 383,
              "midi": 43,
              "velocity": 100
            },
            {
              "start": 22272,
              "duration": 383,
              "midi": 60,
              "velocity": 100
            },
            {
              "start": 22272,
              "duration": 383,
              "midi": 55,
              "velocity": 100
            },
            {
              "start": 22272,
              "duration": 383,
              "midi": 48,
              "velocity": 100
            },
            {
              "start": 22656,
              "duration": 383,
              "midi": 46,
              "velocity": 100
            },
            {
              "start": 22656,
              "duration": 383,
              "midi": 63,
              "velocity": 100
            },
            {
              "start": 22656,
              "duration": 383,
              "midi": 58,
              "velocity": 100
            },
            {
              "start": 22656,
              "duration": 383,
              "midi": 51,
              "velocity": 100
            },
            {
              "start": 23040,
              "duration": 383,
              "midi": 43,
              "velocity": 100
            },
            {
              "start": 23040,
              "duration": 383,
              "midi": 60,
              "velocity": 100
            },
            {
              "start": 23040,
              "duration": 383,
              "midi": 55,
              "velocity": 100
            },
            {
              "start": 23040,
              "duration": 383,
              "midi": 48,
              "velocity": 100
            },
            {
              "start": 23424,
              "duration": 95,
              "midi": 46,
              "velocity": 100
            },
            {
              "start": 23424,
              "duration": 95,
              "midi": 63,
              "velocity": 100
            },
            {
              "start": 23424,
              "duration": 95,
              "midi": 58,
              "velocity": 100
            },
            {
              "start": 23424,
              "duration": 95,
              "midi": 51,
              "velocity": 100
            },
            {
              "start": 23520,
              "duration": 64,
              "midi": 46,
              "velocity": 100
            },
            {
              "start": 23520,
              "duration": 64,
              "midi": 63,
              "velocity": 100
            },
            {
              "start": 23520,
              "duration": 64,
              "midi": 58,
              "velocity": 100
            },
            {
              "start": 23520,
              "duration": 64,
              "midi": 51,
              "velocity": 100
            },
            {
              "start": 32256,
              "duration": 383,
              "midi": 43,
              "velocity": 100
            },
            {
              "start": 32256,
              "duration": 383,
              "midi": 60,
              "velocity": 100
            },
            {
              "start": 32256,
              "duration": 383,
              "midi": 55,
              "velocity": 100
            },
            {
              "start": 32256,
              "duration": 383,
              "midi": 48,
              "velocity": 100
            },
            {
              "start": 32640,
              "duration": 383,
              "midi": 46,
              "velocity": 100
            },
            {
              "start": 32640,
              "duration": 383,
              "midi": 63,
              "velocity": 100
            },
            {
              "start": 32640,
              "duration": 383,
              "midi": 58,
              "velocity": 100
            },
            {
              "start": 32640,
              "duration": 383,
              "midi": 51,
              "velocity": 100
            },
            {
              "start": 33024,
              "duration": 383,
              "midi": 43,
              "velocity": 100
            },
            {
              "start": 33024,
              "duration": 383,
              "midi": 60,
              "velocity": 100
            },
            {
              "start": 33024,
              "duration": 383,
              "midi": 55,
              "velocity": 100
            },
            {
              "start": 33024,
              "duration": 383,
              "midi": 48,
              "velocity": 100
            },
            {
              "start": 33408,
              "duration": 383,
              "midi": 46,
              "velocity": 100
            },
            {
              "start": 33408,
              "duration": 383,
              "midi": 63,
              "velocity": 100
            },
            {
              "start": 33408,
              "duration": 383,
              "midi": 58,
              "velocity": 100
            },
            {
              "start": 33408,
              "duration": 383,
              "midi": 51,
              "velocity": 100
            },
            {
              "start": 33792,
              "duration": 383,
              "midi": 43,
              "velocity": 100
            },
            {
              "start": 33792,
              "duration": 383,
              "midi": 60,
              "velocity": 100
            },
            {
              "start": 33792,
              "duration": 383,
              "midi": 55,
              "velocity": 100
            },
            {
              "start": 33792,
              "duration": 383,
              "midi": 48,
              "velocity": 100
            },
            {
              "start": 34176,
              "duration": 383,
              "midi": 46,
              "velocity": 100
            },
            {
              "start": 34176,
              "duration": 383,
              "midi": 63,
              "velocity": 100
            },
            {
              "start": 34176,
              "duration": 383,
              "midi": 58,
              "velocity": 100
            },
            {
              "start": 34176,
              "duration": 383,
              "midi": 51,
              "velocity": 100
            },
            {
              "start": 34560,
              "duration": 383,
              "midi": 43,
              "velocity": 100
            },
            {
              "start": 34560,
              "duration": 383,
              "midi": 60,
              "velocity": 100
            },
            {
              "start": 34560,
              "duration": 383,
              "midi": 55,
              "velocity": 100
            },
            {
              "start": 34560,
              "duration": 383,
              "midi": 48,
              "velocity": 100
            },
            {
              "start": 34944,
              "duration": 95,
              "midi": 46,
              "velocity": 100
            },
            {
              "start": 34944,
              "duration": 95,
              "midi": 63,
              "velocity": 100
            },
            {
              "start": 34944,
              "duration": 95,
              "midi": 58,
              "velocity": 100
            },
            {
              "start": 34944,
              "duration": 95,
              "midi": 51,
              "velocity": 100
            },
            {
              "start": 35040,
              "duration": 64,
              "midi": 46,
              "velocity": 100
            },
            {
              "start": 35040,
              "duration": 64,
              "midi": 63,
              "velocity": 100
            },
            {
              "start": 35040,
              "duration": 64,
              "midi": 58,
              "velocity": 100
            },
            {
              "start": 35040,
              "duration": 64,
              "midi": 51,
              "velocity": 100
            }
          ]
        }
      ],
      "enginePresetName": "factory:KEY E.Piano"
    },
    {
      "id": "lane-mpr2auvs-e",
      "engineId": "subtractive",
      "name": "LEAD Square",
      "clips": [
        {
          "id": "clip-mpr2auvs-d",
          "name": "LEAD Square",
          "lengthBars": 152,
          "notes": [
            {
              "start": 0,
              "duration": 47,
              "midi": 48,
              "velocity": 71
            },
            {
              "start": 0,
              "duration": 47,
              "midi": 36,
              "velocity": 63
            },
            {
              "start": 144,
              "duration": 16,
              "midi": 60,
              "velocity": 63
            },
            {
              "start": 144,
              "duration": 16,
              "midi": 48,
              "velocity": 63
            },
            {
              "start": 240,
              "duration": 16,
              "midi": 63,
              "velocity": 63
            },
            {
              "start": 240,
              "duration": 16,
              "midi": 51,
              "velocity": 63
            },
            {
              "start": 336,
              "duration": 16,
              "midi": 60,
              "velocity": 63
            },
            {
              "start": 336,
              "duration": 16,
              "midi": 48,
              "velocity": 63
            },
            {
              "start": 432,
              "duration": 16,
              "midi": 56,
              "velocity": 63
            },
            {
              "start": 432,
              "duration": 16,
              "midi": 44,
              "velocity": 63
            },
            {
              "start": 480,
              "duration": 47,
              "midi": 56,
              "velocity": 63
            },
            {
              "start": 480,
              "duration": 47,
              "midi": 44,
              "velocity": 63
            },
            {
              "start": 528,
              "duration": 32,
              "midi": 48,
              "velocity": 71
            },
            {
              "start": 528,
              "duration": 32,
              "midi": 60,
              "velocity": 71
            },
            {
              "start": 576,
              "duration": 32,
              "midi": 43,
              "velocity": 71
            },
            {
              "start": 576,
              "duration": 32,
              "midi": 55,
              "velocity": 71
            },
            {
              "start": 624,
              "duration": 32,
              "midi": 43,
              "velocity": 71
            },
            {
              "start": 624,
              "duration": 32,
              "midi": 55,
              "velocity": 71
            },
            {
              "start": 672,
              "duration": 32,
              "midi": 43,
              "velocity": 71
            },
            {
              "start": 672,
              "duration": 32,
              "midi": 55,
              "velocity": 71
            },
            {
              "start": 720,
              "duration": 31,
              "midi": 48,
              "velocity": 71
            },
            {
              "start": 720,
              "duration": 31,
              "midi": 60,
              "velocity": 71
            },
            {
              "start": 768,
              "duration": 47,
              "midi": 48,
              "velocity": 71
            },
            {
              "start": 768,
              "duration": 47,
              "midi": 36,
              "velocity": 63
            },
            {
              "start": 912,
              "duration": 16,
              "midi": 60,
              "velocity": 63
            },
            {
              "start": 912,
              "duration": 16,
              "midi": 48,
              "velocity": 63
            },
            {
              "start": 1008,
              "duration": 16,
              "midi": 63,
              "velocity": 63
            },
            {
              "start": 1008,
              "duration": 16,
              "midi": 51,
              "velocity": 63
            },
            {
              "start": 1104,
              "duration": 16,
              "midi": 60,
              "velocity": 63
            },
            {
              "start": 1104,
              "duration": 16,
              "midi": 48,
              "velocity": 63
            },
            {
              "start": 1200,
              "duration": 16,
              "midi": 56,
              "velocity": 63
            },
            {
              "start": 1200,
              "duration": 16,
              "midi": 44,
              "velocity": 63
            },
            {
              "start": 1248,
              "duration": 47,
              "midi": 56,
              "velocity": 63
            },
            {
              "start": 1248,
              "duration": 47,
              "midi": 44,
              "velocity": 63
            },
            {
              "start": 1296,
              "duration": 32,
              "midi": 48,
              "velocity": 71
            },
            {
              "start": 1296,
              "duration": 32,
              "midi": 60,
              "velocity": 71
            },
            {
              "start": 1344,
              "duration": 32,
              "midi": 43,
              "velocity": 71
            },
            {
              "start": 1344,
              "duration": 32,
              "midi": 55,
              "velocity": 71
            },
            {
              "start": 1392,
              "duration": 32,
              "midi": 43,
              "velocity": 71
            },
            {
              "start": 1392,
              "duration": 32,
              "midi": 55,
              "velocity": 71
            },
            {
              "start": 1440,
              "duration": 32,
              "midi": 43,
              "velocity": 71
            },
            {
              "start": 1440,
              "duration": 32,
              "midi": 55,
              "velocity": 71
            },
            {
              "start": 1488,
              "duration": 31,
              "midi": 48,
              "velocity": 71
            },
            {
              "start": 1488,
              "duration": 31,
              "midi": 60,
              "velocity": 71
            },
            {
              "start": 1536,
              "duration": 47,
              "midi": 48,
              "velocity": 71
            },
            {
              "start": 1536,
              "duration": 47,
              "midi": 36,
              "velocity": 63
            },
            {
              "start": 1680,
              "duration": 16,
              "midi": 60,
              "velocity": 63
            },
            {
              "start": 1680,
              "duration": 16,
              "midi": 48,
              "velocity": 63
            },
            {
              "start": 1776,
              "duration": 16,
              "midi": 63,
              "velocity": 63
            },
            {
              "start": 1776,
              "duration": 16,
              "midi": 51,
              "velocity": 63
            },
            {
              "start": 1872,
              "duration": 16,
              "midi": 60,
              "velocity": 63
            },
            {
              "start": 1872,
              "duration": 16,
              "midi": 48,
              "velocity": 63
            },
            {
              "start": 1968,
              "duration": 16,
              "midi": 56,
              "velocity": 63
            },
            {
              "start": 1968,
              "duration": 16,
              "midi": 44,
              "velocity": 63
            },
            {
              "start": 2016,
              "duration": 47,
              "midi": 56,
              "velocity": 63
            },
            {
              "start": 2016,
              "duration": 47,
              "midi": 44,
              "velocity": 63
            },
            {
              "start": 2064,
              "duration": 32,
              "midi": 48,
              "velocity": 71
            },
            {
              "start": 2064,
              "duration": 32,
              "midi": 60,
              "velocity": 71
            },
            {
              "start": 2112,
              "duration": 32,
              "midi": 43,
              "velocity": 71
            },
            {
              "start": 2112,
              "duration": 32,
              "midi": 55,
              "velocity": 71
            },
            {
              "start": 2160,
              "duration": 32,
              "midi": 43,
              "velocity": 71
            },
            {
              "start": 2160,
              "duration": 32,
              "midi": 55,
              "velocity": 71
            },
            {
              "start": 2208,
              "duration": 32,
              "midi": 43,
              "velocity": 71
            },
            {
              "start": 2208,
              "duration": 32,
              "midi": 55,
              "velocity": 71
            },
            {
              "start": 2256,
              "duration": 31,
              "midi": 48,
              "velocity": 71
            },
            {
              "start": 2256,
              "duration": 31,
              "midi": 60,
              "velocity": 71
            },
            {
              "start": 2304,
              "duration": 47,
              "midi": 48,
              "velocity": 71
            },
            {
              "start": 2304,
              "duration": 47,
              "midi": 36,
              "velocity": 63
            },
            {
              "start": 2448,
              "duration": 16,
              "midi": 60,
              "velocity": 63
            },
            {
              "start": 2448,
              "duration": 16,
              "midi": 48,
              "velocity": 63
            },
            {
              "start": 2544,
              "duration": 16,
              "midi": 63,
              "velocity": 63
            },
            {
              "start": 2544,
              "duration": 16,
              "midi": 51,
              "velocity": 63
            },
            {
              "start": 2640,
              "duration": 16,
              "midi": 60,
              "velocity": 63
            },
            {
              "start": 2640,
              "duration": 16,
              "midi": 48,
              "velocity": 63
            },
            {
              "start": 2736,
              "duration": 16,
              "midi": 56,
              "velocity": 63
            },
            {
              "start": 2736,
              "duration": 16,
              "midi": 44,
              "velocity": 63
            },
            {
              "start": 2784,
              "duration": 47,
              "midi": 56,
              "velocity": 63
            },
            {
              "start": 2784,
              "duration": 47,
              "midi": 44,
              "velocity": 63
            },
            {
              "start": 2832,
              "duration": 32,
              "midi": 48,
              "velocity": 71
            },
            {
              "start": 2832,
              "duration": 32,
              "midi": 60,
              "velocity": 71
            },
            {
              "start": 2880,
              "duration": 32,
              "midi": 43,
              "velocity": 71
            },
            {
              "start": 2880,
              "duration": 32,
              "midi": 55,
              "velocity": 71
            },
            {
              "start": 2928,
              "duration": 32,
              "midi": 43,
              "velocity": 71
            },
            {
              "start": 2928,
              "duration": 32,
              "midi": 55,
              "velocity": 71
            },
            {
              "start": 2976,
              "duration": 32,
              "midi": 43,
              "velocity": 71
            },
            {
              "start": 2976,
              "duration": 32,
              "midi": 55,
              "velocity": 71
            },
            {
              "start": 3024,
              "duration": 31,
              "midi": 48,
              "velocity": 71
            },
            {
              "start": 3024,
              "duration": 31,
              "midi": 60,
              "velocity": 71
            },
            {
              "start": 3072,
              "duration": 95,
              "midi": 44,
              "velocity": 71
            },
            {
              "start": 3168,
              "duration": 47,
              "midi": 56,
              "velocity": 71
            },
            {
              "start": 3216,
              "duration": 95,
              "midi": 44,
              "velocity": 71
            },
            {
              "start": 3312,
              "duration": 47,
              "midi": 56,
              "velocity": 71
            },
            {
              "start": 3360,
              "duration": 47,
              "midi": 44,
              "velocity": 71
            },
            {
              "start": 3408,
              "duration": 47,
              "midi": 56,
              "velocity": 71
            },
            {
              "start": 3456,
              "duration": 95,
              "midi": 43,
              "velocity": 71
            },
            {
              "start": 3552,
              "duration": 47,
              "midi": 55,
              "velocity": 71
            },
            {
              "start": 3600,
              "duration": 95,
              "midi": 43,
              "velocity": 71
            },
            {
              "start": 3696,
              "duration": 47,
              "midi": 55,
              "velocity": 71
            },
            {
              "start": 3744,
              "duration": 47,
              "midi": 43,
              "velocity": 71
            },
            {
              "start": 3792,
              "duration": 47,
              "midi": 55,
              "velocity": 71
            },
            {
              "start": 3840,
              "duration": 95,
              "midi": 48,
              "velocity": 71
            },
            {
              "start": 3936,
              "duration": 47,
              "midi": 48,
              "velocity": 71
            },
            {
              "start": 3984,
              "duration": 47,
              "midi": 48,
              "velocity": 71
            },
            {
              "start": 4032,
              "duration": 47,
              "midi": 48,
              "velocity": 71
            },
            {
              "start": 4080,
              "duration": 47,
              "midi": 48,
              "velocity": 71
            },
            {
              "start": 4128,
              "duration": 95,
              "midi": 48,
              "velocity": 71
            },
            {
              "start": 4224,
              "duration": 95,
              "midi": 41,
              "velocity": 71
            },
            {
              "start": 4320,
              "duration": 47,
              "midi": 53,
              "velocity": 71
            },
            {
              "start": 4368,
              "duration": 95,
              "midi": 41,
              "velocity": 71
            },
            {
              "start": 4464,
              "duration": 47,
              "midi": 53,
              "velocity": 71
            },
            {
              "start": 4512,
              "duration": 47,
              "midi": 41,
              "velocity": 71
            },
            {
              "start": 4560,
              "duration": 47,
              "midi": 53,
              "velocity": 71
            },
            {
              "start": 4608,
              "duration": 95,
              "midi": 44,
              "velocity": 71
            },
            {
              "start": 4704,
              "duration": 47,
              "midi": 56,
              "velocity": 71
            },
            {
              "start": 4752,
              "duration": 95,
              "midi": 44,
              "velocity": 71
            },
            {
              "start": 4848,
              "duration": 47,
              "midi": 56,
              "velocity": 71
            },
            {
              "start": 4896,
              "duration": 47,
              "midi": 44,
              "velocity": 71
            },
            {
              "start": 4944,
              "duration": 47,
              "midi": 56,
              "velocity": 71
            },
            {
              "start": 4992,
              "duration": 95,
              "midi": 43,
              "velocity": 71
            },
            {
              "start": 5088,
              "duration": 47,
              "midi": 55,
              "velocity": 71
            },
            {
              "start": 5136,
              "duration": 95,
              "midi": 43,
              "velocity": 71
            },
            {
              "start": 5232,
              "duration": 47,
              "midi": 55,
              "velocity": 71
            },
            {
              "start": 5280,
              "duration": 47,
              "midi": 43,
              "velocity": 71
            },
            {
              "start": 5328,
              "duration": 47,
              "midi": 55,
              "velocity": 71
            },
            {
              "start": 5376,
              "duration": 47,
              "midi": 48,
              "velocity": 71
            },
            {
              "start": 5376,
              "duration": 47,
              "midi": 36,
              "velocity": 63
            },
            {
              "start": 5520,
              "duration": 16,
              "midi": 60,
              "velocity": 63
            },
            {
              "start": 5520,
              "duration": 16,
              "midi": 48,
              "velocity": 63
            },
            {
              "start": 5616,
              "duration": 16,
              "midi": 63,
              "velocity": 63
            },
            {
              "start": 5616,
              "duration": 16,
              "midi": 51,
              "velocity": 63
            },
            {
              "start": 5712,
              "duration": 16,
              "midi": 60,
              "velocity": 63
            },
            {
              "start": 5712,
              "duration": 16,
              "midi": 48,
              "velocity": 63
            },
            {
              "start": 5808,
              "duration": 16,
              "midi": 56,
              "velocity": 63
            },
            {
              "start": 5808,
              "duration": 16,
              "midi": 44,
              "velocity": 63
            },
            {
              "start": 5856,
              "duration": 47,
              "midi": 56,
              "velocity": 63
            },
            {
              "start": 5856,
              "duration": 47,
              "midi": 44,
              "velocity": 63
            },
            {
              "start": 5904,
              "duration": 32,
              "midi": 48,
              "velocity": 71
            },
            {
              "start": 5904,
              "duration": 32,
              "midi": 60,
              "velocity": 71
            },
            {
              "start": 5952,
              "duration": 32,
              "midi": 43,
              "velocity": 71
            },
            {
              "start": 5952,
              "duration": 32,
              "midi": 55,
              "velocity": 71
            },
            {
              "start": 6000,
              "duration": 32,
              "midi": 43,
              "velocity": 71
            },
            {
              "start": 6000,
              "duration": 32,
              "midi": 55,
              "velocity": 71
            },
            {
              "start": 6048,
              "duration": 32,
              "midi": 43,
              "velocity": 71
            },
            {
              "start": 6048,
              "duration": 32,
              "midi": 55,
              "velocity": 71
            },
            {
              "start": 6096,
              "duration": 31,
              "midi": 48,
              "velocity": 71
            },
            {
              "start": 6096,
              "duration": 31,
              "midi": 60,
              "velocity": 71
            },
            {
              "start": 6144,
              "duration": 47,
              "midi": 48,
              "velocity": 71
            },
            {
              "start": 6144,
              "duration": 47,
              "midi": 36,
              "velocity": 63
            },
            {
              "start": 6288,
              "duration": 16,
              "midi": 60,
              "velocity": 63
            },
            {
              "start": 6288,
              "duration": 16,
              "midi": 48,
              "velocity": 63
            },
            {
              "start": 6384,
              "duration": 16,
              "midi": 63,
              "velocity": 63
            },
            {
              "start": 6384,
              "duration": 16,
              "midi": 51,
              "velocity": 63
            },
            {
              "start": 6480,
              "duration": 16,
              "midi": 60,
              "velocity": 63
            },
            {
              "start": 6480,
              "duration": 16,
              "midi": 48,
              "velocity": 63
            },
            {
              "start": 6576,
              "duration": 16,
              "midi": 56,
              "velocity": 63
            },
            {
              "start": 6576,
              "duration": 16,
              "midi": 44,
              "velocity": 63
            },
            {
              "start": 6624,
              "duration": 47,
              "midi": 56,
              "velocity": 63
            },
            {
              "start": 6624,
              "duration": 47,
              "midi": 44,
              "velocity": 63
            },
            {
              "start": 6672,
              "duration": 32,
              "midi": 48,
              "velocity": 71
            },
            {
              "start": 6672,
              "duration": 32,
              "midi": 60,
              "velocity": 71
            },
            {
              "start": 6720,
              "duration": 32,
              "midi": 43,
              "velocity": 71
            },
            {
              "start": 6720,
              "duration": 32,
              "midi": 55,
              "velocity": 71
            },
            {
              "start": 6768,
              "duration": 32,
              "midi": 43,
              "velocity": 71
            },
            {
              "start": 6768,
              "duration": 32,
              "midi": 55,
              "velocity": 71
            },
            {
              "start": 6816,
              "duration": 32,
              "midi": 43,
              "velocity": 71
            },
            {
              "start": 6816,
              "duration": 32,
              "midi": 55,
              "velocity": 71
            },
            {
              "start": 6864,
              "duration": 31,
              "midi": 48,
              "velocity": 71
            },
            {
              "start": 6864,
              "duration": 31,
              "midi": 60,
              "velocity": 71
            },
            {
              "start": 6912,
              "duration": 47,
              "midi": 48,
              "velocity": 71
            },
            {
              "start": 6912,
              "duration": 47,
              "midi": 36,
              "velocity": 63
            },
            {
              "start": 7056,
              "duration": 16,
              "midi": 60,
              "velocity": 63
            },
            {
              "start": 7056,
              "duration": 16,
              "midi": 48,
              "velocity": 63
            },
            {
              "start": 7152,
              "duration": 16,
              "midi": 63,
              "velocity": 63
            },
            {
              "start": 7152,
              "duration": 16,
              "midi": 51,
              "velocity": 63
            },
            {
              "start": 7248,
              "duration": 16,
              "midi": 60,
              "velocity": 63
            },
            {
              "start": 7248,
              "duration": 16,
              "midi": 48,
              "velocity": 63
            },
            {
              "start": 7344,
              "duration": 16,
              "midi": 56,
              "velocity": 63
            },
            {
              "start": 7344,
              "duration": 16,
              "midi": 44,
              "velocity": 63
            },
            {
              "start": 7392,
              "duration": 47,
              "midi": 56,
              "velocity": 63
            },
            {
              "start": 7392,
              "duration": 47,
              "midi": 44,
              "velocity": 63
            },
            {
              "start": 7440,
              "duration": 32,
              "midi": 48,
              "velocity": 71
            },
            {
              "start": 7440,
              "duration": 32,
              "midi": 60,
              "velocity": 71
            },
            {
              "start": 7488,
              "duration": 32,
              "midi": 43,
              "velocity": 71
            },
            {
              "start": 7488,
              "duration": 32,
              "midi": 55,
              "velocity": 71
            },
            {
              "start": 7536,
              "duration": 32,
              "midi": 43,
              "velocity": 71
            },
            {
              "start": 7536,
              "duration": 32,
              "midi": 55,
              "velocity": 71
            },
            {
              "start": 7584,
              "duration": 32,
              "midi": 43,
              "velocity": 71
            },
            {
              "start": 7584,
              "duration": 32,
              "midi": 55,
              "velocity": 71
            },
            {
              "start": 7632,
              "duration": 31,
              "midi": 48,
              "velocity": 71
            },
            {
              "start": 7632,
              "duration": 31,
              "midi": 60,
              "velocity": 71
            },
            {
              "start": 7680,
              "duration": 47,
              "midi": 48,
              "velocity": 71
            },
            {
              "start": 7680,
              "duration": 47,
              "midi": 36,
              "velocity": 63
            },
            {
              "start": 7824,
              "duration": 16,
              "midi": 60,
              "velocity": 63
            },
            {
              "start": 7824,
              "duration": 16,
              "midi": 48,
              "velocity": 63
            },
            {
              "start": 7920,
              "duration": 16,
              "midi": 63,
              "velocity": 63
            },
            {
              "start": 7920,
              "duration": 16,
              "midi": 51,
              "velocity": 63
            },
            {
              "start": 8016,
              "duration": 16,
              "midi": 60,
              "velocity": 63
            },
            {
              "start": 8016,
              "duration": 16,
              "midi": 48,
              "velocity": 63
            },
            {
              "start": 8112,
              "duration": 16,
              "midi": 56,
              "velocity": 63
            },
            {
              "start": 8112,
              "duration": 16,
              "midi": 44,
              "velocity": 63
            },
            {
              "start": 8160,
              "duration": 47,
              "midi": 56,
              "velocity": 63
            },
            {
              "start": 8160,
              "duration": 47,
              "midi": 44,
              "velocity": 63
            },
            {
              "start": 8208,
              "duration": 32,
              "midi": 48,
              "velocity": 71
            },
            {
              "start": 8208,
              "duration": 32,
              "midi": 60,
              "velocity": 71
            },
            {
              "start": 8256,
              "duration": 32,
              "midi": 43,
              "velocity": 71
            },
            {
              "start": 8256,
              "duration": 32,
              "midi": 55,
              "velocity": 71
            },
            {
              "start": 8304,
              "duration": 32,
              "midi": 43,
              "velocity": 71
            },
            {
              "start": 8304,
              "duration": 32,
              "midi": 55,
              "velocity": 71
            },
            {
              "start": 8352,
              "duration": 32,
              "midi": 43,
              "velocity": 71
            },
            {
              "start": 8352,
              "duration": 32,
              "midi": 55,
              "velocity": 71
            },
            {
              "start": 8400,
              "duration": 31,
              "midi": 48,
              "velocity": 71
            },
            {
              "start": 8400,
              "duration": 31,
              "midi": 60,
              "velocity": 71
            },
            {
              "start": 8448,
              "duration": 47,
              "midi": 48,
              "velocity": 71
            },
            {
              "start": 8448,
              "duration": 47,
              "midi": 36,
              "velocity": 63
            },
            {
              "start": 8592,
              "duration": 16,
              "midi": 60,
              "velocity": 63
            },
            {
              "start": 8592,
              "duration": 16,
              "midi": 48,
              "velocity": 63
            },
            {
              "start": 8688,
              "duration": 16,
              "midi": 63,
              "velocity": 63
            },
            {
              "start": 8688,
              "duration": 16,
              "midi": 51,
              "velocity": 63
            },
            {
              "start": 8784,
              "duration": 16,
              "midi": 60,
              "velocity": 63
            },
            {
              "start": 8784,
              "duration": 16,
              "midi": 48,
              "velocity": 63
            },
            {
              "start": 8880,
              "duration": 16,
              "midi": 56,
              "velocity": 63
            },
            {
              "start": 8880,
              "duration": 16,
              "midi": 44,
              "velocity": 63
            },
            {
              "start": 8928,
              "duration": 47,
              "midi": 56,
              "velocity": 63
            },
            {
              "start": 8928,
              "duration": 47,
              "midi": 44,
              "velocity": 63
            },
            {
              "start": 8976,
              "duration": 32,
              "midi": 48,
              "velocity": 71
            },
            {
              "start": 8976,
              "duration": 32,
              "midi": 60,
              "velocity": 71
            },
            {
              "start": 9024,
              "duration": 32,
              "midi": 43,
              "velocity": 71
            },
            {
              "start": 9024,
              "duration": 32,
              "midi": 55,
              "velocity": 71
            },
            {
              "start": 9072,
              "duration": 32,
              "midi": 43,
              "velocity": 71
            },
            {
              "start": 9072,
              "duration": 32,
              "midi": 55,
              "velocity": 71
            },
            {
              "start": 9120,
              "duration": 32,
              "midi": 43,
              "velocity": 71
            },
            {
              "start": 9120,
              "duration": 32,
              "midi": 55,
              "velocity": 71
            },
            {
              "start": 9168,
              "duration": 31,
              "midi": 48,
              "velocity": 71
            },
            {
              "start": 9168,
              "duration": 31,
              "midi": 60,
              "velocity": 71
            },
            {
              "start": 9216,
              "duration": 47,
              "midi": 48,
              "velocity": 71
            },
            {
              "start": 9216,
              "duration": 47,
              "midi": 36,
              "velocity": 63
            },
            {
              "start": 9360,
              "duration": 16,
              "midi": 60,
              "velocity": 63
            },
            {
              "start": 9360,
              "duration": 16,
              "midi": 48,
              "velocity": 63
            },
            {
              "start": 9456,
              "duration": 16,
              "midi": 63,
              "velocity": 63
            },
            {
              "start": 9456,
              "duration": 16,
              "midi": 51,
              "velocity": 63
            },
            {
              "start": 9552,
              "duration": 16,
              "midi": 60,
              "velocity": 63
            },
            {
              "start": 9552,
              "duration": 16,
              "midi": 48,
              "velocity": 63
            },
            {
              "start": 9648,
              "duration": 16,
              "midi": 56,
              "velocity": 63
            },
            {
              "start": 9648,
              "duration": 16,
              "midi": 44,
              "velocity": 63
            },
            {
              "start": 9696,
              "duration": 47,
              "midi": 56,
              "velocity": 63
            },
            {
              "start": 9696,
              "duration": 47,
              "midi": 44,
              "velocity": 63
            },
            {
              "start": 9744,
              "duration": 32,
              "midi": 48,
              "velocity": 71
            },
            {
              "start": 9744,
              "duration": 32,
              "midi": 60,
              "velocity": 71
            },
            {
              "start": 9792,
              "duration": 32,
              "midi": 43,
              "velocity": 71
            },
            {
              "start": 9792,
              "duration": 32,
              "midi": 55,
              "velocity": 71
            },
            {
              "start": 9840,
              "duration": 32,
              "midi": 43,
              "velocity": 71
            },
            {
              "start": 9840,
              "duration": 32,
              "midi": 55,
              "velocity": 71
            },
            {
              "start": 9888,
              "duration": 32,
              "midi": 43,
              "velocity": 71
            },
            {
              "start": 9888,
              "duration": 32,
              "midi": 55,
              "velocity": 71
            },
            {
              "start": 9936,
              "duration": 31,
              "midi": 48,
              "velocity": 71
            },
            {
              "start": 9936,
              "duration": 31,
              "midi": 60,
              "velocity": 71
            },
            {
              "start": 9984,
              "duration": 47,
              "midi": 48,
              "velocity": 71
            },
            {
              "start": 9984,
              "duration": 47,
              "midi": 36,
              "velocity": 63
            },
            {
              "start": 10128,
              "duration": 16,
              "midi": 60,
              "velocity": 63
            },
            {
              "start": 10128,
              "duration": 16,
              "midi": 48,
              "velocity": 63
            },
            {
              "start": 10224,
              "duration": 16,
              "midi": 63,
              "velocity": 63
            },
            {
              "start": 10224,
              "duration": 16,
              "midi": 51,
              "velocity": 63
            },
            {
              "start": 10320,
              "duration": 16,
              "midi": 60,
              "velocity": 63
            },
            {
              "start": 10320,
              "duration": 16,
              "midi": 48,
              "velocity": 63
            },
            {
              "start": 10416,
              "duration": 16,
              "midi": 56,
              "velocity": 63
            },
            {
              "start": 10416,
              "duration": 16,
              "midi": 44,
              "velocity": 63
            },
            {
              "start": 10464,
              "duration": 47,
              "midi": 56,
              "velocity": 63
            },
            {
              "start": 10464,
              "duration": 47,
              "midi": 44,
              "velocity": 63
            },
            {
              "start": 10512,
              "duration": 32,
              "midi": 48,
              "velocity": 71
            },
            {
              "start": 10512,
              "duration": 32,
              "midi": 60,
              "velocity": 71
            },
            {
              "start": 10560,
              "duration": 32,
              "midi": 43,
              "velocity": 71
            },
            {
              "start": 10560,
              "duration": 32,
              "midi": 55,
              "velocity": 71
            },
            {
              "start": 10608,
              "duration": 32,
              "midi": 43,
              "velocity": 71
            },
            {
              "start": 10608,
              "duration": 32,
              "midi": 55,
              "velocity": 71
            },
            {
              "start": 10656,
              "duration": 32,
              "midi": 43,
              "velocity": 71
            },
            {
              "start": 10656,
              "duration": 32,
              "midi": 55,
              "velocity": 71
            },
            {
              "start": 10704,
              "duration": 31,
              "midi": 48,
              "velocity": 71
            },
            {
              "start": 10704,
              "duration": 31,
              "midi": 60,
              "velocity": 71
            },
            {
              "start": 10752,
              "duration": 47,
              "midi": 48,
              "velocity": 71
            },
            {
              "start": 10752,
              "duration": 47,
              "midi": 36,
              "velocity": 63
            },
            {
              "start": 10896,
              "duration": 16,
              "midi": 60,
              "velocity": 63
            },
            {
              "start": 10896,
              "duration": 16,
              "midi": 48,
              "velocity": 63
            },
            {
              "start": 10992,
              "duration": 16,
              "midi": 63,
              "velocity": 63
            },
            {
              "start": 10992,
              "duration": 16,
              "midi": 51,
              "velocity": 63
            },
            {
              "start": 11088,
              "duration": 16,
              "midi": 60,
              "velocity": 63
            },
            {
              "start": 11088,
              "duration": 16,
              "midi": 48,
              "velocity": 63
            },
            {
              "start": 11184,
              "duration": 16,
              "midi": 56,
              "velocity": 63
            },
            {
              "start": 11184,
              "duration": 16,
              "midi": 44,
              "velocity": 63
            },
            {
              "start": 11232,
              "duration": 47,
              "midi": 56,
              "velocity": 63
            },
            {
              "start": 11232,
              "duration": 47,
              "midi": 44,
              "velocity": 63
            },
            {
              "start": 11280,
              "duration": 32,
              "midi": 48,
              "velocity": 71
            },
            {
              "start": 11280,
              "duration": 32,
              "midi": 60,
              "velocity": 71
            },
            {
              "start": 11328,
              "duration": 32,
              "midi": 43,
              "velocity": 71
            },
            {
              "start": 11328,
              "duration": 32,
              "midi": 55,
              "velocity": 71
            },
            {
              "start": 11376,
              "duration": 32,
              "midi": 43,
              "velocity": 71
            },
            {
              "start": 11376,
              "duration": 32,
              "midi": 55,
              "velocity": 71
            },
            {
              "start": 11424,
              "duration": 32,
              "midi": 43,
              "velocity": 71
            },
            {
              "start": 11424,
              "duration": 32,
              "midi": 55,
              "velocity": 71
            },
            {
              "start": 11472,
              "duration": 31,
              "midi": 48,
              "velocity": 71
            },
            {
              "start": 11472,
              "duration": 31,
              "midi": 60,
              "velocity": 71
            },
            {
              "start": 11520,
              "duration": 95,
              "midi": 44,
              "velocity": 71
            },
            {
              "start": 11616,
              "duration": 47,
              "midi": 56,
              "velocity": 71
            },
            {
              "start": 11664,
              "duration": 95,
              "midi": 44,
              "velocity": 71
            },
            {
              "start": 11760,
              "duration": 47,
              "midi": 56,
              "velocity": 71
            },
            {
              "start": 11808,
              "duration": 47,
              "midi": 44,
              "velocity": 71
            },
            {
              "start": 11856,
              "duration": 47,
              "midi": 56,
              "velocity": 71
            },
            {
              "start": 11904,
              "duration": 95,
              "midi": 43,
              "velocity": 71
            },
            {
              "start": 12000,
              "duration": 47,
              "midi": 55,
              "velocity": 71
            },
            {
              "start": 12048,
              "duration": 95,
              "midi": 43,
              "velocity": 71
            },
            {
              "start": 12144,
              "duration": 47,
              "midi": 55,
              "velocity": 71
            },
            {
              "start": 12192,
              "duration": 47,
              "midi": 43,
              "velocity": 71
            },
            {
              "start": 12240,
              "duration": 47,
              "midi": 55,
              "velocity": 71
            },
            {
              "start": 12288,
              "duration": 95,
              "midi": 48,
              "velocity": 71
            },
            {
              "start": 12384,
              "duration": 47,
              "midi": 48,
              "velocity": 71
            },
            {
              "start": 12432,
              "duration": 47,
              "midi": 48,
              "velocity": 71
            },
            {
              "start": 12480,
              "duration": 47,
              "midi": 48,
              "velocity": 71
            },
            {
              "start": 12528,
              "duration": 47,
              "midi": 48,
              "velocity": 71
            },
            {
              "start": 12576,
              "duration": 95,
              "midi": 48,
              "velocity": 71
            },
            {
              "start": 12672,
              "duration": 95,
              "midi": 41,
              "velocity": 71
            },
            {
              "start": 12768,
              "duration": 47,
              "midi": 53,
              "velocity": 71
            },
            {
              "start": 12816,
              "duration": 95,
              "midi": 41,
              "velocity": 71
            },
            {
              "start": 12912,
              "duration": 47,
              "midi": 53,
              "velocity": 71
            },
            {
              "start": 12960,
              "duration": 47,
              "midi": 41,
              "velocity": 71
            },
            {
              "start": 13008,
              "duration": 47,
              "midi": 53,
              "velocity": 71
            },
            {
              "start": 13056,
              "duration": 95,
              "midi": 44,
              "velocity": 71
            },
            {
              "start": 13152,
              "duration": 47,
              "midi": 56,
              "velocity": 71
            },
            {
              "start": 13200,
              "duration": 95,
              "midi": 44,
              "velocity": 71
            },
            {
              "start": 13296,
              "duration": 47,
              "midi": 56,
              "velocity": 71
            },
            {
              "start": 13344,
              "duration": 47,
              "midi": 44,
              "velocity": 71
            },
            {
              "start": 13392,
              "duration": 47,
              "midi": 56,
              "velocity": 71
            },
            {
              "start": 13440,
              "duration": 95,
              "midi": 43,
              "velocity": 71
            },
            {
              "start": 13536,
              "duration": 47,
              "midi": 55,
              "velocity": 71
            },
            {
              "start": 13584,
              "duration": 95,
              "midi": 43,
              "velocity": 71
            },
            {
              "start": 13680,
              "duration": 47,
              "midi": 55,
              "velocity": 71
            },
            {
              "start": 13728,
              "duration": 47,
              "midi": 43,
              "velocity": 71
            },
            {
              "start": 13776,
              "duration": 47,
              "midi": 55,
              "velocity": 71
            },
            {
              "start": 13824,
              "duration": 47,
              "midi": 48,
              "velocity": 71
            },
            {
              "start": 13824,
              "duration": 47,
              "midi": 36,
              "velocity": 63
            },
            {
              "start": 13968,
              "duration": 16,
              "midi": 60,
              "velocity": 63
            },
            {
              "start": 13968,
              "duration": 16,
              "midi": 48,
              "velocity": 63
            },
            {
              "start": 14064,
              "duration": 16,
              "midi": 63,
              "velocity": 63
            },
            {
              "start": 14064,
              "duration": 16,
              "midi": 51,
              "velocity": 63
            },
            {
              "start": 14160,
              "duration": 16,
              "midi": 60,
              "velocity": 63
            },
            {
              "start": 14160,
              "duration": 16,
              "midi": 48,
              "velocity": 63
            },
            {
              "start": 14256,
              "duration": 16,
              "midi": 56,
              "velocity": 63
            },
            {
              "start": 14256,
              "duration": 16,
              "midi": 44,
              "velocity": 63
            },
            {
              "start": 14304,
              "duration": 47,
              "midi": 56,
              "velocity": 63
            },
            {
              "start": 14304,
              "duration": 47,
              "midi": 44,
              "velocity": 63
            },
            {
              "start": 14352,
              "duration": 32,
              "midi": 48,
              "velocity": 71
            },
            {
              "start": 14352,
              "duration": 32,
              "midi": 60,
              "velocity": 71
            },
            {
              "start": 14400,
              "duration": 32,
              "midi": 43,
              "velocity": 71
            },
            {
              "start": 14400,
              "duration": 32,
              "midi": 55,
              "velocity": 71
            },
            {
              "start": 14448,
              "duration": 32,
              "midi": 43,
              "velocity": 71
            },
            {
              "start": 14448,
              "duration": 32,
              "midi": 55,
              "velocity": 71
            },
            {
              "start": 14496,
              "duration": 32,
              "midi": 43,
              "velocity": 71
            },
            {
              "start": 14496,
              "duration": 32,
              "midi": 55,
              "velocity": 71
            },
            {
              "start": 14544,
              "duration": 31,
              "midi": 48,
              "velocity": 71
            },
            {
              "start": 14544,
              "duration": 31,
              "midi": 60,
              "velocity": 71
            },
            {
              "start": 14592,
              "duration": 47,
              "midi": 48,
              "velocity": 71
            },
            {
              "start": 14592,
              "duration": 47,
              "midi": 36,
              "velocity": 63
            },
            {
              "start": 14736,
              "duration": 16,
              "midi": 60,
              "velocity": 63
            },
            {
              "start": 14736,
              "duration": 16,
              "midi": 48,
              "velocity": 63
            },
            {
              "start": 14832,
              "duration": 16,
              "midi": 63,
              "velocity": 63
            },
            {
              "start": 14832,
              "duration": 16,
              "midi": 51,
              "velocity": 63
            },
            {
              "start": 14928,
              "duration": 16,
              "midi": 60,
              "velocity": 63
            },
            {
              "start": 14928,
              "duration": 16,
              "midi": 48,
              "velocity": 63
            },
            {
              "start": 15024,
              "duration": 16,
              "midi": 56,
              "velocity": 63
            },
            {
              "start": 15024,
              "duration": 16,
              "midi": 44,
              "velocity": 63
            },
            {
              "start": 15072,
              "duration": 47,
              "midi": 56,
              "velocity": 63
            },
            {
              "start": 15072,
              "duration": 47,
              "midi": 44,
              "velocity": 63
            },
            {
              "start": 15120,
              "duration": 32,
              "midi": 48,
              "velocity": 71
            },
            {
              "start": 15120,
              "duration": 32,
              "midi": 60,
              "velocity": 71
            },
            {
              "start": 15168,
              "duration": 32,
              "midi": 43,
              "velocity": 71
            },
            {
              "start": 15168,
              "duration": 32,
              "midi": 55,
              "velocity": 71
            },
            {
              "start": 15216,
              "duration": 32,
              "midi": 43,
              "velocity": 71
            },
            {
              "start": 15216,
              "duration": 32,
              "midi": 55,
              "velocity": 71
            },
            {
              "start": 15264,
              "duration": 32,
              "midi": 43,
              "velocity": 71
            },
            {
              "start": 15264,
              "duration": 32,
              "midi": 55,
              "velocity": 71
            },
            {
              "start": 15312,
              "duration": 31,
              "midi": 48,
              "velocity": 71
            },
            {
              "start": 15312,
              "duration": 31,
              "midi": 60,
              "velocity": 71
            },
            {
              "start": 15360,
              "duration": 47,
              "midi": 48,
              "velocity": 71
            },
            {
              "start": 15360,
              "duration": 47,
              "midi": 36,
              "velocity": 63
            },
            {
              "start": 15504,
              "duration": 16,
              "midi": 60,
              "velocity": 63
            },
            {
              "start": 15504,
              "duration": 16,
              "midi": 48,
              "velocity": 63
            },
            {
              "start": 15600,
              "duration": 16,
              "midi": 63,
              "velocity": 63
            },
            {
              "start": 15600,
              "duration": 16,
              "midi": 51,
              "velocity": 63
            },
            {
              "start": 15696,
              "duration": 16,
              "midi": 60,
              "velocity": 63
            },
            {
              "start": 15696,
              "duration": 16,
              "midi": 48,
              "velocity": 63
            },
            {
              "start": 15792,
              "duration": 16,
              "midi": 56,
              "velocity": 63
            },
            {
              "start": 15792,
              "duration": 16,
              "midi": 44,
              "velocity": 63
            },
            {
              "start": 15840,
              "duration": 47,
              "midi": 56,
              "velocity": 63
            },
            {
              "start": 15840,
              "duration": 47,
              "midi": 44,
              "velocity": 63
            },
            {
              "start": 15888,
              "duration": 32,
              "midi": 48,
              "velocity": 71
            },
            {
              "start": 15888,
              "duration": 32,
              "midi": 60,
              "velocity": 71
            },
            {
              "start": 15936,
              "duration": 32,
              "midi": 43,
              "velocity": 71
            },
            {
              "start": 15936,
              "duration": 32,
              "midi": 55,
              "velocity": 71
            },
            {
              "start": 15984,
              "duration": 32,
              "midi": 43,
              "velocity": 71
            },
            {
              "start": 15984,
              "duration": 32,
              "midi": 55,
              "velocity": 71
            },
            {
              "start": 16032,
              "duration": 32,
              "midi": 43,
              "velocity": 71
            },
            {
              "start": 16032,
              "duration": 32,
              "midi": 55,
              "velocity": 71
            },
            {
              "start": 16080,
              "duration": 31,
              "midi": 48,
              "velocity": 71
            },
            {
              "start": 16080,
              "duration": 31,
              "midi": 60,
              "velocity": 71
            },
            {
              "start": 16128,
              "duration": 47,
              "midi": 48,
              "velocity": 71
            },
            {
              "start": 16128,
              "duration": 47,
              "midi": 36,
              "velocity": 63
            },
            {
              "start": 16272,
              "duration": 16,
              "midi": 60,
              "velocity": 63
            },
            {
              "start": 16272,
              "duration": 16,
              "midi": 48,
              "velocity": 63
            },
            {
              "start": 16368,
              "duration": 16,
              "midi": 63,
              "velocity": 63
            },
            {
              "start": 16368,
              "duration": 16,
              "midi": 51,
              "velocity": 63
            },
            {
              "start": 16464,
              "duration": 16,
              "midi": 60,
              "velocity": 63
            },
            {
              "start": 16464,
              "duration": 16,
              "midi": 48,
              "velocity": 63
            },
            {
              "start": 16560,
              "duration": 16,
              "midi": 56,
              "velocity": 63
            },
            {
              "start": 16560,
              "duration": 16,
              "midi": 44,
              "velocity": 63
            },
            {
              "start": 16608,
              "duration": 47,
              "midi": 56,
              "velocity": 63
            },
            {
              "start": 16608,
              "duration": 47,
              "midi": 44,
              "velocity": 63
            },
            {
              "start": 16656,
              "duration": 32,
              "midi": 48,
              "velocity": 71
            },
            {
              "start": 16656,
              "duration": 32,
              "midi": 60,
              "velocity": 71
            },
            {
              "start": 16704,
              "duration": 32,
              "midi": 43,
              "velocity": 71
            },
            {
              "start": 16704,
              "duration": 32,
              "midi": 55,
              "velocity": 71
            },
            {
              "start": 16752,
              "duration": 32,
              "midi": 43,
              "velocity": 71
            },
            {
              "start": 16752,
              "duration": 32,
              "midi": 55,
              "velocity": 71
            },
            {
              "start": 16800,
              "duration": 32,
              "midi": 43,
              "velocity": 71
            },
            {
              "start": 16800,
              "duration": 32,
              "midi": 55,
              "velocity": 71
            },
            {
              "start": 16848,
              "duration": 31,
              "midi": 48,
              "velocity": 71
            },
            {
              "start": 16848,
              "duration": 31,
              "midi": 60,
              "velocity": 71
            },
            {
              "start": 16896,
              "duration": 47,
              "midi": 48,
              "velocity": 71
            },
            {
              "start": 16896,
              "duration": 47,
              "midi": 36,
              "velocity": 63
            },
            {
              "start": 17040,
              "duration": 16,
              "midi": 60,
              "velocity": 63
            },
            {
              "start": 17040,
              "duration": 16,
              "midi": 48,
              "velocity": 63
            },
            {
              "start": 17136,
              "duration": 16,
              "midi": 63,
              "velocity": 63
            },
            {
              "start": 17136,
              "duration": 16,
              "midi": 51,
              "velocity": 63
            },
            {
              "start": 17232,
              "duration": 16,
              "midi": 60,
              "velocity": 63
            },
            {
              "start": 17232,
              "duration": 16,
              "midi": 48,
              "velocity": 63
            },
            {
              "start": 17328,
              "duration": 16,
              "midi": 56,
              "velocity": 63
            },
            {
              "start": 17328,
              "duration": 16,
              "midi": 44,
              "velocity": 63
            },
            {
              "start": 17376,
              "duration": 47,
              "midi": 56,
              "velocity": 63
            },
            {
              "start": 17376,
              "duration": 47,
              "midi": 44,
              "velocity": 63
            },
            {
              "start": 17424,
              "duration": 32,
              "midi": 48,
              "velocity": 71
            },
            {
              "start": 17424,
              "duration": 32,
              "midi": 60,
              "velocity": 71
            },
            {
              "start": 17472,
              "duration": 32,
              "midi": 43,
              "velocity": 71
            },
            {
              "start": 17472,
              "duration": 32,
              "midi": 55,
              "velocity": 71
            },
            {
              "start": 17520,
              "duration": 32,
              "midi": 43,
              "velocity": 71
            },
            {
              "start": 17520,
              "duration": 32,
              "midi": 55,
              "velocity": 71
            },
            {
              "start": 17568,
              "duration": 32,
              "midi": 43,
              "velocity": 71
            },
            {
              "start": 17568,
              "duration": 32,
              "midi": 55,
              "velocity": 71
            },
            {
              "start": 17616,
              "duration": 31,
              "midi": 48,
              "velocity": 71
            },
            {
              "start": 17616,
              "duration": 31,
              "midi": 60,
              "velocity": 71
            },
            {
              "start": 17664,
              "duration": 47,
              "midi": 48,
              "velocity": 71
            },
            {
              "start": 17664,
              "duration": 47,
              "midi": 36,
              "velocity": 63
            },
            {
              "start": 17808,
              "duration": 16,
              "midi": 60,
              "velocity": 63
            },
            {
              "start": 17808,
              "duration": 16,
              "midi": 48,
              "velocity": 63
            },
            {
              "start": 17904,
              "duration": 16,
              "midi": 63,
              "velocity": 63
            },
            {
              "start": 17904,
              "duration": 16,
              "midi": 51,
              "velocity": 63
            },
            {
              "start": 18000,
              "duration": 16,
              "midi": 60,
              "velocity": 63
            },
            {
              "start": 18000,
              "duration": 16,
              "midi": 48,
              "velocity": 63
            },
            {
              "start": 18096,
              "duration": 16,
              "midi": 56,
              "velocity": 63
            },
            {
              "start": 18096,
              "duration": 16,
              "midi": 44,
              "velocity": 63
            },
            {
              "start": 18144,
              "duration": 47,
              "midi": 56,
              "velocity": 63
            },
            {
              "start": 18144,
              "duration": 47,
              "midi": 44,
              "velocity": 63
            },
            {
              "start": 18192,
              "duration": 32,
              "midi": 48,
              "velocity": 71
            },
            {
              "start": 18192,
              "duration": 32,
              "midi": 60,
              "velocity": 71
            },
            {
              "start": 18240,
              "duration": 32,
              "midi": 43,
              "velocity": 71
            },
            {
              "start": 18240,
              "duration": 32,
              "midi": 55,
              "velocity": 71
            },
            {
              "start": 18288,
              "duration": 32,
              "midi": 43,
              "velocity": 71
            },
            {
              "start": 18288,
              "duration": 32,
              "midi": 55,
              "velocity": 71
            },
            {
              "start": 18336,
              "duration": 32,
              "midi": 43,
              "velocity": 71
            },
            {
              "start": 18336,
              "duration": 32,
              "midi": 55,
              "velocity": 71
            },
            {
              "start": 18384,
              "duration": 31,
              "midi": 48,
              "velocity": 71
            },
            {
              "start": 18384,
              "duration": 31,
              "midi": 60,
              "velocity": 71
            },
            {
              "start": 18432,
              "duration": 95,
              "midi": 44,
              "velocity": 71
            },
            {
              "start": 18528,
              "duration": 47,
              "midi": 56,
              "velocity": 71
            },
            {
              "start": 18576,
              "duration": 95,
              "midi": 44,
              "velocity": 71
            },
            {
              "start": 18672,
              "duration": 47,
              "midi": 56,
              "velocity": 71
            },
            {
              "start": 18720,
              "duration": 47,
              "midi": 44,
              "velocity": 71
            },
            {
              "start": 18768,
              "duration": 47,
              "midi": 56,
              "velocity": 71
            },
            {
              "start": 18816,
              "duration": 95,
              "midi": 43,
              "velocity": 71
            },
            {
              "start": 18912,
              "duration": 47,
              "midi": 55,
              "velocity": 71
            },
            {
              "start": 18960,
              "duration": 95,
              "midi": 43,
              "velocity": 71
            },
            {
              "start": 19056,
              "duration": 47,
              "midi": 55,
              "velocity": 71
            },
            {
              "start": 19104,
              "duration": 47,
              "midi": 43,
              "velocity": 71
            },
            {
              "start": 19152,
              "duration": 47,
              "midi": 55,
              "velocity": 71
            },
            {
              "start": 19200,
              "duration": 95,
              "midi": 48,
              "velocity": 71
            },
            {
              "start": 19296,
              "duration": 47,
              "midi": 48,
              "velocity": 71
            },
            {
              "start": 19344,
              "duration": 47,
              "midi": 48,
              "velocity": 71
            },
            {
              "start": 19392,
              "duration": 47,
              "midi": 48,
              "velocity": 71
            },
            {
              "start": 19440,
              "duration": 47,
              "midi": 48,
              "velocity": 71
            },
            {
              "start": 19488,
              "duration": 95,
              "midi": 48,
              "velocity": 71
            },
            {
              "start": 19584,
              "duration": 95,
              "midi": 41,
              "velocity": 71
            },
            {
              "start": 19680,
              "duration": 47,
              "midi": 53,
              "velocity": 71
            },
            {
              "start": 19728,
              "duration": 95,
              "midi": 41,
              "velocity": 71
            },
            {
              "start": 19824,
              "duration": 47,
              "midi": 53,
              "velocity": 71
            },
            {
              "start": 19872,
              "duration": 47,
              "midi": 41,
              "velocity": 71
            },
            {
              "start": 19920,
              "duration": 47,
              "midi": 53,
              "velocity": 71
            },
            {
              "start": 19968,
              "duration": 95,
              "midi": 44,
              "velocity": 71
            },
            {
              "start": 20064,
              "duration": 47,
              "midi": 56,
              "velocity": 71
            },
            {
              "start": 20112,
              "duration": 95,
              "midi": 44,
              "velocity": 71
            },
            {
              "start": 20208,
              "duration": 47,
              "midi": 56,
              "velocity": 71
            },
            {
              "start": 20256,
              "duration": 47,
              "midi": 44,
              "velocity": 71
            },
            {
              "start": 20304,
              "duration": 47,
              "midi": 56,
              "velocity": 71
            },
            {
              "start": 20352,
              "duration": 95,
              "midi": 43,
              "velocity": 71
            },
            {
              "start": 20448,
              "duration": 47,
              "midi": 55,
              "velocity": 71
            },
            {
              "start": 20496,
              "duration": 95,
              "midi": 43,
              "velocity": 71
            },
            {
              "start": 20592,
              "duration": 47,
              "midi": 55,
              "velocity": 71
            },
            {
              "start": 20640,
              "duration": 47,
              "midi": 43,
              "velocity": 71
            },
            {
              "start": 20688,
              "duration": 47,
              "midi": 55,
              "velocity": 71
            },
            {
              "start": 23808,
              "duration": 47,
              "midi": 48,
              "velocity": 71
            },
            {
              "start": 23808,
              "duration": 47,
              "midi": 36,
              "velocity": 63
            },
            {
              "start": 23952,
              "duration": 16,
              "midi": 60,
              "velocity": 63
            },
            {
              "start": 23952,
              "duration": 16,
              "midi": 48,
              "velocity": 63
            },
            {
              "start": 24048,
              "duration": 16,
              "midi": 63,
              "velocity": 63
            },
            {
              "start": 24048,
              "duration": 16,
              "midi": 51,
              "velocity": 63
            },
            {
              "start": 24144,
              "duration": 16,
              "midi": 60,
              "velocity": 63
            },
            {
              "start": 24144,
              "duration": 16,
              "midi": 48,
              "velocity": 63
            },
            {
              "start": 24240,
              "duration": 16,
              "midi": 56,
              "velocity": 63
            },
            {
              "start": 24240,
              "duration": 16,
              "midi": 44,
              "velocity": 63
            },
            {
              "start": 24288,
              "duration": 47,
              "midi": 56,
              "velocity": 63
            },
            {
              "start": 24288,
              "duration": 47,
              "midi": 44,
              "velocity": 63
            },
            {
              "start": 24336,
              "duration": 32,
              "midi": 48,
              "velocity": 71
            },
            {
              "start": 24336,
              "duration": 32,
              "midi": 60,
              "velocity": 71
            },
            {
              "start": 24384,
              "duration": 32,
              "midi": 43,
              "velocity": 71
            },
            {
              "start": 24384,
              "duration": 32,
              "midi": 55,
              "velocity": 71
            },
            {
              "start": 24432,
              "duration": 32,
              "midi": 43,
              "velocity": 71
            },
            {
              "start": 24432,
              "duration": 32,
              "midi": 55,
              "velocity": 71
            },
            {
              "start": 24480,
              "duration": 32,
              "midi": 43,
              "velocity": 71
            },
            {
              "start": 24480,
              "duration": 32,
              "midi": 55,
              "velocity": 71
            },
            {
              "start": 24528,
              "duration": 31,
              "midi": 48,
              "velocity": 71
            },
            {
              "start": 24528,
              "duration": 31,
              "midi": 60,
              "velocity": 71
            },
            {
              "start": 24576,
              "duration": 47,
              "midi": 48,
              "velocity": 71
            },
            {
              "start": 24576,
              "duration": 47,
              "midi": 36,
              "velocity": 63
            },
            {
              "start": 24720,
              "duration": 16,
              "midi": 60,
              "velocity": 63
            },
            {
              "start": 24720,
              "duration": 16,
              "midi": 48,
              "velocity": 63
            },
            {
              "start": 24816,
              "duration": 16,
              "midi": 63,
              "velocity": 63
            },
            {
              "start": 24816,
              "duration": 16,
              "midi": 51,
              "velocity": 63
            },
            {
              "start": 24912,
              "duration": 16,
              "midi": 60,
              "velocity": 63
            },
            {
              "start": 24912,
              "duration": 16,
              "midi": 48,
              "velocity": 63
            },
            {
              "start": 25008,
              "duration": 16,
              "midi": 56,
              "velocity": 63
            },
            {
              "start": 25008,
              "duration": 16,
              "midi": 44,
              "velocity": 63
            },
            {
              "start": 25056,
              "duration": 47,
              "midi": 56,
              "velocity": 63
            },
            {
              "start": 25056,
              "duration": 47,
              "midi": 44,
              "velocity": 63
            },
            {
              "start": 25104,
              "duration": 32,
              "midi": 48,
              "velocity": 71
            },
            {
              "start": 25104,
              "duration": 32,
              "midi": 60,
              "velocity": 71
            },
            {
              "start": 25152,
              "duration": 32,
              "midi": 43,
              "velocity": 71
            },
            {
              "start": 25152,
              "duration": 32,
              "midi": 55,
              "velocity": 71
            },
            {
              "start": 25200,
              "duration": 32,
              "midi": 43,
              "velocity": 71
            },
            {
              "start": 25200,
              "duration": 32,
              "midi": 55,
              "velocity": 71
            },
            {
              "start": 25248,
              "duration": 32,
              "midi": 43,
              "velocity": 71
            },
            {
              "start": 25248,
              "duration": 32,
              "midi": 55,
              "velocity": 71
            },
            {
              "start": 25296,
              "duration": 31,
              "midi": 48,
              "velocity": 71
            },
            {
              "start": 25296,
              "duration": 31,
              "midi": 60,
              "velocity": 71
            },
            {
              "start": 25344,
              "duration": 47,
              "midi": 48,
              "velocity": 71
            },
            {
              "start": 25344,
              "duration": 47,
              "midi": 36,
              "velocity": 63
            },
            {
              "start": 25488,
              "duration": 16,
              "midi": 60,
              "velocity": 63
            },
            {
              "start": 25488,
              "duration": 16,
              "midi": 48,
              "velocity": 63
            },
            {
              "start": 25584,
              "duration": 16,
              "midi": 63,
              "velocity": 63
            },
            {
              "start": 25584,
              "duration": 16,
              "midi": 51,
              "velocity": 63
            },
            {
              "start": 25680,
              "duration": 16,
              "midi": 60,
              "velocity": 63
            },
            {
              "start": 25680,
              "duration": 16,
              "midi": 48,
              "velocity": 63
            },
            {
              "start": 25776,
              "duration": 16,
              "midi": 56,
              "velocity": 63
            },
            {
              "start": 25776,
              "duration": 16,
              "midi": 44,
              "velocity": 63
            },
            {
              "start": 25824,
              "duration": 47,
              "midi": 56,
              "velocity": 63
            },
            {
              "start": 25824,
              "duration": 47,
              "midi": 44,
              "velocity": 63
            },
            {
              "start": 25872,
              "duration": 32,
              "midi": 48,
              "velocity": 71
            },
            {
              "start": 25872,
              "duration": 32,
              "midi": 60,
              "velocity": 71
            },
            {
              "start": 25920,
              "duration": 32,
              "midi": 43,
              "velocity": 71
            },
            {
              "start": 25920,
              "duration": 32,
              "midi": 55,
              "velocity": 71
            },
            {
              "start": 25968,
              "duration": 32,
              "midi": 43,
              "velocity": 71
            },
            {
              "start": 25968,
              "duration": 32,
              "midi": 55,
              "velocity": 71
            },
            {
              "start": 26016,
              "duration": 32,
              "midi": 43,
              "velocity": 71
            },
            {
              "start": 26016,
              "duration": 32,
              "midi": 55,
              "velocity": 71
            },
            {
              "start": 26064,
              "duration": 31,
              "midi": 48,
              "velocity": 71
            },
            {
              "start": 26064,
              "duration": 31,
              "midi": 60,
              "velocity": 71
            },
            {
              "start": 26112,
              "duration": 47,
              "midi": 48,
              "velocity": 71
            },
            {
              "start": 26112,
              "duration": 47,
              "midi": 36,
              "velocity": 63
            },
            {
              "start": 26256,
              "duration": 16,
              "midi": 60,
              "velocity": 63
            },
            {
              "start": 26256,
              "duration": 16,
              "midi": 48,
              "velocity": 63
            },
            {
              "start": 26352,
              "duration": 16,
              "midi": 63,
              "velocity": 63
            },
            {
              "start": 26352,
              "duration": 16,
              "midi": 51,
              "velocity": 63
            },
            {
              "start": 26448,
              "duration": 16,
              "midi": 60,
              "velocity": 63
            },
            {
              "start": 26448,
              "duration": 16,
              "midi": 48,
              "velocity": 63
            },
            {
              "start": 26544,
              "duration": 16,
              "midi": 56,
              "velocity": 63
            },
            {
              "start": 26544,
              "duration": 16,
              "midi": 44,
              "velocity": 63
            },
            {
              "start": 26592,
              "duration": 47,
              "midi": 56,
              "velocity": 63
            },
            {
              "start": 26592,
              "duration": 47,
              "midi": 44,
              "velocity": 63
            },
            {
              "start": 26640,
              "duration": 32,
              "midi": 48,
              "velocity": 71
            },
            {
              "start": 26640,
              "duration": 32,
              "midi": 60,
              "velocity": 71
            },
            {
              "start": 26688,
              "duration": 32,
              "midi": 43,
              "velocity": 71
            },
            {
              "start": 26688,
              "duration": 32,
              "midi": 55,
              "velocity": 71
            },
            {
              "start": 26736,
              "duration": 32,
              "midi": 43,
              "velocity": 71
            },
            {
              "start": 26736,
              "duration": 32,
              "midi": 55,
              "velocity": 71
            },
            {
              "start": 26784,
              "duration": 32,
              "midi": 43,
              "velocity": 71
            },
            {
              "start": 26784,
              "duration": 32,
              "midi": 55,
              "velocity": 71
            },
            {
              "start": 26832,
              "duration": 31,
              "midi": 48,
              "velocity": 71
            },
            {
              "start": 26832,
              "duration": 31,
              "midi": 60,
              "velocity": 71
            },
            {
              "start": 26880,
              "duration": 47,
              "midi": 48,
              "velocity": 71
            },
            {
              "start": 26880,
              "duration": 47,
              "midi": 36,
              "velocity": 63
            },
            {
              "start": 27024,
              "duration": 16,
              "midi": 60,
              "velocity": 63
            },
            {
              "start": 27024,
              "duration": 16,
              "midi": 48,
              "velocity": 63
            },
            {
              "start": 27120,
              "duration": 16,
              "midi": 63,
              "velocity": 63
            },
            {
              "start": 27120,
              "duration": 16,
              "midi": 51,
              "velocity": 63
            },
            {
              "start": 27216,
              "duration": 16,
              "midi": 60,
              "velocity": 63
            },
            {
              "start": 27216,
              "duration": 16,
              "midi": 48,
              "velocity": 63
            },
            {
              "start": 27312,
              "duration": 16,
              "midi": 56,
              "velocity": 63
            },
            {
              "start": 27312,
              "duration": 16,
              "midi": 44,
              "velocity": 63
            },
            {
              "start": 27360,
              "duration": 47,
              "midi": 56,
              "velocity": 63
            },
            {
              "start": 27360,
              "duration": 47,
              "midi": 44,
              "velocity": 63
            },
            {
              "start": 27408,
              "duration": 32,
              "midi": 48,
              "velocity": 71
            },
            {
              "start": 27408,
              "duration": 32,
              "midi": 60,
              "velocity": 71
            },
            {
              "start": 27456,
              "duration": 32,
              "midi": 43,
              "velocity": 71
            },
            {
              "start": 27456,
              "duration": 32,
              "midi": 55,
              "velocity": 71
            },
            {
              "start": 27504,
              "duration": 32,
              "midi": 43,
              "velocity": 71
            },
            {
              "start": 27504,
              "duration": 32,
              "midi": 55,
              "velocity": 71
            },
            {
              "start": 27552,
              "duration": 32,
              "midi": 43,
              "velocity": 71
            },
            {
              "start": 27552,
              "duration": 32,
              "midi": 55,
              "velocity": 71
            },
            {
              "start": 27600,
              "duration": 31,
              "midi": 48,
              "velocity": 71
            },
            {
              "start": 27600,
              "duration": 31,
              "midi": 60,
              "velocity": 71
            },
            {
              "start": 27648,
              "duration": 47,
              "midi": 48,
              "velocity": 71
            },
            {
              "start": 27648,
              "duration": 47,
              "midi": 36,
              "velocity": 63
            },
            {
              "start": 27792,
              "duration": 16,
              "midi": 60,
              "velocity": 63
            },
            {
              "start": 27792,
              "duration": 16,
              "midi": 48,
              "velocity": 63
            },
            {
              "start": 27888,
              "duration": 16,
              "midi": 63,
              "velocity": 63
            },
            {
              "start": 27888,
              "duration": 16,
              "midi": 51,
              "velocity": 63
            },
            {
              "start": 27984,
              "duration": 16,
              "midi": 60,
              "velocity": 63
            },
            {
              "start": 27984,
              "duration": 16,
              "midi": 48,
              "velocity": 63
            },
            {
              "start": 28080,
              "duration": 16,
              "midi": 56,
              "velocity": 63
            },
            {
              "start": 28080,
              "duration": 16,
              "midi": 44,
              "velocity": 63
            },
            {
              "start": 28128,
              "duration": 47,
              "midi": 56,
              "velocity": 63
            },
            {
              "start": 28128,
              "duration": 47,
              "midi": 44,
              "velocity": 63
            },
            {
              "start": 28176,
              "duration": 32,
              "midi": 48,
              "velocity": 71
            },
            {
              "start": 28176,
              "duration": 32,
              "midi": 60,
              "velocity": 71
            },
            {
              "start": 28224,
              "duration": 32,
              "midi": 43,
              "velocity": 71
            },
            {
              "start": 28224,
              "duration": 32,
              "midi": 55,
              "velocity": 71
            },
            {
              "start": 28272,
              "duration": 32,
              "midi": 43,
              "velocity": 71
            },
            {
              "start": 28272,
              "duration": 32,
              "midi": 55,
              "velocity": 71
            },
            {
              "start": 28320,
              "duration": 32,
              "midi": 43,
              "velocity": 71
            },
            {
              "start": 28320,
              "duration": 32,
              "midi": 55,
              "velocity": 71
            },
            {
              "start": 28368,
              "duration": 31,
              "midi": 48,
              "velocity": 71
            },
            {
              "start": 28368,
              "duration": 31,
              "midi": 60,
              "velocity": 71
            },
            {
              "start": 28416,
              "duration": 47,
              "midi": 48,
              "velocity": 71
            },
            {
              "start": 28416,
              "duration": 47,
              "midi": 36,
              "velocity": 63
            },
            {
              "start": 28560,
              "duration": 16,
              "midi": 60,
              "velocity": 63
            },
            {
              "start": 28560,
              "duration": 16,
              "midi": 48,
              "velocity": 63
            },
            {
              "start": 28656,
              "duration": 16,
              "midi": 63,
              "velocity": 63
            },
            {
              "start": 28656,
              "duration": 16,
              "midi": 51,
              "velocity": 63
            },
            {
              "start": 28752,
              "duration": 16,
              "midi": 60,
              "velocity": 63
            },
            {
              "start": 28752,
              "duration": 16,
              "midi": 48,
              "velocity": 63
            },
            {
              "start": 28848,
              "duration": 16,
              "midi": 56,
              "velocity": 63
            },
            {
              "start": 28848,
              "duration": 16,
              "midi": 44,
              "velocity": 63
            },
            {
              "start": 28896,
              "duration": 47,
              "midi": 56,
              "velocity": 63
            },
            {
              "start": 28896,
              "duration": 47,
              "midi": 44,
              "velocity": 63
            },
            {
              "start": 28944,
              "duration": 32,
              "midi": 48,
              "velocity": 71
            },
            {
              "start": 28944,
              "duration": 32,
              "midi": 60,
              "velocity": 71
            },
            {
              "start": 28992,
              "duration": 32,
              "midi": 43,
              "velocity": 71
            },
            {
              "start": 28992,
              "duration": 32,
              "midi": 55,
              "velocity": 71
            },
            {
              "start": 29040,
              "duration": 32,
              "midi": 43,
              "velocity": 71
            },
            {
              "start": 29040,
              "duration": 32,
              "midi": 55,
              "velocity": 71
            },
            {
              "start": 29088,
              "duration": 32,
              "midi": 43,
              "velocity": 71
            },
            {
              "start": 29088,
              "duration": 32,
              "midi": 55,
              "velocity": 71
            },
            {
              "start": 29136,
              "duration": 31,
              "midi": 48,
              "velocity": 71
            },
            {
              "start": 29136,
              "duration": 31,
              "midi": 60,
              "velocity": 71
            },
            {
              "start": 29184,
              "duration": 47,
              "midi": 48,
              "velocity": 71
            },
            {
              "start": 29184,
              "duration": 47,
              "midi": 36,
              "velocity": 63
            },
            {
              "start": 29328,
              "duration": 16,
              "midi": 60,
              "velocity": 63
            },
            {
              "start": 29328,
              "duration": 16,
              "midi": 48,
              "velocity": 63
            },
            {
              "start": 29424,
              "duration": 16,
              "midi": 63,
              "velocity": 63
            },
            {
              "start": 29424,
              "duration": 16,
              "midi": 51,
              "velocity": 63
            },
            {
              "start": 29520,
              "duration": 16,
              "midi": 60,
              "velocity": 63
            },
            {
              "start": 29520,
              "duration": 16,
              "midi": 48,
              "velocity": 63
            },
            {
              "start": 29616,
              "duration": 16,
              "midi": 56,
              "velocity": 63
            },
            {
              "start": 29616,
              "duration": 16,
              "midi": 44,
              "velocity": 63
            },
            {
              "start": 29664,
              "duration": 47,
              "midi": 56,
              "velocity": 63
            },
            {
              "start": 29664,
              "duration": 47,
              "midi": 44,
              "velocity": 63
            },
            {
              "start": 29712,
              "duration": 32,
              "midi": 48,
              "velocity": 71
            },
            {
              "start": 29712,
              "duration": 32,
              "midi": 60,
              "velocity": 71
            },
            {
              "start": 29760,
              "duration": 32,
              "midi": 43,
              "velocity": 71
            },
            {
              "start": 29760,
              "duration": 32,
              "midi": 55,
              "velocity": 71
            },
            {
              "start": 29808,
              "duration": 32,
              "midi": 43,
              "velocity": 71
            },
            {
              "start": 29808,
              "duration": 32,
              "midi": 55,
              "velocity": 71
            },
            {
              "start": 29856,
              "duration": 32,
              "midi": 43,
              "velocity": 71
            },
            {
              "start": 29856,
              "duration": 32,
              "midi": 55,
              "velocity": 71
            },
            {
              "start": 29904,
              "duration": 31,
              "midi": 48,
              "velocity": 71
            },
            {
              "start": 29904,
              "duration": 31,
              "midi": 60,
              "velocity": 71
            },
            {
              "start": 29952,
              "duration": 95,
              "midi": 44,
              "velocity": 71
            },
            {
              "start": 30048,
              "duration": 47,
              "midi": 56,
              "velocity": 71
            },
            {
              "start": 30096,
              "duration": 95,
              "midi": 44,
              "velocity": 71
            },
            {
              "start": 30192,
              "duration": 47,
              "midi": 56,
              "velocity": 71
            },
            {
              "start": 30240,
              "duration": 47,
              "midi": 44,
              "velocity": 71
            },
            {
              "start": 30288,
              "duration": 47,
              "midi": 56,
              "velocity": 71
            },
            {
              "start": 30336,
              "duration": 95,
              "midi": 43,
              "velocity": 71
            },
            {
              "start": 30432,
              "duration": 47,
              "midi": 55,
              "velocity": 71
            },
            {
              "start": 30480,
              "duration": 95,
              "midi": 43,
              "velocity": 71
            },
            {
              "start": 30576,
              "duration": 47,
              "midi": 55,
              "velocity": 71
            },
            {
              "start": 30624,
              "duration": 47,
              "midi": 43,
              "velocity": 71
            },
            {
              "start": 30672,
              "duration": 47,
              "midi": 55,
              "velocity": 71
            },
            {
              "start": 30720,
              "duration": 95,
              "midi": 48,
              "velocity": 71
            },
            {
              "start": 30816,
              "duration": 47,
              "midi": 48,
              "velocity": 71
            },
            {
              "start": 30864,
              "duration": 47,
              "midi": 48,
              "velocity": 71
            },
            {
              "start": 30912,
              "duration": 47,
              "midi": 48,
              "velocity": 71
            },
            {
              "start": 30960,
              "duration": 47,
              "midi": 48,
              "velocity": 71
            },
            {
              "start": 31008,
              "duration": 95,
              "midi": 48,
              "velocity": 71
            },
            {
              "start": 31104,
              "duration": 95,
              "midi": 41,
              "velocity": 71
            },
            {
              "start": 31200,
              "duration": 47,
              "midi": 53,
              "velocity": 71
            },
            {
              "start": 31248,
              "duration": 95,
              "midi": 41,
              "velocity": 71
            },
            {
              "start": 31344,
              "duration": 47,
              "midi": 53,
              "velocity": 71
            },
            {
              "start": 31392,
              "duration": 47,
              "midi": 41,
              "velocity": 71
            },
            {
              "start": 31440,
              "duration": 47,
              "midi": 53,
              "velocity": 71
            },
            {
              "start": 31488,
              "duration": 95,
              "midi": 44,
              "velocity": 71
            },
            {
              "start": 31584,
              "duration": 47,
              "midi": 56,
              "velocity": 71
            },
            {
              "start": 31632,
              "duration": 95,
              "midi": 44,
              "velocity": 71
            },
            {
              "start": 31728,
              "duration": 47,
              "midi": 56,
              "velocity": 71
            },
            {
              "start": 31776,
              "duration": 47,
              "midi": 44,
              "velocity": 71
            },
            {
              "start": 31824,
              "duration": 47,
              "midi": 56,
              "velocity": 71
            },
            {
              "start": 31872,
              "duration": 95,
              "midi": 43,
              "velocity": 71
            },
            {
              "start": 31968,
              "duration": 47,
              "midi": 55,
              "velocity": 71
            },
            {
              "start": 32016,
              "duration": 95,
              "midi": 43,
              "velocity": 71
            },
            {
              "start": 32112,
              "duration": 47,
              "midi": 55,
              "velocity": 71
            },
            {
              "start": 32160,
              "duration": 47,
              "midi": 43,
              "velocity": 71
            },
            {
              "start": 32208,
              "duration": 47,
              "midi": 55,
              "velocity": 71
            },
            {
              "start": 35328,
              "duration": 47,
              "midi": 48,
              "velocity": 71
            },
            {
              "start": 35328,
              "duration": 47,
              "midi": 36,
              "velocity": 63
            },
            {
              "start": 35472,
              "duration": 16,
              "midi": 60,
              "velocity": 63
            },
            {
              "start": 35472,
              "duration": 16,
              "midi": 48,
              "velocity": 63
            },
            {
              "start": 35568,
              "duration": 16,
              "midi": 63,
              "velocity": 63
            },
            {
              "start": 35568,
              "duration": 16,
              "midi": 51,
              "velocity": 63
            },
            {
              "start": 35664,
              "duration": 16,
              "midi": 60,
              "velocity": 63
            },
            {
              "start": 35664,
              "duration": 16,
              "midi": 48,
              "velocity": 63
            },
            {
              "start": 35760,
              "duration": 16,
              "midi": 56,
              "velocity": 63
            },
            {
              "start": 35760,
              "duration": 16,
              "midi": 44,
              "velocity": 63
            },
            {
              "start": 35808,
              "duration": 47,
              "midi": 56,
              "velocity": 63
            },
            {
              "start": 35808,
              "duration": 47,
              "midi": 44,
              "velocity": 63
            },
            {
              "start": 35856,
              "duration": 32,
              "midi": 48,
              "velocity": 71
            },
            {
              "start": 35856,
              "duration": 32,
              "midi": 60,
              "velocity": 71
            },
            {
              "start": 35904,
              "duration": 32,
              "midi": 43,
              "velocity": 71
            },
            {
              "start": 35904,
              "duration": 32,
              "midi": 55,
              "velocity": 71
            },
            {
              "start": 35952,
              "duration": 32,
              "midi": 43,
              "velocity": 71
            },
            {
              "start": 35952,
              "duration": 32,
              "midi": 55,
              "velocity": 71
            },
            {
              "start": 36000,
              "duration": 32,
              "midi": 43,
              "velocity": 71
            },
            {
              "start": 36000,
              "duration": 32,
              "midi": 55,
              "velocity": 71
            },
            {
              "start": 36048,
              "duration": 31,
              "midi": 48,
              "velocity": 71
            },
            {
              "start": 36048,
              "duration": 31,
              "midi": 60,
              "velocity": 71
            },
            {
              "start": 36096,
              "duration": 47,
              "midi": 48,
              "velocity": 71
            },
            {
              "start": 36096,
              "duration": 47,
              "midi": 36,
              "velocity": 63
            },
            {
              "start": 36240,
              "duration": 16,
              "midi": 60,
              "velocity": 63
            },
            {
              "start": 36240,
              "duration": 16,
              "midi": 48,
              "velocity": 63
            },
            {
              "start": 36336,
              "duration": 16,
              "midi": 63,
              "velocity": 63
            },
            {
              "start": 36336,
              "duration": 16,
              "midi": 51,
              "velocity": 63
            },
            {
              "start": 36432,
              "duration": 16,
              "midi": 60,
              "velocity": 63
            },
            {
              "start": 36432,
              "duration": 16,
              "midi": 48,
              "velocity": 63
            },
            {
              "start": 36528,
              "duration": 16,
              "midi": 56,
              "velocity": 63
            },
            {
              "start": 36528,
              "duration": 16,
              "midi": 44,
              "velocity": 63
            },
            {
              "start": 36576,
              "duration": 47,
              "midi": 56,
              "velocity": 63
            },
            {
              "start": 36576,
              "duration": 47,
              "midi": 44,
              "velocity": 63
            },
            {
              "start": 36624,
              "duration": 32,
              "midi": 48,
              "velocity": 71
            },
            {
              "start": 36624,
              "duration": 32,
              "midi": 60,
              "velocity": 71
            },
            {
              "start": 36672,
              "duration": 32,
              "midi": 43,
              "velocity": 71
            },
            {
              "start": 36672,
              "duration": 32,
              "midi": 55,
              "velocity": 71
            },
            {
              "start": 36720,
              "duration": 32,
              "midi": 43,
              "velocity": 71
            },
            {
              "start": 36720,
              "duration": 32,
              "midi": 55,
              "velocity": 71
            },
            {
              "start": 36768,
              "duration": 32,
              "midi": 43,
              "velocity": 71
            },
            {
              "start": 36768,
              "duration": 32,
              "midi": 55,
              "velocity": 71
            },
            {
              "start": 36816,
              "duration": 31,
              "midi": 48,
              "velocity": 71
            },
            {
              "start": 36816,
              "duration": 31,
              "midi": 60,
              "velocity": 71
            },
            {
              "start": 36864,
              "duration": 47,
              "midi": 48,
              "velocity": 71
            },
            {
              "start": 36864,
              "duration": 47,
              "midi": 36,
              "velocity": 63
            },
            {
              "start": 37008,
              "duration": 16,
              "midi": 60,
              "velocity": 63
            },
            {
              "start": 37008,
              "duration": 16,
              "midi": 48,
              "velocity": 63
            },
            {
              "start": 37104,
              "duration": 16,
              "midi": 63,
              "velocity": 63
            },
            {
              "start": 37104,
              "duration": 16,
              "midi": 51,
              "velocity": 63
            },
            {
              "start": 37200,
              "duration": 16,
              "midi": 60,
              "velocity": 63
            },
            {
              "start": 37200,
              "duration": 16,
              "midi": 48,
              "velocity": 63
            },
            {
              "start": 37296,
              "duration": 16,
              "midi": 56,
              "velocity": 63
            },
            {
              "start": 37296,
              "duration": 16,
              "midi": 44,
              "velocity": 63
            },
            {
              "start": 37344,
              "duration": 47,
              "midi": 56,
              "velocity": 63
            },
            {
              "start": 37344,
              "duration": 47,
              "midi": 44,
              "velocity": 63
            },
            {
              "start": 37392,
              "duration": 32,
              "midi": 48,
              "velocity": 71
            },
            {
              "start": 37392,
              "duration": 32,
              "midi": 60,
              "velocity": 71
            },
            {
              "start": 37440,
              "duration": 32,
              "midi": 43,
              "velocity": 71
            },
            {
              "start": 37440,
              "duration": 32,
              "midi": 55,
              "velocity": 71
            },
            {
              "start": 37488,
              "duration": 32,
              "midi": 43,
              "velocity": 71
            },
            {
              "start": 37488,
              "duration": 32,
              "midi": 55,
              "velocity": 71
            },
            {
              "start": 37536,
              "duration": 32,
              "midi": 43,
              "velocity": 71
            },
            {
              "start": 37536,
              "duration": 32,
              "midi": 55,
              "velocity": 71
            },
            {
              "start": 37584,
              "duration": 31,
              "midi": 48,
              "velocity": 71
            },
            {
              "start": 37584,
              "duration": 31,
              "midi": 60,
              "velocity": 71
            },
            {
              "start": 37632,
              "duration": 47,
              "midi": 48,
              "velocity": 71
            },
            {
              "start": 37632,
              "duration": 47,
              "midi": 36,
              "velocity": 63
            },
            {
              "start": 37776,
              "duration": 16,
              "midi": 60,
              "velocity": 63
            },
            {
              "start": 37776,
              "duration": 16,
              "midi": 48,
              "velocity": 63
            },
            {
              "start": 37872,
              "duration": 16,
              "midi": 63,
              "velocity": 63
            },
            {
              "start": 37872,
              "duration": 16,
              "midi": 51,
              "velocity": 63
            },
            {
              "start": 37968,
              "duration": 16,
              "midi": 60,
              "velocity": 63
            },
            {
              "start": 37968,
              "duration": 16,
              "midi": 48,
              "velocity": 63
            },
            {
              "start": 38064,
              "duration": 16,
              "midi": 56,
              "velocity": 63
            },
            {
              "start": 38064,
              "duration": 16,
              "midi": 44,
              "velocity": 63
            },
            {
              "start": 38112,
              "duration": 47,
              "midi": 56,
              "velocity": 63
            },
            {
              "start": 38112,
              "duration": 47,
              "midi": 44,
              "velocity": 63
            },
            {
              "start": 38160,
              "duration": 32,
              "midi": 48,
              "velocity": 71
            },
            {
              "start": 38160,
              "duration": 32,
              "midi": 60,
              "velocity": 71
            },
            {
              "start": 38208,
              "duration": 32,
              "midi": 43,
              "velocity": 71
            },
            {
              "start": 38208,
              "duration": 32,
              "midi": 55,
              "velocity": 71
            },
            {
              "start": 38256,
              "duration": 32,
              "midi": 43,
              "velocity": 71
            },
            {
              "start": 38256,
              "duration": 32,
              "midi": 55,
              "velocity": 71
            },
            {
              "start": 38304,
              "duration": 32,
              "midi": 43,
              "velocity": 71
            },
            {
              "start": 38304,
              "duration": 32,
              "midi": 55,
              "velocity": 71
            },
            {
              "start": 38352,
              "duration": 31,
              "midi": 48,
              "velocity": 71
            },
            {
              "start": 38352,
              "duration": 31,
              "midi": 60,
              "velocity": 71
            },
            {
              "start": 38400,
              "duration": 47,
              "midi": 48,
              "velocity": 71
            },
            {
              "start": 38400,
              "duration": 47,
              "midi": 36,
              "velocity": 63
            },
            {
              "start": 38544,
              "duration": 16,
              "midi": 60,
              "velocity": 63
            },
            {
              "start": 38544,
              "duration": 16,
              "midi": 48,
              "velocity": 63
            },
            {
              "start": 38640,
              "duration": 16,
              "midi": 63,
              "velocity": 63
            },
            {
              "start": 38640,
              "duration": 16,
              "midi": 51,
              "velocity": 63
            },
            {
              "start": 38736,
              "duration": 16,
              "midi": 60,
              "velocity": 63
            },
            {
              "start": 38736,
              "duration": 16,
              "midi": 48,
              "velocity": 63
            },
            {
              "start": 38832,
              "duration": 16,
              "midi": 56,
              "velocity": 63
            },
            {
              "start": 38832,
              "duration": 16,
              "midi": 44,
              "velocity": 63
            },
            {
              "start": 38880,
              "duration": 47,
              "midi": 56,
              "velocity": 63
            },
            {
              "start": 38880,
              "duration": 47,
              "midi": 44,
              "velocity": 63
            },
            {
              "start": 38928,
              "duration": 32,
              "midi": 48,
              "velocity": 71
            },
            {
              "start": 38928,
              "duration": 32,
              "midi": 60,
              "velocity": 71
            },
            {
              "start": 38976,
              "duration": 32,
              "midi": 43,
              "velocity": 71
            },
            {
              "start": 38976,
              "duration": 32,
              "midi": 55,
              "velocity": 71
            },
            {
              "start": 39024,
              "duration": 32,
              "midi": 43,
              "velocity": 71
            },
            {
              "start": 39024,
              "duration": 32,
              "midi": 55,
              "velocity": 71
            },
            {
              "start": 39072,
              "duration": 32,
              "midi": 43,
              "velocity": 71
            },
            {
              "start": 39072,
              "duration": 32,
              "midi": 55,
              "velocity": 71
            },
            {
              "start": 39120,
              "duration": 31,
              "midi": 48,
              "velocity": 71
            },
            {
              "start": 39120,
              "duration": 31,
              "midi": 60,
              "velocity": 71
            },
            {
              "start": 39168,
              "duration": 47,
              "midi": 48,
              "velocity": 71
            },
            {
              "start": 39168,
              "duration": 47,
              "midi": 36,
              "velocity": 63
            },
            {
              "start": 39312,
              "duration": 16,
              "midi": 60,
              "velocity": 63
            },
            {
              "start": 39312,
              "duration": 16,
              "midi": 48,
              "velocity": 63
            },
            {
              "start": 39408,
              "duration": 16,
              "midi": 63,
              "velocity": 63
            },
            {
              "start": 39408,
              "duration": 16,
              "midi": 51,
              "velocity": 63
            },
            {
              "start": 39504,
              "duration": 16,
              "midi": 60,
              "velocity": 63
            },
            {
              "start": 39504,
              "duration": 16,
              "midi": 48,
              "velocity": 63
            },
            {
              "start": 39600,
              "duration": 16,
              "midi": 56,
              "velocity": 63
            },
            {
              "start": 39600,
              "duration": 16,
              "midi": 44,
              "velocity": 63
            },
            {
              "start": 39648,
              "duration": 47,
              "midi": 56,
              "velocity": 63
            },
            {
              "start": 39648,
              "duration": 47,
              "midi": 44,
              "velocity": 63
            },
            {
              "start": 39696,
              "duration": 32,
              "midi": 48,
              "velocity": 71
            },
            {
              "start": 39696,
              "duration": 32,
              "midi": 60,
              "velocity": 71
            },
            {
              "start": 39744,
              "duration": 32,
              "midi": 43,
              "velocity": 71
            },
            {
              "start": 39744,
              "duration": 32,
              "midi": 55,
              "velocity": 71
            },
            {
              "start": 39792,
              "duration": 32,
              "midi": 43,
              "velocity": 71
            },
            {
              "start": 39792,
              "duration": 32,
              "midi": 55,
              "velocity": 71
            },
            {
              "start": 39840,
              "duration": 32,
              "midi": 43,
              "velocity": 71
            },
            {
              "start": 39840,
              "duration": 32,
              "midi": 55,
              "velocity": 71
            },
            {
              "start": 39888,
              "duration": 31,
              "midi": 48,
              "velocity": 71
            },
            {
              "start": 39888,
              "duration": 31,
              "midi": 60,
              "velocity": 71
            },
            {
              "start": 39936,
              "duration": 47,
              "midi": 48,
              "velocity": 71
            },
            {
              "start": 39936,
              "duration": 47,
              "midi": 36,
              "velocity": 63
            },
            {
              "start": 40080,
              "duration": 16,
              "midi": 60,
              "velocity": 63
            },
            {
              "start": 40080,
              "duration": 16,
              "midi": 48,
              "velocity": 63
            },
            {
              "start": 40176,
              "duration": 16,
              "midi": 63,
              "velocity": 63
            },
            {
              "start": 40176,
              "duration": 16,
              "midi": 51,
              "velocity": 63
            },
            {
              "start": 40272,
              "duration": 16,
              "midi": 60,
              "velocity": 63
            },
            {
              "start": 40272,
              "duration": 16,
              "midi": 48,
              "velocity": 63
            },
            {
              "start": 40368,
              "duration": 16,
              "midi": 56,
              "velocity": 63
            },
            {
              "start": 40368,
              "duration": 16,
              "midi": 44,
              "velocity": 63
            },
            {
              "start": 40416,
              "duration": 47,
              "midi": 56,
              "velocity": 63
            },
            {
              "start": 40416,
              "duration": 47,
              "midi": 44,
              "velocity": 63
            },
            {
              "start": 40464,
              "duration": 32,
              "midi": 48,
              "velocity": 71
            },
            {
              "start": 40464,
              "duration": 32,
              "midi": 60,
              "velocity": 71
            },
            {
              "start": 40512,
              "duration": 32,
              "midi": 43,
              "velocity": 71
            },
            {
              "start": 40512,
              "duration": 32,
              "midi": 55,
              "velocity": 71
            },
            {
              "start": 40560,
              "duration": 32,
              "midi": 43,
              "velocity": 71
            },
            {
              "start": 40560,
              "duration": 32,
              "midi": 55,
              "velocity": 71
            },
            {
              "start": 40608,
              "duration": 32,
              "midi": 43,
              "velocity": 71
            },
            {
              "start": 40608,
              "duration": 32,
              "midi": 55,
              "velocity": 71
            },
            {
              "start": 40656,
              "duration": 31,
              "midi": 48,
              "velocity": 71
            },
            {
              "start": 40656,
              "duration": 31,
              "midi": 60,
              "velocity": 71
            },
            {
              "start": 40704,
              "duration": 47,
              "midi": 48,
              "velocity": 71
            },
            {
              "start": 40704,
              "duration": 47,
              "midi": 36,
              "velocity": 63
            },
            {
              "start": 40848,
              "duration": 16,
              "midi": 60,
              "velocity": 63
            },
            {
              "start": 40848,
              "duration": 16,
              "midi": 48,
              "velocity": 63
            },
            {
              "start": 40944,
              "duration": 16,
              "midi": 63,
              "velocity": 63
            },
            {
              "start": 40944,
              "duration": 16,
              "midi": 51,
              "velocity": 63
            },
            {
              "start": 41040,
              "duration": 16,
              "midi": 60,
              "velocity": 63
            },
            {
              "start": 41040,
              "duration": 16,
              "midi": 48,
              "velocity": 63
            },
            {
              "start": 41136,
              "duration": 16,
              "midi": 56,
              "velocity": 63
            },
            {
              "start": 41136,
              "duration": 16,
              "midi": 44,
              "velocity": 63
            },
            {
              "start": 41184,
              "duration": 47,
              "midi": 56,
              "velocity": 63
            },
            {
              "start": 41184,
              "duration": 47,
              "midi": 44,
              "velocity": 63
            },
            {
              "start": 41232,
              "duration": 32,
              "midi": 48,
              "velocity": 71
            },
            {
              "start": 41232,
              "duration": 32,
              "midi": 60,
              "velocity": 71
            },
            {
              "start": 41280,
              "duration": 32,
              "midi": 43,
              "velocity": 71
            },
            {
              "start": 41280,
              "duration": 32,
              "midi": 55,
              "velocity": 71
            },
            {
              "start": 41328,
              "duration": 32,
              "midi": 43,
              "velocity": 71
            },
            {
              "start": 41328,
              "duration": 32,
              "midi": 55,
              "velocity": 71
            },
            {
              "start": 41376,
              "duration": 32,
              "midi": 43,
              "velocity": 71
            },
            {
              "start": 41376,
              "duration": 32,
              "midi": 55,
              "velocity": 71
            },
            {
              "start": 41424,
              "duration": 31,
              "midi": 48,
              "velocity": 71
            },
            {
              "start": 41424,
              "duration": 31,
              "midi": 60,
              "velocity": 71
            },
            {
              "start": 41472,
              "duration": 95,
              "midi": 44,
              "velocity": 71
            },
            {
              "start": 41568,
              "duration": 47,
              "midi": 56,
              "velocity": 71
            },
            {
              "start": 41616,
              "duration": 95,
              "midi": 44,
              "velocity": 71
            },
            {
              "start": 41712,
              "duration": 47,
              "midi": 56,
              "velocity": 71
            },
            {
              "start": 41760,
              "duration": 47,
              "midi": 44,
              "velocity": 71
            },
            {
              "start": 41808,
              "duration": 47,
              "midi": 56,
              "velocity": 71
            },
            {
              "start": 41856,
              "duration": 95,
              "midi": 43,
              "velocity": 71
            },
            {
              "start": 41952,
              "duration": 47,
              "midi": 55,
              "velocity": 71
            },
            {
              "start": 42000,
              "duration": 95,
              "midi": 43,
              "velocity": 71
            },
            {
              "start": 42096,
              "duration": 47,
              "midi": 55,
              "velocity": 71
            },
            {
              "start": 42144,
              "duration": 47,
              "midi": 43,
              "velocity": 71
            },
            {
              "start": 42192,
              "duration": 47,
              "midi": 55,
              "velocity": 71
            },
            {
              "start": 42240,
              "duration": 95,
              "midi": 48,
              "velocity": 71
            },
            {
              "start": 42336,
              "duration": 47,
              "midi": 48,
              "velocity": 71
            },
            {
              "start": 42384,
              "duration": 47,
              "midi": 48,
              "velocity": 71
            },
            {
              "start": 42432,
              "duration": 47,
              "midi": 48,
              "velocity": 71
            },
            {
              "start": 42480,
              "duration": 47,
              "midi": 48,
              "velocity": 71
            },
            {
              "start": 42528,
              "duration": 95,
              "midi": 48,
              "velocity": 71
            },
            {
              "start": 42624,
              "duration": 95,
              "midi": 41,
              "velocity": 71
            },
            {
              "start": 42720,
              "duration": 47,
              "midi": 53,
              "velocity": 71
            },
            {
              "start": 42768,
              "duration": 95,
              "midi": 41,
              "velocity": 71
            },
            {
              "start": 42864,
              "duration": 47,
              "midi": 53,
              "velocity": 71
            },
            {
              "start": 42912,
              "duration": 47,
              "midi": 41,
              "velocity": 71
            },
            {
              "start": 42960,
              "duration": 47,
              "midi": 53,
              "velocity": 71
            },
            {
              "start": 43008,
              "duration": 95,
              "midi": 44,
              "velocity": 71
            },
            {
              "start": 43104,
              "duration": 47,
              "midi": 56,
              "velocity": 71
            },
            {
              "start": 43152,
              "duration": 95,
              "midi": 44,
              "velocity": 71
            },
            {
              "start": 43248,
              "duration": 47,
              "midi": 56,
              "velocity": 71
            },
            {
              "start": 43296,
              "duration": 47,
              "midi": 44,
              "velocity": 71
            },
            {
              "start": 43344,
              "duration": 47,
              "midi": 56,
              "velocity": 71
            },
            {
              "start": 43392,
              "duration": 95,
              "midi": 43,
              "velocity": 71
            },
            {
              "start": 43488,
              "duration": 47,
              "midi": 55,
              "velocity": 71
            },
            {
              "start": 43536,
              "duration": 95,
              "midi": 43,
              "velocity": 71
            },
            {
              "start": 43632,
              "duration": 47,
              "midi": 55,
              "velocity": 71
            },
            {
              "start": 43680,
              "duration": 47,
              "midi": 43,
              "velocity": 71
            },
            {
              "start": 43728,
              "duration": 47,
              "midi": 55,
              "velocity": 71
            },
            {
              "start": 43776,
              "duration": 47,
              "midi": 48,
              "velocity": 71
            },
            {
              "start": 43776,
              "duration": 47,
              "midi": 36,
              "velocity": 63
            },
            {
              "start": 43920,
              "duration": 16,
              "midi": 60,
              "velocity": 63
            },
            {
              "start": 43920,
              "duration": 16,
              "midi": 48,
              "velocity": 63
            },
            {
              "start": 44016,
              "duration": 16,
              "midi": 63,
              "velocity": 63
            },
            {
              "start": 44016,
              "duration": 16,
              "midi": 51,
              "velocity": 63
            },
            {
              "start": 44112,
              "duration": 16,
              "midi": 60,
              "velocity": 63
            },
            {
              "start": 44112,
              "duration": 16,
              "midi": 48,
              "velocity": 63
            },
            {
              "start": 44208,
              "duration": 16,
              "midi": 56,
              "velocity": 63
            },
            {
              "start": 44208,
              "duration": 16,
              "midi": 44,
              "velocity": 63
            },
            {
              "start": 44256,
              "duration": 47,
              "midi": 56,
              "velocity": 63
            },
            {
              "start": 44256,
              "duration": 47,
              "midi": 44,
              "velocity": 63
            },
            {
              "start": 44304,
              "duration": 32,
              "midi": 48,
              "velocity": 71
            },
            {
              "start": 44304,
              "duration": 32,
              "midi": 60,
              "velocity": 71
            },
            {
              "start": 44352,
              "duration": 32,
              "midi": 43,
              "velocity": 71
            },
            {
              "start": 44352,
              "duration": 32,
              "midi": 55,
              "velocity": 71
            },
            {
              "start": 44400,
              "duration": 32,
              "midi": 43,
              "velocity": 71
            },
            {
              "start": 44400,
              "duration": 32,
              "midi": 55,
              "velocity": 71
            },
            {
              "start": 44448,
              "duration": 32,
              "midi": 43,
              "velocity": 71
            },
            {
              "start": 44448,
              "duration": 32,
              "midi": 55,
              "velocity": 71
            },
            {
              "start": 44496,
              "duration": 31,
              "midi": 48,
              "velocity": 71
            },
            {
              "start": 44496,
              "duration": 31,
              "midi": 60,
              "velocity": 71
            },
            {
              "start": 44544,
              "duration": 47,
              "midi": 48,
              "velocity": 71
            },
            {
              "start": 44544,
              "duration": 47,
              "midi": 36,
              "velocity": 63
            },
            {
              "start": 44688,
              "duration": 16,
              "midi": 60,
              "velocity": 63
            },
            {
              "start": 44688,
              "duration": 16,
              "midi": 48,
              "velocity": 63
            },
            {
              "start": 44784,
              "duration": 16,
              "midi": 63,
              "velocity": 63
            },
            {
              "start": 44784,
              "duration": 16,
              "midi": 51,
              "velocity": 63
            },
            {
              "start": 44880,
              "duration": 16,
              "midi": 60,
              "velocity": 63
            },
            {
              "start": 44880,
              "duration": 16,
              "midi": 48,
              "velocity": 63
            },
            {
              "start": 44976,
              "duration": 16,
              "midi": 56,
              "velocity": 63
            },
            {
              "start": 44976,
              "duration": 16,
              "midi": 44,
              "velocity": 63
            },
            {
              "start": 45024,
              "duration": 47,
              "midi": 56,
              "velocity": 63
            },
            {
              "start": 45024,
              "duration": 47,
              "midi": 44,
              "velocity": 63
            },
            {
              "start": 45072,
              "duration": 32,
              "midi": 48,
              "velocity": 71
            },
            {
              "start": 45072,
              "duration": 32,
              "midi": 60,
              "velocity": 71
            },
            {
              "start": 45120,
              "duration": 32,
              "midi": 43,
              "velocity": 71
            },
            {
              "start": 45120,
              "duration": 32,
              "midi": 55,
              "velocity": 71
            },
            {
              "start": 45168,
              "duration": 32,
              "midi": 43,
              "velocity": 71
            },
            {
              "start": 45168,
              "duration": 32,
              "midi": 55,
              "velocity": 71
            },
            {
              "start": 45216,
              "duration": 32,
              "midi": 43,
              "velocity": 71
            },
            {
              "start": 45216,
              "duration": 32,
              "midi": 55,
              "velocity": 71
            },
            {
              "start": 45264,
              "duration": 31,
              "midi": 48,
              "velocity": 71
            },
            {
              "start": 45264,
              "duration": 31,
              "midi": 60,
              "velocity": 71
            },
            {
              "start": 45312,
              "duration": 47,
              "midi": 48,
              "velocity": 71
            },
            {
              "start": 45312,
              "duration": 47,
              "midi": 36,
              "velocity": 63
            },
            {
              "start": 45456,
              "duration": 16,
              "midi": 60,
              "velocity": 63
            },
            {
              "start": 45456,
              "duration": 16,
              "midi": 48,
              "velocity": 63
            },
            {
              "start": 45552,
              "duration": 16,
              "midi": 63,
              "velocity": 63
            },
            {
              "start": 45552,
              "duration": 16,
              "midi": 51,
              "velocity": 63
            },
            {
              "start": 45648,
              "duration": 16,
              "midi": 60,
              "velocity": 63
            },
            {
              "start": 45648,
              "duration": 16,
              "midi": 48,
              "velocity": 63
            },
            {
              "start": 45744,
              "duration": 16,
              "midi": 56,
              "velocity": 63
            },
            {
              "start": 45744,
              "duration": 16,
              "midi": 44,
              "velocity": 63
            },
            {
              "start": 45792,
              "duration": 47,
              "midi": 56,
              "velocity": 63
            },
            {
              "start": 45792,
              "duration": 47,
              "midi": 44,
              "velocity": 63
            },
            {
              "start": 45840,
              "duration": 32,
              "midi": 48,
              "velocity": 71
            },
            {
              "start": 45840,
              "duration": 32,
              "midi": 60,
              "velocity": 71
            },
            {
              "start": 45888,
              "duration": 32,
              "midi": 43,
              "velocity": 71
            },
            {
              "start": 45888,
              "duration": 32,
              "midi": 55,
              "velocity": 71
            },
            {
              "start": 45936,
              "duration": 32,
              "midi": 43,
              "velocity": 71
            },
            {
              "start": 45936,
              "duration": 32,
              "midi": 55,
              "velocity": 71
            },
            {
              "start": 45984,
              "duration": 32,
              "midi": 43,
              "velocity": 71
            },
            {
              "start": 45984,
              "duration": 32,
              "midi": 55,
              "velocity": 71
            },
            {
              "start": 46032,
              "duration": 31,
              "midi": 48,
              "velocity": 71
            },
            {
              "start": 46032,
              "duration": 31,
              "midi": 60,
              "velocity": 71
            },
            {
              "start": 49152,
              "duration": 47,
              "midi": 48,
              "velocity": 71
            },
            {
              "start": 49152,
              "duration": 47,
              "midi": 36,
              "velocity": 63
            },
            {
              "start": 49296,
              "duration": 16,
              "midi": 60,
              "velocity": 63
            },
            {
              "start": 49296,
              "duration": 16,
              "midi": 48,
              "velocity": 63
            },
            {
              "start": 49392,
              "duration": 16,
              "midi": 63,
              "velocity": 63
            },
            {
              "start": 49392,
              "duration": 16,
              "midi": 51,
              "velocity": 63
            },
            {
              "start": 49488,
              "duration": 16,
              "midi": 60,
              "velocity": 63
            },
            {
              "start": 49488,
              "duration": 16,
              "midi": 48,
              "velocity": 63
            },
            {
              "start": 49584,
              "duration": 16,
              "midi": 56,
              "velocity": 63
            },
            {
              "start": 49584,
              "duration": 16,
              "midi": 44,
              "velocity": 63
            },
            {
              "start": 49632,
              "duration": 47,
              "midi": 56,
              "velocity": 63
            },
            {
              "start": 49632,
              "duration": 47,
              "midi": 44,
              "velocity": 63
            },
            {
              "start": 49680,
              "duration": 32,
              "midi": 48,
              "velocity": 71
            },
            {
              "start": 49680,
              "duration": 32,
              "midi": 60,
              "velocity": 71
            },
            {
              "start": 49728,
              "duration": 32,
              "midi": 43,
              "velocity": 71
            },
            {
              "start": 49728,
              "duration": 32,
              "midi": 55,
              "velocity": 71
            },
            {
              "start": 49776,
              "duration": 32,
              "midi": 43,
              "velocity": 71
            },
            {
              "start": 49776,
              "duration": 32,
              "midi": 55,
              "velocity": 71
            },
            {
              "start": 49824,
              "duration": 32,
              "midi": 43,
              "velocity": 71
            },
            {
              "start": 49824,
              "duration": 32,
              "midi": 55,
              "velocity": 71
            },
            {
              "start": 49872,
              "duration": 31,
              "midi": 48,
              "velocity": 71
            },
            {
              "start": 49872,
              "duration": 31,
              "midi": 60,
              "velocity": 71
            },
            {
              "start": 49920,
              "duration": 47,
              "midi": 48,
              "velocity": 71
            },
            {
              "start": 49920,
              "duration": 47,
              "midi": 36,
              "velocity": 63
            },
            {
              "start": 50064,
              "duration": 16,
              "midi": 60,
              "velocity": 63
            },
            {
              "start": 50064,
              "duration": 16,
              "midi": 48,
              "velocity": 63
            },
            {
              "start": 50160,
              "duration": 16,
              "midi": 63,
              "velocity": 63
            },
            {
              "start": 50160,
              "duration": 16,
              "midi": 51,
              "velocity": 63
            },
            {
              "start": 50256,
              "duration": 16,
              "midi": 60,
              "velocity": 63
            },
            {
              "start": 50256,
              "duration": 16,
              "midi": 48,
              "velocity": 63
            },
            {
              "start": 50352,
              "duration": 16,
              "midi": 56,
              "velocity": 63
            },
            {
              "start": 50352,
              "duration": 16,
              "midi": 44,
              "velocity": 63
            },
            {
              "start": 50400,
              "duration": 47,
              "midi": 56,
              "velocity": 63
            },
            {
              "start": 50400,
              "duration": 47,
              "midi": 44,
              "velocity": 63
            },
            {
              "start": 50448,
              "duration": 32,
              "midi": 48,
              "velocity": 71
            },
            {
              "start": 50448,
              "duration": 32,
              "midi": 60,
              "velocity": 71
            },
            {
              "start": 50496,
              "duration": 32,
              "midi": 43,
              "velocity": 71
            },
            {
              "start": 50496,
              "duration": 32,
              "midi": 55,
              "velocity": 71
            },
            {
              "start": 50544,
              "duration": 32,
              "midi": 43,
              "velocity": 71
            },
            {
              "start": 50544,
              "duration": 32,
              "midi": 55,
              "velocity": 71
            },
            {
              "start": 50592,
              "duration": 32,
              "midi": 43,
              "velocity": 71
            },
            {
              "start": 50592,
              "duration": 32,
              "midi": 55,
              "velocity": 71
            },
            {
              "start": 50640,
              "duration": 31,
              "midi": 48,
              "velocity": 71
            },
            {
              "start": 50640,
              "duration": 31,
              "midi": 60,
              "velocity": 71
            },
            {
              "start": 50688,
              "duration": 47,
              "midi": 48,
              "velocity": 71
            },
            {
              "start": 50688,
              "duration": 47,
              "midi": 36,
              "velocity": 63
            },
            {
              "start": 50832,
              "duration": 16,
              "midi": 60,
              "velocity": 63
            },
            {
              "start": 50832,
              "duration": 16,
              "midi": 48,
              "velocity": 63
            },
            {
              "start": 50928,
              "duration": 16,
              "midi": 63,
              "velocity": 63
            },
            {
              "start": 50928,
              "duration": 16,
              "midi": 51,
              "velocity": 63
            },
            {
              "start": 51024,
              "duration": 16,
              "midi": 60,
              "velocity": 63
            },
            {
              "start": 51024,
              "duration": 16,
              "midi": 48,
              "velocity": 63
            },
            {
              "start": 51120,
              "duration": 16,
              "midi": 56,
              "velocity": 63
            },
            {
              "start": 51120,
              "duration": 16,
              "midi": 44,
              "velocity": 63
            },
            {
              "start": 51168,
              "duration": 47,
              "midi": 56,
              "velocity": 63
            },
            {
              "start": 51168,
              "duration": 47,
              "midi": 44,
              "velocity": 63
            },
            {
              "start": 51216,
              "duration": 32,
              "midi": 48,
              "velocity": 71
            },
            {
              "start": 51216,
              "duration": 32,
              "midi": 60,
              "velocity": 71
            },
            {
              "start": 51264,
              "duration": 32,
              "midi": 43,
              "velocity": 71
            },
            {
              "start": 51264,
              "duration": 32,
              "midi": 55,
              "velocity": 71
            },
            {
              "start": 51312,
              "duration": 32,
              "midi": 43,
              "velocity": 71
            },
            {
              "start": 51312,
              "duration": 32,
              "midi": 55,
              "velocity": 71
            },
            {
              "start": 51360,
              "duration": 32,
              "midi": 43,
              "velocity": 71
            },
            {
              "start": 51360,
              "duration": 32,
              "midi": 55,
              "velocity": 71
            },
            {
              "start": 51408,
              "duration": 31,
              "midi": 48,
              "velocity": 71
            },
            {
              "start": 51408,
              "duration": 31,
              "midi": 60,
              "velocity": 71
            },
            {
              "start": 51456,
              "duration": 47,
              "midi": 48,
              "velocity": 71
            },
            {
              "start": 51456,
              "duration": 47,
              "midi": 36,
              "velocity": 63
            },
            {
              "start": 51600,
              "duration": 16,
              "midi": 60,
              "velocity": 63
            },
            {
              "start": 51600,
              "duration": 16,
              "midi": 48,
              "velocity": 63
            },
            {
              "start": 51696,
              "duration": 16,
              "midi": 51,
              "velocity": 63
            },
            {
              "start": 51792,
              "duration": 16,
              "midi": 60,
              "velocity": 63
            },
            {
              "start": 51792,
              "duration": 16,
              "midi": 48,
              "velocity": 63
            },
            {
              "start": 51888,
              "duration": 16,
              "midi": 56,
              "velocity": 63
            },
            {
              "start": 51888,
              "duration": 16,
              "midi": 44,
              "velocity": 63
            },
            {
              "start": 51936,
              "duration": 47,
              "midi": 56,
              "velocity": 63
            },
            {
              "start": 51936,
              "duration": 47,
              "midi": 44,
              "velocity": 63
            },
            {
              "start": 51984,
              "duration": 32,
              "midi": 48,
              "velocity": 71
            },
            {
              "start": 51984,
              "duration": 32,
              "midi": 60,
              "velocity": 71
            },
            {
              "start": 52032,
              "duration": 32,
              "midi": 43,
              "velocity": 71
            },
            {
              "start": 52032,
              "duration": 32,
              "midi": 55,
              "velocity": 71
            },
            {
              "start": 52080,
              "duration": 32,
              "midi": 43,
              "velocity": 71
            },
            {
              "start": 52080,
              "duration": 32,
              "midi": 55,
              "velocity": 71
            },
            {
              "start": 52128,
              "duration": 32,
              "midi": 43,
              "velocity": 71
            },
            {
              "start": 52128,
              "duration": 32,
              "midi": 55,
              "velocity": 71
            },
            {
              "start": 52176,
              "duration": 31,
              "midi": 48,
              "velocity": 71
            },
            {
              "start": 52176,
              "duration": 31,
              "midi": 60,
              "velocity": 71
            },
            {
              "start": 52224,
              "duration": 47,
              "midi": 48,
              "velocity": 71
            },
            {
              "start": 52224,
              "duration": 47,
              "midi": 36,
              "velocity": 63
            },
            {
              "start": 52368,
              "duration": 16,
              "midi": 60,
              "velocity": 63
            },
            {
              "start": 52368,
              "duration": 16,
              "midi": 48,
              "velocity": 63
            },
            {
              "start": 52464,
              "duration": 16,
              "midi": 63,
              "velocity": 63
            },
            {
              "start": 52464,
              "duration": 16,
              "midi": 51,
              "velocity": 63
            },
            {
              "start": 52560,
              "duration": 16,
              "midi": 60,
              "velocity": 63
            },
            {
              "start": 52560,
              "duration": 16,
              "midi": 48,
              "velocity": 63
            },
            {
              "start": 52656,
              "duration": 16,
              "midi": 56,
              "velocity": 63
            },
            {
              "start": 52656,
              "duration": 16,
              "midi": 44,
              "velocity": 63
            },
            {
              "start": 52704,
              "duration": 47,
              "midi": 56,
              "velocity": 63
            },
            {
              "start": 52704,
              "duration": 47,
              "midi": 44,
              "velocity": 63
            },
            {
              "start": 52752,
              "duration": 32,
              "midi": 48,
              "velocity": 71
            },
            {
              "start": 52752,
              "duration": 32,
              "midi": 60,
              "velocity": 71
            },
            {
              "start": 52800,
              "duration": 32,
              "midi": 43,
              "velocity": 71
            },
            {
              "start": 52800,
              "duration": 32,
              "midi": 55,
              "velocity": 71
            },
            {
              "start": 52848,
              "duration": 32,
              "midi": 43,
              "velocity": 71
            },
            {
              "start": 52848,
              "duration": 32,
              "midi": 55,
              "velocity": 71
            },
            {
              "start": 52896,
              "duration": 32,
              "midi": 43,
              "velocity": 71
            },
            {
              "start": 52896,
              "duration": 32,
              "midi": 55,
              "velocity": 71
            },
            {
              "start": 52944,
              "duration": 31,
              "midi": 48,
              "velocity": 71
            },
            {
              "start": 52944,
              "duration": 31,
              "midi": 60,
              "velocity": 71
            },
            {
              "start": 52992,
              "duration": 47,
              "midi": 48,
              "velocity": 71
            },
            {
              "start": 52992,
              "duration": 47,
              "midi": 36,
              "velocity": 63
            },
            {
              "start": 53136,
              "duration": 16,
              "midi": 60,
              "velocity": 63
            },
            {
              "start": 53136,
              "duration": 16,
              "midi": 48,
              "velocity": 63
            },
            {
              "start": 53232,
              "duration": 16,
              "midi": 63,
              "velocity": 63
            },
            {
              "start": 53232,
              "duration": 16,
              "midi": 51,
              "velocity": 63
            },
            {
              "start": 53328,
              "duration": 16,
              "midi": 60,
              "velocity": 63
            },
            {
              "start": 53328,
              "duration": 16,
              "midi": 48,
              "velocity": 63
            },
            {
              "start": 53424,
              "duration": 16,
              "midi": 56,
              "velocity": 63
            },
            {
              "start": 53424,
              "duration": 16,
              "midi": 44,
              "velocity": 63
            },
            {
              "start": 53472,
              "duration": 47,
              "midi": 56,
              "velocity": 63
            },
            {
              "start": 53472,
              "duration": 47,
              "midi": 44,
              "velocity": 63
            },
            {
              "start": 53520,
              "duration": 32,
              "midi": 48,
              "velocity": 71
            },
            {
              "start": 53520,
              "duration": 32,
              "midi": 60,
              "velocity": 71
            },
            {
              "start": 53568,
              "duration": 32,
              "midi": 43,
              "velocity": 71
            },
            {
              "start": 53568,
              "duration": 32,
              "midi": 55,
              "velocity": 71
            },
            {
              "start": 53616,
              "duration": 32,
              "midi": 43,
              "velocity": 71
            },
            {
              "start": 53616,
              "duration": 32,
              "midi": 55,
              "velocity": 71
            },
            {
              "start": 53664,
              "duration": 32,
              "midi": 43,
              "velocity": 71
            },
            {
              "start": 53664,
              "duration": 32,
              "midi": 55,
              "velocity": 71
            },
            {
              "start": 53712,
              "duration": 31,
              "midi": 48,
              "velocity": 71
            },
            {
              "start": 53712,
              "duration": 31,
              "midi": 60,
              "velocity": 71
            },
            {
              "start": 53760,
              "duration": 47,
              "midi": 48,
              "velocity": 71
            },
            {
              "start": 53760,
              "duration": 47,
              "midi": 36,
              "velocity": 63
            },
            {
              "start": 53904,
              "duration": 16,
              "midi": 60,
              "velocity": 63
            },
            {
              "start": 53904,
              "duration": 16,
              "midi": 48,
              "velocity": 63
            },
            {
              "start": 54000,
              "duration": 16,
              "midi": 63,
              "velocity": 63
            },
            {
              "start": 54000,
              "duration": 16,
              "midi": 51,
              "velocity": 63
            },
            {
              "start": 54096,
              "duration": 16,
              "midi": 60,
              "velocity": 63
            },
            {
              "start": 54096,
              "duration": 16,
              "midi": 48,
              "velocity": 63
            },
            {
              "start": 54192,
              "duration": 16,
              "midi": 56,
              "velocity": 63
            },
            {
              "start": 54192,
              "duration": 16,
              "midi": 44,
              "velocity": 63
            },
            {
              "start": 54240,
              "duration": 47,
              "midi": 56,
              "velocity": 63
            },
            {
              "start": 54240,
              "duration": 47,
              "midi": 44,
              "velocity": 63
            },
            {
              "start": 54288,
              "duration": 32,
              "midi": 48,
              "velocity": 71
            },
            {
              "start": 54288,
              "duration": 32,
              "midi": 60,
              "velocity": 71
            },
            {
              "start": 54336,
              "duration": 32,
              "midi": 43,
              "velocity": 71
            },
            {
              "start": 54336,
              "duration": 32,
              "midi": 55,
              "velocity": 71
            },
            {
              "start": 54384,
              "duration": 32,
              "midi": 43,
              "velocity": 71
            },
            {
              "start": 54384,
              "duration": 32,
              "midi": 55,
              "velocity": 71
            },
            {
              "start": 54432,
              "duration": 32,
              "midi": 43,
              "velocity": 71
            },
            {
              "start": 54432,
              "duration": 32,
              "midi": 55,
              "velocity": 71
            },
            {
              "start": 54480,
              "duration": 31,
              "midi": 48,
              "velocity": 71
            },
            {
              "start": 54480,
              "duration": 31,
              "midi": 60,
              "velocity": 71
            },
            {
              "start": 54528,
              "duration": 47,
              "midi": 48,
              "velocity": 71
            },
            {
              "start": 54528,
              "duration": 47,
              "midi": 36,
              "velocity": 63
            },
            {
              "start": 54672,
              "duration": 16,
              "midi": 60,
              "velocity": 63
            },
            {
              "start": 54672,
              "duration": 16,
              "midi": 48,
              "velocity": 63
            },
            {
              "start": 54768,
              "duration": 16,
              "midi": 51,
              "velocity": 63
            },
            {
              "start": 54864,
              "duration": 16,
              "midi": 60,
              "velocity": 63
            },
            {
              "start": 54864,
              "duration": 16,
              "midi": 48,
              "velocity": 63
            },
            {
              "start": 54960,
              "duration": 16,
              "midi": 56,
              "velocity": 40
            },
            {
              "start": 54960,
              "duration": 16,
              "midi": 44,
              "velocity": 40
            },
            {
              "start": 55008,
              "duration": 47,
              "midi": 56,
              "velocity": 40
            },
            {
              "start": 55008,
              "duration": 47,
              "midi": 44,
              "velocity": 40
            },
            {
              "start": 55056,
              "duration": 32,
              "midi": 48,
              "velocity": 46
            },
            {
              "start": 55056,
              "duration": 32,
              "midi": 60,
              "velocity": 46
            },
            {
              "start": 55104,
              "duration": 32,
              "midi": 43,
              "velocity": 46
            },
            {
              "start": 55104,
              "duration": 32,
              "midi": 55,
              "velocity": 46
            },
            {
              "start": 55152,
              "duration": 32,
              "midi": 43,
              "velocity": 46
            },
            {
              "start": 55152,
              "duration": 32,
              "midi": 55,
              "velocity": 46
            },
            {
              "start": 55200,
              "duration": 32,
              "midi": 43,
              "velocity": 46
            },
            {
              "start": 55200,
              "duration": 32,
              "midi": 55,
              "velocity": 46
            },
            {
              "start": 55248,
              "duration": 31,
              "midi": 48,
              "velocity": 46
            },
            {
              "start": 55248,
              "duration": 31,
              "midi": 60,
              "velocity": 46
            },
            {
              "start": 55296,
              "duration": 47,
              "midi": 48,
              "velocity": 46
            },
            {
              "start": 55296,
              "duration": 47,
              "midi": 36,
              "velocity": 40
            },
            {
              "start": 55440,
              "duration": 16,
              "midi": 60,
              "velocity": 40
            },
            {
              "start": 55440,
              "duration": 16,
              "midi": 48,
              "velocity": 40
            },
            {
              "start": 55536,
              "duration": 16,
              "midi": 63,
              "velocity": 40
            },
            {
              "start": 55536,
              "duration": 16,
              "midi": 51,
              "velocity": 40
            },
            {
              "start": 55632,
              "duration": 16,
              "midi": 60,
              "velocity": 40
            },
            {
              "start": 55632,
              "duration": 16,
              "midi": 48,
              "velocity": 40
            },
            {
              "start": 55728,
              "duration": 16,
              "midi": 56,
              "velocity": 31
            },
            {
              "start": 55728,
              "duration": 16,
              "midi": 44,
              "velocity": 31
            },
            {
              "start": 55776,
              "duration": 47,
              "midi": 56,
              "velocity": 31
            },
            {
              "start": 55776,
              "duration": 47,
              "midi": 44,
              "velocity": 31
            },
            {
              "start": 55824,
              "duration": 32,
              "midi": 48,
              "velocity": 35
            },
            {
              "start": 55824,
              "duration": 32,
              "midi": 60,
              "velocity": 35
            },
            {
              "start": 55872,
              "duration": 32,
              "midi": 43,
              "velocity": 35
            },
            {
              "start": 55872,
              "duration": 32,
              "midi": 55,
              "velocity": 35
            },
            {
              "start": 55920,
              "duration": 32,
              "midi": 43,
              "velocity": 35
            },
            {
              "start": 55920,
              "duration": 32,
              "midi": 55,
              "velocity": 35
            },
            {
              "start": 55968,
              "duration": 32,
              "midi": 43,
              "velocity": 35
            },
            {
              "start": 55968,
              "duration": 32,
              "midi": 55,
              "velocity": 35
            },
            {
              "start": 56016,
              "duration": 31,
              "midi": 48,
              "velocity": 35
            },
            {
              "start": 56016,
              "duration": 31,
              "midi": 60,
              "velocity": 35
            },
            {
              "start": 56064,
              "duration": 47,
              "midi": 48,
              "velocity": 35
            },
            {
              "start": 56064,
              "duration": 47,
              "midi": 36,
              "velocity": 31
            },
            {
              "start": 56208,
              "duration": 16,
              "midi": 60,
              "velocity": 31
            },
            {
              "start": 56208,
              "duration": 16,
              "midi": 48,
              "velocity": 31
            },
            {
              "start": 56304,
              "duration": 16,
              "midi": 63,
              "velocity": 31
            },
            {
              "start": 56304,
              "duration": 16,
              "midi": 51,
              "velocity": 31
            },
            {
              "start": 56400,
              "duration": 16,
              "midi": 60,
              "velocity": 31
            },
            {
              "start": 56400,
              "duration": 16,
              "midi": 48,
              "velocity": 31
            },
            {
              "start": 56496,
              "duration": 16,
              "midi": 56,
              "velocity": 26
            },
            {
              "start": 56496,
              "duration": 16,
              "midi": 44,
              "velocity": 26
            },
            {
              "start": 56544,
              "duration": 47,
              "midi": 56,
              "velocity": 26
            },
            {
              "start": 56544,
              "duration": 47,
              "midi": 44,
              "velocity": 26
            },
            {
              "start": 56592,
              "duration": 32,
              "midi": 48,
              "velocity": 29
            },
            {
              "start": 56592,
              "duration": 32,
              "midi": 60,
              "velocity": 29
            },
            {
              "start": 56640,
              "duration": 32,
              "midi": 43,
              "velocity": 29
            },
            {
              "start": 56640,
              "duration": 32,
              "midi": 55,
              "velocity": 29
            },
            {
              "start": 56688,
              "duration": 32,
              "midi": 43,
              "velocity": 29
            },
            {
              "start": 56688,
              "duration": 32,
              "midi": 55,
              "velocity": 29
            },
            {
              "start": 56736,
              "duration": 32,
              "midi": 43,
              "velocity": 29
            },
            {
              "start": 56736,
              "duration": 32,
              "midi": 55,
              "velocity": 29
            },
            {
              "start": 56784,
              "duration": 31,
              "midi": 48,
              "velocity": 29
            },
            {
              "start": 56784,
              "duration": 31,
              "midi": 60,
              "velocity": 29
            },
            {
              "start": 56832,
              "duration": 47,
              "midi": 48,
              "velocity": 29
            },
            {
              "start": 56832,
              "duration": 47,
              "midi": 36,
              "velocity": 26
            },
            {
              "start": 56976,
              "duration": 16,
              "midi": 60,
              "velocity": 26
            },
            {
              "start": 56976,
              "duration": 16,
              "midi": 48,
              "velocity": 26
            },
            {
              "start": 57072,
              "duration": 16,
              "midi": 63,
              "velocity": 26
            },
            {
              "start": 57072,
              "duration": 16,
              "midi": 51,
              "velocity": 26
            },
            {
              "start": 57168,
              "duration": 16,
              "midi": 60,
              "velocity": 26
            },
            {
              "start": 57168,
              "duration": 16,
              "midi": 48,
              "velocity": 26
            },
            {
              "start": 57264,
              "duration": 16,
              "midi": 56,
              "velocity": 17
            },
            {
              "start": 57264,
              "duration": 16,
              "midi": 44,
              "velocity": 17
            },
            {
              "start": 57312,
              "duration": 47,
              "midi": 56,
              "velocity": 17
            },
            {
              "start": 57312,
              "duration": 47,
              "midi": 44,
              "velocity": 17
            },
            {
              "start": 57360,
              "duration": 32,
              "midi": 48,
              "velocity": 19
            },
            {
              "start": 57360,
              "duration": 32,
              "midi": 60,
              "velocity": 19
            },
            {
              "start": 57408,
              "duration": 32,
              "midi": 43,
              "velocity": 19
            },
            {
              "start": 57408,
              "duration": 32,
              "midi": 55,
              "velocity": 19
            },
            {
              "start": 57456,
              "duration": 32,
              "midi": 43,
              "velocity": 19
            },
            {
              "start": 57456,
              "duration": 32,
              "midi": 55,
              "velocity": 19
            },
            {
              "start": 57504,
              "duration": 32,
              "midi": 43,
              "velocity": 19
            },
            {
              "start": 57504,
              "duration": 32,
              "midi": 55,
              "velocity": 19
            },
            {
              "start": 57552,
              "duration": 31,
              "midi": 48,
              "velocity": 19
            },
            {
              "start": 57552,
              "duration": 31,
              "midi": 60,
              "velocity": 19
            },
            {
              "start": 57600,
              "duration": 47,
              "midi": 48,
              "velocity": 19
            },
            {
              "start": 57600,
              "duration": 47,
              "midi": 36,
              "velocity": 17
            },
            {
              "start": 57744,
              "duration": 16,
              "midi": 60,
              "velocity": 17
            },
            {
              "start": 57744,
              "duration": 16,
              "midi": 48,
              "velocity": 17
            },
            {
              "start": 57840,
              "duration": 16,
              "midi": 51,
              "velocity": 17
            },
            {
              "start": 57936,
              "duration": 16,
              "midi": 60,
              "velocity": 17
            },
            {
              "start": 57936,
              "duration": 16,
              "midi": 48,
              "velocity": 17
            },
            {
              "start": 58032,
              "duration": 16,
              "midi": 56,
              "velocity": 17
            },
            {
              "start": 58032,
              "duration": 16,
              "midi": 44,
              "velocity": 17
            },
            {
              "start": 58080,
              "duration": 47,
              "midi": 56,
              "velocity": 17
            },
            {
              "start": 58080,
              "duration": 47,
              "midi": 44,
              "velocity": 17
            },
            {
              "start": 58128,
              "duration": 32,
              "midi": 48,
              "velocity": 19
            },
            {
              "start": 58128,
              "duration": 32,
              "midi": 60,
              "velocity": 19
            },
            {
              "start": 58176,
              "duration": 32,
              "midi": 43,
              "velocity": 19
            },
            {
              "start": 58176,
              "duration": 32,
              "midi": 55,
              "velocity": 19
            },
            {
              "start": 58224,
              "duration": 32,
              "midi": 43,
              "velocity": 19
            },
            {
              "start": 58224,
              "duration": 32,
              "midi": 55,
              "velocity": 19
            },
            {
              "start": 58272,
              "duration": 32,
              "midi": 43,
              "velocity": 19
            },
            {
              "start": 58272,
              "duration": 32,
              "midi": 55,
              "velocity": 19
            },
            {
              "start": 58320,
              "duration": 31,
              "midi": 48,
              "velocity": 19
            },
            {
              "start": 58320,
              "duration": 31,
              "midi": 60,
              "velocity": 19
            }
          ]
        }
      ],
      "enginePresetName": "factory:LEAD Square"
    },
    {
      "id": "lane-mpr2auvs-g",
      "engineId": "subtractive",
      "name": "BASS Reese",
      "clips": [
        {
          "id": "clip-mpr2auvs-f",
          "name": "BASS Reese",
          "lengthBars": 152,
          "notes": [
            {
              "start": 0,
              "duration": 47,
              "midi": 48,
              "velocity": 100
            },
            {
              "start": 0,
              "duration": 47,
              "midi": 36,
              "velocity": 100
            },
            {
              "start": 48,
              "duration": 47,
              "midi": 48,
              "velocity": 100
            },
            {
              "start": 96,
              "duration": 47,
              "midi": 48,
              "velocity": 100
            },
            {
              "start": 144,
              "duration": 47,
              "midi": 48,
              "velocity": 100
            },
            {
              "start": 192,
              "duration": 47,
              "midi": 51,
              "velocity": 100
            },
            {
              "start": 240,
              "duration": 47,
              "midi": 51,
              "velocity": 100
            },
            {
              "start": 288,
              "duration": 47,
              "midi": 48,
              "velocity": 100
            },
            {
              "start": 336,
              "duration": 47,
              "midi": 48,
              "velocity": 100
            },
            {
              "start": 384,
              "duration": 47,
              "midi": 44,
              "velocity": 100
            },
            {
              "start": 432,
              "duration": 47,
              "midi": 44,
              "velocity": 100
            },
            {
              "start": 480,
              "duration": 47,
              "midi": 44,
              "velocity": 100
            },
            {
              "start": 528,
              "duration": 47,
              "midi": 48,
              "velocity": 100
            },
            {
              "start": 576,
              "duration": 47,
              "midi": 43,
              "velocity": 100
            },
            {
              "start": 624,
              "duration": 47,
              "midi": 43,
              "velocity": 100
            },
            {
              "start": 672,
              "duration": 47,
              "midi": 43,
              "velocity": 100
            },
            {
              "start": 720,
              "duration": 31,
              "midi": 48,
              "velocity": 100
            },
            {
              "start": 768,
              "duration": 47,
              "midi": 48,
              "velocity": 100
            },
            {
              "start": 768,
              "duration": 47,
              "midi": 36,
              "velocity": 100
            },
            {
              "start": 816,
              "duration": 47,
              "midi": 48,
              "velocity": 100
            },
            {
              "start": 864,
              "duration": 47,
              "midi": 48,
              "velocity": 100
            },
            {
              "start": 912,
              "duration": 47,
              "midi": 48,
              "velocity": 100
            },
            {
              "start": 960,
              "duration": 47,
              "midi": 51,
              "velocity": 100
            },
            {
              "start": 1008,
              "duration": 47,
              "midi": 51,
              "velocity": 100
            },
            {
              "start": 1056,
              "duration": 47,
              "midi": 48,
              "velocity": 100
            },
            {
              "start": 1104,
              "duration": 47,
              "midi": 48,
              "velocity": 100
            },
            {
              "start": 1152,
              "duration": 47,
              "midi": 44,
              "velocity": 100
            },
            {
              "start": 1200,
              "duration": 47,
              "midi": 44,
              "velocity": 100
            },
            {
              "start": 1248,
              "duration": 47,
              "midi": 44,
              "velocity": 100
            },
            {
              "start": 1296,
              "duration": 47,
              "midi": 48,
              "velocity": 100
            },
            {
              "start": 1344,
              "duration": 47,
              "midi": 43,
              "velocity": 100
            },
            {
              "start": 1392,
              "duration": 47,
              "midi": 43,
              "velocity": 100
            },
            {
              "start": 1440,
              "duration": 47,
              "midi": 43,
              "velocity": 100
            },
            {
              "start": 1488,
              "duration": 31,
              "midi": 48,
              "velocity": 100
            },
            {
              "start": 1536,
              "duration": 47,
              "midi": 48,
              "velocity": 100
            },
            {
              "start": 1536,
              "duration": 47,
              "midi": 36,
              "velocity": 100
            },
            {
              "start": 1584,
              "duration": 47,
              "midi": 48,
              "velocity": 100
            },
            {
              "start": 1632,
              "duration": 47,
              "midi": 48,
              "velocity": 100
            },
            {
              "start": 1680,
              "duration": 47,
              "midi": 48,
              "velocity": 100
            },
            {
              "start": 1728,
              "duration": 47,
              "midi": 51,
              "velocity": 100
            },
            {
              "start": 1776,
              "duration": 47,
              "midi": 51,
              "velocity": 100
            },
            {
              "start": 1824,
              "duration": 47,
              "midi": 48,
              "velocity": 100
            },
            {
              "start": 1872,
              "duration": 47,
              "midi": 48,
              "velocity": 100
            },
            {
              "start": 1920,
              "duration": 47,
              "midi": 44,
              "velocity": 100
            },
            {
              "start": 1968,
              "duration": 47,
              "midi": 44,
              "velocity": 100
            },
            {
              "start": 2016,
              "duration": 47,
              "midi": 44,
              "velocity": 100
            },
            {
              "start": 2064,
              "duration": 47,
              "midi": 48,
              "velocity": 100
            },
            {
              "start": 2112,
              "duration": 47,
              "midi": 43,
              "velocity": 100
            },
            {
              "start": 2160,
              "duration": 47,
              "midi": 43,
              "velocity": 100
            },
            {
              "start": 2208,
              "duration": 47,
              "midi": 43,
              "velocity": 100
            },
            {
              "start": 2256,
              "duration": 31,
              "midi": 48,
              "velocity": 100
            },
            {
              "start": 2304,
              "duration": 47,
              "midi": 48,
              "velocity": 100
            },
            {
              "start": 2304,
              "duration": 47,
              "midi": 36,
              "velocity": 100
            },
            {
              "start": 2352,
              "duration": 47,
              "midi": 48,
              "velocity": 100
            },
            {
              "start": 2400,
              "duration": 47,
              "midi": 48,
              "velocity": 100
            },
            {
              "start": 2448,
              "duration": 47,
              "midi": 48,
              "velocity": 100
            },
            {
              "start": 2496,
              "duration": 47,
              "midi": 51,
              "velocity": 100
            },
            {
              "start": 2544,
              "duration": 47,
              "midi": 51,
              "velocity": 100
            },
            {
              "start": 2592,
              "duration": 47,
              "midi": 48,
              "velocity": 100
            },
            {
              "start": 2640,
              "duration": 47,
              "midi": 48,
              "velocity": 100
            },
            {
              "start": 2688,
              "duration": 47,
              "midi": 44,
              "velocity": 100
            },
            {
              "start": 2736,
              "duration": 47,
              "midi": 44,
              "velocity": 100
            },
            {
              "start": 2784,
              "duration": 47,
              "midi": 44,
              "velocity": 100
            },
            {
              "start": 2832,
              "duration": 47,
              "midi": 48,
              "velocity": 100
            },
            {
              "start": 2880,
              "duration": 47,
              "midi": 43,
              "velocity": 100
            },
            {
              "start": 2928,
              "duration": 47,
              "midi": 43,
              "velocity": 100
            },
            {
              "start": 2976,
              "duration": 47,
              "midi": 43,
              "velocity": 100
            },
            {
              "start": 3024,
              "duration": 31,
              "midi": 48,
              "velocity": 100
            },
            {
              "start": 3072,
              "duration": 95,
              "midi": 44,
              "velocity": 100
            },
            {
              "start": 3168,
              "duration": 47,
              "midi": 56,
              "velocity": 100
            },
            {
              "start": 3216,
              "duration": 95,
              "midi": 44,
              "velocity": 100
            },
            {
              "start": 3312,
              "duration": 47,
              "midi": 56,
              "velocity": 100
            },
            {
              "start": 3360,
              "duration": 47,
              "midi": 44,
              "velocity": 100
            },
            {
              "start": 3408,
              "duration": 47,
              "midi": 56,
              "velocity": 100
            },
            {
              "start": 3456,
              "duration": 95,
              "midi": 43,
              "velocity": 100
            },
            {
              "start": 3552,
              "duration": 47,
              "midi": 55,
              "velocity": 100
            },
            {
              "start": 3600,
              "duration": 95,
              "midi": 43,
              "velocity": 100
            },
            {
              "start": 3696,
              "duration": 47,
              "midi": 55,
              "velocity": 100
            },
            {
              "start": 3744,
              "duration": 47,
              "midi": 43,
              "velocity": 100
            },
            {
              "start": 3792,
              "duration": 47,
              "midi": 55,
              "velocity": 100
            },
            {
              "start": 3840,
              "duration": 95,
              "midi": 48,
              "velocity": 100
            },
            {
              "start": 3936,
              "duration": 47,
              "midi": 48,
              "velocity": 100
            },
            {
              "start": 3984,
              "duration": 47,
              "midi": 48,
              "velocity": 100
            },
            {
              "start": 4032,
              "duration": 47,
              "midi": 48,
              "velocity": 100
            },
            {
              "start": 4080,
              "duration": 47,
              "midi": 48,
              "velocity": 100
            },
            {
              "start": 4128,
              "duration": 95,
              "midi": 48,
              "velocity": 100
            },
            {
              "start": 4224,
              "duration": 95,
              "midi": 41,
              "velocity": 100
            },
            {
              "start": 4320,
              "duration": 47,
              "midi": 53,
              "velocity": 100
            },
            {
              "start": 4368,
              "duration": 95,
              "midi": 41,
              "velocity": 100
            },
            {
              "start": 4464,
              "duration": 47,
              "midi": 53,
              "velocity": 100
            },
            {
              "start": 4512,
              "duration": 47,
              "midi": 41,
              "velocity": 100
            },
            {
              "start": 4560,
              "duration": 47,
              "midi": 53,
              "velocity": 100
            },
            {
              "start": 4608,
              "duration": 95,
              "midi": 44,
              "velocity": 100
            },
            {
              "start": 4704,
              "duration": 47,
              "midi": 56,
              "velocity": 100
            },
            {
              "start": 4752,
              "duration": 95,
              "midi": 44,
              "velocity": 100
            },
            {
              "start": 4848,
              "duration": 47,
              "midi": 56,
              "velocity": 100
            },
            {
              "start": 4896,
              "duration": 47,
              "midi": 44,
              "velocity": 100
            },
            {
              "start": 4944,
              "duration": 47,
              "midi": 56,
              "velocity": 100
            },
            {
              "start": 4992,
              "duration": 95,
              "midi": 43,
              "velocity": 100
            },
            {
              "start": 5088,
              "duration": 47,
              "midi": 55,
              "velocity": 100
            },
            {
              "start": 5136,
              "duration": 95,
              "midi": 43,
              "velocity": 100
            },
            {
              "start": 5232,
              "duration": 47,
              "midi": 55,
              "velocity": 100
            },
            {
              "start": 5280,
              "duration": 47,
              "midi": 43,
              "velocity": 100
            },
            {
              "start": 5328,
              "duration": 47,
              "midi": 55,
              "velocity": 100
            },
            {
              "start": 5376,
              "duration": 47,
              "midi": 48,
              "velocity": 100
            },
            {
              "start": 5376,
              "duration": 47,
              "midi": 36,
              "velocity": 100
            },
            {
              "start": 5424,
              "duration": 47,
              "midi": 48,
              "velocity": 100
            },
            {
              "start": 5472,
              "duration": 47,
              "midi": 48,
              "velocity": 100
            },
            {
              "start": 5520,
              "duration": 47,
              "midi": 48,
              "velocity": 100
            },
            {
              "start": 5568,
              "duration": 47,
              "midi": 51,
              "velocity": 100
            },
            {
              "start": 5616,
              "duration": 47,
              "midi": 51,
              "velocity": 100
            },
            {
              "start": 5664,
              "duration": 47,
              "midi": 48,
              "velocity": 100
            },
            {
              "start": 5712,
              "duration": 47,
              "midi": 48,
              "velocity": 100
            },
            {
              "start": 5760,
              "duration": 47,
              "midi": 44,
              "velocity": 100
            },
            {
              "start": 5808,
              "duration": 47,
              "midi": 44,
              "velocity": 100
            },
            {
              "start": 5856,
              "duration": 47,
              "midi": 44,
              "velocity": 100
            },
            {
              "start": 5904,
              "duration": 47,
              "midi": 48,
              "velocity": 100
            },
            {
              "start": 5952,
              "duration": 47,
              "midi": 43,
              "velocity": 100
            },
            {
              "start": 6000,
              "duration": 47,
              "midi": 43,
              "velocity": 100
            },
            {
              "start": 6048,
              "duration": 47,
              "midi": 43,
              "velocity": 100
            },
            {
              "start": 6096,
              "duration": 31,
              "midi": 48,
              "velocity": 100
            },
            {
              "start": 6144,
              "duration": 47,
              "midi": 48,
              "velocity": 100
            },
            {
              "start": 6144,
              "duration": 47,
              "midi": 36,
              "velocity": 100
            },
            {
              "start": 6192,
              "duration": 47,
              "midi": 48,
              "velocity": 100
            },
            {
              "start": 6240,
              "duration": 47,
              "midi": 48,
              "velocity": 100
            },
            {
              "start": 6288,
              "duration": 47,
              "midi": 48,
              "velocity": 100
            },
            {
              "start": 6336,
              "duration": 47,
              "midi": 51,
              "velocity": 100
            },
            {
              "start": 6384,
              "duration": 47,
              "midi": 51,
              "velocity": 100
            },
            {
              "start": 6432,
              "duration": 47,
              "midi": 48,
              "velocity": 100
            },
            {
              "start": 6480,
              "duration": 47,
              "midi": 48,
              "velocity": 100
            },
            {
              "start": 6528,
              "duration": 47,
              "midi": 44,
              "velocity": 100
            },
            {
              "start": 6576,
              "duration": 47,
              "midi": 44,
              "velocity": 100
            },
            {
              "start": 6624,
              "duration": 47,
              "midi": 44,
              "velocity": 100
            },
            {
              "start": 6672,
              "duration": 47,
              "midi": 48,
              "velocity": 100
            },
            {
              "start": 6720,
              "duration": 47,
              "midi": 43,
              "velocity": 100
            },
            {
              "start": 6768,
              "duration": 47,
              "midi": 43,
              "velocity": 100
            },
            {
              "start": 6816,
              "duration": 47,
              "midi": 43,
              "velocity": 100
            },
            {
              "start": 6864,
              "duration": 31,
              "midi": 48,
              "velocity": 100
            },
            {
              "start": 6912,
              "duration": 47,
              "midi": 48,
              "velocity": 100
            },
            {
              "start": 6912,
              "duration": 47,
              "midi": 36,
              "velocity": 100
            },
            {
              "start": 6960,
              "duration": 47,
              "midi": 48,
              "velocity": 100
            },
            {
              "start": 7008,
              "duration": 47,
              "midi": 48,
              "velocity": 100
            },
            {
              "start": 7056,
              "duration": 47,
              "midi": 48,
              "velocity": 100
            },
            {
              "start": 7104,
              "duration": 47,
              "midi": 51,
              "velocity": 100
            },
            {
              "start": 7152,
              "duration": 47,
              "midi": 51,
              "velocity": 100
            },
            {
              "start": 7200,
              "duration": 47,
              "midi": 48,
              "velocity": 100
            },
            {
              "start": 7248,
              "duration": 47,
              "midi": 48,
              "velocity": 100
            },
            {
              "start": 7296,
              "duration": 47,
              "midi": 44,
              "velocity": 100
            },
            {
              "start": 7344,
              "duration": 47,
              "midi": 44,
              "velocity": 100
            },
            {
              "start": 7392,
              "duration": 47,
              "midi": 44,
              "velocity": 100
            },
            {
              "start": 7440,
              "duration": 47,
              "midi": 48,
              "velocity": 100
            },
            {
              "start": 7488,
              "duration": 47,
              "midi": 43,
              "velocity": 100
            },
            {
              "start": 7536,
              "duration": 47,
              "midi": 43,
              "velocity": 100
            },
            {
              "start": 7584,
              "duration": 47,
              "midi": 43,
              "velocity": 100
            },
            {
              "start": 7632,
              "duration": 31,
              "midi": 48,
              "velocity": 100
            },
            {
              "start": 7680,
              "duration": 47,
              "midi": 48,
              "velocity": 100
            },
            {
              "start": 7680,
              "duration": 47,
              "midi": 36,
              "velocity": 100
            },
            {
              "start": 7728,
              "duration": 47,
              "midi": 48,
              "velocity": 100
            },
            {
              "start": 7776,
              "duration": 47,
              "midi": 48,
              "velocity": 100
            },
            {
              "start": 7824,
              "duration": 47,
              "midi": 48,
              "velocity": 100
            },
            {
              "start": 7872,
              "duration": 47,
              "midi": 51,
              "velocity": 100
            },
            {
              "start": 7920,
              "duration": 47,
              "midi": 51,
              "velocity": 100
            },
            {
              "start": 7968,
              "duration": 47,
              "midi": 48,
              "velocity": 100
            },
            {
              "start": 8016,
              "duration": 47,
              "midi": 48,
              "velocity": 100
            },
            {
              "start": 8064,
              "duration": 47,
              "midi": 44,
              "velocity": 100
            },
            {
              "start": 8112,
              "duration": 47,
              "midi": 44,
              "velocity": 100
            },
            {
              "start": 8160,
              "duration": 47,
              "midi": 44,
              "velocity": 100
            },
            {
              "start": 8208,
              "duration": 47,
              "midi": 48,
              "velocity": 100
            },
            {
              "start": 8256,
              "duration": 47,
              "midi": 43,
              "velocity": 100
            },
            {
              "start": 8304,
              "duration": 47,
              "midi": 43,
              "velocity": 100
            },
            {
              "start": 8352,
              "duration": 47,
              "midi": 43,
              "velocity": 100
            },
            {
              "start": 8400,
              "duration": 31,
              "midi": 48,
              "velocity": 100
            },
            {
              "start": 8448,
              "duration": 47,
              "midi": 48,
              "velocity": 100
            },
            {
              "start": 8448,
              "duration": 47,
              "midi": 36,
              "velocity": 100
            },
            {
              "start": 8496,
              "duration": 47,
              "midi": 48,
              "velocity": 100
            },
            {
              "start": 8544,
              "duration": 47,
              "midi": 48,
              "velocity": 100
            },
            {
              "start": 8592,
              "duration": 47,
              "midi": 48,
              "velocity": 100
            },
            {
              "start": 8640,
              "duration": 47,
              "midi": 51,
              "velocity": 100
            },
            {
              "start": 8688,
              "duration": 47,
              "midi": 51,
              "velocity": 100
            },
            {
              "start": 8736,
              "duration": 47,
              "midi": 48,
              "velocity": 100
            },
            {
              "start": 8784,
              "duration": 47,
              "midi": 48,
              "velocity": 100
            },
            {
              "start": 8832,
              "duration": 47,
              "midi": 44,
              "velocity": 100
            },
            {
              "start": 8880,
              "duration": 47,
              "midi": 44,
              "velocity": 100
            },
            {
              "start": 8928,
              "duration": 47,
              "midi": 44,
              "velocity": 100
            },
            {
              "start": 8976,
              "duration": 47,
              "midi": 48,
              "velocity": 100
            },
            {
              "start": 9024,
              "duration": 47,
              "midi": 43,
              "velocity": 100
            },
            {
              "start": 9072,
              "duration": 47,
              "midi": 43,
              "velocity": 100
            },
            {
              "start": 9120,
              "duration": 47,
              "midi": 43,
              "velocity": 100
            },
            {
              "start": 9168,
              "duration": 31,
              "midi": 48,
              "velocity": 100
            },
            {
              "start": 9216,
              "duration": 47,
              "midi": 48,
              "velocity": 100
            },
            {
              "start": 9216,
              "duration": 47,
              "midi": 36,
              "velocity": 100
            },
            {
              "start": 9264,
              "duration": 47,
              "midi": 48,
              "velocity": 100
            },
            {
              "start": 9312,
              "duration": 47,
              "midi": 48,
              "velocity": 100
            },
            {
              "start": 9360,
              "duration": 47,
              "midi": 48,
              "velocity": 100
            },
            {
              "start": 9408,
              "duration": 47,
              "midi": 51,
              "velocity": 100
            },
            {
              "start": 9456,
              "duration": 47,
              "midi": 51,
              "velocity": 100
            },
            {
              "start": 9504,
              "duration": 47,
              "midi": 48,
              "velocity": 100
            },
            {
              "start": 9552,
              "duration": 47,
              "midi": 48,
              "velocity": 100
            },
            {
              "start": 9600,
              "duration": 47,
              "midi": 44,
              "velocity": 100
            },
            {
              "start": 9648,
              "duration": 47,
              "midi": 44,
              "velocity": 100
            },
            {
              "start": 9696,
              "duration": 47,
              "midi": 44,
              "velocity": 100
            },
            {
              "start": 9744,
              "duration": 47,
              "midi": 48,
              "velocity": 100
            },
            {
              "start": 9792,
              "duration": 47,
              "midi": 43,
              "velocity": 100
            },
            {
              "start": 9840,
              "duration": 47,
              "midi": 43,
              "velocity": 100
            },
            {
              "start": 9888,
              "duration": 47,
              "midi": 43,
              "velocity": 100
            },
            {
              "start": 9936,
              "duration": 31,
              "midi": 48,
              "velocity": 100
            },
            {
              "start": 9984,
              "duration": 47,
              "midi": 48,
              "velocity": 100
            },
            {
              "start": 9984,
              "duration": 47,
              "midi": 36,
              "velocity": 100
            },
            {
              "start": 10032,
              "duration": 47,
              "midi": 48,
              "velocity": 100
            },
            {
              "start": 10080,
              "duration": 47,
              "midi": 48,
              "velocity": 100
            },
            {
              "start": 10128,
              "duration": 47,
              "midi": 48,
              "velocity": 100
            },
            {
              "start": 10176,
              "duration": 47,
              "midi": 51,
              "velocity": 100
            },
            {
              "start": 10224,
              "duration": 47,
              "midi": 51,
              "velocity": 100
            },
            {
              "start": 10272,
              "duration": 47,
              "midi": 48,
              "velocity": 100
            },
            {
              "start": 10320,
              "duration": 47,
              "midi": 48,
              "velocity": 100
            },
            {
              "start": 10368,
              "duration": 47,
              "midi": 44,
              "velocity": 100
            },
            {
              "start": 10416,
              "duration": 47,
              "midi": 44,
              "velocity": 100
            },
            {
              "start": 10464,
              "duration": 47,
              "midi": 44,
              "velocity": 100
            },
            {
              "start": 10512,
              "duration": 47,
              "midi": 48,
              "velocity": 100
            },
            {
              "start": 10560,
              "duration": 47,
              "midi": 43,
              "velocity": 100
            },
            {
              "start": 10608,
              "duration": 47,
              "midi": 43,
              "velocity": 100
            },
            {
              "start": 10656,
              "duration": 47,
              "midi": 43,
              "velocity": 100
            },
            {
              "start": 10704,
              "duration": 31,
              "midi": 48,
              "velocity": 100
            },
            {
              "start": 10752,
              "duration": 47,
              "midi": 48,
              "velocity": 100
            },
            {
              "start": 10752,
              "duration": 47,
              "midi": 36,
              "velocity": 100
            },
            {
              "start": 10800,
              "duration": 47,
              "midi": 48,
              "velocity": 100
            },
            {
              "start": 10848,
              "duration": 47,
              "midi": 48,
              "velocity": 100
            },
            {
              "start": 10896,
              "duration": 47,
              "midi": 48,
              "velocity": 100
            },
            {
              "start": 10944,
              "duration": 47,
              "midi": 51,
              "velocity": 100
            },
            {
              "start": 10992,
              "duration": 47,
              "midi": 51,
              "velocity": 100
            },
            {
              "start": 11040,
              "duration": 47,
              "midi": 48,
              "velocity": 100
            },
            {
              "start": 11088,
              "duration": 47,
              "midi": 48,
              "velocity": 100
            },
            {
              "start": 11136,
              "duration": 47,
              "midi": 44,
              "velocity": 100
            },
            {
              "start": 11184,
              "duration": 47,
              "midi": 44,
              "velocity": 100
            },
            {
              "start": 11232,
              "duration": 47,
              "midi": 44,
              "velocity": 100
            },
            {
              "start": 11280,
              "duration": 47,
              "midi": 48,
              "velocity": 100
            },
            {
              "start": 11328,
              "duration": 47,
              "midi": 43,
              "velocity": 100
            },
            {
              "start": 11376,
              "duration": 47,
              "midi": 43,
              "velocity": 100
            },
            {
              "start": 11424,
              "duration": 47,
              "midi": 43,
              "velocity": 100
            },
            {
              "start": 11472,
              "duration": 31,
              "midi": 48,
              "velocity": 100
            },
            {
              "start": 11520,
              "duration": 95,
              "midi": 44,
              "velocity": 100
            },
            {
              "start": 11616,
              "duration": 47,
              "midi": 56,
              "velocity": 100
            },
            {
              "start": 11664,
              "duration": 95,
              "midi": 44,
              "velocity": 100
            },
            {
              "start": 11760,
              "duration": 47,
              "midi": 56,
              "velocity": 100
            },
            {
              "start": 11808,
              "duration": 47,
              "midi": 44,
              "velocity": 100
            },
            {
              "start": 11856,
              "duration": 47,
              "midi": 56,
              "velocity": 100
            },
            {
              "start": 11904,
              "duration": 95,
              "midi": 43,
              "velocity": 100
            },
            {
              "start": 12000,
              "duration": 47,
              "midi": 55,
              "velocity": 100
            },
            {
              "start": 12048,
              "duration": 95,
              "midi": 43,
              "velocity": 100
            },
            {
              "start": 12144,
              "duration": 47,
              "midi": 55,
              "velocity": 100
            },
            {
              "start": 12192,
              "duration": 47,
              "midi": 43,
              "velocity": 100
            },
            {
              "start": 12240,
              "duration": 47,
              "midi": 55,
              "velocity": 100
            },
            {
              "start": 12288,
              "duration": 95,
              "midi": 48,
              "velocity": 100
            },
            {
              "start": 12384,
              "duration": 47,
              "midi": 48,
              "velocity": 100
            },
            {
              "start": 12432,
              "duration": 47,
              "midi": 48,
              "velocity": 100
            },
            {
              "start": 12480,
              "duration": 47,
              "midi": 48,
              "velocity": 100
            },
            {
              "start": 12528,
              "duration": 47,
              "midi": 48,
              "velocity": 100
            },
            {
              "start": 12576,
              "duration": 95,
              "midi": 48,
              "velocity": 100
            },
            {
              "start": 12672,
              "duration": 95,
              "midi": 41,
              "velocity": 100
            },
            {
              "start": 12768,
              "duration": 47,
              "midi": 53,
              "velocity": 100
            },
            {
              "start": 12816,
              "duration": 95,
              "midi": 41,
              "velocity": 100
            },
            {
              "start": 12912,
              "duration": 47,
              "midi": 53,
              "velocity": 100
            },
            {
              "start": 12960,
              "duration": 47,
              "midi": 41,
              "velocity": 100
            },
            {
              "start": 13008,
              "duration": 47,
              "midi": 53,
              "velocity": 100
            },
            {
              "start": 13056,
              "duration": 95,
              "midi": 44,
              "velocity": 100
            },
            {
              "start": 13152,
              "duration": 47,
              "midi": 56,
              "velocity": 100
            },
            {
              "start": 13200,
              "duration": 95,
              "midi": 44,
              "velocity": 100
            },
            {
              "start": 13296,
              "duration": 47,
              "midi": 56,
              "velocity": 100
            },
            {
              "start": 13344,
              "duration": 47,
              "midi": 44,
              "velocity": 100
            },
            {
              "start": 13392,
              "duration": 47,
              "midi": 56,
              "velocity": 100
            },
            {
              "start": 13440,
              "duration": 95,
              "midi": 43,
              "velocity": 100
            },
            {
              "start": 13536,
              "duration": 47,
              "midi": 55,
              "velocity": 100
            },
            {
              "start": 13584,
              "duration": 95,
              "midi": 43,
              "velocity": 100
            },
            {
              "start": 13680,
              "duration": 47,
              "midi": 55,
              "velocity": 100
            },
            {
              "start": 13728,
              "duration": 47,
              "midi": 43,
              "velocity": 100
            },
            {
              "start": 13776,
              "duration": 47,
              "midi": 55,
              "velocity": 100
            },
            {
              "start": 13824,
              "duration": 47,
              "midi": 48,
              "velocity": 100
            },
            {
              "start": 13824,
              "duration": 47,
              "midi": 36,
              "velocity": 100
            },
            {
              "start": 13872,
              "duration": 47,
              "midi": 48,
              "velocity": 100
            },
            {
              "start": 13920,
              "duration": 47,
              "midi": 48,
              "velocity": 100
            },
            {
              "start": 13968,
              "duration": 47,
              "midi": 48,
              "velocity": 100
            },
            {
              "start": 14016,
              "duration": 47,
              "midi": 51,
              "velocity": 100
            },
            {
              "start": 14064,
              "duration": 47,
              "midi": 51,
              "velocity": 100
            },
            {
              "start": 14112,
              "duration": 47,
              "midi": 48,
              "velocity": 100
            },
            {
              "start": 14160,
              "duration": 47,
              "midi": 48,
              "velocity": 100
            },
            {
              "start": 14208,
              "duration": 47,
              "midi": 44,
              "velocity": 100
            },
            {
              "start": 14256,
              "duration": 47,
              "midi": 44,
              "velocity": 100
            },
            {
              "start": 14304,
              "duration": 47,
              "midi": 44,
              "velocity": 100
            },
            {
              "start": 14352,
              "duration": 47,
              "midi": 48,
              "velocity": 100
            },
            {
              "start": 14400,
              "duration": 47,
              "midi": 43,
              "velocity": 100
            },
            {
              "start": 14448,
              "duration": 47,
              "midi": 43,
              "velocity": 100
            },
            {
              "start": 14496,
              "duration": 47,
              "midi": 43,
              "velocity": 100
            },
            {
              "start": 14544,
              "duration": 31,
              "midi": 48,
              "velocity": 100
            },
            {
              "start": 14592,
              "duration": 47,
              "midi": 48,
              "velocity": 100
            },
            {
              "start": 14592,
              "duration": 47,
              "midi": 36,
              "velocity": 100
            },
            {
              "start": 14640,
              "duration": 47,
              "midi": 48,
              "velocity": 100
            },
            {
              "start": 14688,
              "duration": 47,
              "midi": 48,
              "velocity": 100
            },
            {
              "start": 14736,
              "duration": 47,
              "midi": 48,
              "velocity": 100
            },
            {
              "start": 14784,
              "duration": 47,
              "midi": 51,
              "velocity": 100
            },
            {
              "start": 14832,
              "duration": 47,
              "midi": 51,
              "velocity": 100
            },
            {
              "start": 14880,
              "duration": 47,
              "midi": 48,
              "velocity": 100
            },
            {
              "start": 14928,
              "duration": 47,
              "midi": 48,
              "velocity": 100
            },
            {
              "start": 14976,
              "duration": 47,
              "midi": 44,
              "velocity": 100
            },
            {
              "start": 15024,
              "duration": 47,
              "midi": 44,
              "velocity": 100
            },
            {
              "start": 15072,
              "duration": 47,
              "midi": 44,
              "velocity": 100
            },
            {
              "start": 15120,
              "duration": 47,
              "midi": 48,
              "velocity": 100
            },
            {
              "start": 15168,
              "duration": 47,
              "midi": 43,
              "velocity": 100
            },
            {
              "start": 15216,
              "duration": 47,
              "midi": 43,
              "velocity": 100
            },
            {
              "start": 15264,
              "duration": 47,
              "midi": 43,
              "velocity": 100
            },
            {
              "start": 15312,
              "duration": 31,
              "midi": 48,
              "velocity": 100
            },
            {
              "start": 15360,
              "duration": 47,
              "midi": 48,
              "velocity": 100
            },
            {
              "start": 15360,
              "duration": 47,
              "midi": 36,
              "velocity": 100
            },
            {
              "start": 15408,
              "duration": 47,
              "midi": 48,
              "velocity": 100
            },
            {
              "start": 15456,
              "duration": 47,
              "midi": 48,
              "velocity": 100
            },
            {
              "start": 15504,
              "duration": 47,
              "midi": 48,
              "velocity": 100
            },
            {
              "start": 15552,
              "duration": 47,
              "midi": 51,
              "velocity": 100
            },
            {
              "start": 15600,
              "duration": 47,
              "midi": 51,
              "velocity": 100
            },
            {
              "start": 15648,
              "duration": 47,
              "midi": 48,
              "velocity": 100
            },
            {
              "start": 15696,
              "duration": 47,
              "midi": 48,
              "velocity": 100
            },
            {
              "start": 15744,
              "duration": 47,
              "midi": 44,
              "velocity": 100
            },
            {
              "start": 15792,
              "duration": 47,
              "midi": 44,
              "velocity": 100
            },
            {
              "start": 15840,
              "duration": 47,
              "midi": 44,
              "velocity": 100
            },
            {
              "start": 15888,
              "duration": 47,
              "midi": 48,
              "velocity": 100
            },
            {
              "start": 15936,
              "duration": 47,
              "midi": 43,
              "velocity": 100
            },
            {
              "start": 15984,
              "duration": 47,
              "midi": 43,
              "velocity": 100
            },
            {
              "start": 16032,
              "duration": 47,
              "midi": 43,
              "velocity": 100
            },
            {
              "start": 16080,
              "duration": 31,
              "midi": 48,
              "velocity": 100
            },
            {
              "start": 16128,
              "duration": 47,
              "midi": 48,
              "velocity": 100
            },
            {
              "start": 16128,
              "duration": 47,
              "midi": 36,
              "velocity": 100
            },
            {
              "start": 16176,
              "duration": 47,
              "midi": 48,
              "velocity": 100
            },
            {
              "start": 16224,
              "duration": 47,
              "midi": 48,
              "velocity": 100
            },
            {
              "start": 16272,
              "duration": 47,
              "midi": 48,
              "velocity": 100
            },
            {
              "start": 16320,
              "duration": 47,
              "midi": 51,
              "velocity": 100
            },
            {
              "start": 16368,
              "duration": 47,
              "midi": 51,
              "velocity": 100
            },
            {
              "start": 16416,
              "duration": 47,
              "midi": 48,
              "velocity": 100
            },
            {
              "start": 16464,
              "duration": 47,
              "midi": 48,
              "velocity": 100
            },
            {
              "start": 16512,
              "duration": 47,
              "midi": 44,
              "velocity": 100
            },
            {
              "start": 16560,
              "duration": 47,
              "midi": 44,
              "velocity": 100
            },
            {
              "start": 16608,
              "duration": 47,
              "midi": 44,
              "velocity": 100
            },
            {
              "start": 16656,
              "duration": 47,
              "midi": 48,
              "velocity": 100
            },
            {
              "start": 16704,
              "duration": 47,
              "midi": 43,
              "velocity": 100
            },
            {
              "start": 16752,
              "duration": 47,
              "midi": 43,
              "velocity": 100
            },
            {
              "start": 16800,
              "duration": 47,
              "midi": 43,
              "velocity": 100
            },
            {
              "start": 16848,
              "duration": 31,
              "midi": 48,
              "velocity": 100
            },
            {
              "start": 16896,
              "duration": 47,
              "midi": 48,
              "velocity": 100
            },
            {
              "start": 16896,
              "duration": 47,
              "midi": 36,
              "velocity": 100
            },
            {
              "start": 16944,
              "duration": 47,
              "midi": 48,
              "velocity": 100
            },
            {
              "start": 16992,
              "duration": 47,
              "midi": 48,
              "velocity": 100
            },
            {
              "start": 17040,
              "duration": 47,
              "midi": 48,
              "velocity": 100
            },
            {
              "start": 17088,
              "duration": 47,
              "midi": 51,
              "velocity": 100
            },
            {
              "start": 17136,
              "duration": 47,
              "midi": 51,
              "velocity": 100
            },
            {
              "start": 17184,
              "duration": 47,
              "midi": 48,
              "velocity": 100
            },
            {
              "start": 17232,
              "duration": 47,
              "midi": 48,
              "velocity": 100
            },
            {
              "start": 17280,
              "duration": 47,
              "midi": 44,
              "velocity": 100
            },
            {
              "start": 17328,
              "duration": 47,
              "midi": 44,
              "velocity": 100
            },
            {
              "start": 17376,
              "duration": 47,
              "midi": 44,
              "velocity": 100
            },
            {
              "start": 17424,
              "duration": 47,
              "midi": 48,
              "velocity": 100
            },
            {
              "start": 17472,
              "duration": 47,
              "midi": 43,
              "velocity": 100
            },
            {
              "start": 17520,
              "duration": 47,
              "midi": 43,
              "velocity": 100
            },
            {
              "start": 17568,
              "duration": 47,
              "midi": 43,
              "velocity": 100
            },
            {
              "start": 17616,
              "duration": 31,
              "midi": 48,
              "velocity": 100
            },
            {
              "start": 17664,
              "duration": 47,
              "midi": 48,
              "velocity": 100
            },
            {
              "start": 17664,
              "duration": 47,
              "midi": 36,
              "velocity": 100
            },
            {
              "start": 17712,
              "duration": 47,
              "midi": 48,
              "velocity": 100
            },
            {
              "start": 17760,
              "duration": 47,
              "midi": 48,
              "velocity": 100
            },
            {
              "start": 17808,
              "duration": 47,
              "midi": 48,
              "velocity": 100
            },
            {
              "start": 17856,
              "duration": 47,
              "midi": 51,
              "velocity": 100
            },
            {
              "start": 17904,
              "duration": 47,
              "midi": 51,
              "velocity": 100
            },
            {
              "start": 17952,
              "duration": 47,
              "midi": 48,
              "velocity": 100
            },
            {
              "start": 18000,
              "duration": 47,
              "midi": 48,
              "velocity": 100
            },
            {
              "start": 18048,
              "duration": 47,
              "midi": 44,
              "velocity": 100
            },
            {
              "start": 18096,
              "duration": 47,
              "midi": 44,
              "velocity": 100
            },
            {
              "start": 18144,
              "duration": 47,
              "midi": 44,
              "velocity": 100
            },
            {
              "start": 18192,
              "duration": 47,
              "midi": 48,
              "velocity": 100
            },
            {
              "start": 18240,
              "duration": 47,
              "midi": 43,
              "velocity": 100
            },
            {
              "start": 18288,
              "duration": 47,
              "midi": 43,
              "velocity": 100
            },
            {
              "start": 18336,
              "duration": 47,
              "midi": 43,
              "velocity": 100
            },
            {
              "start": 18384,
              "duration": 31,
              "midi": 48,
              "velocity": 100
            },
            {
              "start": 18432,
              "duration": 95,
              "midi": 44,
              "velocity": 100
            },
            {
              "start": 18528,
              "duration": 47,
              "midi": 56,
              "velocity": 100
            },
            {
              "start": 18576,
              "duration": 95,
              "midi": 44,
              "velocity": 100
            },
            {
              "start": 18672,
              "duration": 47,
              "midi": 56,
              "velocity": 100
            },
            {
              "start": 18720,
              "duration": 47,
              "midi": 44,
              "velocity": 100
            },
            {
              "start": 18768,
              "duration": 47,
              "midi": 56,
              "velocity": 100
            },
            {
              "start": 18816,
              "duration": 95,
              "midi": 43,
              "velocity": 100
            },
            {
              "start": 18912,
              "duration": 47,
              "midi": 55,
              "velocity": 100
            },
            {
              "start": 18960,
              "duration": 95,
              "midi": 43,
              "velocity": 100
            },
            {
              "start": 19056,
              "duration": 47,
              "midi": 55,
              "velocity": 100
            },
            {
              "start": 19104,
              "duration": 47,
              "midi": 43,
              "velocity": 100
            },
            {
              "start": 19152,
              "duration": 47,
              "midi": 55,
              "velocity": 100
            },
            {
              "start": 19200,
              "duration": 95,
              "midi": 48,
              "velocity": 100
            },
            {
              "start": 19296,
              "duration": 47,
              "midi": 48,
              "velocity": 100
            },
            {
              "start": 19344,
              "duration": 47,
              "midi": 48,
              "velocity": 100
            },
            {
              "start": 19392,
              "duration": 47,
              "midi": 48,
              "velocity": 100
            },
            {
              "start": 19440,
              "duration": 47,
              "midi": 48,
              "velocity": 100
            },
            {
              "start": 19488,
              "duration": 95,
              "midi": 48,
              "velocity": 100
            },
            {
              "start": 19584,
              "duration": 95,
              "midi": 41,
              "velocity": 100
            },
            {
              "start": 19680,
              "duration": 47,
              "midi": 53,
              "velocity": 100
            },
            {
              "start": 19728,
              "duration": 95,
              "midi": 41,
              "velocity": 100
            },
            {
              "start": 19824,
              "duration": 47,
              "midi": 53,
              "velocity": 100
            },
            {
              "start": 19872,
              "duration": 47,
              "midi": 41,
              "velocity": 100
            },
            {
              "start": 19920,
              "duration": 47,
              "midi": 53,
              "velocity": 100
            },
            {
              "start": 19968,
              "duration": 95,
              "midi": 44,
              "velocity": 100
            },
            {
              "start": 20064,
              "duration": 47,
              "midi": 56,
              "velocity": 100
            },
            {
              "start": 20112,
              "duration": 95,
              "midi": 44,
              "velocity": 100
            },
            {
              "start": 20208,
              "duration": 47,
              "midi": 56,
              "velocity": 100
            },
            {
              "start": 20256,
              "duration": 47,
              "midi": 44,
              "velocity": 100
            },
            {
              "start": 20304,
              "duration": 47,
              "midi": 56,
              "velocity": 100
            },
            {
              "start": 20352,
              "duration": 95,
              "midi": 43,
              "velocity": 100
            },
            {
              "start": 20448,
              "duration": 47,
              "midi": 55,
              "velocity": 100
            },
            {
              "start": 20496,
              "duration": 95,
              "midi": 43,
              "velocity": 100
            },
            {
              "start": 20592,
              "duration": 47,
              "midi": 55,
              "velocity": 100
            },
            {
              "start": 20640,
              "duration": 47,
              "midi": 43,
              "velocity": 100
            },
            {
              "start": 20688,
              "duration": 47,
              "midi": 55,
              "velocity": 100
            },
            {
              "start": 23808,
              "duration": 47,
              "midi": 36,
              "velocity": 100
            },
            {
              "start": 23856,
              "duration": 47,
              "midi": 48,
              "velocity": 100
            },
            {
              "start": 23904,
              "duration": 47,
              "midi": 48,
              "velocity": 100
            },
            {
              "start": 23952,
              "duration": 47,
              "midi": 48,
              "velocity": 100
            },
            {
              "start": 24000,
              "duration": 47,
              "midi": 51,
              "velocity": 100
            },
            {
              "start": 24048,
              "duration": 47,
              "midi": 51,
              "velocity": 100
            },
            {
              "start": 24096,
              "duration": 47,
              "midi": 48,
              "velocity": 100
            },
            {
              "start": 24144,
              "duration": 47,
              "midi": 48,
              "velocity": 100
            },
            {
              "start": 24192,
              "duration": 47,
              "midi": 44,
              "velocity": 100
            },
            {
              "start": 24240,
              "duration": 47,
              "midi": 44,
              "velocity": 100
            },
            {
              "start": 24288,
              "duration": 47,
              "midi": 44,
              "velocity": 100
            },
            {
              "start": 24336,
              "duration": 47,
              "midi": 48,
              "velocity": 100
            },
            {
              "start": 24384,
              "duration": 47,
              "midi": 43,
              "velocity": 100
            },
            {
              "start": 24432,
              "duration": 47,
              "midi": 43,
              "velocity": 100
            },
            {
              "start": 24480,
              "duration": 47,
              "midi": 43,
              "velocity": 100
            },
            {
              "start": 24528,
              "duration": 31,
              "midi": 48,
              "velocity": 100
            },
            {
              "start": 24576,
              "duration": 47,
              "midi": 48,
              "velocity": 100
            },
            {
              "start": 24576,
              "duration": 47,
              "midi": 36,
              "velocity": 100
            },
            {
              "start": 24624,
              "duration": 47,
              "midi": 48,
              "velocity": 100
            },
            {
              "start": 24672,
              "duration": 47,
              "midi": 48,
              "velocity": 100
            },
            {
              "start": 24720,
              "duration": 47,
              "midi": 48,
              "velocity": 100
            },
            {
              "start": 24768,
              "duration": 47,
              "midi": 51,
              "velocity": 100
            },
            {
              "start": 24816,
              "duration": 47,
              "midi": 51,
              "velocity": 100
            },
            {
              "start": 24864,
              "duration": 47,
              "midi": 48,
              "velocity": 100
            },
            {
              "start": 24912,
              "duration": 47,
              "midi": 48,
              "velocity": 100
            },
            {
              "start": 24960,
              "duration": 47,
              "midi": 44,
              "velocity": 100
            },
            {
              "start": 25008,
              "duration": 47,
              "midi": 44,
              "velocity": 100
            },
            {
              "start": 25056,
              "duration": 47,
              "midi": 44,
              "velocity": 100
            },
            {
              "start": 25104,
              "duration": 47,
              "midi": 48,
              "velocity": 100
            },
            {
              "start": 25152,
              "duration": 47,
              "midi": 43,
              "velocity": 100
            },
            {
              "start": 25200,
              "duration": 47,
              "midi": 43,
              "velocity": 100
            },
            {
              "start": 25248,
              "duration": 47,
              "midi": 43,
              "velocity": 100
            },
            {
              "start": 25296,
              "duration": 31,
              "midi": 48,
              "velocity": 100
            },
            {
              "start": 25344,
              "duration": 47,
              "midi": 48,
              "velocity": 100
            },
            {
              "start": 25344,
              "duration": 47,
              "midi": 36,
              "velocity": 100
            },
            {
              "start": 25392,
              "duration": 47,
              "midi": 48,
              "velocity": 100
            },
            {
              "start": 25440,
              "duration": 47,
              "midi": 48,
              "velocity": 100
            },
            {
              "start": 25488,
              "duration": 47,
              "midi": 48,
              "velocity": 100
            },
            {
              "start": 25536,
              "duration": 47,
              "midi": 51,
              "velocity": 100
            },
            {
              "start": 25584,
              "duration": 47,
              "midi": 51,
              "velocity": 100
            },
            {
              "start": 25632,
              "duration": 47,
              "midi": 48,
              "velocity": 100
            },
            {
              "start": 25680,
              "duration": 47,
              "midi": 48,
              "velocity": 100
            },
            {
              "start": 25728,
              "duration": 47,
              "midi": 44,
              "velocity": 100
            },
            {
              "start": 25776,
              "duration": 47,
              "midi": 44,
              "velocity": 100
            },
            {
              "start": 25824,
              "duration": 47,
              "midi": 44,
              "velocity": 100
            },
            {
              "start": 25872,
              "duration": 47,
              "midi": 48,
              "velocity": 100
            },
            {
              "start": 25920,
              "duration": 47,
              "midi": 43,
              "velocity": 100
            },
            {
              "start": 25968,
              "duration": 47,
              "midi": 43,
              "velocity": 100
            },
            {
              "start": 26016,
              "duration": 47,
              "midi": 43,
              "velocity": 100
            },
            {
              "start": 26064,
              "duration": 31,
              "midi": 48,
              "velocity": 100
            },
            {
              "start": 26112,
              "duration": 47,
              "midi": 48,
              "velocity": 100
            },
            {
              "start": 26112,
              "duration": 47,
              "midi": 36,
              "velocity": 100
            },
            {
              "start": 26160,
              "duration": 47,
              "midi": 48,
              "velocity": 100
            },
            {
              "start": 26208,
              "duration": 47,
              "midi": 48,
              "velocity": 100
            },
            {
              "start": 26256,
              "duration": 47,
              "midi": 48,
              "velocity": 100
            },
            {
              "start": 26304,
              "duration": 47,
              "midi": 51,
              "velocity": 100
            },
            {
              "start": 26352,
              "duration": 47,
              "midi": 51,
              "velocity": 100
            },
            {
              "start": 26400,
              "duration": 47,
              "midi": 48,
              "velocity": 100
            },
            {
              "start": 26448,
              "duration": 47,
              "midi": 48,
              "velocity": 100
            },
            {
              "start": 26496,
              "duration": 47,
              "midi": 44,
              "velocity": 100
            },
            {
              "start": 26544,
              "duration": 47,
              "midi": 44,
              "velocity": 100
            },
            {
              "start": 26592,
              "duration": 47,
              "midi": 44,
              "velocity": 100
            },
            {
              "start": 26640,
              "duration": 47,
              "midi": 48,
              "velocity": 100
            },
            {
              "start": 26688,
              "duration": 47,
              "midi": 43,
              "velocity": 100
            },
            {
              "start": 26736,
              "duration": 47,
              "midi": 43,
              "velocity": 100
            },
            {
              "start": 26784,
              "duration": 47,
              "midi": 43,
              "velocity": 100
            },
            {
              "start": 26832,
              "duration": 31,
              "midi": 48,
              "velocity": 100
            },
            {
              "start": 26880,
              "duration": 47,
              "midi": 48,
              "velocity": 100
            },
            {
              "start": 26880,
              "duration": 47,
              "midi": 36,
              "velocity": 100
            },
            {
              "start": 26928,
              "duration": 47,
              "midi": 48,
              "velocity": 100
            },
            {
              "start": 26976,
              "duration": 47,
              "midi": 48,
              "velocity": 100
            },
            {
              "start": 27024,
              "duration": 47,
              "midi": 48,
              "velocity": 100
            },
            {
              "start": 27072,
              "duration": 47,
              "midi": 51,
              "velocity": 100
            },
            {
              "start": 27120,
              "duration": 47,
              "midi": 51,
              "velocity": 100
            },
            {
              "start": 27168,
              "duration": 47,
              "midi": 48,
              "velocity": 100
            },
            {
              "start": 27216,
              "duration": 47,
              "midi": 48,
              "velocity": 100
            },
            {
              "start": 27264,
              "duration": 47,
              "midi": 44,
              "velocity": 100
            },
            {
              "start": 27312,
              "duration": 47,
              "midi": 44,
              "velocity": 100
            },
            {
              "start": 27360,
              "duration": 47,
              "midi": 44,
              "velocity": 100
            },
            {
              "start": 27408,
              "duration": 47,
              "midi": 48,
              "velocity": 100
            },
            {
              "start": 27456,
              "duration": 47,
              "midi": 43,
              "velocity": 100
            },
            {
              "start": 27504,
              "duration": 47,
              "midi": 43,
              "velocity": 100
            },
            {
              "start": 27552,
              "duration": 47,
              "midi": 43,
              "velocity": 100
            },
            {
              "start": 27600,
              "duration": 31,
              "midi": 48,
              "velocity": 100
            },
            {
              "start": 27648,
              "duration": 47,
              "midi": 48,
              "velocity": 100
            },
            {
              "start": 27648,
              "duration": 47,
              "midi": 36,
              "velocity": 100
            },
            {
              "start": 27696,
              "duration": 47,
              "midi": 48,
              "velocity": 100
            },
            {
              "start": 27744,
              "duration": 47,
              "midi": 48,
              "velocity": 100
            },
            {
              "start": 27792,
              "duration": 47,
              "midi": 48,
              "velocity": 100
            },
            {
              "start": 27840,
              "duration": 47,
              "midi": 51,
              "velocity": 100
            },
            {
              "start": 27888,
              "duration": 47,
              "midi": 51,
              "velocity": 100
            },
            {
              "start": 27936,
              "duration": 47,
              "midi": 48,
              "velocity": 100
            },
            {
              "start": 27984,
              "duration": 47,
              "midi": 48,
              "velocity": 100
            },
            {
              "start": 28032,
              "duration": 47,
              "midi": 44,
              "velocity": 100
            },
            {
              "start": 28080,
              "duration": 47,
              "midi": 44,
              "velocity": 100
            },
            {
              "start": 28128,
              "duration": 47,
              "midi": 44,
              "velocity": 100
            },
            {
              "start": 28176,
              "duration": 47,
              "midi": 48,
              "velocity": 100
            },
            {
              "start": 28224,
              "duration": 47,
              "midi": 43,
              "velocity": 100
            },
            {
              "start": 28272,
              "duration": 47,
              "midi": 43,
              "velocity": 100
            },
            {
              "start": 28320,
              "duration": 47,
              "midi": 43,
              "velocity": 100
            },
            {
              "start": 28368,
              "duration": 31,
              "midi": 48,
              "velocity": 100
            },
            {
              "start": 28416,
              "duration": 47,
              "midi": 48,
              "velocity": 100
            },
            {
              "start": 28416,
              "duration": 47,
              "midi": 36,
              "velocity": 100
            },
            {
              "start": 28464,
              "duration": 47,
              "midi": 48,
              "velocity": 100
            },
            {
              "start": 28512,
              "duration": 47,
              "midi": 48,
              "velocity": 100
            },
            {
              "start": 28560,
              "duration": 47,
              "midi": 48,
              "velocity": 100
            },
            {
              "start": 28608,
              "duration": 47,
              "midi": 51,
              "velocity": 100
            },
            {
              "start": 28656,
              "duration": 47,
              "midi": 51,
              "velocity": 100
            },
            {
              "start": 28704,
              "duration": 47,
              "midi": 48,
              "velocity": 100
            },
            {
              "start": 28752,
              "duration": 47,
              "midi": 48,
              "velocity": 100
            },
            {
              "start": 28800,
              "duration": 47,
              "midi": 44,
              "velocity": 100
            },
            {
              "start": 28848,
              "duration": 47,
              "midi": 44,
              "velocity": 100
            },
            {
              "start": 28896,
              "duration": 47,
              "midi": 44,
              "velocity": 100
            },
            {
              "start": 28944,
              "duration": 47,
              "midi": 48,
              "velocity": 100
            },
            {
              "start": 28992,
              "duration": 47,
              "midi": 43,
              "velocity": 100
            },
            {
              "start": 29040,
              "duration": 47,
              "midi": 43,
              "velocity": 100
            },
            {
              "start": 29088,
              "duration": 47,
              "midi": 43,
              "velocity": 100
            },
            {
              "start": 29136,
              "duration": 31,
              "midi": 48,
              "velocity": 100
            },
            {
              "start": 29184,
              "duration": 47,
              "midi": 48,
              "velocity": 100
            },
            {
              "start": 29184,
              "duration": 47,
              "midi": 36,
              "velocity": 100
            },
            {
              "start": 29232,
              "duration": 47,
              "midi": 48,
              "velocity": 100
            },
            {
              "start": 29280,
              "duration": 47,
              "midi": 48,
              "velocity": 100
            },
            {
              "start": 29328,
              "duration": 47,
              "midi": 48,
              "velocity": 100
            },
            {
              "start": 29376,
              "duration": 47,
              "midi": 51,
              "velocity": 100
            },
            {
              "start": 29424,
              "duration": 47,
              "midi": 51,
              "velocity": 100
            },
            {
              "start": 29472,
              "duration": 47,
              "midi": 48,
              "velocity": 100
            },
            {
              "start": 29520,
              "duration": 47,
              "midi": 48,
              "velocity": 100
            },
            {
              "start": 29568,
              "duration": 47,
              "midi": 44,
              "velocity": 100
            },
            {
              "start": 29616,
              "duration": 47,
              "midi": 44,
              "velocity": 100
            },
            {
              "start": 29664,
              "duration": 47,
              "midi": 44,
              "velocity": 100
            },
            {
              "start": 29712,
              "duration": 47,
              "midi": 48,
              "velocity": 100
            },
            {
              "start": 29760,
              "duration": 47,
              "midi": 43,
              "velocity": 100
            },
            {
              "start": 29808,
              "duration": 47,
              "midi": 43,
              "velocity": 100
            },
            {
              "start": 29856,
              "duration": 47,
              "midi": 43,
              "velocity": 100
            },
            {
              "start": 29904,
              "duration": 31,
              "midi": 48,
              "velocity": 100
            },
            {
              "start": 29952,
              "duration": 95,
              "midi": 44,
              "velocity": 100
            },
            {
              "start": 30048,
              "duration": 47,
              "midi": 56,
              "velocity": 100
            },
            {
              "start": 30096,
              "duration": 95,
              "midi": 44,
              "velocity": 100
            },
            {
              "start": 30192,
              "duration": 47,
              "midi": 56,
              "velocity": 100
            },
            {
              "start": 30240,
              "duration": 47,
              "midi": 44,
              "velocity": 100
            },
            {
              "start": 30288,
              "duration": 47,
              "midi": 56,
              "velocity": 100
            },
            {
              "start": 30336,
              "duration": 95,
              "midi": 43,
              "velocity": 100
            },
            {
              "start": 30432,
              "duration": 47,
              "midi": 55,
              "velocity": 100
            },
            {
              "start": 30480,
              "duration": 95,
              "midi": 43,
              "velocity": 100
            },
            {
              "start": 30576,
              "duration": 47,
              "midi": 55,
              "velocity": 100
            },
            {
              "start": 30624,
              "duration": 47,
              "midi": 43,
              "velocity": 100
            },
            {
              "start": 30672,
              "duration": 47,
              "midi": 55,
              "velocity": 100
            },
            {
              "start": 30720,
              "duration": 95,
              "midi": 48,
              "velocity": 100
            },
            {
              "start": 30816,
              "duration": 47,
              "midi": 48,
              "velocity": 100
            },
            {
              "start": 30864,
              "duration": 47,
              "midi": 48,
              "velocity": 100
            },
            {
              "start": 30912,
              "duration": 47,
              "midi": 48,
              "velocity": 100
            },
            {
              "start": 30960,
              "duration": 47,
              "midi": 48,
              "velocity": 100
            },
            {
              "start": 31008,
              "duration": 95,
              "midi": 48,
              "velocity": 100
            },
            {
              "start": 31104,
              "duration": 95,
              "midi": 41,
              "velocity": 100
            },
            {
              "start": 31200,
              "duration": 47,
              "midi": 53,
              "velocity": 100
            },
            {
              "start": 31248,
              "duration": 95,
              "midi": 41,
              "velocity": 100
            },
            {
              "start": 31344,
              "duration": 47,
              "midi": 53,
              "velocity": 100
            },
            {
              "start": 31392,
              "duration": 47,
              "midi": 41,
              "velocity": 100
            },
            {
              "start": 31440,
              "duration": 47,
              "midi": 53,
              "velocity": 100
            },
            {
              "start": 31488,
              "duration": 95,
              "midi": 44,
              "velocity": 100
            },
            {
              "start": 31584,
              "duration": 47,
              "midi": 56,
              "velocity": 100
            },
            {
              "start": 31632,
              "duration": 95,
              "midi": 44,
              "velocity": 100
            },
            {
              "start": 31728,
              "duration": 47,
              "midi": 56,
              "velocity": 100
            },
            {
              "start": 31776,
              "duration": 47,
              "midi": 44,
              "velocity": 100
            },
            {
              "start": 31824,
              "duration": 47,
              "midi": 56,
              "velocity": 100
            },
            {
              "start": 31872,
              "duration": 95,
              "midi": 43,
              "velocity": 100
            },
            {
              "start": 31968,
              "duration": 47,
              "midi": 55,
              "velocity": 100
            },
            {
              "start": 32016,
              "duration": 95,
              "midi": 43,
              "velocity": 100
            },
            {
              "start": 32112,
              "duration": 47,
              "midi": 55,
              "velocity": 100
            },
            {
              "start": 32160,
              "duration": 47,
              "midi": 43,
              "velocity": 100
            },
            {
              "start": 32208,
              "duration": 47,
              "midi": 55,
              "velocity": 100
            },
            {
              "start": 35328,
              "duration": 47,
              "midi": 36,
              "velocity": 100
            },
            {
              "start": 35376,
              "duration": 47,
              "midi": 48,
              "velocity": 100
            },
            {
              "start": 35424,
              "duration": 47,
              "midi": 48,
              "velocity": 100
            },
            {
              "start": 35472,
              "duration": 47,
              "midi": 48,
              "velocity": 100
            },
            {
              "start": 35520,
              "duration": 47,
              "midi": 51,
              "velocity": 100
            },
            {
              "start": 35568,
              "duration": 47,
              "midi": 51,
              "velocity": 100
            },
            {
              "start": 35616,
              "duration": 47,
              "midi": 48,
              "velocity": 100
            },
            {
              "start": 35664,
              "duration": 47,
              "midi": 48,
              "velocity": 100
            },
            {
              "start": 35712,
              "duration": 47,
              "midi": 44,
              "velocity": 100
            },
            {
              "start": 35760,
              "duration": 47,
              "midi": 44,
              "velocity": 100
            },
            {
              "start": 35808,
              "duration": 47,
              "midi": 44,
              "velocity": 100
            },
            {
              "start": 35856,
              "duration": 47,
              "midi": 48,
              "velocity": 100
            },
            {
              "start": 35904,
              "duration": 47,
              "midi": 43,
              "velocity": 100
            },
            {
              "start": 35952,
              "duration": 47,
              "midi": 43,
              "velocity": 100
            },
            {
              "start": 36000,
              "duration": 47,
              "midi": 43,
              "velocity": 100
            },
            {
              "start": 36048,
              "duration": 31,
              "midi": 48,
              "velocity": 100
            },
            {
              "start": 36096,
              "duration": 47,
              "midi": 48,
              "velocity": 100
            },
            {
              "start": 36096,
              "duration": 47,
              "midi": 36,
              "velocity": 100
            },
            {
              "start": 36144,
              "duration": 47,
              "midi": 48,
              "velocity": 100
            },
            {
              "start": 36192,
              "duration": 47,
              "midi": 48,
              "velocity": 100
            },
            {
              "start": 36240,
              "duration": 47,
              "midi": 48,
              "velocity": 100
            },
            {
              "start": 36288,
              "duration": 47,
              "midi": 51,
              "velocity": 100
            },
            {
              "start": 36336,
              "duration": 47,
              "midi": 51,
              "velocity": 100
            },
            {
              "start": 36384,
              "duration": 47,
              "midi": 48,
              "velocity": 100
            },
            {
              "start": 36432,
              "duration": 47,
              "midi": 48,
              "velocity": 100
            },
            {
              "start": 36480,
              "duration": 47,
              "midi": 44,
              "velocity": 100
            },
            {
              "start": 36528,
              "duration": 47,
              "midi": 44,
              "velocity": 100
            },
            {
              "start": 36576,
              "duration": 47,
              "midi": 44,
              "velocity": 100
            },
            {
              "start": 36624,
              "duration": 47,
              "midi": 48,
              "velocity": 100
            },
            {
              "start": 36672,
              "duration": 47,
              "midi": 43,
              "velocity": 100
            },
            {
              "start": 36720,
              "duration": 47,
              "midi": 43,
              "velocity": 100
            },
            {
              "start": 36768,
              "duration": 47,
              "midi": 43,
              "velocity": 100
            },
            {
              "start": 36816,
              "duration": 31,
              "midi": 48,
              "velocity": 100
            },
            {
              "start": 36864,
              "duration": 47,
              "midi": 48,
              "velocity": 100
            },
            {
              "start": 36864,
              "duration": 47,
              "midi": 36,
              "velocity": 100
            },
            {
              "start": 36912,
              "duration": 47,
              "midi": 48,
              "velocity": 100
            },
            {
              "start": 36960,
              "duration": 47,
              "midi": 48,
              "velocity": 100
            },
            {
              "start": 37008,
              "duration": 47,
              "midi": 48,
              "velocity": 100
            },
            {
              "start": 37056,
              "duration": 47,
              "midi": 51,
              "velocity": 100
            },
            {
              "start": 37104,
              "duration": 47,
              "midi": 51,
              "velocity": 100
            },
            {
              "start": 37152,
              "duration": 47,
              "midi": 48,
              "velocity": 100
            },
            {
              "start": 37200,
              "duration": 47,
              "midi": 48,
              "velocity": 100
            },
            {
              "start": 37248,
              "duration": 47,
              "midi": 44,
              "velocity": 100
            },
            {
              "start": 37296,
              "duration": 47,
              "midi": 44,
              "velocity": 100
            },
            {
              "start": 37344,
              "duration": 47,
              "midi": 44,
              "velocity": 100
            },
            {
              "start": 37392,
              "duration": 47,
              "midi": 48,
              "velocity": 100
            },
            {
              "start": 37440,
              "duration": 47,
              "midi": 43,
              "velocity": 100
            },
            {
              "start": 37488,
              "duration": 47,
              "midi": 43,
              "velocity": 100
            },
            {
              "start": 37536,
              "duration": 47,
              "midi": 43,
              "velocity": 100
            },
            {
              "start": 37584,
              "duration": 31,
              "midi": 48,
              "velocity": 100
            },
            {
              "start": 37632,
              "duration": 47,
              "midi": 48,
              "velocity": 100
            },
            {
              "start": 37632,
              "duration": 47,
              "midi": 36,
              "velocity": 100
            },
            {
              "start": 37680,
              "duration": 47,
              "midi": 48,
              "velocity": 100
            },
            {
              "start": 37728,
              "duration": 47,
              "midi": 48,
              "velocity": 100
            },
            {
              "start": 37776,
              "duration": 47,
              "midi": 48,
              "velocity": 100
            },
            {
              "start": 37824,
              "duration": 47,
              "midi": 51,
              "velocity": 100
            },
            {
              "start": 37872,
              "duration": 47,
              "midi": 51,
              "velocity": 100
            },
            {
              "start": 37920,
              "duration": 47,
              "midi": 48,
              "velocity": 100
            },
            {
              "start": 37968,
              "duration": 47,
              "midi": 48,
              "velocity": 100
            },
            {
              "start": 38016,
              "duration": 47,
              "midi": 44,
              "velocity": 100
            },
            {
              "start": 38064,
              "duration": 47,
              "midi": 44,
              "velocity": 100
            },
            {
              "start": 38112,
              "duration": 47,
              "midi": 44,
              "velocity": 100
            },
            {
              "start": 38160,
              "duration": 47,
              "midi": 48,
              "velocity": 100
            },
            {
              "start": 38208,
              "duration": 47,
              "midi": 43,
              "velocity": 100
            },
            {
              "start": 38256,
              "duration": 47,
              "midi": 43,
              "velocity": 100
            },
            {
              "start": 38304,
              "duration": 47,
              "midi": 43,
              "velocity": 100
            },
            {
              "start": 38352,
              "duration": 31,
              "midi": 48,
              "velocity": 100
            },
            {
              "start": 38400,
              "duration": 47,
              "midi": 48,
              "velocity": 100
            },
            {
              "start": 38400,
              "duration": 47,
              "midi": 36,
              "velocity": 100
            },
            {
              "start": 38448,
              "duration": 47,
              "midi": 48,
              "velocity": 100
            },
            {
              "start": 38496,
              "duration": 47,
              "midi": 48,
              "velocity": 100
            },
            {
              "start": 38544,
              "duration": 47,
              "midi": 48,
              "velocity": 100
            },
            {
              "start": 38592,
              "duration": 47,
              "midi": 51,
              "velocity": 100
            },
            {
              "start": 38640,
              "duration": 47,
              "midi": 51,
              "velocity": 100
            },
            {
              "start": 38688,
              "duration": 47,
              "midi": 48,
              "velocity": 100
            },
            {
              "start": 38736,
              "duration": 47,
              "midi": 48,
              "velocity": 100
            },
            {
              "start": 38784,
              "duration": 47,
              "midi": 44,
              "velocity": 100
            },
            {
              "start": 38832,
              "duration": 47,
              "midi": 44,
              "velocity": 100
            },
            {
              "start": 38880,
              "duration": 47,
              "midi": 44,
              "velocity": 100
            },
            {
              "start": 38928,
              "duration": 47,
              "midi": 48,
              "velocity": 100
            },
            {
              "start": 38976,
              "duration": 47,
              "midi": 43,
              "velocity": 100
            },
            {
              "start": 39024,
              "duration": 47,
              "midi": 43,
              "velocity": 100
            },
            {
              "start": 39072,
              "duration": 47,
              "midi": 43,
              "velocity": 100
            },
            {
              "start": 39120,
              "duration": 31,
              "midi": 48,
              "velocity": 100
            },
            {
              "start": 39168,
              "duration": 47,
              "midi": 48,
              "velocity": 100
            },
            {
              "start": 39168,
              "duration": 47,
              "midi": 36,
              "velocity": 100
            },
            {
              "start": 39216,
              "duration": 47,
              "midi": 48,
              "velocity": 100
            },
            {
              "start": 39264,
              "duration": 47,
              "midi": 48,
              "velocity": 100
            },
            {
              "start": 39312,
              "duration": 47,
              "midi": 48,
              "velocity": 100
            },
            {
              "start": 39360,
              "duration": 47,
              "midi": 51,
              "velocity": 100
            },
            {
              "start": 39408,
              "duration": 47,
              "midi": 51,
              "velocity": 100
            },
            {
              "start": 39456,
              "duration": 47,
              "midi": 48,
              "velocity": 100
            },
            {
              "start": 39504,
              "duration": 47,
              "midi": 48,
              "velocity": 100
            },
            {
              "start": 39552,
              "duration": 47,
              "midi": 44,
              "velocity": 100
            },
            {
              "start": 39600,
              "duration": 47,
              "midi": 44,
              "velocity": 100
            },
            {
              "start": 39648,
              "duration": 47,
              "midi": 44,
              "velocity": 100
            },
            {
              "start": 39696,
              "duration": 47,
              "midi": 48,
              "velocity": 100
            },
            {
              "start": 39744,
              "duration": 47,
              "midi": 43,
              "velocity": 100
            },
            {
              "start": 39792,
              "duration": 47,
              "midi": 43,
              "velocity": 100
            },
            {
              "start": 39840,
              "duration": 47,
              "midi": 43,
              "velocity": 100
            },
            {
              "start": 39888,
              "duration": 31,
              "midi": 48,
              "velocity": 100
            },
            {
              "start": 39936,
              "duration": 47,
              "midi": 48,
              "velocity": 100
            },
            {
              "start": 39936,
              "duration": 47,
              "midi": 36,
              "velocity": 100
            },
            {
              "start": 39984,
              "duration": 47,
              "midi": 48,
              "velocity": 100
            },
            {
              "start": 40032,
              "duration": 47,
              "midi": 48,
              "velocity": 100
            },
            {
              "start": 40080,
              "duration": 47,
              "midi": 48,
              "velocity": 100
            },
            {
              "start": 40128,
              "duration": 47,
              "midi": 51,
              "velocity": 100
            },
            {
              "start": 40176,
              "duration": 47,
              "midi": 51,
              "velocity": 100
            },
            {
              "start": 40224,
              "duration": 47,
              "midi": 48,
              "velocity": 100
            },
            {
              "start": 40272,
              "duration": 47,
              "midi": 48,
              "velocity": 100
            },
            {
              "start": 40320,
              "duration": 47,
              "midi": 44,
              "velocity": 100
            },
            {
              "start": 40368,
              "duration": 47,
              "midi": 44,
              "velocity": 100
            },
            {
              "start": 40416,
              "duration": 47,
              "midi": 44,
              "velocity": 100
            },
            {
              "start": 40464,
              "duration": 47,
              "midi": 48,
              "velocity": 100
            },
            {
              "start": 40512,
              "duration": 47,
              "midi": 43,
              "velocity": 100
            },
            {
              "start": 40560,
              "duration": 47,
              "midi": 43,
              "velocity": 100
            },
            {
              "start": 40608,
              "duration": 47,
              "midi": 43,
              "velocity": 100
            },
            {
              "start": 40656,
              "duration": 31,
              "midi": 48,
              "velocity": 100
            },
            {
              "start": 40704,
              "duration": 47,
              "midi": 48,
              "velocity": 100
            },
            {
              "start": 40704,
              "duration": 47,
              "midi": 36,
              "velocity": 100
            },
            {
              "start": 40752,
              "duration": 47,
              "midi": 48,
              "velocity": 100
            },
            {
              "start": 40800,
              "duration": 47,
              "midi": 48,
              "velocity": 100
            },
            {
              "start": 40848,
              "duration": 47,
              "midi": 48,
              "velocity": 100
            },
            {
              "start": 40896,
              "duration": 47,
              "midi": 51,
              "velocity": 100
            },
            {
              "start": 40944,
              "duration": 47,
              "midi": 51,
              "velocity": 100
            },
            {
              "start": 40992,
              "duration": 47,
              "midi": 48,
              "velocity": 100
            },
            {
              "start": 41040,
              "duration": 47,
              "midi": 48,
              "velocity": 100
            },
            {
              "start": 41088,
              "duration": 47,
              "midi": 44,
              "velocity": 100
            },
            {
              "start": 41136,
              "duration": 47,
              "midi": 44,
              "velocity": 100
            },
            {
              "start": 41184,
              "duration": 47,
              "midi": 44,
              "velocity": 100
            },
            {
              "start": 41232,
              "duration": 47,
              "midi": 48,
              "velocity": 100
            },
            {
              "start": 41280,
              "duration": 47,
              "midi": 43,
              "velocity": 100
            },
            {
              "start": 41328,
              "duration": 47,
              "midi": 43,
              "velocity": 100
            },
            {
              "start": 41376,
              "duration": 47,
              "midi": 43,
              "velocity": 100
            },
            {
              "start": 41424,
              "duration": 31,
              "midi": 48,
              "velocity": 100
            },
            {
              "start": 41472,
              "duration": 95,
              "midi": 44,
              "velocity": 100
            },
            {
              "start": 41568,
              "duration": 47,
              "midi": 56,
              "velocity": 100
            },
            {
              "start": 41616,
              "duration": 95,
              "midi": 44,
              "velocity": 100
            },
            {
              "start": 41712,
              "duration": 47,
              "midi": 56,
              "velocity": 100
            },
            {
              "start": 41760,
              "duration": 47,
              "midi": 44,
              "velocity": 100
            },
            {
              "start": 41808,
              "duration": 47,
              "midi": 56,
              "velocity": 100
            },
            {
              "start": 41856,
              "duration": 95,
              "midi": 43,
              "velocity": 100
            },
            {
              "start": 41952,
              "duration": 47,
              "midi": 55,
              "velocity": 100
            },
            {
              "start": 42000,
              "duration": 95,
              "midi": 43,
              "velocity": 100
            },
            {
              "start": 42096,
              "duration": 47,
              "midi": 55,
              "velocity": 100
            },
            {
              "start": 42144,
              "duration": 47,
              "midi": 43,
              "velocity": 100
            },
            {
              "start": 42192,
              "duration": 47,
              "midi": 55,
              "velocity": 100
            },
            {
              "start": 42240,
              "duration": 95,
              "midi": 48,
              "velocity": 100
            },
            {
              "start": 42336,
              "duration": 47,
              "midi": 48,
              "velocity": 100
            },
            {
              "start": 42384,
              "duration": 47,
              "midi": 48,
              "velocity": 100
            },
            {
              "start": 42432,
              "duration": 47,
              "midi": 48,
              "velocity": 100
            },
            {
              "start": 42480,
              "duration": 47,
              "midi": 48,
              "velocity": 100
            },
            {
              "start": 42528,
              "duration": 95,
              "midi": 48,
              "velocity": 100
            },
            {
              "start": 42624,
              "duration": 95,
              "midi": 41,
              "velocity": 100
            },
            {
              "start": 42720,
              "duration": 47,
              "midi": 53,
              "velocity": 100
            },
            {
              "start": 42768,
              "duration": 95,
              "midi": 41,
              "velocity": 100
            },
            {
              "start": 42864,
              "duration": 47,
              "midi": 53,
              "velocity": 100
            },
            {
              "start": 42912,
              "duration": 47,
              "midi": 41,
              "velocity": 100
            },
            {
              "start": 42960,
              "duration": 47,
              "midi": 53,
              "velocity": 100
            },
            {
              "start": 43008,
              "duration": 95,
              "midi": 44,
              "velocity": 100
            },
            {
              "start": 43104,
              "duration": 47,
              "midi": 56,
              "velocity": 100
            },
            {
              "start": 43152,
              "duration": 95,
              "midi": 44,
              "velocity": 100
            },
            {
              "start": 43248,
              "duration": 47,
              "midi": 56,
              "velocity": 100
            },
            {
              "start": 43296,
              "duration": 47,
              "midi": 44,
              "velocity": 100
            },
            {
              "start": 43344,
              "duration": 47,
              "midi": 56,
              "velocity": 100
            },
            {
              "start": 43392,
              "duration": 95,
              "midi": 43,
              "velocity": 100
            },
            {
              "start": 43488,
              "duration": 47,
              "midi": 55,
              "velocity": 100
            },
            {
              "start": 43536,
              "duration": 95,
              "midi": 43,
              "velocity": 100
            },
            {
              "start": 43632,
              "duration": 47,
              "midi": 55,
              "velocity": 100
            },
            {
              "start": 43680,
              "duration": 47,
              "midi": 43,
              "velocity": 100
            },
            {
              "start": 43728,
              "duration": 47,
              "midi": 55,
              "velocity": 100
            },
            {
              "start": 43776,
              "duration": 47,
              "midi": 48,
              "velocity": 100
            },
            {
              "start": 43776,
              "duration": 47,
              "midi": 36,
              "velocity": 100
            },
            {
              "start": 43824,
              "duration": 47,
              "midi": 48,
              "velocity": 100
            },
            {
              "start": 43872,
              "duration": 47,
              "midi": 48,
              "velocity": 100
            },
            {
              "start": 43920,
              "duration": 47,
              "midi": 48,
              "velocity": 100
            },
            {
              "start": 43968,
              "duration": 47,
              "midi": 51,
              "velocity": 100
            },
            {
              "start": 44016,
              "duration": 47,
              "midi": 51,
              "velocity": 100
            },
            {
              "start": 44064,
              "duration": 47,
              "midi": 48,
              "velocity": 100
            },
            {
              "start": 44112,
              "duration": 47,
              "midi": 48,
              "velocity": 100
            },
            {
              "start": 44160,
              "duration": 47,
              "midi": 44,
              "velocity": 100
            },
            {
              "start": 44208,
              "duration": 47,
              "midi": 44,
              "velocity": 100
            },
            {
              "start": 44256,
              "duration": 47,
              "midi": 44,
              "velocity": 100
            },
            {
              "start": 44304,
              "duration": 47,
              "midi": 48,
              "velocity": 100
            },
            {
              "start": 44352,
              "duration": 47,
              "midi": 43,
              "velocity": 100
            },
            {
              "start": 44400,
              "duration": 47,
              "midi": 43,
              "velocity": 100
            },
            {
              "start": 44448,
              "duration": 47,
              "midi": 43,
              "velocity": 100
            },
            {
              "start": 44496,
              "duration": 31,
              "midi": 48,
              "velocity": 100
            },
            {
              "start": 44544,
              "duration": 47,
              "midi": 48,
              "velocity": 100
            },
            {
              "start": 44544,
              "duration": 47,
              "midi": 36,
              "velocity": 100
            },
            {
              "start": 44592,
              "duration": 47,
              "midi": 48,
              "velocity": 100
            },
            {
              "start": 44640,
              "duration": 47,
              "midi": 48,
              "velocity": 100
            },
            {
              "start": 44688,
              "duration": 47,
              "midi": 48,
              "velocity": 100
            },
            {
              "start": 44736,
              "duration": 47,
              "midi": 51,
              "velocity": 100
            },
            {
              "start": 44784,
              "duration": 47,
              "midi": 51,
              "velocity": 100
            },
            {
              "start": 44832,
              "duration": 47,
              "midi": 48,
              "velocity": 100
            },
            {
              "start": 44880,
              "duration": 47,
              "midi": 48,
              "velocity": 100
            },
            {
              "start": 44928,
              "duration": 47,
              "midi": 44,
              "velocity": 100
            },
            {
              "start": 44976,
              "duration": 47,
              "midi": 44,
              "velocity": 100
            },
            {
              "start": 45024,
              "duration": 47,
              "midi": 44,
              "velocity": 100
            },
            {
              "start": 45072,
              "duration": 47,
              "midi": 48,
              "velocity": 100
            },
            {
              "start": 45120,
              "duration": 47,
              "midi": 43,
              "velocity": 100
            },
            {
              "start": 45168,
              "duration": 47,
              "midi": 43,
              "velocity": 100
            },
            {
              "start": 45216,
              "duration": 47,
              "midi": 43,
              "velocity": 100
            },
            {
              "start": 45264,
              "duration": 31,
              "midi": 48,
              "velocity": 100
            },
            {
              "start": 45312,
              "duration": 47,
              "midi": 48,
              "velocity": 100
            },
            {
              "start": 45312,
              "duration": 47,
              "midi": 36,
              "velocity": 100
            },
            {
              "start": 45360,
              "duration": 47,
              "midi": 48,
              "velocity": 100
            },
            {
              "start": 45408,
              "duration": 47,
              "midi": 48,
              "velocity": 100
            },
            {
              "start": 45456,
              "duration": 47,
              "midi": 48,
              "velocity": 100
            },
            {
              "start": 45504,
              "duration": 47,
              "midi": 51,
              "velocity": 100
            },
            {
              "start": 45552,
              "duration": 47,
              "midi": 51,
              "velocity": 100
            },
            {
              "start": 45600,
              "duration": 47,
              "midi": 48,
              "velocity": 100
            },
            {
              "start": 45648,
              "duration": 47,
              "midi": 48,
              "velocity": 100
            },
            {
              "start": 45696,
              "duration": 47,
              "midi": 44,
              "velocity": 100
            },
            {
              "start": 45744,
              "duration": 47,
              "midi": 44,
              "velocity": 100
            },
            {
              "start": 45792,
              "duration": 47,
              "midi": 44,
              "velocity": 100
            },
            {
              "start": 45840,
              "duration": 47,
              "midi": 48,
              "velocity": 100
            },
            {
              "start": 45888,
              "duration": 47,
              "midi": 43,
              "velocity": 100
            },
            {
              "start": 45936,
              "duration": 47,
              "midi": 43,
              "velocity": 100
            },
            {
              "start": 45984,
              "duration": 47,
              "midi": 43,
              "velocity": 100
            },
            {
              "start": 46032,
              "duration": 31,
              "midi": 48,
              "velocity": 100
            },
            {
              "start": 49152,
              "duration": 47,
              "midi": 48,
              "velocity": 100
            },
            {
              "start": 49152,
              "duration": 47,
              "midi": 36,
              "velocity": 100
            },
            {
              "start": 49200,
              "duration": 47,
              "midi": 48,
              "velocity": 100
            },
            {
              "start": 49248,
              "duration": 47,
              "midi": 48,
              "velocity": 100
            },
            {
              "start": 49296,
              "duration": 47,
              "midi": 48,
              "velocity": 100
            },
            {
              "start": 49344,
              "duration": 47,
              "midi": 51,
              "velocity": 100
            },
            {
              "start": 49392,
              "duration": 47,
              "midi": 51,
              "velocity": 100
            },
            {
              "start": 49440,
              "duration": 47,
              "midi": 48,
              "velocity": 100
            },
            {
              "start": 49488,
              "duration": 47,
              "midi": 48,
              "velocity": 100
            },
            {
              "start": 49536,
              "duration": 47,
              "midi": 44,
              "velocity": 100
            },
            {
              "start": 49584,
              "duration": 47,
              "midi": 44,
              "velocity": 100
            },
            {
              "start": 49632,
              "duration": 47,
              "midi": 44,
              "velocity": 100
            },
            {
              "start": 49680,
              "duration": 47,
              "midi": 48,
              "velocity": 100
            },
            {
              "start": 49728,
              "duration": 47,
              "midi": 43,
              "velocity": 100
            },
            {
              "start": 49776,
              "duration": 47,
              "midi": 43,
              "velocity": 100
            },
            {
              "start": 49824,
              "duration": 47,
              "midi": 43,
              "velocity": 100
            },
            {
              "start": 49872,
              "duration": 31,
              "midi": 48,
              "velocity": 100
            },
            {
              "start": 49920,
              "duration": 47,
              "midi": 48,
              "velocity": 100
            },
            {
              "start": 49920,
              "duration": 47,
              "midi": 36,
              "velocity": 100
            },
            {
              "start": 49968,
              "duration": 47,
              "midi": 48,
              "velocity": 100
            },
            {
              "start": 50016,
              "duration": 47,
              "midi": 48,
              "velocity": 100
            },
            {
              "start": 50064,
              "duration": 47,
              "midi": 48,
              "velocity": 100
            },
            {
              "start": 50112,
              "duration": 47,
              "midi": 51,
              "velocity": 100
            },
            {
              "start": 50160,
              "duration": 47,
              "midi": 51,
              "velocity": 100
            },
            {
              "start": 50208,
              "duration": 47,
              "midi": 48,
              "velocity": 100
            },
            {
              "start": 50256,
              "duration": 47,
              "midi": 48,
              "velocity": 100
            },
            {
              "start": 50304,
              "duration": 47,
              "midi": 44,
              "velocity": 100
            },
            {
              "start": 50352,
              "duration": 47,
              "midi": 44,
              "velocity": 100
            },
            {
              "start": 50400,
              "duration": 47,
              "midi": 44,
              "velocity": 100
            },
            {
              "start": 50448,
              "duration": 47,
              "midi": 48,
              "velocity": 100
            },
            {
              "start": 50496,
              "duration": 47,
              "midi": 43,
              "velocity": 100
            },
            {
              "start": 50544,
              "duration": 47,
              "midi": 43,
              "velocity": 100
            },
            {
              "start": 50592,
              "duration": 47,
              "midi": 43,
              "velocity": 100
            },
            {
              "start": 50640,
              "duration": 31,
              "midi": 48,
              "velocity": 100
            },
            {
              "start": 50688,
              "duration": 47,
              "midi": 48,
              "velocity": 100
            },
            {
              "start": 50688,
              "duration": 47,
              "midi": 36,
              "velocity": 100
            },
            {
              "start": 50736,
              "duration": 47,
              "midi": 48,
              "velocity": 100
            },
            {
              "start": 50784,
              "duration": 47,
              "midi": 48,
              "velocity": 100
            },
            {
              "start": 50832,
              "duration": 47,
              "midi": 48,
              "velocity": 100
            },
            {
              "start": 50880,
              "duration": 47,
              "midi": 51,
              "velocity": 100
            },
            {
              "start": 50928,
              "duration": 47,
              "midi": 51,
              "velocity": 100
            },
            {
              "start": 50976,
              "duration": 47,
              "midi": 48,
              "velocity": 100
            },
            {
              "start": 51024,
              "duration": 47,
              "midi": 48,
              "velocity": 100
            },
            {
              "start": 51072,
              "duration": 47,
              "midi": 44,
              "velocity": 100
            },
            {
              "start": 51120,
              "duration": 47,
              "midi": 44,
              "velocity": 100
            },
            {
              "start": 51168,
              "duration": 47,
              "midi": 44,
              "velocity": 100
            },
            {
              "start": 51216,
              "duration": 47,
              "midi": 48,
              "velocity": 100
            },
            {
              "start": 51264,
              "duration": 47,
              "midi": 43,
              "velocity": 100
            },
            {
              "start": 51312,
              "duration": 47,
              "midi": 43,
              "velocity": 100
            },
            {
              "start": 51360,
              "duration": 47,
              "midi": 43,
              "velocity": 100
            },
            {
              "start": 51408,
              "duration": 31,
              "midi": 48,
              "velocity": 100
            },
            {
              "start": 51456,
              "duration": 47,
              "midi": 48,
              "velocity": 100
            },
            {
              "start": 51456,
              "duration": 47,
              "midi": 36,
              "velocity": 100
            },
            {
              "start": 51504,
              "duration": 47,
              "midi": 48,
              "velocity": 100
            },
            {
              "start": 51552,
              "duration": 47,
              "midi": 48,
              "velocity": 100
            },
            {
              "start": 51600,
              "duration": 47,
              "midi": 48,
              "velocity": 100
            },
            {
              "start": 51648,
              "duration": 47,
              "midi": 51,
              "velocity": 100
            },
            {
              "start": 51696,
              "duration": 47,
              "midi": 51,
              "velocity": 100
            },
            {
              "start": 51744,
              "duration": 47,
              "midi": 48,
              "velocity": 100
            },
            {
              "start": 51792,
              "duration": 47,
              "midi": 48,
              "velocity": 100
            },
            {
              "start": 51840,
              "duration": 47,
              "midi": 44,
              "velocity": 100
            },
            {
              "start": 51888,
              "duration": 47,
              "midi": 44,
              "velocity": 100
            },
            {
              "start": 51936,
              "duration": 47,
              "midi": 44,
              "velocity": 100
            },
            {
              "start": 51984,
              "duration": 47,
              "midi": 48,
              "velocity": 100
            },
            {
              "start": 52032,
              "duration": 47,
              "midi": 43,
              "velocity": 100
            },
            {
              "start": 52080,
              "duration": 47,
              "midi": 43,
              "velocity": 100
            },
            {
              "start": 52128,
              "duration": 47,
              "midi": 43,
              "velocity": 100
            },
            {
              "start": 52176,
              "duration": 31,
              "midi": 48,
              "velocity": 100
            },
            {
              "start": 52224,
              "duration": 47,
              "midi": 48,
              "velocity": 100
            },
            {
              "start": 52224,
              "duration": 47,
              "midi": 36,
              "velocity": 100
            },
            {
              "start": 52272,
              "duration": 47,
              "midi": 48,
              "velocity": 100
            },
            {
              "start": 52320,
              "duration": 47,
              "midi": 48,
              "velocity": 100
            },
            {
              "start": 52368,
              "duration": 47,
              "midi": 48,
              "velocity": 100
            },
            {
              "start": 52416,
              "duration": 47,
              "midi": 51,
              "velocity": 100
            },
            {
              "start": 52464,
              "duration": 47,
              "midi": 51,
              "velocity": 100
            },
            {
              "start": 52512,
              "duration": 47,
              "midi": 48,
              "velocity": 100
            },
            {
              "start": 52560,
              "duration": 47,
              "midi": 48,
              "velocity": 100
            },
            {
              "start": 52608,
              "duration": 47,
              "midi": 44,
              "velocity": 100
            },
            {
              "start": 52656,
              "duration": 47,
              "midi": 44,
              "velocity": 100
            },
            {
              "start": 52704,
              "duration": 47,
              "midi": 44,
              "velocity": 100
            },
            {
              "start": 52752,
              "duration": 47,
              "midi": 48,
              "velocity": 100
            },
            {
              "start": 52800,
              "duration": 47,
              "midi": 43,
              "velocity": 100
            },
            {
              "start": 52848,
              "duration": 47,
              "midi": 43,
              "velocity": 100
            },
            {
              "start": 52896,
              "duration": 47,
              "midi": 43,
              "velocity": 100
            },
            {
              "start": 52944,
              "duration": 31,
              "midi": 48,
              "velocity": 100
            },
            {
              "start": 52992,
              "duration": 47,
              "midi": 48,
              "velocity": 100
            },
            {
              "start": 52992,
              "duration": 47,
              "midi": 36,
              "velocity": 100
            },
            {
              "start": 53040,
              "duration": 47,
              "midi": 48,
              "velocity": 100
            },
            {
              "start": 53088,
              "duration": 47,
              "midi": 48,
              "velocity": 100
            },
            {
              "start": 53136,
              "duration": 47,
              "midi": 48,
              "velocity": 100
            },
            {
              "start": 53184,
              "duration": 47,
              "midi": 51,
              "velocity": 100
            },
            {
              "start": 53232,
              "duration": 47,
              "midi": 51,
              "velocity": 100
            },
            {
              "start": 53280,
              "duration": 47,
              "midi": 48,
              "velocity": 100
            },
            {
              "start": 53328,
              "duration": 47,
              "midi": 48,
              "velocity": 100
            },
            {
              "start": 53376,
              "duration": 47,
              "midi": 44,
              "velocity": 100
            },
            {
              "start": 53424,
              "duration": 47,
              "midi": 44,
              "velocity": 100
            },
            {
              "start": 53472,
              "duration": 47,
              "midi": 44,
              "velocity": 100
            },
            {
              "start": 53520,
              "duration": 47,
              "midi": 48,
              "velocity": 100
            },
            {
              "start": 53568,
              "duration": 47,
              "midi": 43,
              "velocity": 100
            },
            {
              "start": 53616,
              "duration": 47,
              "midi": 43,
              "velocity": 100
            },
            {
              "start": 53664,
              "duration": 47,
              "midi": 43,
              "velocity": 100
            },
            {
              "start": 53712,
              "duration": 31,
              "midi": 48,
              "velocity": 100
            },
            {
              "start": 53760,
              "duration": 47,
              "midi": 48,
              "velocity": 100
            },
            {
              "start": 53760,
              "duration": 47,
              "midi": 36,
              "velocity": 100
            },
            {
              "start": 53808,
              "duration": 47,
              "midi": 48,
              "velocity": 100
            },
            {
              "start": 53856,
              "duration": 47,
              "midi": 48,
              "velocity": 100
            },
            {
              "start": 53904,
              "duration": 47,
              "midi": 48,
              "velocity": 100
            },
            {
              "start": 53952,
              "duration": 47,
              "midi": 51,
              "velocity": 100
            },
            {
              "start": 54000,
              "duration": 47,
              "midi": 51,
              "velocity": 100
            },
            {
              "start": 54048,
              "duration": 47,
              "midi": 48,
              "velocity": 100
            },
            {
              "start": 54096,
              "duration": 47,
              "midi": 48,
              "velocity": 100
            },
            {
              "start": 54144,
              "duration": 47,
              "midi": 44,
              "velocity": 84
            },
            {
              "start": 54192,
              "duration": 47,
              "midi": 44,
              "velocity": 84
            },
            {
              "start": 54240,
              "duration": 47,
              "midi": 44,
              "velocity": 84
            },
            {
              "start": 54288,
              "duration": 47,
              "midi": 48,
              "velocity": 84
            },
            {
              "start": 54336,
              "duration": 47,
              "midi": 43,
              "velocity": 84
            },
            {
              "start": 54384,
              "duration": 47,
              "midi": 43,
              "velocity": 84
            },
            {
              "start": 54432,
              "duration": 47,
              "midi": 43,
              "velocity": 84
            },
            {
              "start": 54480,
              "duration": 31,
              "midi": 48,
              "velocity": 84
            },
            {
              "start": 54528,
              "duration": 47,
              "midi": 48,
              "velocity": 84
            },
            {
              "start": 54528,
              "duration": 47,
              "midi": 36,
              "velocity": 84
            },
            {
              "start": 54576,
              "duration": 47,
              "midi": 48,
              "velocity": 84
            },
            {
              "start": 54624,
              "duration": 47,
              "midi": 48,
              "velocity": 84
            },
            {
              "start": 54672,
              "duration": 47,
              "midi": 48,
              "velocity": 84
            },
            {
              "start": 54720,
              "duration": 47,
              "midi": 51,
              "velocity": 84
            },
            {
              "start": 54768,
              "duration": 47,
              "midi": 51,
              "velocity": 84
            },
            {
              "start": 54816,
              "duration": 47,
              "midi": 48,
              "velocity": 84
            },
            {
              "start": 54864,
              "duration": 47,
              "midi": 48,
              "velocity": 84
            },
            {
              "start": 54912,
              "duration": 47,
              "midi": 44,
              "velocity": 68
            },
            {
              "start": 54960,
              "duration": 47,
              "midi": 44,
              "velocity": 68
            },
            {
              "start": 55008,
              "duration": 47,
              "midi": 44,
              "velocity": 68
            },
            {
              "start": 55056,
              "duration": 47,
              "midi": 48,
              "velocity": 68
            },
            {
              "start": 55104,
              "duration": 47,
              "midi": 43,
              "velocity": 68
            },
            {
              "start": 55152,
              "duration": 47,
              "midi": 43,
              "velocity": 68
            },
            {
              "start": 55200,
              "duration": 47,
              "midi": 43,
              "velocity": 68
            },
            {
              "start": 55248,
              "duration": 31,
              "midi": 48,
              "velocity": 68
            },
            {
              "start": 55296,
              "duration": 47,
              "midi": 48,
              "velocity": 68
            },
            {
              "start": 55296,
              "duration": 47,
              "midi": 36,
              "velocity": 68
            },
            {
              "start": 55344,
              "duration": 47,
              "midi": 48,
              "velocity": 68
            },
            {
              "start": 55392,
              "duration": 47,
              "midi": 48,
              "velocity": 68
            },
            {
              "start": 55440,
              "duration": 47,
              "midi": 48,
              "velocity": 68
            },
            {
              "start": 55488,
              "duration": 47,
              "midi": 51,
              "velocity": 68
            },
            {
              "start": 55536,
              "duration": 47,
              "midi": 51,
              "velocity": 68
            },
            {
              "start": 55584,
              "duration": 47,
              "midi": 48,
              "velocity": 68
            },
            {
              "start": 55632,
              "duration": 47,
              "midi": 48,
              "velocity": 68
            },
            {
              "start": 55680,
              "duration": 47,
              "midi": 44,
              "velocity": 55
            },
            {
              "start": 55728,
              "duration": 47,
              "midi": 44,
              "velocity": 55
            },
            {
              "start": 55776,
              "duration": 47,
              "midi": 44,
              "velocity": 55
            },
            {
              "start": 55824,
              "duration": 47,
              "midi": 48,
              "velocity": 55
            },
            {
              "start": 55872,
              "duration": 47,
              "midi": 43,
              "velocity": 55
            },
            {
              "start": 55920,
              "duration": 47,
              "midi": 43,
              "velocity": 55
            },
            {
              "start": 55968,
              "duration": 47,
              "midi": 43,
              "velocity": 55
            },
            {
              "start": 56016,
              "duration": 31,
              "midi": 48,
              "velocity": 55
            },
            {
              "start": 56064,
              "duration": 47,
              "midi": 48,
              "velocity": 55
            },
            {
              "start": 56064,
              "duration": 47,
              "midi": 36,
              "velocity": 55
            },
            {
              "start": 56112,
              "duration": 47,
              "midi": 48,
              "velocity": 55
            },
            {
              "start": 56160,
              "duration": 47,
              "midi": 48,
              "velocity": 55
            },
            {
              "start": 56208,
              "duration": 47,
              "midi": 48,
              "velocity": 55
            },
            {
              "start": 56256,
              "duration": 47,
              "midi": 51,
              "velocity": 55
            },
            {
              "start": 56304,
              "duration": 47,
              "midi": 51,
              "velocity": 55
            },
            {
              "start": 56352,
              "duration": 47,
              "midi": 48,
              "velocity": 55
            },
            {
              "start": 56400,
              "duration": 47,
              "midi": 48,
              "velocity": 55
            },
            {
              "start": 56448,
              "duration": 47,
              "midi": 44,
              "velocity": 46
            },
            {
              "start": 56496,
              "duration": 47,
              "midi": 44,
              "velocity": 46
            },
            {
              "start": 56544,
              "duration": 47,
              "midi": 44,
              "velocity": 46
            },
            {
              "start": 56592,
              "duration": 47,
              "midi": 48,
              "velocity": 46
            },
            {
              "start": 56640,
              "duration": 47,
              "midi": 43,
              "velocity": 46
            },
            {
              "start": 56688,
              "duration": 47,
              "midi": 43,
              "velocity": 46
            },
            {
              "start": 56736,
              "duration": 47,
              "midi": 43,
              "velocity": 46
            },
            {
              "start": 56784,
              "duration": 31,
              "midi": 48,
              "velocity": 46
            },
            {
              "start": 56832,
              "duration": 47,
              "midi": 48,
              "velocity": 46
            },
            {
              "start": 56832,
              "duration": 47,
              "midi": 36,
              "velocity": 46
            },
            {
              "start": 56880,
              "duration": 47,
              "midi": 48,
              "velocity": 46
            },
            {
              "start": 56928,
              "duration": 47,
              "midi": 48,
              "velocity": 46
            },
            {
              "start": 56976,
              "duration": 47,
              "midi": 48,
              "velocity": 46
            },
            {
              "start": 57024,
              "duration": 47,
              "midi": 51,
              "velocity": 46
            },
            {
              "start": 57072,
              "duration": 47,
              "midi": 51,
              "velocity": 46
            },
            {
              "start": 57120,
              "duration": 47,
              "midi": 48,
              "velocity": 46
            },
            {
              "start": 57168,
              "duration": 47,
              "midi": 48,
              "velocity": 46
            },
            {
              "start": 57216,
              "duration": 47,
              "midi": 44,
              "velocity": 31
            },
            {
              "start": 57264,
              "duration": 47,
              "midi": 44,
              "velocity": 31
            },
            {
              "start": 57312,
              "duration": 47,
              "midi": 44,
              "velocity": 31
            },
            {
              "start": 57360,
              "duration": 47,
              "midi": 48,
              "velocity": 31
            },
            {
              "start": 57408,
              "duration": 47,
              "midi": 43,
              "velocity": 31
            },
            {
              "start": 57456,
              "duration": 47,
              "midi": 43,
              "velocity": 31
            },
            {
              "start": 57504,
              "duration": 47,
              "midi": 43,
              "velocity": 31
            },
            {
              "start": 57552,
              "duration": 31,
              "midi": 48,
              "velocity": 31
            },
            {
              "start": 57600,
              "duration": 47,
              "midi": 48,
              "velocity": 31
            },
            {
              "start": 57600,
              "duration": 47,
              "midi": 36,
              "velocity": 31
            },
            {
              "start": 57648,
              "duration": 47,
              "midi": 48,
              "velocity": 31
            },
            {
              "start": 57696,
              "duration": 47,
              "midi": 48,
              "velocity": 31
            },
            {
              "start": 57744,
              "duration": 47,
              "midi": 48,
              "velocity": 31
            },
            {
              "start": 57792,
              "duration": 47,
              "midi": 51,
              "velocity": 31
            },
            {
              "start": 57840,
              "duration": 47,
              "midi": 51,
              "velocity": 31
            },
            {
              "start": 57888,
              "duration": 47,
              "midi": 48,
              "velocity": 31
            },
            {
              "start": 57936,
              "duration": 47,
              "midi": 48,
              "velocity": 31
            },
            {
              "start": 57984,
              "duration": 47,
              "midi": 44,
              "velocity": 31
            },
            {
              "start": 58032,
              "duration": 47,
              "midi": 44,
              "velocity": 31
            },
            {
              "start": 58080,
              "duration": 47,
              "midi": 44,
              "velocity": 31
            },
            {
              "start": 58128,
              "duration": 47,
              "midi": 48,
              "velocity": 31
            },
            {
              "start": 58176,
              "duration": 47,
              "midi": 43,
              "velocity": 31
            },
            {
              "start": 58224,
              "duration": 47,
              "midi": 43,
              "velocity": 31
            },
            {
              "start": 58272,
              "duration": 47,
              "midi": 43,
              "velocity": 31
            },
            {
              "start": 58320,
              "duration": 31,
              "midi": 48,
              "velocity": 31
            }
          ]
        }
      ],
      "enginePresetName": "factory:BASS Reese"
    },
    {
      "id": "lane-drums-sweet-dreams",
      "engineId": "drums-machine",
      "name": "KIT TR-808",
      "clips": [
        {
          "id": "clip-mpr2auvs-h",
          "name": "MIDI Drums",
          "lengthBars": 152,
          "notes": [
            {
              "start": 21696,
              "duration": 23,
              "midi": 80,
              "velocity": 100
            },
            {
              "start": 21720,
              "duration": 23,
              "midi": 80,
              "velocity": 100
            },
            {
              "start": 21744,
              "duration": 23,
              "midi": 80,
              "velocity": 100
            },
            {
              "start": 21768,
              "duration": 47,
              "midi": 80,
              "velocity": 100
            },
            {
              "start": 21816,
              "duration": 47,
              "midi": 80,
              "velocity": 100
            },
            {
              "start": 22080,
              "duration": 23,
              "midi": 80,
              "velocity": 100
            },
            {
              "start": 22104,
              "duration": 23,
              "midi": 80,
              "velocity": 100
            },
            {
              "start": 22128,
              "duration": 23,
              "midi": 80,
              "velocity": 100
            },
            {
              "start": 22152,
              "duration": 47,
              "midi": 80,
              "velocity": 100
            },
            {
              "start": 22200,
              "duration": 23,
              "midi": 80,
              "velocity": 100
            },
            {
              "start": 22224,
              "duration": 23,
              "midi": 80,
              "velocity": 100
            },
            {
              "start": 22464,
              "duration": 23,
              "midi": 80,
              "velocity": 100
            },
            {
              "start": 22488,
              "duration": 23,
              "midi": 80,
              "velocity": 100
            },
            {
              "start": 22512,
              "duration": 23,
              "midi": 80,
              "velocity": 100
            },
            {
              "start": 22536,
              "duration": 47,
              "midi": 80,
              "velocity": 100
            },
            {
              "start": 22584,
              "duration": 47,
              "midi": 80,
              "velocity": 100
            },
            {
              "start": 22848,
              "duration": 23,
              "midi": 80,
              "velocity": 100
            },
            {
              "start": 22872,
              "duration": 23,
              "midi": 80,
              "velocity": 100
            },
            {
              "start": 22896,
              "duration": 23,
              "midi": 80,
              "velocity": 100
            },
            {
              "start": 22920,
              "duration": 47,
              "midi": 80,
              "velocity": 100
            },
            {
              "start": 22968,
              "duration": 23,
              "midi": 80,
              "velocity": 100
            },
            {
              "start": 22992,
              "duration": 23,
              "midi": 80,
              "velocity": 100
            },
            {
              "start": 23232,
              "duration": 23,
              "midi": 80,
              "velocity": 100
            },
            {
              "start": 23256,
              "duration": 23,
              "midi": 80,
              "velocity": 100
            },
            {
              "start": 23280,
              "duration": 23,
              "midi": 80,
              "velocity": 100
            },
            {
              "start": 23304,
              "duration": 47,
              "midi": 80,
              "velocity": 100
            },
            {
              "start": 23352,
              "duration": 47,
              "midi": 80,
              "velocity": 100
            },
            {
              "start": 33216,
              "duration": 23,
              "midi": 80,
              "velocity": 100
            },
            {
              "start": 33240,
              "duration": 23,
              "midi": 80,
              "velocity": 100
            },
            {
              "start": 33264,
              "duration": 23,
              "midi": 80,
              "velocity": 100
            },
            {
              "start": 33288,
              "duration": 47,
              "midi": 80,
              "velocity": 100
            },
            {
              "start": 33336,
              "duration": 47,
              "midi": 80,
              "velocity": 100
            },
            {
              "start": 33600,
              "duration": 23,
              "midi": 80,
              "velocity": 100
            },
            {
              "start": 33624,
              "duration": 23,
              "midi": 80,
              "velocity": 100
            },
            {
              "start": 33648,
              "duration": 23,
              "midi": 80,
              "velocity": 100
            },
            {
              "start": 33672,
              "duration": 47,
              "midi": 80,
              "velocity": 100
            },
            {
              "start": 33720,
              "duration": 23,
              "midi": 80,
              "velocity": 100
            },
            {
              "start": 33744,
              "duration": 23,
              "midi": 80,
              "velocity": 100
            },
            {
              "start": 33984,
              "duration": 23,
              "midi": 80,
              "velocity": 100
            },
            {
              "start": 34008,
              "duration": 23,
              "midi": 80,
              "velocity": 100
            },
            {
              "start": 34032,
              "duration": 23,
              "midi": 80,
              "velocity": 100
            },
            {
              "start": 34056,
              "duration": 47,
              "midi": 80,
              "velocity": 100
            },
            {
              "start": 34104,
              "duration": 47,
              "midi": 80,
              "velocity": 100
            },
            {
              "start": 34368,
              "duration": 23,
              "midi": 80,
              "velocity": 100
            },
            {
              "start": 34392,
              "duration": 23,
              "midi": 80,
              "velocity": 100
            },
            {
              "start": 34416,
              "duration": 23,
              "midi": 80,
              "velocity": 100
            },
            {
              "start": 34440,
              "duration": 47,
              "midi": 80,
              "velocity": 100
            },
            {
              "start": 34488,
              "duration": 23,
              "midi": 80,
              "velocity": 100
            },
            {
              "start": 34512,
              "duration": 23,
              "midi": 80,
              "velocity": 100
            },
            {
              "start": 34752,
              "duration": 23,
              "midi": 80,
              "velocity": 100
            },
            {
              "start": 34776,
              "duration": 23,
              "midi": 80,
              "velocity": 100
            },
            {
              "start": 34800,
              "duration": 23,
              "midi": 80,
              "velocity": 100
            },
            {
              "start": 34824,
              "duration": 47,
              "midi": 80,
              "velocity": 100
            },
            {
              "start": 34872,
              "duration": 47,
              "midi": 80,
              "velocity": 100
            },
            {
              "start": 44400,
              "duration": 32,
              "midi": 80,
              "velocity": 100
            },
            {
              "start": 44448,
              "duration": 32,
              "midi": 80,
              "velocity": 100
            },
            {
              "start": 44496,
              "duration": 32,
              "midi": 80,
              "velocity": 100
            },
            {
              "start": 45168,
              "duration": 32,
              "midi": 80,
              "velocity": 100
            },
            {
              "start": 45216,
              "duration": 32,
              "midi": 80,
              "velocity": 100
            },
            {
              "start": 45264,
              "duration": 32,
              "midi": 80,
              "velocity": 100
            },
            {
              "start": 49776,
              "duration": 32,
              "midi": 80,
              "velocity": 100
            },
            {
              "start": 49824,
              "duration": 32,
              "midi": 80,
              "velocity": 100
            },
            {
              "start": 49872,
              "duration": 32,
              "midi": 80,
              "velocity": 100
            },
            {
              "start": 50544,
              "duration": 32,
              "midi": 80,
              "velocity": 100
            },
            {
              "start": 50592,
              "duration": 32,
              "midi": 80,
              "velocity": 100
            },
            {
              "start": 50640,
              "duration": 32,
              "midi": 80,
              "velocity": 100
            },
            {
              "start": 51312,
              "duration": 32,
              "midi": 80,
              "velocity": 100
            },
            {
              "start": 51360,
              "duration": 32,
              "midi": 80,
              "velocity": 100
            },
            {
              "start": 51408,
              "duration": 32,
              "midi": 80,
              "velocity": 100
            },
            {
              "start": 52848,
              "duration": 32,
              "midi": 80,
              "velocity": 100
            },
            {
              "start": 52896,
              "duration": 32,
              "midi": 80,
              "velocity": 100
            },
            {
              "start": 52944,
              "duration": 32,
              "midi": 80,
              "velocity": 100
            },
            {
              "start": 53616,
              "duration": 32,
              "midi": 80,
              "velocity": 100
            },
            {
              "start": 53664,
              "duration": 32,
              "midi": 80,
              "velocity": 100
            },
            {
              "start": 53712,
              "duration": 32,
              "midi": 80,
              "velocity": 100
            },
            {
              "start": 54384,
              "duration": 32,
              "midi": 80,
              "velocity": 100
            },
            {
              "start": 54432,
              "duration": 32,
              "midi": 80,
              "velocity": 100
            },
            {
              "start": 54480,
              "duration": 32,
              "midi": 80,
              "velocity": 100
            },
            {
              "start": 55920,
              "duration": 32,
              "midi": 80,
              "velocity": 65
            },
            {
              "start": 55968,
              "duration": 32,
              "midi": 80,
              "velocity": 65
            },
            {
              "start": 56016,
              "duration": 32,
              "midi": 80,
              "velocity": 65
            },
            {
              "start": 56688,
              "duration": 32,
              "midi": 80,
              "velocity": 50
            },
            {
              "start": 56736,
              "duration": 32,
              "midi": 80,
              "velocity": 50
            },
            {
              "start": 56784,
              "duration": 32,
              "midi": 80,
              "velocity": 50
            },
            {
              "start": 57456,
              "duration": 32,
              "midi": 80,
              "velocity": 28
            },
            {
              "start": 57504,
              "duration": 32,
              "midi": 80,
              "velocity": 28
            },
            {
              "start": 57552,
              "duration": 32,
              "midi": 80,
              "velocity": 28
            },
            {
              "start": 0,
              "duration": 95,
              "midi": 35,
              "velocity": 100
            },
            {
              "start": 96,
              "duration": 95,
              "midi": 36,
              "velocity": 100
            },
            {
              "start": 192,
              "duration": 95,
              "midi": 36,
              "velocity": 100
            },
            {
              "start": 288,
              "duration": 95,
              "midi": 36,
              "velocity": 100
            },
            {
              "start": 384,
              "duration": 95,
              "midi": 36,
              "velocity": 100
            },
            {
              "start": 480,
              "duration": 95,
              "midi": 36,
              "velocity": 100
            },
            {
              "start": 576,
              "duration": 95,
              "midi": 36,
              "velocity": 100
            },
            {
              "start": 672,
              "duration": 95,
              "midi": 36,
              "velocity": 100
            },
            {
              "start": 768,
              "duration": 95,
              "midi": 35,
              "velocity": 100
            },
            {
              "start": 864,
              "duration": 95,
              "midi": 36,
              "velocity": 100
            },
            {
              "start": 960,
              "duration": 95,
              "midi": 36,
              "velocity": 100
            },
            {
              "start": 1056,
              "duration": 95,
              "midi": 36,
              "velocity": 100
            },
            {
              "start": 1152,
              "duration": 95,
              "midi": 36,
              "velocity": 100
            },
            {
              "start": 1248,
              "duration": 95,
              "midi": 36,
              "velocity": 100
            },
            {
              "start": 1344,
              "duration": 95,
              "midi": 36,
              "velocity": 100
            },
            {
              "start": 1440,
              "duration": 95,
              "midi": 36,
              "velocity": 100
            },
            {
              "start": 1536,
              "duration": 95,
              "midi": 35,
              "velocity": 100
            },
            {
              "start": 1632,
              "duration": 95,
              "midi": 36,
              "velocity": 100
            },
            {
              "start": 1728,
              "duration": 95,
              "midi": 36,
              "velocity": 100
            },
            {
              "start": 1824,
              "duration": 95,
              "midi": 36,
              "velocity": 100
            },
            {
              "start": 1920,
              "duration": 95,
              "midi": 36,
              "velocity": 100
            },
            {
              "start": 2016,
              "duration": 95,
              "midi": 36,
              "velocity": 100
            },
            {
              "start": 2112,
              "duration": 95,
              "midi": 36,
              "velocity": 100
            },
            {
              "start": 2208,
              "duration": 95,
              "midi": 36,
              "velocity": 100
            },
            {
              "start": 2304,
              "duration": 95,
              "midi": 35,
              "velocity": 100
            },
            {
              "start": 2400,
              "duration": 95,
              "midi": 36,
              "velocity": 100
            },
            {
              "start": 2496,
              "duration": 95,
              "midi": 36,
              "velocity": 100
            },
            {
              "start": 2592,
              "duration": 95,
              "midi": 36,
              "velocity": 100
            },
            {
              "start": 2688,
              "duration": 95,
              "midi": 36,
              "velocity": 100
            },
            {
              "start": 2784,
              "duration": 95,
              "midi": 36,
              "velocity": 100
            },
            {
              "start": 2880,
              "duration": 95,
              "midi": 36,
              "velocity": 100
            },
            {
              "start": 2976,
              "duration": 95,
              "midi": 36,
              "velocity": 100
            },
            {
              "start": 3072,
              "duration": 95,
              "midi": 35,
              "velocity": 100
            },
            {
              "start": 3168,
              "duration": 95,
              "midi": 39,
              "velocity": 100
            },
            {
              "start": 3168,
              "duration": 95,
              "midi": 38,
              "velocity": 100
            },
            {
              "start": 3264,
              "duration": 95,
              "midi": 35,
              "velocity": 100
            },
            {
              "start": 3360,
              "duration": 95,
              "midi": 39,
              "velocity": 100
            },
            {
              "start": 3360,
              "duration": 95,
              "midi": 38,
              "velocity": 100
            },
            {
              "start": 3456,
              "duration": 95,
              "midi": 35,
              "velocity": 100
            },
            {
              "start": 3552,
              "duration": 95,
              "midi": 39,
              "velocity": 100
            },
            {
              "start": 3552,
              "duration": 95,
              "midi": 38,
              "velocity": 100
            },
            {
              "start": 3648,
              "duration": 95,
              "midi": 35,
              "velocity": 100
            },
            {
              "start": 3744,
              "duration": 95,
              "midi": 39,
              "velocity": 100
            },
            {
              "start": 3744,
              "duration": 95,
              "midi": 38,
              "velocity": 100
            },
            {
              "start": 3840,
              "duration": 95,
              "midi": 35,
              "velocity": 100
            },
            {
              "start": 3936,
              "duration": 95,
              "midi": 39,
              "velocity": 100
            },
            {
              "start": 3936,
              "duration": 95,
              "midi": 38,
              "velocity": 100
            },
            {
              "start": 4032,
              "duration": 95,
              "midi": 35,
              "velocity": 100
            },
            {
              "start": 4128,
              "duration": 95,
              "midi": 39,
              "velocity": 100
            },
            {
              "start": 4128,
              "duration": 95,
              "midi": 38,
              "velocity": 100
            },
            {
              "start": 4224,
              "duration": 95,
              "midi": 35,
              "velocity": 100
            },
            {
              "start": 4320,
              "duration": 95,
              "midi": 39,
              "velocity": 100
            },
            {
              "start": 4320,
              "duration": 95,
              "midi": 38,
              "velocity": 100
            },
            {
              "start": 4416,
              "duration": 95,
              "midi": 35,
              "velocity": 100
            },
            {
              "start": 4512,
              "duration": 95,
              "midi": 39,
              "velocity": 100
            },
            {
              "start": 4512,
              "duration": 95,
              "midi": 38,
              "velocity": 100
            },
            {
              "start": 4608,
              "duration": 95,
              "midi": 35,
              "velocity": 100
            },
            {
              "start": 4704,
              "duration": 95,
              "midi": 39,
              "velocity": 100
            },
            {
              "start": 4704,
              "duration": 95,
              "midi": 38,
              "velocity": 100
            },
            {
              "start": 4800,
              "duration": 95,
              "midi": 35,
              "velocity": 100
            },
            {
              "start": 4896,
              "duration": 95,
              "midi": 39,
              "velocity": 100
            },
            {
              "start": 4896,
              "duration": 95,
              "midi": 38,
              "velocity": 100
            },
            {
              "start": 4992,
              "duration": 95,
              "midi": 35,
              "velocity": 100
            },
            {
              "start": 5088,
              "duration": 95,
              "midi": 39,
              "velocity": 100
            },
            {
              "start": 5088,
              "duration": 95,
              "midi": 38,
              "velocity": 100
            },
            {
              "start": 5184,
              "duration": 95,
              "midi": 35,
              "velocity": 100
            },
            {
              "start": 5280,
              "duration": 95,
              "midi": 39,
              "velocity": 100
            },
            {
              "start": 5280,
              "duration": 95,
              "midi": 38,
              "velocity": 100
            },
            {
              "start": 5376,
              "duration": 95,
              "midi": 35,
              "velocity": 100
            },
            {
              "start": 5472,
              "duration": 95,
              "midi": 36,
              "velocity": 100
            },
            {
              "start": 5568,
              "duration": 95,
              "midi": 36,
              "velocity": 100
            },
            {
              "start": 5664,
              "duration": 95,
              "midi": 36,
              "velocity": 100
            },
            {
              "start": 5760,
              "duration": 95,
              "midi": 36,
              "velocity": 100
            },
            {
              "start": 5856,
              "duration": 95,
              "midi": 36,
              "velocity": 100
            },
            {
              "start": 5952,
              "duration": 95,
              "midi": 36,
              "velocity": 100
            },
            {
              "start": 6048,
              "duration": 95,
              "midi": 36,
              "velocity": 100
            },
            {
              "start": 6144,
              "duration": 95,
              "midi": 35,
              "velocity": 100
            },
            {
              "start": 6240,
              "duration": 95,
              "midi": 36,
              "velocity": 100
            },
            {
              "start": 6336,
              "duration": 95,
              "midi": 36,
              "velocity": 100
            },
            {
              "start": 6432,
              "duration": 95,
              "midi": 36,
              "velocity": 100
            },
            {
              "start": 6528,
              "duration": 95,
              "midi": 36,
              "velocity": 100
            },
            {
              "start": 6624,
              "duration": 95,
              "midi": 36,
              "velocity": 100
            },
            {
              "start": 6720,
              "duration": 95,
              "midi": 36,
              "velocity": 100
            },
            {
              "start": 6816,
              "duration": 95,
              "midi": 36,
              "velocity": 100
            },
            {
              "start": 6912,
              "duration": 95,
              "midi": 35,
              "velocity": 100
            },
            {
              "start": 7008,
              "duration": 95,
              "midi": 36,
              "velocity": 100
            },
            {
              "start": 7104,
              "duration": 95,
              "midi": 36,
              "velocity": 100
            },
            {
              "start": 7200,
              "duration": 95,
              "midi": 36,
              "velocity": 100
            },
            {
              "start": 7296,
              "duration": 95,
              "midi": 36,
              "velocity": 100
            },
            {
              "start": 7392,
              "duration": 95,
              "midi": 36,
              "velocity": 100
            },
            {
              "start": 7488,
              "duration": 95,
              "midi": 36,
              "velocity": 100
            },
            {
              "start": 7584,
              "duration": 95,
              "midi": 36,
              "velocity": 100
            },
            {
              "start": 7680,
              "duration": 95,
              "midi": 35,
              "velocity": 100
            },
            {
              "start": 7776,
              "duration": 95,
              "midi": 36,
              "velocity": 100
            },
            {
              "start": 7872,
              "duration": 95,
              "midi": 36,
              "velocity": 100
            },
            {
              "start": 7968,
              "duration": 95,
              "midi": 36,
              "velocity": 100
            },
            {
              "start": 8064,
              "duration": 95,
              "midi": 36,
              "velocity": 100
            },
            {
              "start": 8160,
              "duration": 95,
              "midi": 36,
              "velocity": 100
            },
            {
              "start": 8256,
              "duration": 95,
              "midi": 36,
              "velocity": 100
            },
            {
              "start": 8352,
              "duration": 95,
              "midi": 36,
              "velocity": 100
            },
            {
              "start": 8448,
              "duration": 95,
              "midi": 35,
              "velocity": 100
            },
            {
              "start": 8544,
              "duration": 95,
              "midi": 36,
              "velocity": 100
            },
            {
              "start": 8640,
              "duration": 95,
              "midi": 36,
              "velocity": 100
            },
            {
              "start": 8736,
              "duration": 95,
              "midi": 36,
              "velocity": 100
            },
            {
              "start": 8832,
              "duration": 95,
              "midi": 36,
              "velocity": 100
            },
            {
              "start": 8928,
              "duration": 95,
              "midi": 36,
              "velocity": 100
            },
            {
              "start": 9024,
              "duration": 95,
              "midi": 36,
              "velocity": 100
            },
            {
              "start": 9120,
              "duration": 95,
              "midi": 36,
              "velocity": 100
            },
            {
              "start": 9216,
              "duration": 95,
              "midi": 35,
              "velocity": 100
            },
            {
              "start": 9312,
              "duration": 95,
              "midi": 36,
              "velocity": 100
            },
            {
              "start": 9408,
              "duration": 95,
              "midi": 36,
              "velocity": 100
            },
            {
              "start": 9504,
              "duration": 95,
              "midi": 36,
              "velocity": 100
            },
            {
              "start": 9600,
              "duration": 95,
              "midi": 36,
              "velocity": 100
            },
            {
              "start": 9696,
              "duration": 95,
              "midi": 36,
              "velocity": 100
            },
            {
              "start": 9792,
              "duration": 95,
              "midi": 36,
              "velocity": 100
            },
            {
              "start": 9888,
              "duration": 95,
              "midi": 36,
              "velocity": 100
            },
            {
              "start": 9984,
              "duration": 95,
              "midi": 35,
              "velocity": 100
            },
            {
              "start": 10080,
              "duration": 95,
              "midi": 36,
              "velocity": 100
            },
            {
              "start": 10176,
              "duration": 95,
              "midi": 36,
              "velocity": 100
            },
            {
              "start": 10272,
              "duration": 95,
              "midi": 36,
              "velocity": 100
            },
            {
              "start": 10368,
              "duration": 95,
              "midi": 36,
              "velocity": 100
            },
            {
              "start": 10464,
              "duration": 95,
              "midi": 36,
              "velocity": 100
            },
            {
              "start": 10560,
              "duration": 95,
              "midi": 36,
              "velocity": 100
            },
            {
              "start": 10656,
              "duration": 95,
              "midi": 36,
              "velocity": 100
            },
            {
              "start": 10752,
              "duration": 95,
              "midi": 35,
              "velocity": 100
            },
            {
              "start": 10848,
              "duration": 95,
              "midi": 36,
              "velocity": 100
            },
            {
              "start": 10944,
              "duration": 95,
              "midi": 36,
              "velocity": 100
            },
            {
              "start": 11040,
              "duration": 95,
              "midi": 36,
              "velocity": 100
            },
            {
              "start": 11136,
              "duration": 95,
              "midi": 36,
              "velocity": 100
            },
            {
              "start": 11232,
              "duration": 95,
              "midi": 36,
              "velocity": 100
            },
            {
              "start": 11328,
              "duration": 95,
              "midi": 36,
              "velocity": 100
            },
            {
              "start": 11424,
              "duration": 95,
              "midi": 36,
              "velocity": 100
            },
            {
              "start": 11520,
              "duration": 95,
              "midi": 35,
              "velocity": 100
            },
            {
              "start": 11616,
              "duration": 95,
              "midi": 39,
              "velocity": 100
            },
            {
              "start": 11616,
              "duration": 95,
              "midi": 38,
              "velocity": 100
            },
            {
              "start": 11712,
              "duration": 95,
              "midi": 35,
              "velocity": 100
            },
            {
              "start": 11808,
              "duration": 95,
              "midi": 39,
              "velocity": 100
            },
            {
              "start": 11808,
              "duration": 95,
              "midi": 38,
              "velocity": 100
            },
            {
              "start": 11904,
              "duration": 95,
              "midi": 35,
              "velocity": 100
            },
            {
              "start": 12000,
              "duration": 95,
              "midi": 39,
              "velocity": 100
            },
            {
              "start": 12000,
              "duration": 95,
              "midi": 38,
              "velocity": 100
            },
            {
              "start": 12096,
              "duration": 95,
              "midi": 35,
              "velocity": 100
            },
            {
              "start": 12192,
              "duration": 95,
              "midi": 39,
              "velocity": 100
            },
            {
              "start": 12192,
              "duration": 95,
              "midi": 38,
              "velocity": 100
            },
            {
              "start": 12288,
              "duration": 95,
              "midi": 35,
              "velocity": 100
            },
            {
              "start": 12384,
              "duration": 95,
              "midi": 39,
              "velocity": 100
            },
            {
              "start": 12384,
              "duration": 95,
              "midi": 38,
              "velocity": 100
            },
            {
              "start": 12480,
              "duration": 95,
              "midi": 35,
              "velocity": 100
            },
            {
              "start": 12576,
              "duration": 95,
              "midi": 39,
              "velocity": 100
            },
            {
              "start": 12576,
              "duration": 95,
              "midi": 38,
              "velocity": 100
            },
            {
              "start": 12672,
              "duration": 95,
              "midi": 35,
              "velocity": 100
            },
            {
              "start": 12768,
              "duration": 95,
              "midi": 39,
              "velocity": 100
            },
            {
              "start": 12768,
              "duration": 95,
              "midi": 38,
              "velocity": 100
            },
            {
              "start": 12864,
              "duration": 95,
              "midi": 35,
              "velocity": 100
            },
            {
              "start": 12960,
              "duration": 95,
              "midi": 39,
              "velocity": 100
            },
            {
              "start": 12960,
              "duration": 95,
              "midi": 38,
              "velocity": 100
            },
            {
              "start": 13056,
              "duration": 95,
              "midi": 35,
              "velocity": 100
            },
            {
              "start": 13152,
              "duration": 95,
              "midi": 39,
              "velocity": 100
            },
            {
              "start": 13152,
              "duration": 95,
              "midi": 38,
              "velocity": 100
            },
            {
              "start": 13248,
              "duration": 95,
              "midi": 35,
              "velocity": 100
            },
            {
              "start": 13344,
              "duration": 95,
              "midi": 39,
              "velocity": 100
            },
            {
              "start": 13344,
              "duration": 95,
              "midi": 38,
              "velocity": 100
            },
            {
              "start": 13440,
              "duration": 95,
              "midi": 35,
              "velocity": 100
            },
            {
              "start": 13536,
              "duration": 95,
              "midi": 39,
              "velocity": 100
            },
            {
              "start": 13536,
              "duration": 95,
              "midi": 38,
              "velocity": 100
            },
            {
              "start": 13632,
              "duration": 95,
              "midi": 35,
              "velocity": 100
            },
            {
              "start": 13728,
              "duration": 95,
              "midi": 39,
              "velocity": 100
            },
            {
              "start": 13728,
              "duration": 95,
              "midi": 38,
              "velocity": 100
            },
            {
              "start": 13824,
              "duration": 95,
              "midi": 35,
              "velocity": 100
            },
            {
              "start": 13920,
              "duration": 95,
              "midi": 36,
              "velocity": 100
            },
            {
              "start": 14016,
              "duration": 95,
              "midi": 36,
              "velocity": 100
            },
            {
              "start": 14112,
              "duration": 95,
              "midi": 36,
              "velocity": 100
            },
            {
              "start": 14208,
              "duration": 95,
              "midi": 36,
              "velocity": 100
            },
            {
              "start": 14304,
              "duration": 95,
              "midi": 36,
              "velocity": 100
            },
            {
              "start": 14400,
              "duration": 95,
              "midi": 36,
              "velocity": 100
            },
            {
              "start": 14496,
              "duration": 95,
              "midi": 36,
              "velocity": 100
            },
            {
              "start": 14592,
              "duration": 95,
              "midi": 35,
              "velocity": 100
            },
            {
              "start": 14688,
              "duration": 95,
              "midi": 36,
              "velocity": 100
            },
            {
              "start": 14784,
              "duration": 95,
              "midi": 36,
              "velocity": 100
            },
            {
              "start": 14880,
              "duration": 95,
              "midi": 36,
              "velocity": 100
            },
            {
              "start": 14976,
              "duration": 95,
              "midi": 36,
              "velocity": 100
            },
            {
              "start": 15072,
              "duration": 95,
              "midi": 36,
              "velocity": 100
            },
            {
              "start": 15168,
              "duration": 95,
              "midi": 36,
              "velocity": 100
            },
            {
              "start": 15264,
              "duration": 95,
              "midi": 36,
              "velocity": 100
            },
            {
              "start": 15360,
              "duration": 95,
              "midi": 35,
              "velocity": 100
            },
            {
              "start": 15456,
              "duration": 95,
              "midi": 36,
              "velocity": 100
            },
            {
              "start": 15552,
              "duration": 95,
              "midi": 36,
              "velocity": 100
            },
            {
              "start": 15648,
              "duration": 95,
              "midi": 36,
              "velocity": 100
            },
            {
              "start": 15744,
              "duration": 95,
              "midi": 36,
              "velocity": 100
            },
            {
              "start": 15840,
              "duration": 95,
              "midi": 36,
              "velocity": 100
            },
            {
              "start": 15936,
              "duration": 95,
              "midi": 36,
              "velocity": 100
            },
            {
              "start": 16032,
              "duration": 95,
              "midi": 36,
              "velocity": 100
            },
            {
              "start": 16128,
              "duration": 95,
              "midi": 35,
              "velocity": 100
            },
            {
              "start": 16224,
              "duration": 95,
              "midi": 36,
              "velocity": 100
            },
            {
              "start": 16320,
              "duration": 95,
              "midi": 36,
              "velocity": 100
            },
            {
              "start": 16416,
              "duration": 95,
              "midi": 36,
              "velocity": 100
            },
            {
              "start": 16512,
              "duration": 95,
              "midi": 36,
              "velocity": 100
            },
            {
              "start": 16608,
              "duration": 95,
              "midi": 36,
              "velocity": 100
            },
            {
              "start": 16704,
              "duration": 95,
              "midi": 36,
              "velocity": 100
            },
            {
              "start": 16800,
              "duration": 95,
              "midi": 36,
              "velocity": 100
            },
            {
              "start": 16896,
              "duration": 95,
              "midi": 35,
              "velocity": 100
            },
            {
              "start": 16992,
              "duration": 95,
              "midi": 36,
              "velocity": 100
            },
            {
              "start": 17088,
              "duration": 95,
              "midi": 36,
              "velocity": 100
            },
            {
              "start": 17184,
              "duration": 95,
              "midi": 36,
              "velocity": 100
            },
            {
              "start": 17280,
              "duration": 95,
              "midi": 36,
              "velocity": 100
            },
            {
              "start": 17376,
              "duration": 95,
              "midi": 36,
              "velocity": 100
            },
            {
              "start": 17472,
              "duration": 95,
              "midi": 36,
              "velocity": 100
            },
            {
              "start": 17568,
              "duration": 95,
              "midi": 36,
              "velocity": 100
            },
            {
              "start": 17664,
              "duration": 95,
              "midi": 35,
              "velocity": 100
            },
            {
              "start": 17760,
              "duration": 95,
              "midi": 36,
              "velocity": 100
            },
            {
              "start": 17856,
              "duration": 95,
              "midi": 36,
              "velocity": 100
            },
            {
              "start": 17952,
              "duration": 95,
              "midi": 36,
              "velocity": 100
            },
            {
              "start": 18048,
              "duration": 95,
              "midi": 36,
              "velocity": 100
            },
            {
              "start": 18144,
              "duration": 95,
              "midi": 36,
              "velocity": 100
            },
            {
              "start": 18240,
              "duration": 95,
              "midi": 36,
              "velocity": 100
            },
            {
              "start": 18336,
              "duration": 95,
              "midi": 36,
              "velocity": 100
            },
            {
              "start": 18432,
              "duration": 95,
              "midi": 35,
              "velocity": 100
            },
            {
              "start": 18528,
              "duration": 95,
              "midi": 39,
              "velocity": 100
            },
            {
              "start": 18528,
              "duration": 95,
              "midi": 38,
              "velocity": 100
            },
            {
              "start": 18624,
              "duration": 95,
              "midi": 35,
              "velocity": 100
            },
            {
              "start": 18720,
              "duration": 95,
              "midi": 39,
              "velocity": 100
            },
            {
              "start": 18720,
              "duration": 95,
              "midi": 38,
              "velocity": 100
            },
            {
              "start": 18816,
              "duration": 95,
              "midi": 35,
              "velocity": 100
            },
            {
              "start": 18912,
              "duration": 95,
              "midi": 39,
              "velocity": 100
            },
            {
              "start": 18912,
              "duration": 95,
              "midi": 38,
              "velocity": 100
            },
            {
              "start": 19008,
              "duration": 95,
              "midi": 35,
              "velocity": 100
            },
            {
              "start": 19104,
              "duration": 95,
              "midi": 39,
              "velocity": 100
            },
            {
              "start": 19104,
              "duration": 95,
              "midi": 38,
              "velocity": 100
            },
            {
              "start": 19200,
              "duration": 95,
              "midi": 35,
              "velocity": 100
            },
            {
              "start": 19296,
              "duration": 95,
              "midi": 39,
              "velocity": 100
            },
            {
              "start": 19296,
              "duration": 95,
              "midi": 38,
              "velocity": 100
            },
            {
              "start": 19392,
              "duration": 95,
              "midi": 35,
              "velocity": 100
            },
            {
              "start": 19488,
              "duration": 95,
              "midi": 39,
              "velocity": 100
            },
            {
              "start": 19488,
              "duration": 95,
              "midi": 38,
              "velocity": 100
            },
            {
              "start": 19584,
              "duration": 95,
              "midi": 35,
              "velocity": 100
            },
            {
              "start": 19680,
              "duration": 95,
              "midi": 39,
              "velocity": 100
            },
            {
              "start": 19680,
              "duration": 95,
              "midi": 38,
              "velocity": 100
            },
            {
              "start": 19776,
              "duration": 95,
              "midi": 35,
              "velocity": 100
            },
            {
              "start": 19872,
              "duration": 95,
              "midi": 39,
              "velocity": 100
            },
            {
              "start": 19872,
              "duration": 95,
              "midi": 38,
              "velocity": 100
            },
            {
              "start": 19968,
              "duration": 95,
              "midi": 35,
              "velocity": 100
            },
            {
              "start": 20064,
              "duration": 95,
              "midi": 39,
              "velocity": 100
            },
            {
              "start": 20064,
              "duration": 95,
              "midi": 38,
              "velocity": 100
            },
            {
              "start": 20160,
              "duration": 95,
              "midi": 35,
              "velocity": 100
            },
            {
              "start": 20256,
              "duration": 95,
              "midi": 39,
              "velocity": 100
            },
            {
              "start": 20256,
              "duration": 95,
              "midi": 38,
              "velocity": 100
            },
            {
              "start": 20352,
              "duration": 95,
              "midi": 35,
              "velocity": 100
            },
            {
              "start": 20448,
              "duration": 95,
              "midi": 39,
              "velocity": 100
            },
            {
              "start": 20448,
              "duration": 95,
              "midi": 38,
              "velocity": 100
            },
            {
              "start": 20544,
              "duration": 95,
              "midi": 35,
              "velocity": 100
            },
            {
              "start": 20640,
              "duration": 95,
              "midi": 39,
              "velocity": 100
            },
            {
              "start": 20640,
              "duration": 95,
              "midi": 38,
              "velocity": 100
            },
            {
              "start": 20736,
              "duration": 23,
              "midi": 42,
              "velocity": 100
            },
            {
              "start": 20760,
              "duration": 23,
              "midi": 42,
              "velocity": 100
            },
            {
              "start": 20784,
              "duration": 23,
              "midi": 42,
              "velocity": 100
            },
            {
              "start": 20808,
              "duration": 23,
              "midi": 42,
              "velocity": 100
            },
            {
              "start": 20736,
              "duration": 95,
              "midi": 35,
              "velocity": 100
            },
            {
              "start": 20832,
              "duration": 23,
              "midi": 42,
              "velocity": 100
            },
            {
              "start": 20856,
              "duration": 23,
              "midi": 42,
              "velocity": 100
            },
            {
              "start": 20880,
              "duration": 23,
              "midi": 42,
              "velocity": 100
            },
            {
              "start": 20904,
              "duration": 23,
              "midi": 42,
              "velocity": 100
            },
            {
              "start": 20832,
              "duration": 95,
              "midi": 35,
              "velocity": 100
            },
            {
              "start": 20928,
              "duration": 23,
              "midi": 42,
              "velocity": 100
            },
            {
              "start": 20952,
              "duration": 23,
              "midi": 42,
              "velocity": 100
            },
            {
              "start": 20976,
              "duration": 23,
              "midi": 42,
              "velocity": 100
            },
            {
              "start": 21000,
              "duration": 23,
              "midi": 42,
              "velocity": 100
            },
            {
              "start": 20928,
              "duration": 95,
              "midi": 35,
              "velocity": 100
            },
            {
              "start": 21024,
              "duration": 23,
              "midi": 42,
              "velocity": 100
            },
            {
              "start": 21048,
              "duration": 23,
              "midi": 42,
              "velocity": 100
            },
            {
              "start": 21072,
              "duration": 23,
              "midi": 42,
              "velocity": 100
            },
            {
              "start": 21096,
              "duration": 23,
              "midi": 42,
              "velocity": 100
            },
            {
              "start": 21024,
              "duration": 95,
              "midi": 35,
              "velocity": 100
            },
            {
              "start": 21120,
              "duration": 23,
              "midi": 42,
              "velocity": 100
            },
            {
              "start": 21144,
              "duration": 23,
              "midi": 42,
              "velocity": 100
            },
            {
              "start": 21168,
              "duration": 23,
              "midi": 42,
              "velocity": 100
            },
            {
              "start": 21192,
              "duration": 23,
              "midi": 42,
              "velocity": 100
            },
            {
              "start": 21120,
              "duration": 95,
              "midi": 35,
              "velocity": 100
            },
            {
              "start": 21216,
              "duration": 23,
              "midi": 42,
              "velocity": 100
            },
            {
              "start": 21240,
              "duration": 23,
              "midi": 42,
              "velocity": 100
            },
            {
              "start": 21264,
              "duration": 23,
              "midi": 42,
              "velocity": 100
            },
            {
              "start": 21288,
              "duration": 23,
              "midi": 42,
              "velocity": 100
            },
            {
              "start": 21216,
              "duration": 95,
              "midi": 35,
              "velocity": 100
            },
            {
              "start": 21312,
              "duration": 23,
              "midi": 42,
              "velocity": 100
            },
            {
              "start": 21336,
              "duration": 23,
              "midi": 42,
              "velocity": 100
            },
            {
              "start": 21360,
              "duration": 23,
              "midi": 42,
              "velocity": 100
            },
            {
              "start": 21384,
              "duration": 23,
              "midi": 42,
              "velocity": 100
            },
            {
              "start": 21312,
              "duration": 95,
              "midi": 35,
              "velocity": 100
            },
            {
              "start": 21408,
              "duration": 23,
              "midi": 42,
              "velocity": 100
            },
            {
              "start": 21432,
              "duration": 23,
              "midi": 42,
              "velocity": 100
            },
            {
              "start": 21456,
              "duration": 23,
              "midi": 42,
              "velocity": 100
            },
            {
              "start": 21480,
              "duration": 23,
              "midi": 42,
              "velocity": 100
            },
            {
              "start": 21408,
              "duration": 95,
              "midi": 35,
              "velocity": 100
            },
            {
              "start": 21504,
              "duration": 23,
              "midi": 42,
              "velocity": 100
            },
            {
              "start": 21528,
              "duration": 23,
              "midi": 42,
              "velocity": 100
            },
            {
              "start": 21552,
              "duration": 23,
              "midi": 42,
              "velocity": 100
            },
            {
              "start": 21576,
              "duration": 23,
              "midi": 42,
              "velocity": 100
            },
            {
              "start": 21504,
              "duration": 95,
              "midi": 35,
              "velocity": 100
            },
            {
              "start": 21600,
              "duration": 23,
              "midi": 42,
              "velocity": 100
            },
            {
              "start": 21624,
              "duration": 23,
              "midi": 42,
              "velocity": 100
            },
            {
              "start": 21648,
              "duration": 23,
              "midi": 42,
              "velocity": 100
            },
            {
              "start": 21672,
              "duration": 23,
              "midi": 42,
              "velocity": 100
            },
            {
              "start": 21600,
              "duration": 95,
              "midi": 35,
              "velocity": 100
            },
            {
              "start": 21696,
              "duration": 23,
              "midi": 42,
              "velocity": 100
            },
            {
              "start": 21720,
              "duration": 23,
              "midi": 42,
              "velocity": 100
            },
            {
              "start": 21744,
              "duration": 23,
              "midi": 42,
              "velocity": 100
            },
            {
              "start": 21768,
              "duration": 23,
              "midi": 42,
              "velocity": 100
            },
            {
              "start": 21696,
              "duration": 95,
              "midi": 35,
              "velocity": 100
            },
            {
              "start": 21792,
              "duration": 23,
              "midi": 42,
              "velocity": 100
            },
            {
              "start": 21816,
              "duration": 23,
              "midi": 42,
              "velocity": 100
            },
            {
              "start": 21840,
              "duration": 23,
              "midi": 42,
              "velocity": 100
            },
            {
              "start": 21864,
              "duration": 23,
              "midi": 42,
              "velocity": 100
            },
            {
              "start": 21792,
              "duration": 95,
              "midi": 35,
              "velocity": 100
            },
            {
              "start": 21888,
              "duration": 23,
              "midi": 42,
              "velocity": 100
            },
            {
              "start": 21912,
              "duration": 23,
              "midi": 42,
              "velocity": 100
            },
            {
              "start": 21936,
              "duration": 23,
              "midi": 42,
              "velocity": 100
            },
            {
              "start": 21960,
              "duration": 23,
              "midi": 42,
              "velocity": 100
            },
            {
              "start": 21888,
              "duration": 95,
              "midi": 35,
              "velocity": 100
            },
            {
              "start": 21984,
              "duration": 23,
              "midi": 42,
              "velocity": 100
            },
            {
              "start": 22008,
              "duration": 23,
              "midi": 42,
              "velocity": 100
            },
            {
              "start": 22032,
              "duration": 23,
              "midi": 42,
              "velocity": 100
            },
            {
              "start": 22056,
              "duration": 23,
              "midi": 42,
              "velocity": 100
            },
            {
              "start": 21984,
              "duration": 95,
              "midi": 35,
              "velocity": 100
            },
            {
              "start": 22080,
              "duration": 23,
              "midi": 42,
              "velocity": 100
            },
            {
              "start": 22104,
              "duration": 23,
              "midi": 42,
              "velocity": 100
            },
            {
              "start": 22128,
              "duration": 23,
              "midi": 42,
              "velocity": 100
            },
            {
              "start": 22152,
              "duration": 23,
              "midi": 42,
              "velocity": 100
            },
            {
              "start": 22080,
              "duration": 95,
              "midi": 35,
              "velocity": 100
            },
            {
              "start": 22176,
              "duration": 23,
              "midi": 42,
              "velocity": 100
            },
            {
              "start": 22200,
              "duration": 23,
              "midi": 42,
              "velocity": 100
            },
            {
              "start": 22224,
              "duration": 23,
              "midi": 42,
              "velocity": 100
            },
            {
              "start": 22248,
              "duration": 23,
              "midi": 42,
              "velocity": 100
            },
            {
              "start": 22176,
              "duration": 95,
              "midi": 35,
              "velocity": 100
            },
            {
              "start": 22272,
              "duration": 23,
              "midi": 42,
              "velocity": 100
            },
            {
              "start": 22296,
              "duration": 23,
              "midi": 42,
              "velocity": 100
            },
            {
              "start": 22320,
              "duration": 23,
              "midi": 42,
              "velocity": 100
            },
            {
              "start": 22344,
              "duration": 23,
              "midi": 42,
              "velocity": 100
            },
            {
              "start": 22272,
              "duration": 95,
              "midi": 35,
              "velocity": 100
            },
            {
              "start": 22368,
              "duration": 23,
              "midi": 42,
              "velocity": 100
            },
            {
              "start": 22392,
              "duration": 23,
              "midi": 42,
              "velocity": 100
            },
            {
              "start": 22416,
              "duration": 23,
              "midi": 42,
              "velocity": 100
            },
            {
              "start": 22440,
              "duration": 23,
              "midi": 42,
              "velocity": 100
            },
            {
              "start": 22368,
              "duration": 95,
              "midi": 39,
              "velocity": 100
            },
            {
              "start": 22368,
              "duration": 95,
              "midi": 38,
              "velocity": 100
            },
            {
              "start": 22368,
              "duration": 95,
              "midi": 35,
              "velocity": 100
            },
            {
              "start": 22464,
              "duration": 23,
              "midi": 42,
              "velocity": 100
            },
            {
              "start": 22488,
              "duration": 23,
              "midi": 42,
              "velocity": 100
            },
            {
              "start": 22512,
              "duration": 23,
              "midi": 42,
              "velocity": 100
            },
            {
              "start": 22536,
              "duration": 23,
              "midi": 42,
              "velocity": 100
            },
            {
              "start": 22464,
              "duration": 95,
              "midi": 35,
              "velocity": 100
            },
            {
              "start": 22560,
              "duration": 23,
              "midi": 42,
              "velocity": 100
            },
            {
              "start": 22584,
              "duration": 23,
              "midi": 42,
              "velocity": 100
            },
            {
              "start": 22608,
              "duration": 23,
              "midi": 42,
              "velocity": 100
            },
            {
              "start": 22632,
              "duration": 23,
              "midi": 42,
              "velocity": 100
            },
            {
              "start": 22560,
              "duration": 95,
              "midi": 39,
              "velocity": 100
            },
            {
              "start": 22560,
              "duration": 95,
              "midi": 38,
              "velocity": 100
            },
            {
              "start": 22560,
              "duration": 95,
              "midi": 35,
              "velocity": 100
            },
            {
              "start": 22656,
              "duration": 23,
              "midi": 42,
              "velocity": 100
            },
            {
              "start": 22680,
              "duration": 23,
              "midi": 42,
              "velocity": 100
            },
            {
              "start": 22704,
              "duration": 23,
              "midi": 42,
              "velocity": 100
            },
            {
              "start": 22728,
              "duration": 23,
              "midi": 42,
              "velocity": 100
            },
            {
              "start": 22656,
              "duration": 95,
              "midi": 35,
              "velocity": 100
            },
            {
              "start": 22752,
              "duration": 23,
              "midi": 42,
              "velocity": 100
            },
            {
              "start": 22776,
              "duration": 23,
              "midi": 42,
              "velocity": 100
            },
            {
              "start": 22800,
              "duration": 23,
              "midi": 42,
              "velocity": 100
            },
            {
              "start": 22824,
              "duration": 23,
              "midi": 42,
              "velocity": 100
            },
            {
              "start": 22752,
              "duration": 95,
              "midi": 39,
              "velocity": 100
            },
            {
              "start": 22752,
              "duration": 95,
              "midi": 38,
              "velocity": 100
            },
            {
              "start": 22752,
              "duration": 95,
              "midi": 35,
              "velocity": 100
            },
            {
              "start": 22848,
              "duration": 23,
              "midi": 42,
              "velocity": 100
            },
            {
              "start": 22872,
              "duration": 23,
              "midi": 42,
              "velocity": 100
            },
            {
              "start": 22896,
              "duration": 23,
              "midi": 42,
              "velocity": 100
            },
            {
              "start": 22920,
              "duration": 23,
              "midi": 42,
              "velocity": 100
            },
            {
              "start": 22848,
              "duration": 95,
              "midi": 35,
              "velocity": 100
            },
            {
              "start": 22944,
              "duration": 23,
              "midi": 42,
              "velocity": 100
            },
            {
              "start": 22968,
              "duration": 23,
              "midi": 42,
              "velocity": 100
            },
            {
              "start": 22992,
              "duration": 23,
              "midi": 42,
              "velocity": 100
            },
            {
              "start": 23016,
              "duration": 23,
              "midi": 42,
              "velocity": 100
            },
            {
              "start": 22944,
              "duration": 95,
              "midi": 39,
              "velocity": 100
            },
            {
              "start": 22944,
              "duration": 95,
              "midi": 38,
              "velocity": 100
            },
            {
              "start": 22944,
              "duration": 95,
              "midi": 35,
              "velocity": 100
            },
            {
              "start": 23040,
              "duration": 23,
              "midi": 42,
              "velocity": 100
            },
            {
              "start": 23064,
              "duration": 23,
              "midi": 42,
              "velocity": 100
            },
            {
              "start": 23088,
              "duration": 23,
              "midi": 42,
              "velocity": 100
            },
            {
              "start": 23112,
              "duration": 23,
              "midi": 42,
              "velocity": 100
            },
            {
              "start": 23040,
              "duration": 95,
              "midi": 35,
              "velocity": 100
            },
            {
              "start": 23136,
              "duration": 23,
              "midi": 42,
              "velocity": 100
            },
            {
              "start": 23160,
              "duration": 23,
              "midi": 42,
              "velocity": 100
            },
            {
              "start": 23184,
              "duration": 23,
              "midi": 42,
              "velocity": 100
            },
            {
              "start": 23208,
              "duration": 23,
              "midi": 42,
              "velocity": 100
            },
            {
              "start": 23136,
              "duration": 95,
              "midi": 39,
              "velocity": 100
            },
            {
              "start": 23136,
              "duration": 95,
              "midi": 38,
              "velocity": 100
            },
            {
              "start": 23136,
              "duration": 95,
              "midi": 35,
              "velocity": 100
            },
            {
              "start": 23232,
              "duration": 23,
              "midi": 42,
              "velocity": 100
            },
            {
              "start": 23256,
              "duration": 23,
              "midi": 42,
              "velocity": 100
            },
            {
              "start": 23280,
              "duration": 23,
              "midi": 42,
              "velocity": 100
            },
            {
              "start": 23304,
              "duration": 23,
              "midi": 42,
              "velocity": 100
            },
            {
              "start": 23232,
              "duration": 95,
              "midi": 35,
              "velocity": 100
            },
            {
              "start": 23328,
              "duration": 23,
              "midi": 42,
              "velocity": 100
            },
            {
              "start": 23352,
              "duration": 23,
              "midi": 42,
              "velocity": 100
            },
            {
              "start": 23376,
              "duration": 23,
              "midi": 42,
              "velocity": 100
            },
            {
              "start": 23400,
              "duration": 23,
              "midi": 42,
              "velocity": 100
            },
            {
              "start": 23328,
              "duration": 95,
              "midi": 39,
              "velocity": 100
            },
            {
              "start": 23328,
              "duration": 95,
              "midi": 38,
              "velocity": 100
            },
            {
              "start": 23328,
              "duration": 95,
              "midi": 35,
              "velocity": 100
            },
            {
              "start": 23424,
              "duration": 95,
              "midi": 39,
              "velocity": 100
            },
            {
              "start": 23424,
              "duration": 95,
              "midi": 38,
              "velocity": 100
            },
            {
              "start": 23424,
              "duration": 95,
              "midi": 35,
              "velocity": 100
            },
            {
              "start": 23520,
              "duration": 95,
              "midi": 39,
              "velocity": 100
            },
            {
              "start": 23520,
              "duration": 95,
              "midi": 38,
              "velocity": 100
            },
            {
              "start": 23520,
              "duration": 95,
              "midi": 35,
              "velocity": 100
            },
            {
              "start": 23808,
              "duration": 95,
              "midi": 35,
              "velocity": 100
            },
            {
              "start": 23904,
              "duration": 95,
              "midi": 36,
              "velocity": 100
            },
            {
              "start": 23904,
              "duration": 95,
              "midi": 39,
              "velocity": 100
            },
            {
              "start": 23904,
              "duration": 95,
              "midi": 38,
              "velocity": 100
            },
            {
              "start": 24000,
              "duration": 95,
              "midi": 36,
              "velocity": 100
            },
            {
              "start": 24000,
              "duration": 95,
              "midi": 35,
              "velocity": 100
            },
            {
              "start": 24096,
              "duration": 95,
              "midi": 36,
              "velocity": 100
            },
            {
              "start": 24096,
              "duration": 95,
              "midi": 39,
              "velocity": 100
            },
            {
              "start": 24096,
              "duration": 95,
              "midi": 38,
              "velocity": 100
            },
            {
              "start": 24192,
              "duration": 95,
              "midi": 36,
              "velocity": 100
            },
            {
              "start": 24192,
              "duration": 95,
              "midi": 35,
              "velocity": 100
            },
            {
              "start": 24288,
              "duration": 95,
              "midi": 36,
              "velocity": 100
            },
            {
              "start": 24288,
              "duration": 95,
              "midi": 39,
              "velocity": 100
            },
            {
              "start": 24288,
              "duration": 95,
              "midi": 38,
              "velocity": 100
            },
            {
              "start": 24384,
              "duration": 95,
              "midi": 36,
              "velocity": 100
            },
            {
              "start": 24384,
              "duration": 95,
              "midi": 35,
              "velocity": 100
            },
            {
              "start": 24480,
              "duration": 95,
              "midi": 36,
              "velocity": 100
            },
            {
              "start": 24480,
              "duration": 95,
              "midi": 39,
              "velocity": 100
            },
            {
              "start": 24480,
              "duration": 95,
              "midi": 38,
              "velocity": 100
            },
            {
              "start": 24576,
              "duration": 95,
              "midi": 35,
              "velocity": 100
            },
            {
              "start": 24672,
              "duration": 95,
              "midi": 36,
              "velocity": 100
            },
            {
              "start": 24672,
              "duration": 95,
              "midi": 39,
              "velocity": 100
            },
            {
              "start": 24672,
              "duration": 95,
              "midi": 38,
              "velocity": 100
            },
            {
              "start": 24768,
              "duration": 95,
              "midi": 36,
              "velocity": 100
            },
            {
              "start": 24768,
              "duration": 95,
              "midi": 35,
              "velocity": 100
            },
            {
              "start": 24864,
              "duration": 95,
              "midi": 36,
              "velocity": 100
            },
            {
              "start": 24864,
              "duration": 95,
              "midi": 39,
              "velocity": 100
            },
            {
              "start": 24864,
              "duration": 95,
              "midi": 38,
              "velocity": 100
            },
            {
              "start": 24960,
              "duration": 95,
              "midi": 36,
              "velocity": 100
            },
            {
              "start": 24960,
              "duration": 95,
              "midi": 35,
              "velocity": 100
            },
            {
              "start": 25056,
              "duration": 95,
              "midi": 36,
              "velocity": 100
            },
            {
              "start": 25056,
              "duration": 95,
              "midi": 39,
              "velocity": 100
            },
            {
              "start": 25056,
              "duration": 95,
              "midi": 38,
              "velocity": 100
            },
            {
              "start": 25152,
              "duration": 95,
              "midi": 36,
              "velocity": 100
            },
            {
              "start": 25152,
              "duration": 95,
              "midi": 35,
              "velocity": 100
            },
            {
              "start": 25248,
              "duration": 95,
              "midi": 36,
              "velocity": 100
            },
            {
              "start": 25248,
              "duration": 95,
              "midi": 39,
              "velocity": 100
            },
            {
              "start": 25248,
              "duration": 95,
              "midi": 38,
              "velocity": 100
            },
            {
              "start": 25344,
              "duration": 95,
              "midi": 35,
              "velocity": 100
            },
            {
              "start": 25440,
              "duration": 95,
              "midi": 36,
              "velocity": 100
            },
            {
              "start": 25440,
              "duration": 95,
              "midi": 39,
              "velocity": 100
            },
            {
              "start": 25440,
              "duration": 95,
              "midi": 38,
              "velocity": 100
            },
            {
              "start": 25536,
              "duration": 95,
              "midi": 36,
              "velocity": 100
            },
            {
              "start": 25536,
              "duration": 95,
              "midi": 35,
              "velocity": 100
            },
            {
              "start": 25632,
              "duration": 95,
              "midi": 36,
              "velocity": 100
            },
            {
              "start": 25632,
              "duration": 95,
              "midi": 39,
              "velocity": 100
            },
            {
              "start": 25632,
              "duration": 95,
              "midi": 38,
              "velocity": 100
            },
            {
              "start": 25728,
              "duration": 95,
              "midi": 36,
              "velocity": 100
            },
            {
              "start": 25728,
              "duration": 95,
              "midi": 35,
              "velocity": 100
            },
            {
              "start": 25824,
              "duration": 95,
              "midi": 36,
              "velocity": 100
            },
            {
              "start": 25824,
              "duration": 95,
              "midi": 39,
              "velocity": 100
            },
            {
              "start": 25824,
              "duration": 95,
              "midi": 38,
              "velocity": 100
            },
            {
              "start": 25920,
              "duration": 95,
              "midi": 36,
              "velocity": 100
            },
            {
              "start": 25920,
              "duration": 95,
              "midi": 35,
              "velocity": 100
            },
            {
              "start": 26016,
              "duration": 95,
              "midi": 36,
              "velocity": 100
            },
            {
              "start": 26016,
              "duration": 95,
              "midi": 39,
              "velocity": 100
            },
            {
              "start": 26016,
              "duration": 95,
              "midi": 38,
              "velocity": 100
            },
            {
              "start": 26112,
              "duration": 95,
              "midi": 35,
              "velocity": 100
            },
            {
              "start": 26208,
              "duration": 95,
              "midi": 36,
              "velocity": 100
            },
            {
              "start": 26208,
              "duration": 95,
              "midi": 39,
              "velocity": 100
            },
            {
              "start": 26208,
              "duration": 95,
              "midi": 38,
              "velocity": 100
            },
            {
              "start": 26304,
              "duration": 95,
              "midi": 36,
              "velocity": 100
            },
            {
              "start": 26304,
              "duration": 95,
              "midi": 35,
              "velocity": 100
            },
            {
              "start": 26400,
              "duration": 95,
              "midi": 36,
              "velocity": 100
            },
            {
              "start": 26400,
              "duration": 95,
              "midi": 39,
              "velocity": 100
            },
            {
              "start": 26400,
              "duration": 95,
              "midi": 38,
              "velocity": 100
            },
            {
              "start": 26496,
              "duration": 95,
              "midi": 36,
              "velocity": 100
            },
            {
              "start": 26496,
              "duration": 95,
              "midi": 35,
              "velocity": 100
            },
            {
              "start": 26592,
              "duration": 95,
              "midi": 36,
              "velocity": 100
            },
            {
              "start": 26592,
              "duration": 95,
              "midi": 39,
              "velocity": 100
            },
            {
              "start": 26592,
              "duration": 95,
              "midi": 38,
              "velocity": 100
            },
            {
              "start": 26688,
              "duration": 95,
              "midi": 36,
              "velocity": 100
            },
            {
              "start": 26688,
              "duration": 95,
              "midi": 35,
              "velocity": 100
            },
            {
              "start": 26784,
              "duration": 95,
              "midi": 36,
              "velocity": 100
            },
            {
              "start": 26784,
              "duration": 95,
              "midi": 39,
              "velocity": 100
            },
            {
              "start": 26784,
              "duration": 95,
              "midi": 38,
              "velocity": 100
            },
            {
              "start": 26880,
              "duration": 95,
              "midi": 35,
              "velocity": 100
            },
            {
              "start": 26976,
              "duration": 95,
              "midi": 39,
              "velocity": 100
            },
            {
              "start": 26976,
              "duration": 95,
              "midi": 38,
              "velocity": 100
            },
            {
              "start": 27072,
              "duration": 95,
              "midi": 35,
              "velocity": 100
            },
            {
              "start": 27168,
              "duration": 95,
              "midi": 39,
              "velocity": 100
            },
            {
              "start": 27168,
              "duration": 95,
              "midi": 38,
              "velocity": 100
            },
            {
              "start": 27264,
              "duration": 95,
              "midi": 35,
              "velocity": 100
            },
            {
              "start": 27360,
              "duration": 95,
              "midi": 39,
              "velocity": 100
            },
            {
              "start": 27360,
              "duration": 95,
              "midi": 38,
              "velocity": 100
            },
            {
              "start": 27456,
              "duration": 95,
              "midi": 35,
              "velocity": 100
            },
            {
              "start": 27552,
              "duration": 95,
              "midi": 39,
              "velocity": 100
            },
            {
              "start": 27552,
              "duration": 95,
              "midi": 38,
              "velocity": 100
            },
            {
              "start": 27648,
              "duration": 95,
              "midi": 35,
              "velocity": 100
            },
            {
              "start": 27744,
              "duration": 95,
              "midi": 39,
              "velocity": 100
            },
            {
              "start": 27744,
              "duration": 95,
              "midi": 38,
              "velocity": 100
            },
            {
              "start": 27840,
              "duration": 95,
              "midi": 35,
              "velocity": 100
            },
            {
              "start": 27936,
              "duration": 95,
              "midi": 39,
              "velocity": 100
            },
            {
              "start": 27936,
              "duration": 95,
              "midi": 38,
              "velocity": 100
            },
            {
              "start": 28032,
              "duration": 95,
              "midi": 35,
              "velocity": 100
            },
            {
              "start": 28128,
              "duration": 95,
              "midi": 39,
              "velocity": 100
            },
            {
              "start": 28128,
              "duration": 95,
              "midi": 38,
              "velocity": 100
            },
            {
              "start": 28224,
              "duration": 95,
              "midi": 35,
              "velocity": 100
            },
            {
              "start": 28320,
              "duration": 95,
              "midi": 39,
              "velocity": 100
            },
            {
              "start": 28320,
              "duration": 95,
              "midi": 38,
              "velocity": 100
            },
            {
              "start": 28416,
              "duration": 95,
              "midi": 35,
              "velocity": 100
            },
            {
              "start": 28512,
              "duration": 95,
              "midi": 39,
              "velocity": 100
            },
            {
              "start": 28512,
              "duration": 95,
              "midi": 38,
              "velocity": 100
            },
            {
              "start": 28608,
              "duration": 95,
              "midi": 35,
              "velocity": 100
            },
            {
              "start": 28704,
              "duration": 95,
              "midi": 39,
              "velocity": 100
            },
            {
              "start": 28704,
              "duration": 95,
              "midi": 38,
              "velocity": 100
            },
            {
              "start": 28800,
              "duration": 95,
              "midi": 35,
              "velocity": 100
            },
            {
              "start": 28896,
              "duration": 95,
              "midi": 39,
              "velocity": 100
            },
            {
              "start": 28896,
              "duration": 95,
              "midi": 38,
              "velocity": 100
            },
            {
              "start": 28992,
              "duration": 95,
              "midi": 35,
              "velocity": 100
            },
            {
              "start": 29088,
              "duration": 95,
              "midi": 39,
              "velocity": 100
            },
            {
              "start": 29088,
              "duration": 95,
              "midi": 38,
              "velocity": 100
            },
            {
              "start": 29184,
              "duration": 95,
              "midi": 35,
              "velocity": 100
            },
            {
              "start": 29280,
              "duration": 95,
              "midi": 39,
              "velocity": 100
            },
            {
              "start": 29280,
              "duration": 95,
              "midi": 38,
              "velocity": 100
            },
            {
              "start": 29376,
              "duration": 95,
              "midi": 35,
              "velocity": 100
            },
            {
              "start": 29472,
              "duration": 95,
              "midi": 39,
              "velocity": 100
            },
            {
              "start": 29472,
              "duration": 95,
              "midi": 38,
              "velocity": 100
            },
            {
              "start": 29568,
              "duration": 95,
              "midi": 35,
              "velocity": 100
            },
            {
              "start": 29664,
              "duration": 95,
              "midi": 39,
              "velocity": 100
            },
            {
              "start": 29664,
              "duration": 95,
              "midi": 38,
              "velocity": 100
            },
            {
              "start": 29760,
              "duration": 95,
              "midi": 35,
              "velocity": 100
            },
            {
              "start": 29856,
              "duration": 95,
              "midi": 39,
              "velocity": 100
            },
            {
              "start": 29856,
              "duration": 95,
              "midi": 38,
              "velocity": 100
            },
            {
              "start": 29952,
              "duration": 95,
              "midi": 35,
              "velocity": 100
            },
            {
              "start": 30048,
              "duration": 95,
              "midi": 39,
              "velocity": 100
            },
            {
              "start": 30048,
              "duration": 95,
              "midi": 38,
              "velocity": 100
            },
            {
              "start": 30144,
              "duration": 95,
              "midi": 35,
              "velocity": 100
            },
            {
              "start": 30240,
              "duration": 95,
              "midi": 39,
              "velocity": 100
            },
            {
              "start": 30240,
              "duration": 95,
              "midi": 38,
              "velocity": 100
            },
            {
              "start": 30336,
              "duration": 95,
              "midi": 35,
              "velocity": 100
            },
            {
              "start": 30432,
              "duration": 95,
              "midi": 39,
              "velocity": 100
            },
            {
              "start": 30432,
              "duration": 95,
              "midi": 38,
              "velocity": 100
            },
            {
              "start": 30528,
              "duration": 95,
              "midi": 35,
              "velocity": 100
            },
            {
              "start": 30624,
              "duration": 95,
              "midi": 39,
              "velocity": 100
            },
            {
              "start": 30624,
              "duration": 95,
              "midi": 38,
              "velocity": 100
            },
            {
              "start": 30720,
              "duration": 95,
              "midi": 35,
              "velocity": 100
            },
            {
              "start": 30816,
              "duration": 95,
              "midi": 39,
              "velocity": 100
            },
            {
              "start": 30816,
              "duration": 95,
              "midi": 38,
              "velocity": 100
            },
            {
              "start": 30912,
              "duration": 95,
              "midi": 35,
              "velocity": 100
            },
            {
              "start": 31008,
              "duration": 95,
              "midi": 39,
              "velocity": 100
            },
            {
              "start": 31008,
              "duration": 95,
              "midi": 38,
              "velocity": 100
            },
            {
              "start": 31104,
              "duration": 95,
              "midi": 35,
              "velocity": 100
            },
            {
              "start": 31200,
              "duration": 95,
              "midi": 39,
              "velocity": 100
            },
            {
              "start": 31200,
              "duration": 95,
              "midi": 38,
              "velocity": 100
            },
            {
              "start": 31296,
              "duration": 95,
              "midi": 35,
              "velocity": 100
            },
            {
              "start": 31392,
              "duration": 95,
              "midi": 39,
              "velocity": 100
            },
            {
              "start": 31392,
              "duration": 95,
              "midi": 38,
              "velocity": 100
            },
            {
              "start": 31488,
              "duration": 95,
              "midi": 35,
              "velocity": 100
            },
            {
              "start": 31584,
              "duration": 95,
              "midi": 39,
              "velocity": 100
            },
            {
              "start": 31584,
              "duration": 95,
              "midi": 38,
              "velocity": 100
            },
            {
              "start": 31680,
              "duration": 95,
              "midi": 35,
              "velocity": 100
            },
            {
              "start": 31776,
              "duration": 95,
              "midi": 39,
              "velocity": 100
            },
            {
              "start": 31776,
              "duration": 95,
              "midi": 38,
              "velocity": 100
            },
            {
              "start": 31872,
              "duration": 95,
              "midi": 35,
              "velocity": 100
            },
            {
              "start": 31968,
              "duration": 95,
              "midi": 39,
              "velocity": 100
            },
            {
              "start": 31968,
              "duration": 95,
              "midi": 38,
              "velocity": 100
            },
            {
              "start": 32064,
              "duration": 95,
              "midi": 35,
              "velocity": 100
            },
            {
              "start": 32160,
              "duration": 95,
              "midi": 39,
              "velocity": 100
            },
            {
              "start": 32160,
              "duration": 95,
              "midi": 38,
              "velocity": 100
            },
            {
              "start": 32256,
              "duration": 23,
              "midi": 42,
              "velocity": 100
            },
            {
              "start": 32280,
              "duration": 23,
              "midi": 42,
              "velocity": 100
            },
            {
              "start": 32304,
              "duration": 23,
              "midi": 42,
              "velocity": 100
            },
            {
              "start": 32328,
              "duration": 23,
              "midi": 42,
              "velocity": 100
            },
            {
              "start": 32256,
              "duration": 95,
              "midi": 35,
              "velocity": 100
            },
            {
              "start": 32352,
              "duration": 23,
              "midi": 42,
              "velocity": 100
            },
            {
              "start": 32376,
              "duration": 23,
              "midi": 42,
              "velocity": 100
            },
            {
              "start": 32400,
              "duration": 23,
              "midi": 42,
              "velocity": 100
            },
            {
              "start": 32424,
              "duration": 23,
              "midi": 42,
              "velocity": 100
            },
            {
              "start": 32352,
              "duration": 95,
              "midi": 35,
              "velocity": 100
            },
            {
              "start": 32448,
              "duration": 23,
              "midi": 42,
              "velocity": 100
            },
            {
              "start": 32472,
              "duration": 23,
              "midi": 42,
              "velocity": 100
            },
            {
              "start": 32496,
              "duration": 23,
              "midi": 42,
              "velocity": 100
            },
            {
              "start": 32520,
              "duration": 23,
              "midi": 42,
              "velocity": 100
            },
            {
              "start": 32448,
              "duration": 95,
              "midi": 35,
              "velocity": 100
            },
            {
              "start": 32544,
              "duration": 23,
              "midi": 42,
              "velocity": 100
            },
            {
              "start": 32568,
              "duration": 23,
              "midi": 42,
              "velocity": 100
            },
            {
              "start": 32592,
              "duration": 23,
              "midi": 42,
              "velocity": 100
            },
            {
              "start": 32616,
              "duration": 23,
              "midi": 42,
              "velocity": 100
            },
            {
              "start": 32544,
              "duration": 95,
              "midi": 35,
              "velocity": 100
            },
            {
              "start": 32640,
              "duration": 23,
              "midi": 42,
              "velocity": 100
            },
            {
              "start": 32664,
              "duration": 23,
              "midi": 42,
              "velocity": 100
            },
            {
              "start": 32688,
              "duration": 23,
              "midi": 42,
              "velocity": 100
            },
            {
              "start": 32712,
              "duration": 23,
              "midi": 42,
              "velocity": 100
            },
            {
              "start": 32640,
              "duration": 95,
              "midi": 35,
              "velocity": 100
            },
            {
              "start": 32736,
              "duration": 23,
              "midi": 42,
              "velocity": 100
            },
            {
              "start": 32760,
              "duration": 23,
              "midi": 42,
              "velocity": 100
            },
            {
              "start": 32784,
              "duration": 23,
              "midi": 42,
              "velocity": 100
            },
            {
              "start": 32808,
              "duration": 23,
              "midi": 42,
              "velocity": 100
            },
            {
              "start": 32736,
              "duration": 95,
              "midi": 35,
              "velocity": 100
            },
            {
              "start": 32832,
              "duration": 23,
              "midi": 42,
              "velocity": 100
            },
            {
              "start": 32856,
              "duration": 23,
              "midi": 42,
              "velocity": 100
            },
            {
              "start": 32880,
              "duration": 23,
              "midi": 42,
              "velocity": 100
            },
            {
              "start": 32904,
              "duration": 23,
              "midi": 42,
              "velocity": 100
            },
            {
              "start": 32832,
              "duration": 95,
              "midi": 35,
              "velocity": 100
            },
            {
              "start": 32928,
              "duration": 23,
              "midi": 42,
              "velocity": 100
            },
            {
              "start": 32952,
              "duration": 23,
              "midi": 42,
              "velocity": 100
            },
            {
              "start": 32976,
              "duration": 23,
              "midi": 42,
              "velocity": 100
            },
            {
              "start": 33000,
              "duration": 23,
              "midi": 42,
              "velocity": 100
            },
            {
              "start": 32928,
              "duration": 95,
              "midi": 35,
              "velocity": 100
            },
            {
              "start": 33024,
              "duration": 23,
              "midi": 42,
              "velocity": 100
            },
            {
              "start": 33048,
              "duration": 23,
              "midi": 42,
              "velocity": 100
            },
            {
              "start": 33072,
              "duration": 23,
              "midi": 42,
              "velocity": 100
            },
            {
              "start": 33096,
              "duration": 23,
              "midi": 42,
              "velocity": 100
            },
            {
              "start": 33024,
              "duration": 95,
              "midi": 35,
              "velocity": 100
            },
            {
              "start": 33120,
              "duration": 23,
              "midi": 42,
              "velocity": 100
            },
            {
              "start": 33144,
              "duration": 23,
              "midi": 42,
              "velocity": 100
            },
            {
              "start": 33168,
              "duration": 23,
              "midi": 42,
              "velocity": 100
            },
            {
              "start": 33192,
              "duration": 23,
              "midi": 42,
              "velocity": 100
            },
            {
              "start": 33120,
              "duration": 95,
              "midi": 35,
              "velocity": 100
            },
            {
              "start": 33216,
              "duration": 23,
              "midi": 42,
              "velocity": 100
            },
            {
              "start": 33240,
              "duration": 23,
              "midi": 42,
              "velocity": 100
            },
            {
              "start": 33264,
              "duration": 23,
              "midi": 42,
              "velocity": 100
            },
            {
              "start": 33288,
              "duration": 23,
              "midi": 42,
              "velocity": 100
            },
            {
              "start": 33216,
              "duration": 95,
              "midi": 35,
              "velocity": 100
            },
            {
              "start": 33312,
              "duration": 23,
              "midi": 42,
              "velocity": 100
            },
            {
              "start": 33336,
              "duration": 23,
              "midi": 42,
              "velocity": 100
            },
            {
              "start": 33360,
              "duration": 23,
              "midi": 42,
              "velocity": 100
            },
            {
              "start": 33384,
              "duration": 23,
              "midi": 42,
              "velocity": 100
            },
            {
              "start": 33312,
              "duration": 95,
              "midi": 35,
              "velocity": 100
            },
            {
              "start": 33408,
              "duration": 23,
              "midi": 42,
              "velocity": 100
            },
            {
              "start": 33432,
              "duration": 23,
              "midi": 42,
              "velocity": 100
            },
            {
              "start": 33456,
              "duration": 23,
              "midi": 42,
              "velocity": 100
            },
            {
              "start": 33480,
              "duration": 23,
              "midi": 42,
              "velocity": 100
            },
            {
              "start": 33408,
              "duration": 95,
              "midi": 35,
              "velocity": 100
            },
            {
              "start": 33504,
              "duration": 23,
              "midi": 42,
              "velocity": 100
            },
            {
              "start": 33528,
              "duration": 23,
              "midi": 42,
              "velocity": 100
            },
            {
              "start": 33552,
              "duration": 23,
              "midi": 42,
              "velocity": 100
            },
            {
              "start": 33576,
              "duration": 23,
              "midi": 42,
              "velocity": 100
            },
            {
              "start": 33504,
              "duration": 95,
              "midi": 35,
              "velocity": 100
            },
            {
              "start": 33600,
              "duration": 23,
              "midi": 42,
              "velocity": 100
            },
            {
              "start": 33624,
              "duration": 23,
              "midi": 42,
              "velocity": 100
            },
            {
              "start": 33648,
              "duration": 23,
              "midi": 42,
              "velocity": 100
            },
            {
              "start": 33672,
              "duration": 23,
              "midi": 42,
              "velocity": 100
            },
            {
              "start": 33600,
              "duration": 95,
              "midi": 35,
              "velocity": 100
            },
            {
              "start": 33696,
              "duration": 23,
              "midi": 42,
              "velocity": 100
            },
            {
              "start": 33720,
              "duration": 23,
              "midi": 42,
              "velocity": 100
            },
            {
              "start": 33744,
              "duration": 23,
              "midi": 42,
              "velocity": 100
            },
            {
              "start": 33768,
              "duration": 23,
              "midi": 42,
              "velocity": 100
            },
            {
              "start": 33696,
              "duration": 95,
              "midi": 35,
              "velocity": 100
            },
            {
              "start": 33792,
              "duration": 23,
              "midi": 42,
              "velocity": 100
            },
            {
              "start": 33816,
              "duration": 23,
              "midi": 42,
              "velocity": 100
            },
            {
              "start": 33840,
              "duration": 23,
              "midi": 42,
              "velocity": 100
            },
            {
              "start": 33864,
              "duration": 23,
              "midi": 42,
              "velocity": 100
            },
            {
              "start": 33792,
              "duration": 95,
              "midi": 35,
              "velocity": 100
            },
            {
              "start": 33888,
              "duration": 23,
              "midi": 42,
              "velocity": 100
            },
            {
              "start": 33912,
              "duration": 23,
              "midi": 42,
              "velocity": 100
            },
            {
              "start": 33936,
              "duration": 23,
              "midi": 42,
              "velocity": 100
            },
            {
              "start": 33960,
              "duration": 23,
              "midi": 42,
              "velocity": 100
            },
            {
              "start": 33888,
              "duration": 95,
              "midi": 39,
              "velocity": 100
            },
            {
              "start": 33888,
              "duration": 95,
              "midi": 38,
              "velocity": 100
            },
            {
              "start": 33888,
              "duration": 95,
              "midi": 35,
              "velocity": 100
            },
            {
              "start": 33984,
              "duration": 23,
              "midi": 42,
              "velocity": 100
            },
            {
              "start": 34008,
              "duration": 23,
              "midi": 42,
              "velocity": 100
            },
            {
              "start": 34032,
              "duration": 23,
              "midi": 42,
              "velocity": 100
            },
            {
              "start": 34056,
              "duration": 23,
              "midi": 42,
              "velocity": 100
            },
            {
              "start": 33984,
              "duration": 95,
              "midi": 35,
              "velocity": 100
            },
            {
              "start": 34080,
              "duration": 23,
              "midi": 42,
              "velocity": 100
            },
            {
              "start": 34104,
              "duration": 23,
              "midi": 42,
              "velocity": 100
            },
            {
              "start": 34128,
              "duration": 23,
              "midi": 42,
              "velocity": 100
            },
            {
              "start": 34152,
              "duration": 23,
              "midi": 42,
              "velocity": 100
            },
            {
              "start": 34080,
              "duration": 95,
              "midi": 39,
              "velocity": 100
            },
            {
              "start": 34080,
              "duration": 95,
              "midi": 38,
              "velocity": 100
            },
            {
              "start": 34080,
              "duration": 95,
              "midi": 35,
              "velocity": 100
            },
            {
              "start": 34176,
              "duration": 23,
              "midi": 42,
              "velocity": 100
            },
            {
              "start": 34200,
              "duration": 23,
              "midi": 42,
              "velocity": 100
            },
            {
              "start": 34224,
              "duration": 23,
              "midi": 42,
              "velocity": 100
            },
            {
              "start": 34248,
              "duration": 23,
              "midi": 42,
              "velocity": 100
            },
            {
              "start": 34176,
              "duration": 95,
              "midi": 35,
              "velocity": 100
            },
            {
              "start": 34272,
              "duration": 23,
              "midi": 42,
              "velocity": 100
            },
            {
              "start": 34296,
              "duration": 23,
              "midi": 42,
              "velocity": 100
            },
            {
              "start": 34320,
              "duration": 23,
              "midi": 42,
              "velocity": 100
            },
            {
              "start": 34344,
              "duration": 23,
              "midi": 42,
              "velocity": 100
            },
            {
              "start": 34272,
              "duration": 95,
              "midi": 39,
              "velocity": 100
            },
            {
              "start": 34272,
              "duration": 95,
              "midi": 38,
              "velocity": 100
            },
            {
              "start": 34272,
              "duration": 95,
              "midi": 35,
              "velocity": 100
            },
            {
              "start": 34368,
              "duration": 23,
              "midi": 42,
              "velocity": 100
            },
            {
              "start": 34392,
              "duration": 23,
              "midi": 42,
              "velocity": 100
            },
            {
              "start": 34416,
              "duration": 23,
              "midi": 42,
              "velocity": 100
            },
            {
              "start": 34440,
              "duration": 23,
              "midi": 42,
              "velocity": 100
            },
            {
              "start": 34368,
              "duration": 95,
              "midi": 35,
              "velocity": 100
            },
            {
              "start": 34464,
              "duration": 23,
              "midi": 42,
              "velocity": 100
            },
            {
              "start": 34488,
              "duration": 23,
              "midi": 42,
              "velocity": 100
            },
            {
              "start": 34512,
              "duration": 23,
              "midi": 42,
              "velocity": 100
            },
            {
              "start": 34536,
              "duration": 23,
              "midi": 42,
              "velocity": 100
            },
            {
              "start": 34464,
              "duration": 95,
              "midi": 39,
              "velocity": 100
            },
            {
              "start": 34464,
              "duration": 95,
              "midi": 38,
              "velocity": 100
            },
            {
              "start": 34464,
              "duration": 95,
              "midi": 35,
              "velocity": 100
            },
            {
              "start": 34560,
              "duration": 23,
              "midi": 42,
              "velocity": 100
            },
            {
              "start": 34584,
              "duration": 23,
              "midi": 42,
              "velocity": 100
            },
            {
              "start": 34608,
              "duration": 23,
              "midi": 42,
              "velocity": 100
            },
            {
              "start": 34632,
              "duration": 23,
              "midi": 42,
              "velocity": 100
            },
            {
              "start": 34560,
              "duration": 95,
              "midi": 35,
              "velocity": 100
            },
            {
              "start": 34656,
              "duration": 23,
              "midi": 42,
              "velocity": 100
            },
            {
              "start": 34680,
              "duration": 23,
              "midi": 42,
              "velocity": 100
            },
            {
              "start": 34704,
              "duration": 23,
              "midi": 42,
              "velocity": 100
            },
            {
              "start": 34728,
              "duration": 23,
              "midi": 42,
              "velocity": 100
            },
            {
              "start": 34656,
              "duration": 95,
              "midi": 39,
              "velocity": 100
            },
            {
              "start": 34656,
              "duration": 95,
              "midi": 38,
              "velocity": 100
            },
            {
              "start": 34656,
              "duration": 95,
              "midi": 35,
              "velocity": 100
            },
            {
              "start": 34752,
              "duration": 23,
              "midi": 42,
              "velocity": 100
            },
            {
              "start": 34776,
              "duration": 23,
              "midi": 42,
              "velocity": 100
            },
            {
              "start": 34800,
              "duration": 23,
              "midi": 42,
              "velocity": 100
            },
            {
              "start": 34824,
              "duration": 23,
              "midi": 42,
              "velocity": 100
            },
            {
              "start": 34752,
              "duration": 95,
              "midi": 35,
              "velocity": 100
            },
            {
              "start": 34848,
              "duration": 23,
              "midi": 42,
              "velocity": 100
            },
            {
              "start": 34872,
              "duration": 23,
              "midi": 42,
              "velocity": 100
            },
            {
              "start": 34896,
              "duration": 23,
              "midi": 42,
              "velocity": 100
            },
            {
              "start": 34920,
              "duration": 23,
              "midi": 42,
              "velocity": 100
            },
            {
              "start": 34848,
              "duration": 95,
              "midi": 39,
              "velocity": 100
            },
            {
              "start": 34848,
              "duration": 95,
              "midi": 38,
              "velocity": 100
            },
            {
              "start": 34848,
              "duration": 95,
              "midi": 35,
              "velocity": 100
            },
            {
              "start": 34944,
              "duration": 95,
              "midi": 39,
              "velocity": 100
            },
            {
              "start": 34944,
              "duration": 95,
              "midi": 38,
              "velocity": 100
            },
            {
              "start": 34944,
              "duration": 95,
              "midi": 35,
              "velocity": 100
            },
            {
              "start": 35040,
              "duration": 95,
              "midi": 39,
              "velocity": 100
            },
            {
              "start": 35040,
              "duration": 95,
              "midi": 38,
              "velocity": 100
            },
            {
              "start": 35040,
              "duration": 95,
              "midi": 35,
              "velocity": 100
            },
            {
              "start": 35328,
              "duration": 95,
              "midi": 35,
              "velocity": 100
            },
            {
              "start": 35424,
              "duration": 95,
              "midi": 36,
              "velocity": 100
            },
            {
              "start": 35424,
              "duration": 95,
              "midi": 39,
              "velocity": 100
            },
            {
              "start": 35424,
              "duration": 95,
              "midi": 38,
              "velocity": 100
            },
            {
              "start": 35520,
              "duration": 95,
              "midi": 36,
              "velocity": 100
            },
            {
              "start": 35520,
              "duration": 95,
              "midi": 35,
              "velocity": 100
            },
            {
              "start": 35616,
              "duration": 95,
              "midi": 36,
              "velocity": 100
            },
            {
              "start": 35616,
              "duration": 95,
              "midi": 39,
              "velocity": 100
            },
            {
              "start": 35616,
              "duration": 95,
              "midi": 38,
              "velocity": 100
            },
            {
              "start": 35712,
              "duration": 95,
              "midi": 36,
              "velocity": 100
            },
            {
              "start": 35712,
              "duration": 95,
              "midi": 35,
              "velocity": 100
            },
            {
              "start": 35808,
              "duration": 95,
              "midi": 36,
              "velocity": 100
            },
            {
              "start": 35808,
              "duration": 95,
              "midi": 39,
              "velocity": 100
            },
            {
              "start": 35808,
              "duration": 95,
              "midi": 38,
              "velocity": 100
            },
            {
              "start": 35904,
              "duration": 95,
              "midi": 36,
              "velocity": 100
            },
            {
              "start": 35904,
              "duration": 95,
              "midi": 35,
              "velocity": 100
            },
            {
              "start": 36000,
              "duration": 95,
              "midi": 36,
              "velocity": 100
            },
            {
              "start": 36000,
              "duration": 95,
              "midi": 39,
              "velocity": 100
            },
            {
              "start": 36000,
              "duration": 95,
              "midi": 38,
              "velocity": 100
            },
            {
              "start": 36096,
              "duration": 95,
              "midi": 35,
              "velocity": 100
            },
            {
              "start": 36192,
              "duration": 95,
              "midi": 36,
              "velocity": 100
            },
            {
              "start": 36192,
              "duration": 95,
              "midi": 39,
              "velocity": 100
            },
            {
              "start": 36192,
              "duration": 95,
              "midi": 38,
              "velocity": 100
            },
            {
              "start": 36288,
              "duration": 95,
              "midi": 36,
              "velocity": 100
            },
            {
              "start": 36288,
              "duration": 95,
              "midi": 35,
              "velocity": 100
            },
            {
              "start": 36384,
              "duration": 95,
              "midi": 36,
              "velocity": 100
            },
            {
              "start": 36384,
              "duration": 95,
              "midi": 39,
              "velocity": 100
            },
            {
              "start": 36384,
              "duration": 95,
              "midi": 38,
              "velocity": 100
            },
            {
              "start": 36480,
              "duration": 95,
              "midi": 36,
              "velocity": 100
            },
            {
              "start": 36480,
              "duration": 95,
              "midi": 35,
              "velocity": 100
            },
            {
              "start": 36576,
              "duration": 95,
              "midi": 36,
              "velocity": 100
            },
            {
              "start": 36576,
              "duration": 95,
              "midi": 39,
              "velocity": 100
            },
            {
              "start": 36576,
              "duration": 95,
              "midi": 38,
              "velocity": 100
            },
            {
              "start": 36672,
              "duration": 95,
              "midi": 36,
              "velocity": 100
            },
            {
              "start": 36672,
              "duration": 95,
              "midi": 35,
              "velocity": 100
            },
            {
              "start": 36768,
              "duration": 95,
              "midi": 36,
              "velocity": 100
            },
            {
              "start": 36768,
              "duration": 95,
              "midi": 39,
              "velocity": 100
            },
            {
              "start": 36768,
              "duration": 95,
              "midi": 38,
              "velocity": 100
            },
            {
              "start": 36864,
              "duration": 95,
              "midi": 35,
              "velocity": 100
            },
            {
              "start": 36960,
              "duration": 95,
              "midi": 36,
              "velocity": 100
            },
            {
              "start": 36960,
              "duration": 95,
              "midi": 39,
              "velocity": 100
            },
            {
              "start": 36960,
              "duration": 95,
              "midi": 38,
              "velocity": 100
            },
            {
              "start": 37056,
              "duration": 95,
              "midi": 36,
              "velocity": 100
            },
            {
              "start": 37056,
              "duration": 95,
              "midi": 35,
              "velocity": 100
            },
            {
              "start": 37152,
              "duration": 95,
              "midi": 36,
              "velocity": 100
            },
            {
              "start": 37152,
              "duration": 95,
              "midi": 39,
              "velocity": 100
            },
            {
              "start": 37152,
              "duration": 95,
              "midi": 38,
              "velocity": 100
            },
            {
              "start": 37248,
              "duration": 95,
              "midi": 36,
              "velocity": 100
            },
            {
              "start": 37248,
              "duration": 95,
              "midi": 35,
              "velocity": 100
            },
            {
              "start": 37344,
              "duration": 95,
              "midi": 36,
              "velocity": 100
            },
            {
              "start": 37344,
              "duration": 95,
              "midi": 39,
              "velocity": 100
            },
            {
              "start": 37344,
              "duration": 95,
              "midi": 38,
              "velocity": 100
            },
            {
              "start": 37440,
              "duration": 95,
              "midi": 36,
              "velocity": 100
            },
            {
              "start": 37440,
              "duration": 95,
              "midi": 35,
              "velocity": 100
            },
            {
              "start": 37536,
              "duration": 95,
              "midi": 36,
              "velocity": 100
            },
            {
              "start": 37536,
              "duration": 95,
              "midi": 39,
              "velocity": 100
            },
            {
              "start": 37536,
              "duration": 95,
              "midi": 38,
              "velocity": 100
            },
            {
              "start": 37632,
              "duration": 95,
              "midi": 35,
              "velocity": 100
            },
            {
              "start": 37728,
              "duration": 95,
              "midi": 36,
              "velocity": 100
            },
            {
              "start": 37728,
              "duration": 95,
              "midi": 39,
              "velocity": 100
            },
            {
              "start": 37728,
              "duration": 95,
              "midi": 38,
              "velocity": 100
            },
            {
              "start": 37824,
              "duration": 95,
              "midi": 36,
              "velocity": 100
            },
            {
              "start": 37824,
              "duration": 95,
              "midi": 35,
              "velocity": 100
            },
            {
              "start": 37920,
              "duration": 95,
              "midi": 36,
              "velocity": 100
            },
            {
              "start": 37920,
              "duration": 95,
              "midi": 39,
              "velocity": 100
            },
            {
              "start": 37920,
              "duration": 95,
              "midi": 38,
              "velocity": 100
            },
            {
              "start": 38016,
              "duration": 95,
              "midi": 36,
              "velocity": 100
            },
            {
              "start": 38016,
              "duration": 95,
              "midi": 35,
              "velocity": 100
            },
            {
              "start": 38112,
              "duration": 95,
              "midi": 36,
              "velocity": 100
            },
            {
              "start": 38112,
              "duration": 95,
              "midi": 39,
              "velocity": 100
            },
            {
              "start": 38112,
              "duration": 95,
              "midi": 38,
              "velocity": 100
            },
            {
              "start": 38208,
              "duration": 95,
              "midi": 36,
              "velocity": 100
            },
            {
              "start": 38208,
              "duration": 95,
              "midi": 35,
              "velocity": 100
            },
            {
              "start": 38304,
              "duration": 95,
              "midi": 36,
              "velocity": 100
            },
            {
              "start": 38304,
              "duration": 95,
              "midi": 39,
              "velocity": 100
            },
            {
              "start": 38304,
              "duration": 95,
              "midi": 38,
              "velocity": 100
            },
            {
              "start": 38400,
              "duration": 95,
              "midi": 35,
              "velocity": 100
            },
            {
              "start": 38496,
              "duration": 95,
              "midi": 36,
              "velocity": 100
            },
            {
              "start": 38496,
              "duration": 95,
              "midi": 39,
              "velocity": 100
            },
            {
              "start": 38496,
              "duration": 95,
              "midi": 38,
              "velocity": 100
            },
            {
              "start": 38592,
              "duration": 95,
              "midi": 36,
              "velocity": 100
            },
            {
              "start": 38592,
              "duration": 95,
              "midi": 35,
              "velocity": 100
            },
            {
              "start": 38688,
              "duration": 95,
              "midi": 36,
              "velocity": 100
            },
            {
              "start": 38688,
              "duration": 95,
              "midi": 39,
              "velocity": 100
            },
            {
              "start": 38688,
              "duration": 95,
              "midi": 38,
              "velocity": 100
            },
            {
              "start": 38784,
              "duration": 95,
              "midi": 36,
              "velocity": 100
            },
            {
              "start": 38784,
              "duration": 95,
              "midi": 35,
              "velocity": 100
            },
            {
              "start": 38880,
              "duration": 95,
              "midi": 36,
              "velocity": 100
            },
            {
              "start": 38880,
              "duration": 95,
              "midi": 39,
              "velocity": 100
            },
            {
              "start": 38880,
              "duration": 95,
              "midi": 38,
              "velocity": 100
            },
            {
              "start": 38976,
              "duration": 95,
              "midi": 36,
              "velocity": 100
            },
            {
              "start": 38976,
              "duration": 95,
              "midi": 35,
              "velocity": 100
            },
            {
              "start": 39072,
              "duration": 95,
              "midi": 36,
              "velocity": 100
            },
            {
              "start": 39072,
              "duration": 95,
              "midi": 39,
              "velocity": 100
            },
            {
              "start": 39072,
              "duration": 95,
              "midi": 38,
              "velocity": 100
            },
            {
              "start": 39168,
              "duration": 95,
              "midi": 35,
              "velocity": 100
            },
            {
              "start": 39264,
              "duration": 95,
              "midi": 36,
              "velocity": 100
            },
            {
              "start": 39264,
              "duration": 95,
              "midi": 39,
              "velocity": 100
            },
            {
              "start": 39264,
              "duration": 95,
              "midi": 38,
              "velocity": 100
            },
            {
              "start": 39360,
              "duration": 95,
              "midi": 36,
              "velocity": 100
            },
            {
              "start": 39360,
              "duration": 95,
              "midi": 35,
              "velocity": 100
            },
            {
              "start": 39456,
              "duration": 95,
              "midi": 36,
              "velocity": 100
            },
            {
              "start": 39456,
              "duration": 95,
              "midi": 39,
              "velocity": 100
            },
            {
              "start": 39456,
              "duration": 95,
              "midi": 38,
              "velocity": 100
            },
            {
              "start": 39552,
              "duration": 95,
              "midi": 36,
              "velocity": 100
            },
            {
              "start": 39552,
              "duration": 95,
              "midi": 35,
              "velocity": 100
            },
            {
              "start": 39648,
              "duration": 95,
              "midi": 36,
              "velocity": 100
            },
            {
              "start": 39648,
              "duration": 95,
              "midi": 39,
              "velocity": 100
            },
            {
              "start": 39648,
              "duration": 95,
              "midi": 38,
              "velocity": 100
            },
            {
              "start": 39744,
              "duration": 95,
              "midi": 36,
              "velocity": 100
            },
            {
              "start": 39744,
              "duration": 95,
              "midi": 35,
              "velocity": 100
            },
            {
              "start": 39840,
              "duration": 95,
              "midi": 36,
              "velocity": 100
            },
            {
              "start": 39840,
              "duration": 95,
              "midi": 39,
              "velocity": 100
            },
            {
              "start": 39840,
              "duration": 95,
              "midi": 38,
              "velocity": 100
            },
            {
              "start": 39936,
              "duration": 95,
              "midi": 35,
              "velocity": 100
            },
            {
              "start": 40032,
              "duration": 95,
              "midi": 36,
              "velocity": 100
            },
            {
              "start": 40032,
              "duration": 95,
              "midi": 39,
              "velocity": 100
            },
            {
              "start": 40032,
              "duration": 95,
              "midi": 38,
              "velocity": 100
            },
            {
              "start": 40128,
              "duration": 95,
              "midi": 36,
              "velocity": 100
            },
            {
              "start": 40128,
              "duration": 95,
              "midi": 35,
              "velocity": 100
            },
            {
              "start": 40224,
              "duration": 95,
              "midi": 36,
              "velocity": 100
            },
            {
              "start": 40224,
              "duration": 95,
              "midi": 39,
              "velocity": 100
            },
            {
              "start": 40224,
              "duration": 95,
              "midi": 38,
              "velocity": 100
            },
            {
              "start": 40320,
              "duration": 95,
              "midi": 36,
              "velocity": 100
            },
            {
              "start": 40320,
              "duration": 95,
              "midi": 35,
              "velocity": 100
            },
            {
              "start": 40416,
              "duration": 95,
              "midi": 36,
              "velocity": 100
            },
            {
              "start": 40416,
              "duration": 95,
              "midi": 39,
              "velocity": 100
            },
            {
              "start": 40416,
              "duration": 95,
              "midi": 38,
              "velocity": 100
            },
            {
              "start": 40512,
              "duration": 95,
              "midi": 36,
              "velocity": 100
            },
            {
              "start": 40512,
              "duration": 95,
              "midi": 35,
              "velocity": 100
            },
            {
              "start": 40608,
              "duration": 95,
              "midi": 36,
              "velocity": 100
            },
            {
              "start": 40608,
              "duration": 95,
              "midi": 39,
              "velocity": 100
            },
            {
              "start": 40608,
              "duration": 95,
              "midi": 38,
              "velocity": 100
            },
            {
              "start": 40704,
              "duration": 95,
              "midi": 35,
              "velocity": 100
            },
            {
              "start": 40800,
              "duration": 95,
              "midi": 36,
              "velocity": 100
            },
            {
              "start": 40800,
              "duration": 95,
              "midi": 39,
              "velocity": 100
            },
            {
              "start": 40800,
              "duration": 95,
              "midi": 38,
              "velocity": 100
            },
            {
              "start": 40896,
              "duration": 95,
              "midi": 36,
              "velocity": 100
            },
            {
              "start": 40896,
              "duration": 95,
              "midi": 35,
              "velocity": 100
            },
            {
              "start": 40992,
              "duration": 95,
              "midi": 36,
              "velocity": 100
            },
            {
              "start": 40992,
              "duration": 95,
              "midi": 39,
              "velocity": 100
            },
            {
              "start": 40992,
              "duration": 95,
              "midi": 38,
              "velocity": 100
            },
            {
              "start": 41088,
              "duration": 95,
              "midi": 36,
              "velocity": 100
            },
            {
              "start": 41088,
              "duration": 95,
              "midi": 35,
              "velocity": 100
            },
            {
              "start": 41184,
              "duration": 95,
              "midi": 36,
              "velocity": 100
            },
            {
              "start": 41184,
              "duration": 95,
              "midi": 39,
              "velocity": 100
            },
            {
              "start": 41184,
              "duration": 95,
              "midi": 38,
              "velocity": 100
            },
            {
              "start": 41280,
              "duration": 95,
              "midi": 36,
              "velocity": 100
            },
            {
              "start": 41280,
              "duration": 95,
              "midi": 35,
              "velocity": 100
            },
            {
              "start": 41376,
              "duration": 95,
              "midi": 36,
              "velocity": 100
            },
            {
              "start": 41376,
              "duration": 95,
              "midi": 39,
              "velocity": 100
            },
            {
              "start": 41376,
              "duration": 95,
              "midi": 38,
              "velocity": 100
            },
            {
              "start": 41472,
              "duration": 95,
              "midi": 35,
              "velocity": 100
            },
            {
              "start": 41568,
              "duration": 95,
              "midi": 36,
              "velocity": 100
            },
            {
              "start": 41568,
              "duration": 95,
              "midi": 39,
              "velocity": 100
            },
            {
              "start": 41568,
              "duration": 95,
              "midi": 38,
              "velocity": 100
            },
            {
              "start": 41664,
              "duration": 95,
              "midi": 36,
              "velocity": 100
            },
            {
              "start": 41664,
              "duration": 95,
              "midi": 35,
              "velocity": 100
            },
            {
              "start": 41760,
              "duration": 95,
              "midi": 36,
              "velocity": 100
            },
            {
              "start": 41760,
              "duration": 95,
              "midi": 39,
              "velocity": 100
            },
            {
              "start": 41760,
              "duration": 95,
              "midi": 38,
              "velocity": 100
            },
            {
              "start": 41856,
              "duration": 95,
              "midi": 36,
              "velocity": 100
            },
            {
              "start": 41856,
              "duration": 95,
              "midi": 35,
              "velocity": 100
            },
            {
              "start": 41952,
              "duration": 95,
              "midi": 36,
              "velocity": 100
            },
            {
              "start": 41952,
              "duration": 95,
              "midi": 39,
              "velocity": 100
            },
            {
              "start": 41952,
              "duration": 95,
              "midi": 38,
              "velocity": 100
            },
            {
              "start": 42048,
              "duration": 95,
              "midi": 36,
              "velocity": 100
            },
            {
              "start": 42048,
              "duration": 95,
              "midi": 35,
              "velocity": 100
            },
            {
              "start": 42144,
              "duration": 95,
              "midi": 36,
              "velocity": 100
            },
            {
              "start": 42144,
              "duration": 95,
              "midi": 39,
              "velocity": 100
            },
            {
              "start": 42144,
              "duration": 95,
              "midi": 38,
              "velocity": 100
            },
            {
              "start": 42240,
              "duration": 95,
              "midi": 35,
              "velocity": 100
            },
            {
              "start": 42336,
              "duration": 95,
              "midi": 36,
              "velocity": 100
            },
            {
              "start": 42336,
              "duration": 95,
              "midi": 39,
              "velocity": 100
            },
            {
              "start": 42336,
              "duration": 95,
              "midi": 38,
              "velocity": 100
            },
            {
              "start": 42432,
              "duration": 95,
              "midi": 36,
              "velocity": 100
            },
            {
              "start": 42432,
              "duration": 95,
              "midi": 35,
              "velocity": 100
            },
            {
              "start": 42528,
              "duration": 95,
              "midi": 36,
              "velocity": 100
            },
            {
              "start": 42528,
              "duration": 95,
              "midi": 39,
              "velocity": 100
            },
            {
              "start": 42528,
              "duration": 95,
              "midi": 38,
              "velocity": 100
            },
            {
              "start": 42624,
              "duration": 95,
              "midi": 36,
              "velocity": 100
            },
            {
              "start": 42624,
              "duration": 95,
              "midi": 35,
              "velocity": 100
            },
            {
              "start": 42720,
              "duration": 95,
              "midi": 36,
              "velocity": 100
            },
            {
              "start": 42720,
              "duration": 95,
              "midi": 39,
              "velocity": 100
            },
            {
              "start": 42720,
              "duration": 95,
              "midi": 38,
              "velocity": 100
            },
            {
              "start": 42816,
              "duration": 95,
              "midi": 36,
              "velocity": 100
            },
            {
              "start": 42816,
              "duration": 95,
              "midi": 35,
              "velocity": 100
            },
            {
              "start": 42912,
              "duration": 95,
              "midi": 36,
              "velocity": 100
            },
            {
              "start": 42912,
              "duration": 95,
              "midi": 39,
              "velocity": 100
            },
            {
              "start": 42912,
              "duration": 95,
              "midi": 38,
              "velocity": 100
            },
            {
              "start": 43008,
              "duration": 95,
              "midi": 35,
              "velocity": 100
            },
            {
              "start": 43104,
              "duration": 95,
              "midi": 36,
              "velocity": 100
            },
            {
              "start": 43104,
              "duration": 95,
              "midi": 39,
              "velocity": 100
            },
            {
              "start": 43104,
              "duration": 95,
              "midi": 38,
              "velocity": 100
            },
            {
              "start": 43200,
              "duration": 95,
              "midi": 36,
              "velocity": 100
            },
            {
              "start": 43200,
              "duration": 95,
              "midi": 35,
              "velocity": 100
            },
            {
              "start": 43296,
              "duration": 95,
              "midi": 36,
              "velocity": 100
            },
            {
              "start": 43296,
              "duration": 95,
              "midi": 39,
              "velocity": 100
            },
            {
              "start": 43296,
              "duration": 95,
              "midi": 38,
              "velocity": 100
            },
            {
              "start": 43392,
              "duration": 95,
              "midi": 36,
              "velocity": 100
            },
            {
              "start": 43392,
              "duration": 95,
              "midi": 35,
              "velocity": 100
            },
            {
              "start": 43488,
              "duration": 95,
              "midi": 36,
              "velocity": 100
            },
            {
              "start": 43488,
              "duration": 95,
              "midi": 39,
              "velocity": 100
            },
            {
              "start": 43488,
              "duration": 95,
              "midi": 38,
              "velocity": 100
            },
            {
              "start": 43584,
              "duration": 95,
              "midi": 36,
              "velocity": 100
            },
            {
              "start": 43584,
              "duration": 95,
              "midi": 35,
              "velocity": 100
            },
            {
              "start": 43680,
              "duration": 95,
              "midi": 36,
              "velocity": 100
            },
            {
              "start": 43680,
              "duration": 95,
              "midi": 39,
              "velocity": 100
            },
            {
              "start": 43680,
              "duration": 95,
              "midi": 38,
              "velocity": 100
            },
            {
              "start": 43776,
              "duration": 95,
              "midi": 35,
              "velocity": 100
            },
            {
              "start": 43872,
              "duration": 95,
              "midi": 36,
              "velocity": 100
            },
            {
              "start": 43872,
              "duration": 95,
              "midi": 39,
              "velocity": 100
            },
            {
              "start": 43872,
              "duration": 95,
              "midi": 38,
              "velocity": 100
            },
            {
              "start": 43968,
              "duration": 95,
              "midi": 36,
              "velocity": 100
            },
            {
              "start": 43968,
              "duration": 95,
              "midi": 35,
              "velocity": 100
            },
            {
              "start": 44064,
              "duration": 95,
              "midi": 36,
              "velocity": 100
            },
            {
              "start": 44064,
              "duration": 95,
              "midi": 39,
              "velocity": 100
            },
            {
              "start": 44064,
              "duration": 95,
              "midi": 38,
              "velocity": 100
            },
            {
              "start": 44160,
              "duration": 95,
              "midi": 36,
              "velocity": 100
            },
            {
              "start": 44160,
              "duration": 95,
              "midi": 35,
              "velocity": 100
            },
            {
              "start": 44256,
              "duration": 95,
              "midi": 36,
              "velocity": 100
            },
            {
              "start": 44256,
              "duration": 95,
              "midi": 39,
              "velocity": 100
            },
            {
              "start": 44256,
              "duration": 95,
              "midi": 38,
              "velocity": 100
            },
            {
              "start": 44352,
              "duration": 95,
              "midi": 36,
              "velocity": 100
            },
            {
              "start": 44352,
              "duration": 95,
              "midi": 35,
              "velocity": 100
            },
            {
              "start": 44448,
              "duration": 95,
              "midi": 36,
              "velocity": 100
            },
            {
              "start": 44448,
              "duration": 95,
              "midi": 39,
              "velocity": 100
            },
            {
              "start": 44448,
              "duration": 95,
              "midi": 38,
              "velocity": 100
            },
            {
              "start": 44544,
              "duration": 95,
              "midi": 35,
              "velocity": 100
            },
            {
              "start": 44640,
              "duration": 95,
              "midi": 36,
              "velocity": 100
            },
            {
              "start": 44640,
              "duration": 95,
              "midi": 39,
              "velocity": 100
            },
            {
              "start": 44640,
              "duration": 95,
              "midi": 38,
              "velocity": 100
            },
            {
              "start": 44736,
              "duration": 95,
              "midi": 36,
              "velocity": 100
            },
            {
              "start": 44736,
              "duration": 95,
              "midi": 35,
              "velocity": 100
            },
            {
              "start": 44832,
              "duration": 95,
              "midi": 36,
              "velocity": 100
            },
            {
              "start": 44832,
              "duration": 95,
              "midi": 39,
              "velocity": 100
            },
            {
              "start": 44832,
              "duration": 95,
              "midi": 38,
              "velocity": 100
            },
            {
              "start": 44928,
              "duration": 95,
              "midi": 36,
              "velocity": 100
            },
            {
              "start": 44928,
              "duration": 95,
              "midi": 35,
              "velocity": 100
            },
            {
              "start": 45024,
              "duration": 95,
              "midi": 36,
              "velocity": 100
            },
            {
              "start": 45024,
              "duration": 95,
              "midi": 39,
              "velocity": 100
            },
            {
              "start": 45024,
              "duration": 95,
              "midi": 38,
              "velocity": 100
            },
            {
              "start": 45120,
              "duration": 95,
              "midi": 36,
              "velocity": 100
            },
            {
              "start": 45120,
              "duration": 95,
              "midi": 35,
              "velocity": 100
            },
            {
              "start": 45216,
              "duration": 95,
              "midi": 36,
              "velocity": 100
            },
            {
              "start": 45216,
              "duration": 95,
              "midi": 39,
              "velocity": 100
            },
            {
              "start": 45216,
              "duration": 95,
              "midi": 38,
              "velocity": 100
            },
            {
              "start": 45312,
              "duration": 95,
              "midi": 35,
              "velocity": 100
            },
            {
              "start": 45408,
              "duration": 95,
              "midi": 36,
              "velocity": 100
            },
            {
              "start": 45408,
              "duration": 95,
              "midi": 39,
              "velocity": 100
            },
            {
              "start": 45408,
              "duration": 95,
              "midi": 38,
              "velocity": 100
            },
            {
              "start": 45504,
              "duration": 95,
              "midi": 36,
              "velocity": 100
            },
            {
              "start": 45504,
              "duration": 95,
              "midi": 35,
              "velocity": 100
            },
            {
              "start": 45600,
              "duration": 95,
              "midi": 36,
              "velocity": 100
            },
            {
              "start": 45600,
              "duration": 95,
              "midi": 39,
              "velocity": 100
            },
            {
              "start": 45600,
              "duration": 95,
              "midi": 38,
              "velocity": 100
            },
            {
              "start": 45696,
              "duration": 95,
              "midi": 36,
              "velocity": 100
            },
            {
              "start": 45696,
              "duration": 95,
              "midi": 35,
              "velocity": 100
            },
            {
              "start": 45792,
              "duration": 95,
              "midi": 36,
              "velocity": 100
            },
            {
              "start": 45792,
              "duration": 95,
              "midi": 39,
              "velocity": 100
            },
            {
              "start": 45792,
              "duration": 95,
              "midi": 38,
              "velocity": 100
            },
            {
              "start": 45888,
              "duration": 95,
              "midi": 36,
              "velocity": 100
            },
            {
              "start": 45888,
              "duration": 95,
              "midi": 35,
              "velocity": 100
            },
            {
              "start": 45984,
              "duration": 95,
              "midi": 36,
              "velocity": 100
            },
            {
              "start": 45984,
              "duration": 95,
              "midi": 39,
              "velocity": 100
            },
            {
              "start": 45984,
              "duration": 95,
              "midi": 38,
              "velocity": 100
            },
            {
              "start": 46080,
              "duration": 95,
              "midi": 35,
              "velocity": 100
            },
            {
              "start": 46176,
              "duration": 95,
              "midi": 36,
              "velocity": 100
            },
            {
              "start": 46272,
              "duration": 95,
              "midi": 36,
              "velocity": 100
            },
            {
              "start": 46368,
              "duration": 95,
              "midi": 36,
              "velocity": 100
            },
            {
              "start": 46464,
              "duration": 95,
              "midi": 36,
              "velocity": 100
            },
            {
              "start": 46560,
              "duration": 95,
              "midi": 36,
              "velocity": 100
            },
            {
              "start": 46656,
              "duration": 95,
              "midi": 36,
              "velocity": 100
            },
            {
              "start": 46752,
              "duration": 95,
              "midi": 36,
              "velocity": 100
            },
            {
              "start": 46848,
              "duration": 95,
              "midi": 35,
              "velocity": 100
            },
            {
              "start": 46944,
              "duration": 95,
              "midi": 36,
              "velocity": 100
            },
            {
              "start": 47040,
              "duration": 95,
              "midi": 36,
              "velocity": 100
            },
            {
              "start": 47136,
              "duration": 95,
              "midi": 36,
              "velocity": 100
            },
            {
              "start": 47232,
              "duration": 95,
              "midi": 36,
              "velocity": 100
            },
            {
              "start": 47328,
              "duration": 95,
              "midi": 36,
              "velocity": 100
            },
            {
              "start": 47424,
              "duration": 95,
              "midi": 36,
              "velocity": 100
            },
            {
              "start": 47520,
              "duration": 95,
              "midi": 36,
              "velocity": 100
            },
            {
              "start": 47616,
              "duration": 95,
              "midi": 35,
              "velocity": 100
            },
            {
              "start": 47712,
              "duration": 95,
              "midi": 36,
              "velocity": 100
            },
            {
              "start": 47808,
              "duration": 95,
              "midi": 36,
              "velocity": 100
            },
            {
              "start": 47904,
              "duration": 95,
              "midi": 36,
              "velocity": 100
            },
            {
              "start": 48000,
              "duration": 95,
              "midi": 36,
              "velocity": 100
            },
            {
              "start": 48096,
              "duration": 95,
              "midi": 36,
              "velocity": 100
            },
            {
              "start": 48192,
              "duration": 95,
              "midi": 36,
              "velocity": 100
            },
            {
              "start": 48288,
              "duration": 95,
              "midi": 36,
              "velocity": 100
            },
            {
              "start": 48384,
              "duration": 95,
              "midi": 35,
              "velocity": 100
            },
            {
              "start": 48480,
              "duration": 95,
              "midi": 36,
              "velocity": 100
            },
            {
              "start": 48576,
              "duration": 95,
              "midi": 36,
              "velocity": 100
            },
            {
              "start": 48672,
              "duration": 95,
              "midi": 36,
              "velocity": 100
            },
            {
              "start": 48768,
              "duration": 95,
              "midi": 36,
              "velocity": 100
            },
            {
              "start": 48864,
              "duration": 95,
              "midi": 36,
              "velocity": 100
            },
            {
              "start": 48960,
              "duration": 95,
              "midi": 36,
              "velocity": 100
            },
            {
              "start": 49056,
              "duration": 95,
              "midi": 36,
              "velocity": 100
            },
            {
              "start": 49152,
              "duration": 95,
              "midi": 35,
              "velocity": 100
            },
            {
              "start": 49248,
              "duration": 95,
              "midi": 36,
              "velocity": 100
            },
            {
              "start": 49248,
              "duration": 95,
              "midi": 39,
              "velocity": 100
            },
            {
              "start": 49248,
              "duration": 95,
              "midi": 38,
              "velocity": 100
            },
            {
              "start": 49344,
              "duration": 95,
              "midi": 36,
              "velocity": 100
            },
            {
              "start": 49344,
              "duration": 95,
              "midi": 35,
              "velocity": 100
            },
            {
              "start": 49440,
              "duration": 95,
              "midi": 36,
              "velocity": 100
            },
            {
              "start": 49440,
              "duration": 95,
              "midi": 39,
              "velocity": 100
            },
            {
              "start": 49440,
              "duration": 95,
              "midi": 38,
              "velocity": 100
            },
            {
              "start": 49536,
              "duration": 95,
              "midi": 36,
              "velocity": 100
            },
            {
              "start": 49536,
              "duration": 95,
              "midi": 35,
              "velocity": 100
            },
            {
              "start": 49632,
              "duration": 95,
              "midi": 36,
              "velocity": 100
            },
            {
              "start": 49632,
              "duration": 95,
              "midi": 39,
              "velocity": 100
            },
            {
              "start": 49632,
              "duration": 95,
              "midi": 38,
              "velocity": 100
            },
            {
              "start": 49728,
              "duration": 95,
              "midi": 36,
              "velocity": 100
            },
            {
              "start": 49728,
              "duration": 95,
              "midi": 35,
              "velocity": 100
            },
            {
              "start": 49824,
              "duration": 95,
              "midi": 36,
              "velocity": 100
            },
            {
              "start": 49824,
              "duration": 95,
              "midi": 39,
              "velocity": 100
            },
            {
              "start": 49824,
              "duration": 95,
              "midi": 38,
              "velocity": 100
            },
            {
              "start": 49920,
              "duration": 95,
              "midi": 35,
              "velocity": 100
            },
            {
              "start": 50016,
              "duration": 95,
              "midi": 36,
              "velocity": 100
            },
            {
              "start": 50016,
              "duration": 95,
              "midi": 39,
              "velocity": 100
            },
            {
              "start": 50016,
              "duration": 95,
              "midi": 38,
              "velocity": 100
            },
            {
              "start": 50112,
              "duration": 95,
              "midi": 36,
              "velocity": 100
            },
            {
              "start": 50112,
              "duration": 95,
              "midi": 35,
              "velocity": 100
            },
            {
              "start": 50208,
              "duration": 95,
              "midi": 36,
              "velocity": 100
            },
            {
              "start": 50208,
              "duration": 95,
              "midi": 39,
              "velocity": 100
            },
            {
              "start": 50208,
              "duration": 95,
              "midi": 38,
              "velocity": 100
            },
            {
              "start": 50304,
              "duration": 95,
              "midi": 36,
              "velocity": 100
            },
            {
              "start": 50304,
              "duration": 95,
              "midi": 35,
              "velocity": 100
            },
            {
              "start": 50400,
              "duration": 95,
              "midi": 36,
              "velocity": 100
            },
            {
              "start": 50400,
              "duration": 95,
              "midi": 39,
              "velocity": 100
            },
            {
              "start": 50400,
              "duration": 95,
              "midi": 38,
              "velocity": 100
            },
            {
              "start": 50496,
              "duration": 95,
              "midi": 36,
              "velocity": 100
            },
            {
              "start": 50496,
              "duration": 95,
              "midi": 35,
              "velocity": 100
            },
            {
              "start": 50592,
              "duration": 95,
              "midi": 36,
              "velocity": 100
            },
            {
              "start": 50592,
              "duration": 95,
              "midi": 39,
              "velocity": 100
            },
            {
              "start": 50592,
              "duration": 95,
              "midi": 38,
              "velocity": 100
            },
            {
              "start": 50688,
              "duration": 95,
              "midi": 35,
              "velocity": 100
            },
            {
              "start": 50784,
              "duration": 95,
              "midi": 36,
              "velocity": 100
            },
            {
              "start": 50784,
              "duration": 95,
              "midi": 39,
              "velocity": 100
            },
            {
              "start": 50784,
              "duration": 95,
              "midi": 38,
              "velocity": 100
            },
            {
              "start": 50880,
              "duration": 95,
              "midi": 36,
              "velocity": 100
            },
            {
              "start": 50880,
              "duration": 95,
              "midi": 35,
              "velocity": 100
            },
            {
              "start": 50976,
              "duration": 95,
              "midi": 36,
              "velocity": 100
            },
            {
              "start": 50976,
              "duration": 95,
              "midi": 39,
              "velocity": 100
            },
            {
              "start": 50976,
              "duration": 95,
              "midi": 38,
              "velocity": 100
            },
            {
              "start": 51072,
              "duration": 95,
              "midi": 36,
              "velocity": 100
            },
            {
              "start": 51072,
              "duration": 95,
              "midi": 35,
              "velocity": 100
            },
            {
              "start": 51168,
              "duration": 95,
              "midi": 36,
              "velocity": 100
            },
            {
              "start": 51168,
              "duration": 95,
              "midi": 39,
              "velocity": 100
            },
            {
              "start": 51168,
              "duration": 95,
              "midi": 38,
              "velocity": 100
            },
            {
              "start": 51264,
              "duration": 95,
              "midi": 36,
              "velocity": 100
            },
            {
              "start": 51264,
              "duration": 95,
              "midi": 35,
              "velocity": 100
            },
            {
              "start": 51360,
              "duration": 95,
              "midi": 36,
              "velocity": 100
            },
            {
              "start": 51360,
              "duration": 95,
              "midi": 39,
              "velocity": 100
            },
            {
              "start": 51360,
              "duration": 95,
              "midi": 38,
              "velocity": 100
            },
            {
              "start": 51456,
              "duration": 95,
              "midi": 35,
              "velocity": 100
            },
            {
              "start": 51552,
              "duration": 95,
              "midi": 36,
              "velocity": 100
            },
            {
              "start": 51552,
              "duration": 95,
              "midi": 39,
              "velocity": 100
            },
            {
              "start": 51552,
              "duration": 95,
              "midi": 38,
              "velocity": 100
            },
            {
              "start": 51648,
              "duration": 95,
              "midi": 36,
              "velocity": 100
            },
            {
              "start": 51648,
              "duration": 95,
              "midi": 35,
              "velocity": 100
            },
            {
              "start": 51744,
              "duration": 95,
              "midi": 36,
              "velocity": 100
            },
            {
              "start": 51744,
              "duration": 95,
              "midi": 39,
              "velocity": 100
            },
            {
              "start": 51744,
              "duration": 95,
              "midi": 38,
              "velocity": 100
            },
            {
              "start": 51840,
              "duration": 95,
              "midi": 36,
              "velocity": 100
            },
            {
              "start": 51840,
              "duration": 95,
              "midi": 35,
              "velocity": 100
            },
            {
              "start": 51936,
              "duration": 95,
              "midi": 36,
              "velocity": 100
            },
            {
              "start": 51936,
              "duration": 95,
              "midi": 39,
              "velocity": 100
            },
            {
              "start": 51936,
              "duration": 95,
              "midi": 38,
              "velocity": 100
            },
            {
              "start": 52032,
              "duration": 95,
              "midi": 36,
              "velocity": 100
            },
            {
              "start": 52032,
              "duration": 95,
              "midi": 35,
              "velocity": 100
            },
            {
              "start": 52128,
              "duration": 95,
              "midi": 36,
              "velocity": 100
            },
            {
              "start": 52128,
              "duration": 95,
              "midi": 39,
              "velocity": 100
            },
            {
              "start": 52128,
              "duration": 95,
              "midi": 38,
              "velocity": 100
            },
            {
              "start": 52224,
              "duration": 95,
              "midi": 35,
              "velocity": 100
            },
            {
              "start": 52320,
              "duration": 95,
              "midi": 36,
              "velocity": 100
            },
            {
              "start": 52320,
              "duration": 95,
              "midi": 39,
              "velocity": 100
            },
            {
              "start": 52320,
              "duration": 95,
              "midi": 38,
              "velocity": 100
            },
            {
              "start": 52416,
              "duration": 95,
              "midi": 36,
              "velocity": 100
            },
            {
              "start": 52416,
              "duration": 95,
              "midi": 35,
              "velocity": 100
            },
            {
              "start": 52512,
              "duration": 95,
              "midi": 36,
              "velocity": 100
            },
            {
              "start": 52512,
              "duration": 95,
              "midi": 39,
              "velocity": 100
            },
            {
              "start": 52512,
              "duration": 95,
              "midi": 38,
              "velocity": 100
            },
            {
              "start": 52608,
              "duration": 95,
              "midi": 36,
              "velocity": 100
            },
            {
              "start": 52608,
              "duration": 95,
              "midi": 35,
              "velocity": 100
            },
            {
              "start": 52704,
              "duration": 95,
              "midi": 36,
              "velocity": 100
            },
            {
              "start": 52704,
              "duration": 95,
              "midi": 39,
              "velocity": 100
            },
            {
              "start": 52704,
              "duration": 95,
              "midi": 38,
              "velocity": 100
            },
            {
              "start": 52800,
              "duration": 95,
              "midi": 36,
              "velocity": 100
            },
            {
              "start": 52800,
              "duration": 95,
              "midi": 35,
              "velocity": 100
            },
            {
              "start": 52896,
              "duration": 95,
              "midi": 36,
              "velocity": 100
            },
            {
              "start": 52896,
              "duration": 95,
              "midi": 39,
              "velocity": 100
            },
            {
              "start": 52896,
              "duration": 95,
              "midi": 38,
              "velocity": 100
            },
            {
              "start": 52992,
              "duration": 95,
              "midi": 35,
              "velocity": 100
            },
            {
              "start": 53088,
              "duration": 95,
              "midi": 36,
              "velocity": 100
            },
            {
              "start": 53088,
              "duration": 95,
              "midi": 39,
              "velocity": 100
            },
            {
              "start": 53088,
              "duration": 95,
              "midi": 38,
              "velocity": 100
            },
            {
              "start": 53184,
              "duration": 95,
              "midi": 36,
              "velocity": 100
            },
            {
              "start": 53184,
              "duration": 95,
              "midi": 35,
              "velocity": 100
            },
            {
              "start": 53280,
              "duration": 95,
              "midi": 36,
              "velocity": 100
            },
            {
              "start": 53280,
              "duration": 95,
              "midi": 39,
              "velocity": 100
            },
            {
              "start": 53280,
              "duration": 95,
              "midi": 38,
              "velocity": 100
            },
            {
              "start": 53376,
              "duration": 95,
              "midi": 36,
              "velocity": 100
            },
            {
              "start": 53376,
              "duration": 95,
              "midi": 35,
              "velocity": 100
            },
            {
              "start": 53472,
              "duration": 95,
              "midi": 36,
              "velocity": 100
            },
            {
              "start": 53472,
              "duration": 95,
              "midi": 39,
              "velocity": 100
            },
            {
              "start": 53472,
              "duration": 95,
              "midi": 38,
              "velocity": 100
            },
            {
              "start": 53568,
              "duration": 95,
              "midi": 36,
              "velocity": 100
            },
            {
              "start": 53568,
              "duration": 95,
              "midi": 35,
              "velocity": 100
            },
            {
              "start": 53664,
              "duration": 95,
              "midi": 36,
              "velocity": 100
            },
            {
              "start": 53664,
              "duration": 95,
              "midi": 39,
              "velocity": 100
            },
            {
              "start": 53664,
              "duration": 95,
              "midi": 38,
              "velocity": 100
            },
            {
              "start": 53760,
              "duration": 95,
              "midi": 35,
              "velocity": 100
            },
            {
              "start": 53856,
              "duration": 95,
              "midi": 36,
              "velocity": 100
            },
            {
              "start": 53856,
              "duration": 95,
              "midi": 39,
              "velocity": 100
            },
            {
              "start": 53856,
              "duration": 95,
              "midi": 38,
              "velocity": 100
            },
            {
              "start": 53952,
              "duration": 95,
              "midi": 36,
              "velocity": 100
            },
            {
              "start": 53952,
              "duration": 95,
              "midi": 35,
              "velocity": 100
            },
            {
              "start": 54048,
              "duration": 95,
              "midi": 36,
              "velocity": 100
            },
            {
              "start": 54048,
              "duration": 95,
              "midi": 39,
              "velocity": 100
            },
            {
              "start": 54048,
              "duration": 95,
              "midi": 38,
              "velocity": 100
            },
            {
              "start": 54144,
              "duration": 95,
              "midi": 36,
              "velocity": 87
            },
            {
              "start": 54144,
              "duration": 95,
              "midi": 35,
              "velocity": 87
            },
            {
              "start": 54240,
              "duration": 95,
              "midi": 36,
              "velocity": 87
            },
            {
              "start": 54240,
              "duration": 95,
              "midi": 39,
              "velocity": 87
            },
            {
              "start": 54240,
              "duration": 95,
              "midi": 38,
              "velocity": 87
            },
            {
              "start": 54336,
              "duration": 95,
              "midi": 36,
              "velocity": 87
            },
            {
              "start": 54336,
              "duration": 95,
              "midi": 35,
              "velocity": 87
            },
            {
              "start": 54432,
              "duration": 95,
              "midi": 36,
              "velocity": 87
            },
            {
              "start": 54432,
              "duration": 95,
              "midi": 39,
              "velocity": 87
            },
            {
              "start": 54432,
              "duration": 95,
              "midi": 38,
              "velocity": 87
            },
            {
              "start": 54528,
              "duration": 95,
              "midi": 35,
              "velocity": 87
            },
            {
              "start": 54624,
              "duration": 95,
              "midi": 36,
              "velocity": 87
            },
            {
              "start": 54624,
              "duration": 95,
              "midi": 39,
              "velocity": 87
            },
            {
              "start": 54624,
              "duration": 95,
              "midi": 38,
              "velocity": 87
            },
            {
              "start": 54720,
              "duration": 95,
              "midi": 36,
              "velocity": 87
            },
            {
              "start": 54720,
              "duration": 95,
              "midi": 35,
              "velocity": 87
            },
            {
              "start": 54816,
              "duration": 95,
              "midi": 36,
              "velocity": 87
            },
            {
              "start": 54816,
              "duration": 95,
              "midi": 39,
              "velocity": 87
            },
            {
              "start": 54816,
              "duration": 95,
              "midi": 38,
              "velocity": 87
            },
            {
              "start": 54912,
              "duration": 95,
              "midi": 36,
              "velocity": 70
            },
            {
              "start": 54912,
              "duration": 95,
              "midi": 35,
              "velocity": 70
            },
            {
              "start": 55008,
              "duration": 95,
              "midi": 36,
              "velocity": 70
            },
            {
              "start": 55008,
              "duration": 95,
              "midi": 39,
              "velocity": 70
            },
            {
              "start": 55008,
              "duration": 95,
              "midi": 38,
              "velocity": 70
            },
            {
              "start": 55104,
              "duration": 95,
              "midi": 36,
              "velocity": 70
            },
            {
              "start": 55104,
              "duration": 95,
              "midi": 35,
              "velocity": 70
            },
            {
              "start": 55200,
              "duration": 95,
              "midi": 36,
              "velocity": 70
            },
            {
              "start": 55200,
              "duration": 95,
              "midi": 39,
              "velocity": 70
            },
            {
              "start": 55200,
              "duration": 95,
              "midi": 38,
              "velocity": 70
            },
            {
              "start": 55296,
              "duration": 95,
              "midi": 35,
              "velocity": 70
            },
            {
              "start": 55392,
              "duration": 95,
              "midi": 36,
              "velocity": 70
            },
            {
              "start": 55392,
              "duration": 95,
              "midi": 39,
              "velocity": 70
            },
            {
              "start": 55392,
              "duration": 95,
              "midi": 38,
              "velocity": 70
            },
            {
              "start": 55488,
              "duration": 95,
              "midi": 36,
              "velocity": 70
            },
            {
              "start": 55488,
              "duration": 95,
              "midi": 35,
              "velocity": 70
            },
            {
              "start": 55584,
              "duration": 95,
              "midi": 36,
              "velocity": 70
            },
            {
              "start": 55584,
              "duration": 95,
              "midi": 39,
              "velocity": 70
            },
            {
              "start": 55584,
              "duration": 95,
              "midi": 38,
              "velocity": 70
            },
            {
              "start": 55680,
              "duration": 95,
              "midi": 36,
              "velocity": 70
            },
            {
              "start": 55680,
              "duration": 95,
              "midi": 35,
              "velocity": 70
            },
            {
              "start": 55776,
              "duration": 95,
              "midi": 36,
              "velocity": 70
            },
            {
              "start": 55776,
              "duration": 95,
              "midi": 39,
              "velocity": 70
            },
            {
              "start": 55776,
              "duration": 95,
              "midi": 38,
              "velocity": 70
            },
            {
              "start": 55872,
              "duration": 95,
              "midi": 36,
              "velocity": 70
            },
            {
              "start": 55872,
              "duration": 95,
              "midi": 35,
              "velocity": 70
            },
            {
              "start": 55968,
              "duration": 95,
              "midi": 36,
              "velocity": 70
            },
            {
              "start": 55968,
              "duration": 95,
              "midi": 39,
              "velocity": 70
            },
            {
              "start": 55968,
              "duration": 95,
              "midi": 38,
              "velocity": 70
            },
            {
              "start": 56064,
              "duration": 95,
              "midi": 35,
              "velocity": 45
            },
            {
              "start": 56160,
              "duration": 95,
              "midi": 36,
              "velocity": 45
            },
            {
              "start": 56160,
              "duration": 95,
              "midi": 39,
              "velocity": 45
            },
            {
              "start": 56160,
              "duration": 95,
              "midi": 38,
              "velocity": 45
            },
            {
              "start": 56256,
              "duration": 95,
              "midi": 36,
              "velocity": 45
            },
            {
              "start": 56256,
              "duration": 95,
              "midi": 35,
              "velocity": 45
            },
            {
              "start": 56352,
              "duration": 95,
              "midi": 36,
              "velocity": 45
            },
            {
              "start": 56352,
              "duration": 95,
              "midi": 39,
              "velocity": 45
            },
            {
              "start": 56352,
              "duration": 95,
              "midi": 38,
              "velocity": 45
            },
            {
              "start": 56448,
              "duration": 95,
              "midi": 36,
              "velocity": 45
            },
            {
              "start": 56448,
              "duration": 95,
              "midi": 35,
              "velocity": 45
            },
            {
              "start": 56544,
              "duration": 95,
              "midi": 36,
              "velocity": 45
            },
            {
              "start": 56544,
              "duration": 95,
              "midi": 39,
              "velocity": 45
            },
            {
              "start": 56544,
              "duration": 95,
              "midi": 38,
              "velocity": 45
            },
            {
              "start": 56640,
              "duration": 95,
              "midi": 36,
              "velocity": 45
            },
            {
              "start": 56640,
              "duration": 95,
              "midi": 35,
              "velocity": 45
            },
            {
              "start": 56736,
              "duration": 95,
              "midi": 36,
              "velocity": 45
            },
            {
              "start": 56736,
              "duration": 95,
              "midi": 39,
              "velocity": 45
            },
            {
              "start": 56736,
              "duration": 95,
              "midi": 38,
              "velocity": 45
            },
            {
              "start": 56832,
              "duration": 95,
              "midi": 35,
              "velocity": 33
            },
            {
              "start": 56928,
              "duration": 95,
              "midi": 36,
              "velocity": 33
            },
            {
              "start": 56928,
              "duration": 95,
              "midi": 39,
              "velocity": 33
            },
            {
              "start": 56928,
              "duration": 95,
              "midi": 38,
              "velocity": 33
            },
            {
              "start": 57024,
              "duration": 95,
              "midi": 36,
              "velocity": 33
            },
            {
              "start": 57024,
              "duration": 95,
              "midi": 35,
              "velocity": 33
            },
            {
              "start": 57120,
              "duration": 95,
              "midi": 36,
              "velocity": 33
            },
            {
              "start": 57120,
              "duration": 95,
              "midi": 39,
              "velocity": 33
            },
            {
              "start": 57120,
              "duration": 95,
              "midi": 38,
              "velocity": 33
            },
            {
              "start": 57216,
              "duration": 95,
              "midi": 36,
              "velocity": 33
            },
            {
              "start": 57216,
              "duration": 95,
              "midi": 35,
              "velocity": 33
            },
            {
              "start": 57312,
              "duration": 95,
              "midi": 36,
              "velocity": 33
            },
            {
              "start": 57312,
              "duration": 95,
              "midi": 39,
              "velocity": 33
            },
            {
              "start": 57312,
              "duration": 95,
              "midi": 38,
              "velocity": 33
            },
            {
              "start": 57408,
              "duration": 95,
              "midi": 36,
              "velocity": 33
            },
            {
              "start": 57408,
              "duration": 95,
              "midi": 35,
              "velocity": 33
            },
            {
              "start": 57504,
              "duration": 95,
              "midi": 36,
              "velocity": 33
            },
            {
              "start": 57504,
              "duration": 95,
              "midi": 39,
              "velocity": 33
            },
            {
              "start": 57504,
              "duration": 95,
              "midi": 38,
              "velocity": 33
            },
            {
              "start": 57600,
              "duration": 95,
              "midi": 35,
              "velocity": 23
            },
            {
              "start": 57696,
              "duration": 95,
              "midi": 36,
              "velocity": 23
            },
            {
              "start": 57696,
              "duration": 95,
              "midi": 39,
              "velocity": 23
            },
            {
              "start": 57696,
              "duration": 95,
              "midi": 38,
              "velocity": 23
            },
            {
              "start": 57792,
              "duration": 95,
              "midi": 36,
              "velocity": 23
            },
            {
              "start": 57792,
              "duration": 95,
              "midi": 35,
              "velocity": 23
            },
            {
              "start": 57888,
              "duration": 95,
              "midi": 36,
              "velocity": 23
            },
            {
              "start": 57888,
              "duration": 95,
              "midi": 39,
              "velocity": 23
            },
            {
              "start": 57888,
              "duration": 95,
              "midi": 38,
              "velocity": 23
            },
            {
              "start": 57984,
              "duration": 95,
              "midi": 36,
              "velocity": 23
            },
            {
              "start": 57984,
              "duration": 95,
              "midi": 35,
              "velocity": 23
            },
            {
              "start": 58080,
              "duration": 95,
              "midi": 36,
              "velocity": 23
            },
            {
              "start": 58080,
              "duration": 95,
              "midi": 39,
              "velocity": 23
            },
            {
              "start": 58080,
              "duration": 95,
              "midi": 38,
              "velocity": 23
            },
            {
              "start": 58176,
              "duration": 95,
              "midi": 36,
              "velocity": 23
            },
            {
              "start": 58176,
              "duration": 95,
              "midi": 35,
              "velocity": 23
            },
            {
              "start": 58272,
              "duration": 95,
              "midi": 36,
              "velocity": 23
            },
            {
              "start": 58272,
              "duration": 95,
              "midi": 39,
              "velocity": 23
            },
            {
              "start": 58272,
              "duration": 95,
              "midi": 38,
              "velocity": 23
            }
          ]
        }
      ],
      "enginePresetName": "factory:KIT TR-808"
    }
  ],
  "scenes": [
    {
      "id": "scene-mpr2auvs-i",
      "name": "MIDI Import",
      "clipPerLane": {
        "lane-mpr2auvs-2": 0,
        "lane-mpr2auvs-4": 0,
        "lane-mpr2auvs-6": 0,
        "lane-mpr2auvs-8": 0,
        "lane-mpr2auvs-a": 0,
        "lane-mpr2auvs-c": 0,
        "lane-mpr2auvs-e": 0,
        "lane-mpr2auvs-g": 0,
        "lane-drums-sweet-dreams": 0
      },
      "presetPerLane": {
        "lane-mpr2auvs-2": "factory:VOX Ooh",
        "lane-mpr2auvs-4": "factory:STRINGS Ensemble",
        "lane-mpr2auvs-6": "factory:STRINGS Ensemble",
        "lane-mpr2auvs-8": "factory:PAD Choir Aah",
        "lane-mpr2auvs-a": "factory:PAD Sweep Wide",
        "lane-mpr2auvs-c": "factory:KEY E.Piano",
        "lane-mpr2auvs-e": "factory:LEAD Square",
        "lane-mpr2auvs-g": "factory:BASS Reese",
        "lane-drums-sweet-dreams": "factory:KIT TR-808"
      }
    }
  ],
  "globalQuantize": "1/1"
}